<?xml version="1.0" standalone="no"?>
<!DOCTYPE svg PUBLIC "-//W3C//DTD SVG 1.1//EN" "http://www.w3.org/Graphics/SVG/1.1/DTD/svg11.dtd" >
<svg xmlns="http://www.w3.org/2000/svg">
<metadata></metadata>
<defs>
<font id="tisasanscomppro-italicregular" horiz-adv-x="1167" >
<font-face units-per-em="2048" ascent="1493" descent="-555" />
<missing-glyph horiz-adv-x="348" />
<glyph unicode="&#xfb01;" horiz-adv-x="1087" d="M147 834q0 39 9.5 83t23.5 70h127l15 119q27 233 140 337.5t296 104.5q74 0 128 -15t105 -50q23 -29 29 -78t-2 -90q-55 39 -114.5 60.5t-137.5 21.5q-53 0 -100.5 -12.5t-85 -44t-63 -89t-34.5 -147.5l-12 -117h234q4 -8 8 -22.5t4 -40.5q0 -31 -5 -53.5t-14 -36.5h-243 l-127 -1143q-23 -14 -88 -15q-66 0 -88 15l137 1143h-142zM741 145q0 39 7 82l96 752q14 8 32.5 11t49.5 3q59 0 80 -14l-84 -746q-4 -39 -1 -61t12 -34.5t24.5 -15.5t35.5 -3q29 0 49.5 8t38.5 18q6 -39 -5 -85t-32 -68q-23 -16 -52 -24.5t-72 -8.5q-104 0 -141.5 51 t-37.5 135z" />
<glyph unicode="&#xfb02;" horiz-adv-x="1116" d="M147 834q0 39 9.5 83t23.5 70h127l12 111q14 133 55.5 220t99.5 138t132 71.5t154 20.5q98 0 173 -25.5t140 -78.5l-139 -1211q-10 -74 12.5 -94t63.5 -20q37 0 62.5 9t47.5 24q6 -39 -5 -85.5t-32 -68.5q-59 -39 -143 -39q-86 0 -136 42t-50 140q0 16 2 43t4 43 l145 1131q-33 23 -68.5 31t-78.5 8q-47 0 -91 -11.5t-82 -44t-64.5 -89t-37.5 -148.5l-12 -117h225q4 -8 8.5 -22.5t4.5 -40.5q0 -31 -5.5 -53.5t-13.5 -36.5h-235l-127 -1143q-23 -14 -88 -15q-66 0 -88 15l137 1143h-142z" />
<glyph unicode="&#xfb03;" horiz-adv-x="1660" d="M150 834q0 39 9 83t23 70h127l21 168q12 106 41.5 176t71.5 110t95.5 55t114.5 15q41 0 85 -8t79 -35q20 -31 25.5 -79t-4.5 -89q-39 33 -77 45.5t-81 12.5q-96 0 -136 -51.5t-50 -145.5l-21 -174h408l14 119q27 233 140.5 337.5t295.5 104.5q74 0 128 -15t106 -50 q23 -29 28.5 -78t-2.5 -90q-55 39 -114.5 60.5t-137.5 21.5q-53 0 -100 -12.5t-85 -44t-63.5 -89t-33.5 -147.5l-13 -117h234q4 -8 8 -22.5t4 -40.5q0 -31 -5 -53.5t-13 -36.5h-244l-127 -1143q-23 -14 -88 -15q-66 0 -88 15l137 1143h-405l-92 -826q-23 -14 -89 -14 q-63 0 -86 14l101 826h-141zM1315 145q0 39 6 82l96 752q14 8 32.5 11t49.5 3q59 0 80 -14l-84 -746q-4 -39 -1 -61t12.5 -34.5t24.5 -15.5t36 -3q29 0 49 8t39 18q6 -39 -5.5 -85t-31.5 -68q-23 -16 -52.5 -24.5t-72.5 -8.5q-104 0 -141 51t-37 135z" />
<glyph unicode="&#xfb04;" horiz-adv-x="1689" d="M150 834q0 39 9 83t23 70h127l21 168q12 106 41.5 176t71.5 110t95.5 55t114.5 15q41 0 85 -8t79 -35q20 -31 25.5 -79t-4.5 -89q-39 33 -77 45.5t-81 12.5q-96 0 -136 -51.5t-50 -145.5l-21 -174h408l12 111q14 133 55 220t99.5 138t132 71.5t153.5 20.5q98 0 173 -25.5 t141 -78.5l-140 -1211q-10 -74 12.5 -94t63.5 -20q37 0 62.5 9t48.5 24q6 -39 -5.5 -85.5t-31.5 -68.5q-59 -39 -144 -39q-86 0 -136 42t-50 140q0 16 2 43t4 43l146 1131q-33 23 -69 31t-79 8q-47 0 -91 -11.5t-82 -44t-64.5 -89t-36.5 -148.5l-13 -117h226q4 -8 8 -22.5 t4 -40.5q0 -31 -5 -53.5t-13 -36.5h-236l-127 -1143q-23 -14 -88 -15q-66 0 -88 15l137 1143h-405l-92 -826q-23 -14 -89 -14q-63 0 -86 14l101 826h-141z" />
<glyph horiz-adv-x="0" />
<glyph unicode="&#xd;" horiz-adv-x="348" />
<glyph unicode=" "  horiz-adv-x="348" />
<glyph unicode="&#x09;" horiz-adv-x="348" />
<glyph unicode="&#xa0;" horiz-adv-x="348" />
<glyph unicode="!" horiz-adv-x="555" d="M174 82q0 57 33 90t88 33q47 0 77.5 -27.5t30.5 -85.5q0 -55 -34.5 -89t-87.5 -34q-47 0 -77 29t-30 84zM252 422l92 987q16 10 42 16.5t60 6.5q53 0 82 -13l-129 -997q-23 -12 -73 -12q-53 0 -74 12z" />
<glyph unicode="&#x22;" d="M305 920q27 111 47.5 231.5t32.5 228.5q43 0 82 -7t72 -23q-6 -47 -16.5 -105.5t-25 -121t-31 -123t-32.5 -109.5q-84 0 -129 29zM688 920q27 111 47.5 231.5t32.5 228.5q43 0 82 -7t72 -23q-6 -47 -16.5 -105.5t-25 -121t-31 -123t-32.5 -109.5q-84 0 -129 29z" />
<glyph unicode="#" d="M100 418q0 35 11.5 66.5t25.5 54.5h180l99 354h-185q0 35 11.5 66.5t25.5 54.5h183l96 346q51 27 139 26l-98 -372h323l95 346q51 27 139 26l-94 -372h174q8 -12 8 -49q0 -25 -6 -43.5t-13 -28.5h-196l-88 -354h178q8 -12 8 -50q0 -25 -6 -43t-12 -28h-199l-104 -408 q-23 -14 -80 -14q-59 0 -74 14l111 408h-322l-108 -408q-23 -14 -80 -14q-59 0 -74 14l115 408h-183zM463 539h321l95 354h-324z" />
<glyph unicode="$" d="M150 225q72 -49 178 -82.5t229 -33.5q70 0 131.5 13t105.5 44t69.5 81t25.5 124q0 86 -44 137t-110.5 86t-144.5 63.5t-144.5 73.5t-110.5 113.5t-44 183.5q0 166 97 268.5t278 118.5l18 150q59 20 141 20l-20 -170q72 -6 131 -28.5t108 -57.5q20 -29 29.5 -82t3.5 -96 q-66 51 -146.5 85t-191.5 34q-61 0 -112.5 -12.5t-88 -39t-58 -68.5t-21.5 -103q0 -84 45 -133.5t111.5 -83t145.5 -63.5t145.5 -75t111.5 -116.5t45 -190.5q0 -188 -108.5 -298t-319.5 -130l-21 -193q-23 -12 -77 -12q-31 0 -48.5 3t-27.5 9l22 191q-94 4 -168.5 27.5 t-126.5 52.5q-27 35 -35.5 89t-2.5 101z" />
<glyph unicode="%" horiz-adv-x="1843" d="M233 987q0 80 20.5 157t63.5 137t110 97t161 37q133 0 208.5 -82t75.5 -241q0 -76 -19 -152t-62 -137.5t-111 -99t-162 -37.5q-139 0 -212 84t-73 237zM375 997q0 -98 39 -151t114 -53q55 0 94.5 28.5t64 71.5t34.5 94t10 98q0 96 -40 150.5t-118 54.5q-55 0 -93 -27.5 t-61.5 -70.5t-33.5 -95.5t-10 -99.5zM403 27l1080 1400q82 0 137 -43l-1100 -1447q-41 10 -71.5 32.5t-45.5 57.5zM1130 274q0 80 20.5 157t63.5 137.5t110 97t161 36.5q133 0 208.5 -81.5t75.5 -241.5q0 -76 -19 -151.5t-62 -137t-111 -99.5t-162 -38q-139 0 -212 84 t-73 237zM1272 285q0 -98 39 -151.5t114 -53.5q55 0 94.5 28.5t64 71.5t34.5 94.5t10 98.5q0 96 -40 150.5t-118 54.5q-55 0 -93 -28t-61.5 -71t-33.5 -95t-10 -99z" />
<glyph unicode="&#x26;" horiz-adv-x="1359" d="M111 326q0 76 22.5 146.5t67.5 127.5t109.5 99t148.5 63v10q-72 45 -114 114.5t-42 168.5q0 82 29.5 148.5t81 114.5t122 74.5t154.5 26.5q63 0 122.5 -16.5t106 -53t75 -94t28.5 -139.5q0 -127 -70.5 -226t-199.5 -140v-11q88 -63 163.5 -130.5t147.5 -151.5 q43 70 70.5 159t40.5 187q33 16 77 23.5t97 7.5q-18 -133 -62.5 -267.5t-116.5 -238.5q53 -72 98.5 -148t86.5 -164q-20 -14 -51 -22t-68 -8q-23 0 -42 3t-28 7q-25 47 -52.5 96t-61.5 96q-41 -51 -91.5 -94t-111 -74.5t-132 -49t-157.5 -17.5t-166 19.5t-143.5 63.5 t-101 114.5t-37.5 175.5zM289 352q0 -70 23.5 -117t63.5 -75.5t91 -41t108 -12.5q131 0 220.5 57.5t165.5 153.5q-82 106 -178.5 195.5t-209.5 161.5q-59 -18 -110 -46t-90 -67t-61.5 -91t-22.5 -118zM465 1061q0 -45 12 -78t33.5 -59.5t52.5 -49t70 -45.5q47 16 89 40 t73.5 56.5t50 75.5t18.5 97q0 51 -15 85t-41 55.5t-58.5 30.5t-67.5 9q-92 0 -154.5 -56.5t-62.5 -160.5z" />
<glyph unicode="'" horiz-adv-x="716" d="M315 920q27 111 47.5 231.5t32.5 228.5q43 0 82 -7t72 -23q-6 -47 -16.5 -105.5t-24.5 -121t-31 -123t-33 -109.5q-84 0 -129 29z" />
<glyph unicode="(" horiz-adv-x="579" d="M182 406q0 332 104.5 625.5t321.5 565.5q76 -20 107 -90q-176 -236 -271.5 -508t-95.5 -583q0 -223 48 -411.5t139 -362.5q-25 -37 -64 -61t-82 -32q-111 207 -159 421t-48 436z" />
<glyph unicode=")" horiz-adv-x="579" d="M-33 -360q96 125 170 252.5t124 265t75.5 287t25.5 317.5q0 231 -43 410.5t-114 332.5q18 35 53 60.5t76 36.5q102 -203 148 -409t46 -427q0 -176 -27.5 -336t-83 -308.5t-137 -290.5t-190.5 -286q-43 10 -75 35t-48 60z" />
<glyph unicode="*" horiz-adv-x="778" d="M166 1024l196 100q14 6 39 11.5t43 7.5v8q-20 4 -41.5 13.5t-31.5 15.5l-164 98q6 29 19.5 60.5t35.5 58.5l170 -119q16 -12 29.5 -26.5t25.5 -34.5l7 4q-14 51 -11 88l19 209q41 16 121 16l-33 -223q-6 -47 -31 -92l6 -5q31 39 70 66l178 113q20 -20 37.5 -47t30.5 -62 l-201 -106q-16 -8 -41 -14.5t-49 -10.5v-8q18 -4 39.5 -11.5t38.5 -17.5l174 -102q-4 -35 -24.5 -65.5t-45.5 -47.5l-170 121q-14 12 -26.5 27.5t-22.5 31.5l-8 -4q4 -16 7 -41.5t3 -44.5l-14 -219q-20 -10 -68 -10q-43 0 -63 10l39 225q4 20 11 40t15 36l-8 6 q-10 -16 -26.5 -32.5t-32.5 -26.5l-187 -121q-23 18 -39 53t-16 72z" />
<glyph unicode="+" d="M145 475q0 37 7.5 85t19.5 75h387v389q33 14 76 20.5t92 6.5v-416h399q12 -25 13 -80q0 -55 -13 -80h-399v-403q-25 -14 -84 -15q-59 0 -84 15v403h-414z" />
<glyph unicode="," horiz-adv-x="716" d="M143 -266q109 185 138 418q37 16 74.5 23t103.5 7q-10 -72 -29.5 -145.5t-44.5 -142t-55.5 -129t-61.5 -103.5q-90 12 -125 72z" />
<glyph unicode="-" horiz-adv-x="638" d="M133 479q0 39 9.5 85t25.5 75h453q4 -8 8 -24.5t4 -39.5q0 -31 -6 -57t-15 -39h-479z" />
<glyph unicode="." horiz-adv-x="716" d="M229 84q0 59 33 92t90 33q47 0 79 -27.5t32 -87.5q0 -57 -35 -91t-90 -34q-47 0 -78 29t-31 86z" />
<glyph unicode="/" horiz-adv-x="794" d="M-23 -297l828 1817q84 0 135 -39l-821 -1846q-41 0 -83 19.5t-59 48.5z" />
<glyph unicode="0" d="M160 553q0 150 30.5 304.5t98 279.5t176 203.5t266.5 78.5q205 0 320.5 -149.5t115.5 -452.5q0 -88 -11 -186.5t-37.5 -193.5t-70.5 -183t-107.5 -154.5t-149.5 -106.5t-199 -40q-211 0 -321.5 149.5t-110.5 450.5zM336 563q0 -217 70.5 -332.5t201.5 -115.5 q106 0 180 70.5t119 176t64.5 227.5t19.5 226q0 215 -70.5 332t-205.5 117q-109 0 -181.5 -71t-116.5 -176.5t-62.5 -228t-18.5 -225.5z" />
<glyph unicode="1" d="M197 0q0 37 10 82t22 76h330l121 1059l-344 -66q4 41 17.5 82t29.5 70q33 12 89 27.5t121.5 30.5t136.5 27.5t136 18.5l-131 -1249h320q4 -10 8 -24.5t4 -43.5t-5 -52.5t-13 -37.5h-852z" />
<glyph unicode="2" d="M147 164q68 57 153 120.5t173 132t171 141.5t147.5 150.5t103.5 158.5t39 167q0 115 -70.5 169t-197.5 54q-193 0 -361 -135q-4 16 -1 41t9 50.5t16.5 50.5t24.5 43q53 43 144.5 77.5t216.5 34.5q178 0 287.5 -87t109.5 -265q0 -145 -69.5 -273t-176 -239t-233.5 -204 t-244 -171v-10h668q10 -20 10 -68q0 -33 -5 -60.5t-15 -41.5h-871q-29 59 -29 164z" />
<glyph unicode="3" d="M155.5 98.5q-10.5 53.5 0.5 96.5q63 -35 157.5 -56.5t198.5 -21.5q76 0 144.5 14t120.5 46t82 82t30 122q0 129 -103.5 187.5t-330.5 58.5h-33q-10 29 -9 76t17 75h41q76 0 156 12.5t146.5 44t108.5 86t42 140.5q0 57 -21.5 97t-56.5 63.5t-82 34t-98 10.5 q-96 0 -182.5 -28t-151.5 -71q-6 35 8 88.5t43 85.5q53 35 141 56.5t189 21.5q176 0 282.5 -79.5t106.5 -249.5q0 -147 -82 -246t-240 -123v-10q57 -10 110.5 -32t94.5 -60.5t65.5 -97t24.5 -144.5q0 -104 -40 -184t-113.5 -133.5t-176 -80t-227.5 -26.5q-94 0 -181 14.5 t-142 38.5q-29 39 -39.5 92.5z" />
<glyph unicode="4" d="M133 522l707 873q131 0 227 -45l-86 -828h164q4 -8 8 -25.5t4 -41.5q0 -29 -5 -51.5t-13 -36.5h-176l-37 -357q-27 -14 -92 -14q-63 0 -86 14l40 357h-630q-14 31 -19.5 68.5t-5.5 86.5zM324 510q27 4 54.5 7t70.5 3h360l59 529q12 111 33 188h-12l-565 -717v-10z" />
<glyph unicode="5" d="M162 188q51 -31 146 -52t198 -21q84 0 156.5 17.5t127 55t85 98t30.5 144.5q0 135 -83 195.5t-257 60.5q-145 0 -286 -45l137 731h760q0 -43 -7.5 -86t-19.5 -76h-612l-72 -395q35 14 89 20.5t105 6.5q203 0 315.5 -96.5t112.5 -303.5q0 -240 -153.5 -364.5 t-435.5 -124.5q-102 0 -178 14.5t-121 34.5q-27 41 -35 90t-2 96z" />
<glyph unicode="6" d="M190 492q0 164 41 329.5t126 298.5t216.5 216t311.5 83q61 0 118.5 -11t104.5 -38q23 -29 34 -83t3 -97q-53 37 -120 55.5t-134 18.5q-195 0 -331 -147.5t-179 -428.5h10q45 80 129 130t219 50q199 0 293 -110.5t94 -296.5q0 -106 -30.5 -198.5t-92 -161t-154.5 -108.5 t-218 -40q-225 0 -333 134t-108 405zM365 455q0 -172 70.5 -258t205.5 -86q74 0 130 24.5t96 68.5t60.5 103.5t20.5 130.5q0 125 -66.5 200t-195.5 75q-102 0 -179 -46t-136 -128q-4 -14 -5 -38t-1 -46z" />
<glyph unicode="7" d="M258 1208q2 41 11.5 85t25.5 79h872q25 -66 25 -149q-109 -147 -209 -303t-188 -311.5t-160 -307t-123 -289.5q-16 -8 -42 -13t-67 -5q-37 0 -59 4t-35 12q55 141 131 296t166 309.5t190.5 304t204.5 278.5v10h-743z" />
<glyph unicode="8" d="M158 307q0 162 97 268.5t257 153.5v8q-94 41 -152.5 111t-58.5 190q0 88 34 159t94 120t141 75.5t178 26.5q78 0 148.5 -18.5t124.5 -57t86 -99t32 -144.5q0 -129 -76 -226.5t-211 -142.5v-8q55 -23 102 -52.5t81 -69.5t53.5 -93t19.5 -123q0 -98 -38 -178t-105.5 -136.5 t-162.5 -87t-210 -30.5q-82 0 -160 18.5t-139.5 59.5t-98 109.5t-36.5 166.5zM336 334q0 -117 75.5 -172.5t194.5 -55.5q68 0 126.5 17.5t102.5 52.5t68.5 84t24.5 115q0 57 -20.5 99t-57.5 73t-88.5 54.5t-112.5 43.5q-57 -16 -113.5 -41.5t-100.5 -63.5t-71.5 -89.5 t-27.5 -116.5zM465 1047q0 -51 18.5 -88t51 -65t78 -48.5t100.5 -38.5q49 14 97 38.5t85 58.5t59.5 78t22.5 99q0 98 -66.5 146.5t-171.5 48.5q-55 0 -105 -14.5t-88 -43t-59.5 -71.5t-21.5 -100z" />
<glyph unicode="9" d="M132 151.5q1 26.5 7 49.5q49 -39 126 -61.5t161 -22.5q205 0 342 145.5t184 425.5h-12q-23 -31 -52.5 -60.5t-70.5 -54t-94 -39t-121 -14.5q-184 0 -277.5 109.5t-93.5 294.5q0 106 32 197t92.5 158t149.5 103.5t204 36.5q127 0 208.5 -44t130 -118.5t68 -173 t19.5 -206.5q0 -154 -36 -317t-119 -298t-219 -222t-337 -87q-72 0 -142.5 12t-111.5 39q-12 18 -20.5 43t-13.5 51.5t-4 53zM406 944q0 -125 64.5 -195.5t188.5 -70.5q102 0 174.5 45t131.5 119q2 18 3 36.5t1 43.5q0 170 -70 258t-199 88q-68 0 -122 -24.5t-93 -67.5 t-59 -102.5t-20 -129.5z" />
<glyph unicode=":" horiz-adv-x="716" d="M231 119q0 59 33 92t90 33q47 0 79 -28t32 -87q0 -57 -35 -91t-90 -34q-47 0 -78 28.5t-31 86.5zM317 864q0 57 32 89t87 32q47 0 78 -27.5t31 -85.5q0 -55 -34 -87.5t-87 -32.5q-47 0 -77 28.5t-30 83.5z" />
<glyph unicode=";" horiz-adv-x="716" d="M135 -266q108 185 137 418q37 16 75 23t104 7q-10 -72 -30 -145.5t-44.5 -142t-55 -129t-61.5 -103.5q-90 12 -125 72zM324 864q0 57 31.5 89t86.5 32q47 0 78 -27.5t31 -85.5q0 -55 -34 -87.5t-87 -32.5q-47 0 -76.5 28.5t-29.5 83.5z" />
<glyph unicode="&#x3c;" d="M258 487q0 37 4 77t17 69l632 436q35 -14 71 -41t60 -59l-606 -408v-8l594 -403q-8 -39 -35.5 -77t-62.5 -55z" />
<glyph unicode="=" d="M174 272q0 37 7 84t20 72h895q12 -25 12 -78t-12 -78h-922zM174 680q0 37 7 84t20 72h895q12 -25 12 -78t-12 -78h-922z" />
<glyph unicode="&#x3e;" d="M281 975q29 33 61.5 57.5t73.5 40.5l628 -432q10 -29 16.5 -69t6.5 -76l-678 -478q-37 18 -63.5 55.5t-32.5 78.5l596 399v8z" />
<glyph unicode="?" horiz-adv-x="765" d="M156 1176q-4 35 8 91t37 91q53 43 141 77.5t209 34.5q164 0 247 -74.5t83 -219.5q0 -86 -33 -149.5t-82 -114t-106.5 -92.5t-106.5 -82t-82 -82t-33 -95q0 -37 11.5 -61.5t35.5 -48.5q-23 -31 -55.5 -49.5t-71.5 -24.5q-86 70 -86 192q0 74 32 129.5t78 101.5t101.5 85 t101.5 79t77.5 85t31.5 102q0 68 -44 113t-152 45q-88 0 -176.5 -34t-165.5 -99zM262 82q0 57 33 90t88 33q47 0 78 -27.5t31 -85.5q0 -55 -35 -89t-88 -34q-47 0 -77 29t-30 84z" />
<glyph unicode="@" horiz-adv-x="1921" d="M131 350q0 223 72.5 426t207 357.5t327 245.5t431.5 91q166 0 306.5 -47t242 -139t158.5 -229t57 -318q0 -176 -50 -311t-130 -228.5t-178 -141.5t-197 -48q-88 0 -140 39t-62 115h-9q-49 -78 -132 -116t-167 -38q-119 0 -192.5 81t-73.5 265q0 117 35 236t115 213 q68 78 161 123t217 45q98 0 168 -25.5t117 -62.5l-98 -570q-16 -94 10.5 -130t87.5 -36q80 0 150.5 47.5t123 129.5t82 189.5t29.5 227.5q0 156 -52 268.5t-139 186.5t-204 109.5t-246 35.5q-197 0 -360.5 -76.5t-281.5 -209.5t-182.5 -310.5t-64.5 -379.5q0 -168 45 -300.5 t131 -223.5t210 -139t284 -48q143 0 273 37t233 98q23 -16 40 -47t21 -64q-123 -74 -273.5 -116.5t-311.5 -42.5q-184 0 -332 58t-249 165.5t-155.5 261.5t-54.5 346zM766 375q0 -121 42 -168t118 -47q68 0 131 33.5t104 105.5l99 502q-23 16 -63 24.5t-77 8.5 q-78 0 -138 -28t-101 -75q-55 -61 -85 -159.5t-30 -196.5z" />
<glyph unicode="A" horiz-adv-x="1251" d="M41 10l631 1417q16 4 44.5 8.5t67.5 4.5q37 0 63.5 -4t43.5 -9l334 -1417q-23 -16 -88 -16q-29 0 -53.5 3t-36.5 13l-93 402h-551l-180 -402q-25 -16 -94 -16q-31 0 -54.5 3t-33.5 13zM467 565h457l-93 398q-18 78 -33.5 173t-23.5 187h-10q-25 -92 -57.5 -187.5 t-67.5 -177.5z" />
<glyph unicode="B" horiz-adv-x="1251" d="M184 12l162 1393q78 16 157 26.5t187 10.5q113 0 206 -20.5t159.5 -63.5t102.5 -109.5t36 -161.5q0 -113 -57.5 -208t-178.5 -127v-11q111 -29 181.5 -107.5t70.5 -223.5q0 -115 -46 -194t-123.5 -130t-184 -73.5t-225.5 -22.5q-137 0 -242.5 5t-204.5 17zM381 160 q51 -6 114.5 -8t133.5 -2q72 0 143.5 10t128.5 39.5t93 81t36 133.5q0 125 -87 185t-245 60h-264zM449 815h258q61 0 117.5 14.5t99.5 44t68.5 75.5t25.5 112q0 121 -89 174t-249 53q-45 0 -92 -3t-90 -11z" />
<glyph unicode="C" horiz-adv-x="1193" d="M180 614q0 164 42 317.5t130 273.5t222.5 192.5t318.5 72.5q86 0 159.5 -16t129.5 -51q23 -31 31 -82q3 -21 3 -41q0 -27 -6 -51q-70 41 -136 61.5t-152 20.5q-147 0 -254 -55.5t-174.5 -148.5t-99.5 -215t-32 -255q0 -137 31 -234.5t88.5 -160t138 -91t181.5 -28.5 q96 0 176.5 21.5t146.5 50.5q1 -10 1 -19q0 -34 -11 -74q-14 -50 -45 -79q-61 -31 -138 -50.5t-186 -19.5q-272 0 -418.5 171t-146.5 490z" />
<glyph unicode="D" horiz-adv-x="1331" d="M182 10l164 1393q72 16 146.5 25.5t166.5 9.5q154 0 277 -40t211 -123t135 -210t47 -301q0 -172 -48 -315.5t-143.5 -245t-239.5 -157.5t-337 -56q-98 0 -195.5 5t-183.5 15zM383 162q45 -6 98.5 -8t100.5 -2q145 0 251.5 46t176 127t103.5 191.5t34 241.5 q0 272 -131 398t-359 126q-41 0 -83 -3t-76 -13z" />
<glyph unicode="E" horiz-adv-x="1150" d="M182 0l164 1423h809q4 -8 8 -23.5t4 -37.5q0 -29 -6 -54.5t-14 -37.5h-651l-52 -467h609q4 -8 8 -23.5t4 -38.5q0 -29 -6 -54t-15 -38h-614l-53 -487h678q4 -8 8 -23.5t4 -42.5q0 -31 -5 -56.5t-13 -39.5h-867z" />
<glyph unicode="F" horiz-adv-x="1048" d="M182 8l164 1415h772q4 -8 8 -24.5t4 -38.5q0 -29 -6 -55.5t-14 -38.5h-612l-54 -504h568q4 -8 8 -24.5t4 -39.5q0 -29 -6 -54.5t-14 -37.5h-576l-61 -598q-27 -14 -93 -14q-70 0 -92 14z" />
<glyph unicode="G" horiz-adv-x="1337" d="M178 608q0 170 46 326t139.5 275.5t235.5 190t337 70.5q188 0 311 -69q23 -31 32 -82q4 -24 4 -46q0 -24 -5 -46q-76 41 -157 62.5t-175 21.5q-152 0 -262.5 -55.5t-182 -149.5t-106.5 -219t-35 -262q0 -133 31 -228.5t87.5 -157t137 -90t183.5 -28.5q78 0 139 14.5 t115 36.5l53 446h-332q-4 8 -8 24.5t-4 39.5q0 29 6 53.5t14 36.5h508l-71 -713q-82 -43 -198 -74.5t-249 -31.5q-289 0 -441.5 169t-152.5 486z" />
<glyph unicode="H" horiz-adv-x="1413" d="M184 8l162 1407q23 14 86 15q59 0 80 -15l-63 -600h698l67 600q27 14 86 15q59 0 82 -15l-145 -1407q-27 -14 -92 -14q-68 0 -90 14l75 649h-696l-67 -649q-27 -14 -93 -14q-68 0 -90 14z" />
<glyph unicode="I" horiz-adv-x="544" d="M184 8l162 1407q23 14 86 15q59 0 82 -15l-145 -1407q-27 -14 -93 -14q-70 0 -92 14z" />
<glyph unicode="J" horiz-adv-x="610" d="M-55 -266q82 39 141 89t99 112.5t63.5 142.5t36.5 182l131 1155q23 14 86 15q59 0 82 -15l-119 -1151q-14 -133 -48 -238.5t-89.5 -188.5t-133 -144.5t-178.5 -108.5q-66 47 -71 150z" />
<glyph unicode="K" horiz-adv-x="1218" d="M184 8l162 1407q23 14 86 15q59 0 82 -15l-63 -606h153l479 604q39 16 109 17q63 0 90 -17l-541 -686l449 -717q-23 -16 -103 -16q-76 0 -112 16l-391 641h-150l-65 -643q-27 -14 -93 -14q-70 0 -92 14z" />
<glyph unicode="L" horiz-adv-x="1083" d="M182 0l162 1415q23 14 86 15q59 0 82 -15l-129 -1251h641q4 -6 7 -22.5t3 -39.5q0 -35 -6 -60.5t-14 -41.5h-832z" />
<glyph unicode="M" horiz-adv-x="1679" d="M184 6l162 1407q18 6 50 10t79 4t80 -4t53 -10l191 -874q18 -84 35.5 -191.5t27.5 -204.5h8q12 47 27.5 100.5t32 106.5t35 103.5t36.5 91.5l379 868q23 6 56.5 10t83.5 4q51 0 79.5 -4t47.5 -10l-142 -1405q-23 -14 -88 -14q-63 0 -84 14l144 1288h-9q-12 -43 -30.5 -94 t-38 -103t-39 -101.5t-35.5 -86.5l-389 -915q-31 -12 -98 -12q-59 0 -86 12l-197 919q-18 88 -33.5 189.5t-25.5 191.5h-9l-131 -1290q-23 -12 -86 -12q-29 0 -52 3t-34 9z" />
<glyph unicode="N" horiz-adv-x="1413" d="M182 6l166 1407q20 8 45 12.5t66 4.5t63.5 -4.5t40.5 -12.5l418 -928q31 -68 55.5 -153.5t38.5 -171.5h8l142 1255q20 14 80 15q55 0 75 -15l-143 -1411q-18 -6 -49 -10t-72 -4t-67.5 4t-42.5 10l-426 969q-29 66 -52.5 145.5t-33.5 157.5h-9l-129 -1270q-25 -12 -88 -12 q-66 0 -86 12z" />
<glyph unicode="O" horiz-adv-x="1425" d="M186 610q0 164 39 319.5t120 275.5t207 192.5t302 72.5q125 0 225.5 -40.5t171 -123.5t109.5 -206t39 -289q0 -98 -15.5 -200.5t-48 -198t-85 -179t-127 -146t-174 -98.5t-224.5 -36q-260 0 -399.5 163.5t-139.5 493.5zM369 621q0 -246 94 -374t274 -128 q135 0 227.5 66.5t148.5 168t80 223t24 232.5q0 242 -95.5 372t-281.5 130q-131 0 -221.5 -63.5t-145.5 -164t-79.5 -222.5t-24.5 -240z" />
<glyph unicode="P" horiz-adv-x="1153" d="M182 8l162 1393q74 20 149.5 31.5t184.5 11.5q252 0 395.5 -109.5t143.5 -345.5q0 -113 -35 -204t-103.5 -156.5t-169 -101t-231.5 -35.5q-74 0 -141.5 5t-116.5 15l-53 -504q-27 -14 -93 -14q-70 0 -92 14zM434 668q47 -10 102.5 -14.5t129.5 -4.5q172 0 272 80t100 250 q0 84 -25.5 142.5t-71.5 95t-111.5 54t-145.5 17.5q-53 0 -100 -5t-86 -15z" />
<glyph unicode="Q" horiz-adv-x="1425" d="M186 610q0 164 39 319.5t120 275.5t208 192.5t303 72.5q125 0 226.5 -40.5t172 -123.5t109.5 -206t39 -289q0 -111 -19.5 -226.5t-61.5 -220t-109.5 -190.5t-165.5 -141q29 -117 97 -162t177 -45q59 0 101 8t89 27q2 -11 2 -23q0 -27 -9 -59q-13 -47 -38 -72 q-37 -16 -87 -27.5t-111 -11.5q-150 0 -246 77t-129 228q-74 -20 -166 -20q-262 0 -401.5 163.5t-139.5 493.5zM369 621q0 -246 94 -374t276 -128q137 0 229.5 66.5t149 168t80 223t23.5 232.5q0 242 -96.5 372t-282.5 130q-133 0 -223.5 -63.5t-145.5 -164t-79.5 -222.5 t-24.5 -240z" />
<glyph unicode="R" horiz-adv-x="1228" d="M182 8l162 1397q72 18 150.5 28.5t183.5 10.5q248 0 389 -104.5t141 -329.5q0 -162 -74.5 -273.5t-220.5 -163.5l285 -563q-23 -16 -98 -16q-72 0 -105 16l-256 527q-6 -2 -26 -2h-25q-78 0 -148.5 4t-117.5 14l-57 -545q-27 -14 -93 -14q-37 0 -57 3t-33 11zM434 709 q35 -8 92.5 -13.5t120.5 -5.5q184 0 284.5 72t100.5 235q0 80 -24.5 135.5t-70.5 90t-110.5 50t-144.5 15.5q-51 0 -99 -5t-87 -15z" />
<glyph unicode="S" horiz-adv-x="1075" d="M106 125q-5 28 -5 56t5 55q76 -49 181.5 -83t228.5 -34q72 0 133.5 14t107.5 46t71.5 82t25.5 122q0 90 -45 143.5t-111.5 89t-144.5 66.5t-144.5 77t-111.5 117.5t-45 190.5q0 188 116.5 295.5t333.5 107.5q92 0 171 -21.5t141 -68.5q25 -35 34 -88q4 -25 4 -48 q0 -26 -5 -50q-66 49 -146 84t-188 35q-123 0 -205 -54.5t-82 -173.5q0 -86 45 -136t112.5 -85t146.5 -65.5t146.5 -77.5t112.5 -122t45 -198q0 -215 -134 -331.5t-390 -116.5q-117 0 -210 22.5t-157 57.5q-27 35 -37 92z" />
<glyph unicode="T" horiz-adv-x="1085" d="M182 1329q0 29 6.5 55.5t14.5 38.5h987q4 -10 8 -25.5t4 -37.5q0 -29 -6 -55.5t-14 -38.5h-410l-131 -1258q-27 -14 -92 -14q-70 0 -92 14l145 1258h-407q-4 10 -8.5 25.5t-4.5 37.5z" />
<glyph unicode="U" horiz-adv-x="1363" d="M217 397q0 29 2 64t6 63l103 891q23 14 84 15q61 0 82 -15l-93 -897q-5 -49 -5 -92q0 -52 8 -94q14 -76 52 -123t99 -68.5t145 -21.5q184 0 274.5 98t112.5 297l99 901q23 14 80 15q61 0 82 -15l-86 -903q-27 -274 -165.5 -416.5t-410.5 -142.5q-129 0 -218 31.5 t-145.5 89t-81 139.5t-24.5 184z" />
<glyph unicode="V" horiz-adv-x="1189" d="M180 1413q29 16 86 17q59 0 92 -17l207 -950q16 -70 30.5 -160t20.5 -180h11q23 88 50.5 177t57.5 159l412 954q33 16 96 17q63 0 86 -17l-610 -1415q-16 -6 -47 -10t-72 -4q-76 0 -115 14z" />
<glyph unicode="W" horiz-adv-x="1785" d="M211 1413q29 16 82 17q57 0 86 -17l110 -1001q8 -63 14.5 -146.5t6.5 -161.5h8q16 82 34.5 161t39.5 136l350 1026q16 4 45 8.5t68 4.5q41 0 68.5 -4t43.5 -9l121 -1011q8 -63 15.5 -147.5t11.5 -164.5h8q16 80 34.5 157t39.5 136l332 1016q27 16 81 17q57 0 80 -17 l-460 -1415q-18 -6 -51 -10t-76 -4q-41 0 -72 4t-49 10l-115 985q-10 74 -17.5 164t-7.5 176h-8q-16 -84 -38.5 -175t-47.5 -163l-332 -987q-18 -6 -51 -10t-73 -4q-41 0 -70 4t-49 10z" />
<glyph unicode="X" horiz-adv-x="1171" d="M41 10l547 756l-312 645q12 10 33 14.5t56 4.5q59 0 90 -19l194 -391q16 -35 31.5 -76t26.5 -76h8q16 35 39.5 79t46.5 75l278 389q27 18 97 19q66 0 90 -19l-482 -676l359 -725q-18 -16 -90 -16t-103 16l-225 465q-16 35 -30.5 73t-24.5 75h-8q-16 -35 -40 -76t-51 -76 l-331 -461q-16 -10 -43 -13t-62 -3q-33 0 -58.5 3t-35.5 13z" />
<glyph unicode="Y" horiz-adv-x="1091" d="M172 1413q29 16 90 17q59 0 92 -17l207 -532q43 -106 62 -240h10q16 66 40.5 129.5t53.5 110.5l320 532q33 16 96 17q68 0 90 -17l-541 -911l-51 -494q-27 -14 -94 -14q-68 0 -90 14l57 504z" />
<glyph unicode="Z" horiz-adv-x="1114" d="M109 145l835 1112v11h-665q-10 20 -11 65q0 29 5.5 52.5t13.5 37.5h850q20 -55 20 -141l-815 -1110v-10h713q4 -10 8 -25.5t4 -40.5q0 -31 -6 -56.5t-14 -39.5h-914q-14 29 -19 65.5t-5 79.5z" />
<glyph unicode="[" horiz-adv-x="567" d="M117 -397l219 1935h317q10 -23 14.5 -61.5t4.5 -83.5h-197l-172 -1637h195q4 -8 8 -23.5t4 -37.5q0 -29 -6 -54.5t-15 -37.5h-372z" />
<glyph unicode="\" horiz-adv-x="794" d="M170 1456q20 31 54 55.5t71 34.5l514 -1859q-29 -27 -68 -39.5t-79 -14.5z" />
<glyph unicode="]" horiz-adv-x="567" d="M0 -336q0 29 6 54.5t14 37.5h197l186 1637h-190q0 35 8 75.5t23 69.5h329l-200 -1935h-361q-4 8 -8 23.5t-4 37.5z" />
<glyph unicode="^" d="M203 776l370 594q31 8 76 12t86 7l406 -650q-23 -33 -60 -53t-82 -24l-258 413q-23 35 -43 81t-36 99h-9q-14 -47 -34.5 -97t-43.5 -85l-266 -424q-35 23 -63.5 55.5t-42.5 71.5z" />
<glyph unicode="_" horiz-adv-x="1024" d="M-35 -489q0 37 8.5 78.5t24.5 72.5h1034q4 -6 7 -22.5t3 -38.5q0 -33 -5 -55.5t-11 -34.5h-1061z" />
<glyph unicode="`" horiz-adv-x="888" d="M412 1458q25 27 64.5 44.5t82.5 17.5l182 -312q-18 -29 -41.5 -45t-60.5 -24z" />
<glyph unicode="a" horiz-adv-x="1114" d="M150 365q0 131 33.5 249.5t101.5 210.5q78 106 188.5 154.5t243.5 48.5q100 0 174 -24.5t135 -69.5l-80 -701q-4 -39 -1 -61t12.5 -34.5t24.5 -15.5t36 -3q29 0 49 8t39 18q2 -14 2 -28q0 -27 -7 -57q-11 -46 -32 -68q-23 -16 -52.5 -24.5t-72.5 -8.5q-74 0 -119 38 q-43 36 -43 122v8h-8q-41 -70 -116.5 -119t-192.5 -49q-66 0 -123 19.5t-100 66.5t-67.5 125t-24.5 195zM324 389q0 -137 47 -201.5t155 -64.5q92 0 151.5 43t104.5 106l72 576q-53 35 -145 35q-102 0 -172 -36t-113 -93q-55 -72 -77.5 -173.5t-22.5 -191.5z" />
<glyph unicode="b" horiz-adv-x="1077" d="M166 25l182 1445q59 33 162 33l-41 -348q-10 -92 -24.5 -167t-30.5 -152h8q47 90 131 141t199 51q154 0 230.5 -101.5t76.5 -297.5q0 -68 -9.5 -138.5t-27.5 -136t-46 -124t-65 -103.5q-70 -86 -180 -127t-246 -41q-106 0 -190 21.5t-129 44.5zM348 137q27 -10 71 -18 t91 -8q84 0 143.5 24.5t102.5 67.5q72 72 100.5 176t28.5 213q0 145 -46 212.5t-151 67.5q-100 0 -164.5 -56t-113.5 -142z" />
<glyph unicode="c" horiz-adv-x="925" d="M154 424q0 104 22.5 201.5t71.5 179.5q63 102 167.5 162.5t258.5 60.5q137 0 217 -55q21 -29 29 -78q4 -23 3 -43q0 -24 -5 -47q-51 35 -102.5 51t-119.5 16q-109 0 -182.5 -42t-118.5 -113q-68 -113 -67 -268q0 -174 76.5 -250t218.5 -76q74 0 133 17.5t112 43.5 q1 -10 1 -20q0 -33 -10 -69q-13 -48 -40 -77q-47 -27 -109.5 -43t-142.5 -16q-205 0 -309 118t-104 347z" />
<glyph unicode="d" horiz-adv-x="1120" d="M150 369q0 131 31.5 246.5t97.5 207.5q78 109 183 157t232 48q111 0 183 -39l59 481q59 33 162 33l-144 -1270q-4 -39 -1 -61t12.5 -34.5t25 -15.5t35.5 -3q29 0 49.5 8t38.5 18q2 -14 3 -28q0 -27 -8 -57q-11 -46 -32 -68q-23 -16 -52.5 -24.5t-72.5 -8.5q-72 0 -119 38 q-42 34 -42 113v17h-9q-41 -72 -116.5 -120t-192.5 -48q-68 0 -127 19.5t-102 66.5t-68.5 126t-25.5 198zM324 389q0 -135 50 -200.5t161 -65.5q94 0 152 44t104 107l69 566q-35 23 -68.5 31t-80.5 8q-102 0 -172 -35t-115 -94q-53 -72 -76.5 -171.5t-23.5 -189.5z" />
<glyph unicode="e" horiz-adv-x="976" d="M154 373q0 135 38.5 259t116.5 216q72 86 170.5 133t218.5 47q139 0 214 -64.5t75 -181.5q0 -70 -30.5 -135t-106.5 -117.5t-204 -85t-320 -38.5q0 -166 57 -227.5t184 -61.5q102 0 185.5 31.5t160.5 93.5q0 -20 -3 -45t-9 -49.5t-16.5 -46t-22.5 -35.5q-49 -39 -136 -73 t-204 -34q-190 0 -279 104.5t-89 309.5zM338 549q131 2 224 19.5t151.5 47t85 69.5t26.5 87q0 49 -30.5 81t-112.5 32q-162 0 -262 -135q-29 -39 -49.5 -88.5t-32.5 -112.5z" />
<glyph unicode="f" horiz-adv-x="604" d="M147 834q0 39 9.5 83t23.5 70h127l23 189q12 106 44 174.5t77 109.5t100 57.5t117 16.5q47 0 95 -10.5t87 -38.5q20 -29 26 -78q1 -16 1 -32q0 -31 -7 -58q-47 35 -87 49t-93 14q-100 0 -144 -50t-54 -154l-21 -189h250q4 -8 8 -22.5t4 -40.5q0 -31 -5 -53.5t-13 -36.5 h-260l-127 -1143q-23 -14 -88 -15q-66 0 -88 15l137 1143h-142z" />
<glyph unicode="g" horiz-adv-x="1071" d="M121 -354q0 52 16 88q72 -47 153 -69.5t159 -22.5q145 0 211.5 77.5t87.5 229.5q2 18 6 44.5t9 54.5t11 53.5t12 43.5h-8q-45 -72 -121.5 -115.5t-187.5 -43.5q-68 0 -126 19.5t-101 64.5t-69 120.5t-26 190.5q0 127 34 247t102 206q78 100 193.5 147t244.5 47 q102 0 175 -25.5t134 -68.5l-108 -975q-12 -111 -42 -200t-84.5 -150.5t-138.5 -94t-206 -32.5q-82 0 -162 15.5t-144 49.5q-24 42 -24 99zM322 410q0 -135 51 -197.5t159 -62.5q92 0 151.5 38.5t107.5 102.5l67 557q-66 35 -156 35q-100 0 -167.5 -37t-114.5 -94 q-27 -33 -45.5 -75t-30.5 -87t-17 -91t-5 -89z" />
<glyph unicode="h" horiz-adv-x="1144" d="M166 8l184 1462q59 33 162 33l-43 -364q-10 -82 -22.5 -163t-28.5 -149h8q18 37 48 74t71 64.5t96 45t123 17.5q139 0 207.5 -71.5t68.5 -211.5q0 -61 -6 -110l-43 -402q-2 -22 -2 -38q-1 -41 13 -56q20 -20 57 -20q31 0 50 7t42 19q2 -14 2 -28q0 -27 -7 -57 q-11 -46 -32 -68q-23 -16 -52.5 -24.5t-72.5 -8.5q-104 0 -141 51t-37 135q0 39 6 82l49 383q6 45 6 84q0 37 -8 69t-27.5 55.5t-52 37.5t-82.5 14q-104 0 -171.5 -58t-114.5 -144l-76 -660q-23 -14 -88 -14q-63 0 -86 14z" />
<glyph unicode="i" horiz-adv-x="526" d="M180 145q0 39 6 82l97 752q14 8 32.5 11t49.5 3q59 0 79 -14l-84 -746q-4 -39 -1 -61t12.5 -34.5t25 -15.5t35.5 -3q29 0 49.5 8t38.5 18q2 -14 2 -28q0 -27 -7 -57q-11 -46 -32 -68q-23 -16 -52.5 -24.5t-72.5 -8.5q-104 0 -141 51t-37 135zM293 1329q0 55 32 87t85 32 q47 0 76.5 -26.5t29.5 -84.5q0 -53 -32.5 -85.5t-86.5 -32.5q-47 0 -75.5 27.5t-28.5 82.5z" />
<glyph unicode="j" horiz-adv-x="489" d="M-90 -369q47 37 91 78t80 95.5t61.5 123t37.5 158.5l115 893q14 8 32.5 11t49.5 3q59 0 80 -14l-101 -879q-12 -117 -44.5 -206t-79 -159.5t-104.5 -125.5t-122 -103q-39 12 -64.5 47t-31.5 78zM295 1329q0 55 32 87t85 32q47 0 76.5 -26.5t29.5 -84.5q0 -53 -32.5 -85.5 t-86.5 -32.5q-47 0 -75.5 27.5t-28.5 82.5z" />
<glyph unicode="k" horiz-adv-x="1028" d="M164 8l184 1462q59 33 162 33l-102 -897h127l321 377q10 4 29.5 8t46.5 4q41 0 69.5 -7t40.5 -17l-372 -430q29 -90 59.5 -169t65 -136.5t76.5 -90t96 -32.5q29 0 48 7t36 19q2 -13 2 -28q-1 -26 -7 -57q-10 -48 -32 -70q-37 -25 -103 -25q-84 0 -147.5 50t-109.5 126 t-76.5 164t-51.5 166h-135l-53 -457q-23 -14 -88 -14q-63 0 -86 14z" />
<glyph unicode="l" horiz-adv-x="542" d="M180 141q0 16 2 43t4 43l160 1243q57 33 160 33l-146 -1270q-3 -23 -3 -40q-1 -40 15 -54q22 -20 64 -20q37 0 62.5 9t48.5 24q2 -13 2 -28q1 -28 -7 -58q-12 -46 -32 -68q-59 -39 -143 -39q-86 0 -136.5 42t-50.5 140z" />
<glyph unicode="m" horiz-adv-x="1724" d="M164 8l121 971q47 22 130 22h7l-8 -178h8q39 82 120 143.5t214 61.5q121 0 181 -55t77 -154h10q18 41 47 79t70 66.5t94 46t123 17.5q135 0 198.5 -72.5t63.5 -222.5q0 -53 -6 -98l-43 -402q-2 -22 -2 -38q-1 -41 13 -56q20 -20 56 -20q31 0 50.5 7t42.5 19q2 -13 2 -28 q1 -27 -7 -57q-12 -46 -32 -68q-23 -16 -52.5 -24.5t-72.5 -8.5q-104 0 -141 51t-37 135q0 39 6 82l49 383q6 45 6 84q0 37 -7 69t-25.5 55.5t-50.5 37.5t-79 14q-98 0 -162.5 -57t-107.5 -139l-72 -666q-23 -14 -88 -14q-61 0 -84 14l74 600q6 45 6 91t-15.5 84t-51 62.5 t-99.5 24.5q-100 0 -167.5 -58t-108.5 -144l-76 -660q-23 -14 -88 -14q-63 0 -86 14z" />
<glyph unicode="n" horiz-adv-x="1134" d="M164 8l121 971q47 22 130 22h7l-8 -178h8q20 41 50 78t71 65.5t95 45t122 16.5q135 0 202.5 -71.5t67.5 -211.5q0 -61 -6 -110l-43 -402q-2 -22 -2 -38q-1 -41 13 -56q20 -20 57 -20q31 0 50 7t42 19q2 -13 2 -28q1 -27 -7 -57q-12 -46 -32 -68q-23 -16 -52.5 -24.5 t-72.5 -8.5q-104 0 -141 51t-37 135q0 39 6 82l49 383q6 45 6 84q0 37 -7 69t-25.5 55.5t-50 37.5t-81.5 14q-104 0 -170.5 -58t-113.5 -144l-76 -660q-23 -14 -88 -14q-63 0 -86 14z" />
<glyph unicode="o" horiz-adv-x="1071" d="M156 403q0 100 22.5 202t67.5 183q59 106 161.5 173t245.5 67q180 0 287 -114.5t107 -338.5q0 -111 -29 -230.5t-90 -205.5q-57 -80 -151.5 -130t-223.5 -50q-195 0 -296 115.5t-101 328.5zM330 414q0 -303 233 -303q84 0 138.5 34.5t91.5 92.5q41 63 60 151t19 178 q0 147 -57 230.5t-168 83.5q-90 0 -154.5 -44t-101.5 -120q-33 -66 -47 -153t-14 -150z" />
<glyph unicode="p" horiz-adv-x="1077" d="M106 -469l179 1448q47 22 130 22h7l-8 -174h8q47 98 133 149.5t201 51.5q90 0 148.5 -31.5t93 -88t48 -131.5t13.5 -161q0 -131 -32 -262t-114 -229q-63 -76 -159.5 -121t-227.5 -45q-47 0 -99 6t-91 27l-53 -461q-23 -14 -88 -14q-66 0 -89 14zM350 147q29 -14 72 -23 t94 -9q78 0 137.5 22.5t100.5 63.5q72 70 101.5 176t29.5 213q0 145 -48.5 212.5t-148.5 67.5q-102 0 -166.5 -59t-111.5 -147z" />
<glyph unicode="q" horiz-adv-x="1073" d="M150 369q0 135 33.5 249.5t101.5 206.5q80 111 188.5 157t243.5 46q102 0 180 -25.5t137 -68.5l-160 -1403q-23 -14 -88 -14q-66 0 -88 14l45 367q8 66 19.5 124t25.5 103h-8q-41 -68 -114.5 -117t-194.5 -49q-68 0 -126 19.5t-101 66.5t-68.5 126t-25.5 198zM324 391 q0 -139 49 -203.5t159 -64.5q92 0 151.5 41t104.5 100l74 580q-59 39 -157 39q-104 0 -172 -37t-111 -96q-53 -72 -75.5 -169.5t-22.5 -189.5z" />
<glyph unicode="r" horiz-adv-x="724" d="M164 8l121 971q47 22 130 22h7l-10 -208h8q33 121 103.5 178t170.5 57q35 0 58.5 -5t40.5 -15q10 -14 15 -35t5 -53q0 -55 -16 -93q-23 16 -53.5 23.5t-61.5 7.5q-100 0 -169 -74.5t-112 -218.5l-63 -557q-23 -14 -88 -14q-63 0 -86 14z" />
<glyph unicode="s" horiz-adv-x="829" d="M111 197q53 -37 135 -61.5t162 -24.5q94 0 153.5 33.5t59.5 119.5q0 55 -31 89t-77 57.5t-99.5 46t-99.5 56.5t-76.5 84t-30.5 132q0 135 85 217t245 82q82 0 141 -20.5t98 -49.5q20 -29 28 -80q4 -26 5 -50q0 -22 -4 -42q-59 47 -119.5 72t-132.5 25q-78 0 -128 -31 t-50 -104q0 -53 30.5 -85t77.5 -55.5t100.5 -46t100.5 -56.5t78 -85t31 -131q0 -158 -103.5 -244t-286.5 -86q-80 0 -160.5 17.5t-129.5 46.5q-19 35 -19 83q0 54 17 91z" />
<glyph unicode="t" horiz-adv-x="704" d="M147 834q0 39 9.5 83t23.5 70h125l31 234q63 43 164 43l-33 -277h266q4 -8 8 -22.5t4 -40.5q0 -31 -5 -53.5t-13 -36.5h-278l-62 -529q-3 -28 -3 -52q0 -51 14 -84q22 -48 112 -48q100 0 182 69q2 -16 2 -32q0 -30 -7 -61q-11 -48 -34 -77q-43 -31 -92 -46t-115 -15 q-133 0 -186 60.5t-53 170.5q0 23 2 53.5t6 53.5l70 537h-138z" />
<glyph unicode="u" horiz-adv-x="1124" d="M180 229q0 25 2 54.5t6 52.5l84 631q35 16 73 23t93 7l-73 -637q-6 -47 -7 -79q0 -72 33 -115t129 -43q102 0 162.5 47t110.5 119l86 690q14 8 32.5 11t49.5 3q59 0 79 -14l-82 -746q-4 -39 -0.5 -61t12.5 -34.5t24.5 -15.5t35.5 -3q29 0 49.5 8t38.5 18q2 -14 3 -28 q0 -27 -8 -57q-11 -46 -32 -68q-23 -16 -51.5 -24.5t-71.5 -8.5q-74 0 -122 39q-43 35 -43 119v18h-9q-18 -35 -46.5 -66.5t-68.5 -56t-92.5 -39t-121.5 -14.5q-154 0 -214.5 73.5t-60.5 196.5z" />
<glyph unicode="v" horiz-adv-x="905" d="M113 973q12 10 37.5 16t62.5 6q25 0 40 -3t26 -9l163 -664q12 -47 18.5 -95t10.5 -105h8q61 98 116.5 197.5t98.5 189.5t67.5 170t24.5 141q0 29 -16 48.5t-59 19.5q-33 0 -58.5 -10.5t-42.5 -22.5q-1 10 -1 20q-1 31 9 59q12 38 29 58q20 16 53 27.5t80 11.5 q96 0 136 -51t40 -131q0 -82 -35.5 -189.5t-92 -223.5t-129 -233.5t-146.5 -219.5q-119 0 -203 28z" />
<glyph unicode="w" horiz-adv-x="1462" d="M137 973q12 10 34 16t58 6q25 0 39.5 -3t24.5 -9l100 -657q7 -50 11 -106q2 -36 3 -73q0 -21 -1 -43h8q82 199 159.5 422.5t133.5 442.5q47 16 107 23t126 7l117 -682q8 -41 10 -103q1 -31 1 -58.5t-1 -51.5h8q51 92 100.5 193.5t88.5 197t62.5 179.5t23.5 143 q0 33 -15.5 50.5t-60.5 17.5q-27 0 -50.5 -9.5t-41.5 -21.5q-1 10 -1 20q0 30 9 58q12 37 29 57q18 16 48.5 27.5t75.5 11.5q92 0 129 -53t37 -131q0 -86 -36.5 -205t-91 -242t-117 -234.5t-113.5 -182.5q-111 0 -188 26l-111 637q-10 53 -15.5 120.5t-7.5 123.5h-8 q-8 -51 -26.5 -123t-44 -155t-56 -170t-63.5 -171t-64.5 -158.5t-60.5 -129.5q-131 0 -225 26z" />
<glyph unicode="x" horiz-adv-x="950" d="M4 6l428 541l-176 426q12 10 37.5 16t60.5 6q47 0 70 -12l90 -235q20 -51 31 -115h8q10 33 29.5 63.5t35.5 53.5l181 235q27 10 71 10q35 0 63 -6t40 -16l-357 -465q45 -117 78 -192.5t61.5 -119.5t59.5 -62.5t72 -18.5q33 0 57.5 9t42.5 26q3 -16 3 -35q0 -25 -6 -53 q-11 -50 -34 -72q-41 -31 -112 -31q-70 0 -120 29.5t-89 87t-72 139.5t-68 184h-8q-8 -27 -27.5 -61.5t-37.5 -56.5l-213 -275q-16 -8 -47 -11t-64 -3q-31 0 -54.5 3t-33.5 11z" />
<glyph unicode="y" horiz-adv-x="907" d="M-37 -344q131 39 235.5 121t182.5 188l-264 1008q12 10 38.5 16t63.5 6q25 0 40 -3t26 -9l172 -670q12 -45 22 -107.5t10 -121.5h9q53 92 107 196.5t97 205t70 186.5t27 143q0 35 -16.5 52.5t-61.5 17.5q-31 0 -56.5 -10.5t-41.5 -22.5q-1 9 -1 19q0 28 9 58q12 40 28 60 q23 16 53.5 27.5t80.5 11.5q96 0 135 -52t39 -130q0 -90 -42 -212t-101.5 -248t-127 -240.5t-118.5 -186.5q-61 -86 -123 -156.5t-128.5 -127t-141 -99.5t-162.5 -76q-29 23 -44.5 65t-15.5 91z" />
<glyph unicode="z" horiz-adv-x="870" d="M96 129q154 166 301.5 341t282.5 361v9h-479q2 37 10 77.5t22 69.5h617q29 -53 29 -135q-125 -186 -255 -356t-278 -334v-8h469q4 -6 7 -20.5t3 -43.5q0 -31 -5 -52.5t-11 -37.5h-688q-12 29 -18.5 58.5t-6.5 70.5z" />
<glyph unicode="{" horiz-adv-x="604" d="M121 528q0 33 11 75t26 71q84 10 113.5 61t41.5 152l39 336q8 80 31 143.5t66 108.5t109.5 70.5t164.5 27.5q0 -35 -9 -78t-24 -70q-86 -4 -130 -47t-54 -155l-33 -328q-12 -119 -49 -192.5t-119 -96.5v-8q78 -29 97.5 -99.5t7.5 -199.5l-37 -373q-6 -55 0 -93 t23.5 -60.5t48 -32.5t77.5 -12q10 -33 7 -80t-19 -76q-100 2 -163.5 23.5t-98.5 64.5t-44 108.5t1 151.5l39 359q6 61 6 104t-12.5 72.5t-40 47t-76.5 25.5z" />
<glyph unicode="|" horiz-adv-x="548" d="M262 -371v1884q63 25 160 25v-1909q-23 -14 -80 -14q-59 0 -80 14z" />
<glyph unicode="}" horiz-adv-x="604" d="M18.5 -354q-2.5 49 8.5 82q100 2 143 45t57 151l45 381q14 123 53.5 193.5t116.5 93.5v8q-78 25 -99 94.5t-7 179.5l39 330q14 117 -23 164t-125 57q0 37 10.5 78t26.5 68q88 -6 143.5 -35t85 -75t37 -108.5t-1.5 -138.5l-32 -327q-6 -53 -4 -91t13 -62.5t33.5 -38 t61.5 -21.5q10 -27 16.5 -66t6.5 -80q-96 -8 -136.5 -59t-52.5 -168l-41 -381q-8 -82 -29.5 -144.5t-62.5 -106.5t-105.5 -68.5t-158.5 -28.5q-16 25 -18.5 74z" />
<glyph unicode="~" d="M184 553q31 70 97.5 112t164.5 42q68 0 119 -18.5t96.5 -41t92.5 -41t108 -18.5q55 0 89 24.5t53 65.5q39 -4 74.5 -17.5t58.5 -39.5q-35 -92 -107 -144.5t-176 -52.5q-74 0 -124 18.5t-95 42t-90 42t-109 18.5q-68 0 -111.5 -35t-66.5 -82q-59 43 -74 125z" />
<glyph unicode="&#xa1;" horiz-adv-x="555" d="M137 -430l133 987q14 8 36 13t52 5q35 0 56 -8l-86 -997q-14 -8 -37 -12t-60 -4t-58 4t-36 12zM266 897q0 57 33 90t88 33q47 0 78 -27.5t31 -85.5q0 -55 -35 -89t-88 -34q-47 0 -77 29t-30 84z" />
<glyph unicode="&#xa2;" d="M266 631q0 104 30 200.5t88 172t146 127t205 63.5l21 166q31 12 64.5 16t76.5 4l-20 -182q113 -10 182 -63q23 -29 32 -80t1 -88q-59 39 -119 59.5t-137 20.5q-96 0 -169 -30t-122 -83t-75 -127t-26 -160q0 -164 85 -235.5t235 -71.5q86 0 153.5 19.5t122.5 50.5 q4 -39 -8 -87.5t-39 -72.5q-43 -27 -94 -44.5t-123 -21.5l-20 -178q-10 -6 -28.5 -9t-49.5 -3q-53 0 -74 12l25 182q-176 23 -269.5 136.5t-93.5 306.5z" />
<glyph unicode="&#xa3;" d="M223 147q84 66 145.5 152t61.5 209q0 39 -3 70.5t-7 60.5h-189q0 35 8.5 74t20.5 67h133q-10 41 -16 87t-6 108q0 96 27.5 177t83 140.5t141.5 93t202 33.5q92 0 159 -20.5t118 -61.5q10 -14 18 -36.5t13.5 -47t6.5 -50t-3 -46.5q-61 49 -137 78t-169 29q-150 0 -218 -74 t-68 -205q0 -66 7 -113t17 -92h396q4 -4 7 -18t3 -37q0 -33 -5 -52.5t-12 -33.5h-364q12 -53 12 -123q0 -111 -50 -200t-148 -154v-8h702q4 -8 7 -22.5t3 -41.5q0 -29 -5 -52.5t-13 -37.5h-852q-14 29 -20.5 67.5t-6.5 79.5z" />
<glyph unicode="&#xa4;" d="M150 254l155 162q-55 92 -55 231q0 111 31.5 193t85.5 141l-109 156q20 31 54 54t75 34l100 -152q101 51 220 51q59 0 115.5 -14t103.5 -45l141 162q35 -12 63.5 -39t43.5 -62l-152 -161q27 -41 41 -98.5t14 -129.5q0 -106 -31.5 -192t-84.5 -146l110 -151 q-18 -31 -53 -55.5t-74 -34.5l-102 147q-100 -53 -224 -53q-131 0 -215 57l-143 -157q-37 14 -65.5 40.5t-44.5 61.5zM403 653q0 -125 57.5 -194.5t172.5 -69.5q74 0 129 30t92 78t54.5 109.5t17.5 124.5q0 123 -61.5 190.5t-174.5 67.5q-72 0 -125 -26.5t-89 -71.5 t-54.5 -106.5t-18.5 -131.5z" />
<glyph unicode="&#xa5;" d="M162 279q0 35 9 71.5t24 65.5h360l10 90l-65 168h-293q0 35 9 71.5t24 65.5h204l-219 553q29 16 86 16q59 0 92 -16l205 -504q20 -51 35.5 -115.5t26.5 -128.5h10q16 68 42 133.5t54 110.5l316 504q33 16 94 16q66 0 86 -16l-340 -553h194q10 -16 11 -55q0 -57 -15 -82 h-274l-109 -176l-8 -82h352q10 -16 11 -56q0 -57 -15 -81h-362l-29 -271q-27 -14 -92 -14q-66 0 -88 14l31 271h-377z" />
<glyph unicode="&#xa6;" horiz-adv-x="548" d="M262 336q63 25 160 24v-731q-23 -14 -80 -14q-59 0 -80 14v707zM262 838v675q63 25 160 25v-700q-23 -14 -80 -15q-59 0 -80 15z" />
<glyph unicode="&#xa7;" d="M115 -162q59 -45 151 -72.5t193 -27.5q137 0 215 57.5t78 177.5q0 80 -38 134.5t-93.5 97.5t-122 81t-121.5 88t-93 118.5t-38 171.5q0 117 53 203.5t152 156.5q-10 23 -13.5 49.5t-3.5 52.5q0 156 102.5 251.5t292.5 95.5q74 0 137.5 -17.5t114.5 -54.5q20 -29 28.5 -76 t2.5 -86q-53 47 -123.5 74.5t-159.5 27.5q-111 0 -178 -47t-67 -151q0 -74 36.5 -123t91 -88t118 -75t117.5 -85t91 -120t37 -177q0 -100 -48 -194.5t-138 -159.5q23 -57 22 -137q0 -84 -28.5 -154t-85 -122t-143.5 -80.5t-203 -28.5q-98 0 -173 19.5t-128 47.5 q-23 29 -31 78t-4 94zM395 694q0 -63 22.5 -109t58.5 -83t81 -66.5t92 -59.5t91 -65t77 -80q103 86 103 213q0 68 -21.5 116t-55.5 85t-77 66.5t-88 58.5t-88 60.5t-74 74.5q-57 -35 -89 -92t-32 -119z" />
<glyph unicode="&#xa8;" horiz-adv-x="888" d="M285 1276q0 49 27.5 76.5t74.5 27.5q41 0 67.5 -23.5t26.5 -74.5q0 -47 -28.5 -75.5t-75.5 -28.5q-41 0 -66.5 24.5t-25.5 73.5zM682 1276q0 49 27.5 76.5t74.5 27.5q41 0 68 -23.5t27 -74.5q0 -47 -29 -75.5t-76 -28.5q-41 0 -66.5 24.5t-25.5 73.5z" />
<glyph unicode="&#xa9;" horiz-adv-x="1517" d="M141 604q0 162 54.5 309.5t152.5 260t237.5 179t309.5 66.5q143 0 258 -49t197 -137t126 -210t44 -269q0 -160 -52.5 -304.5t-149.5 -255t-235.5 -176t-310.5 -65.5q-143 0 -259 47t-199 132t-128 205t-45 267zM248 621q0 -129 38 -233.5t106.5 -178.5t165.5 -114 t218 -40q141 0 259 54.5t202 147.5t130 219t46 269q0 125 -37 231.5t-104.5 183.5t-164.5 120t-218 43q-137 0 -254 -55.5t-203 -150.5t-135 -223t-49 -273zM496 645q0 88 24.5 170t75.5 144.5t128 99.5t179 37t164 -35q18 -23 26.5 -68t-1.5 -80q-41 23 -82 35.5t-97 12.5 q-131 0 -199.5 -85t-68.5 -214q0 -127 57.5 -181.5t159.5 -54.5q59 0 106.5 12.5t88.5 30.5q4 -35 -7.5 -79t-33.5 -66q-33 -16 -80 -28.5t-113 -12.5q-160 0 -243.5 95t-83.5 267z" />
<glyph unicode="&#xaa;" horiz-adv-x="731" d="M133 399q0 29 7 64t20 57h555q4 -4 7 -16t3 -35q0 -25 -5 -42t-11 -28h-576zM162 897q0 102 28.5 181t80 133.5t121 82t151.5 27.5q68 0 120 -17.5t93 -48.5l-47 -434q-4 -41 7 -54t36 -13q37 0 61 20q6 -29 -3 -66.5t-26 -54.5q-33 -23 -86 -22q-51 0 -81.5 23.5 t-34.5 80.5h-9q-25 -45 -71.5 -74.5t-124.5 -29.5q-45 0 -84 12t-68.5 43t-46 82t-16.5 129zM297 913q0 -80 29.5 -116.5t95.5 -36.5q53 0 91 24.5t67 65.5l43 334q-20 10 -42 16t-53 6q-61 0 -105 -26.5t-71.5 -68.5t-41 -94t-13.5 -104z" />
<glyph unicode="&#xab;" horiz-adv-x="1001" d="M172 518q55 106 114.5 199.5t125.5 185.5q33 16 82 26.5t102 10.5q-72 -106 -132.5 -210t-113.5 -208q55 -197 139 -385q-51 -51 -143 -63q-51 102 -96 218t-78 226zM555 518q55 106 114.5 199.5t125.5 185.5q33 16 82 26.5t102 10.5q-72 -106 -132.5 -210t-113.5 -208 q55 -197 139 -385q-51 -51 -143 -63q-51 102 -96 218t-78 226z" />
<glyph unicode="&#xac;" d="M164 504q0 39 7 86t19 74h916v-428q-25 -14 -88 -15q-59 0 -84 15v268h-770z" />
<glyph unicode="&#xad;" horiz-adv-x="638" d="M133 479q0 39 9.5 85t25.5 75h453q4 -8 8 -24.5t4 -39.5q0 -31 -6 -57t-15 -39h-479z" />
<glyph unicode="&#xae;" horiz-adv-x="1001" d="M164 1069q0 106 34.5 204.5t99 172.5t158 118t208.5 44q94 0 171.5 -31t131 -87t83 -137t29.5 -179q0 -106 -33.5 -204t-98 -172.5t-158 -118.5t-209.5 -44q-96 0 -173 30.5t-131.5 87t-83 137.5t-28.5 179zM256 1077q0 -166 88 -258t242 -92q92 0 166.5 34t127 92 t81 138t28.5 172q0 162 -85 259.5t-242 97.5q-90 0 -165 -34t-128.5 -93.5t-83 -140.5t-29.5 -175zM424 903l59 457q68 20 144 20q94 0 145 -38.5t51 -118.5q0 -106 -88 -152l82 -168q-16 -10 -57 -10q-23 0 -39 3t-27 7l-55 141q-25 -4 -52.5 -2t-39.5 7l-17 -146 q-14 -10 -53 -10q-37 0 -53 10zM555 1143q10 -2 28.5 -3t39.5 -1q37 0 67.5 16t30.5 62q0 37 -25.5 54t-68.5 17q-33 0 -54 -6z" />
<glyph unicode="&#xaf;" horiz-adv-x="888" d="M309 1206q0 33 8.5 69t24.5 64h510q4 -8 7 -19t3 -34q0 -55 -14 -80h-539z" />
<glyph unicode="&#xb0;" horiz-adv-x="716" d="M166 1100q0 68 20.5 126t58.5 101t94 67.5t128 24.5q117 0 185.5 -67.5t68.5 -192.5q0 -63 -19.5 -121.5t-57.5 -103.5t-95 -71.5t-131 -26.5q-121 0 -186.5 68.5t-65.5 195.5zM297 1112q0 -72 31.5 -111.5t95.5 -39.5q78 0 122 57t44 135q0 66 -32.5 104.5t-98.5 38.5 q-74 0 -118 -49t-44 -135z" />
<glyph unicode="&#xb1;" d="M225 0q0 35 6.5 82t18.5 72h819q4 -10 8 -30t4 -48q0 -27 -4 -46.5t-8 -29.5h-844zM229 694q0 35 6.5 82t18.5 72h315v315q31 14 74 19.5t90 5.5v-340h328q4 -10 8 -29.5t4 -48.5q0 -27 -4 -46t-8 -30h-328v-332q-25 -14 -82 -14t-82 14v332h-340z" />
<glyph unicode="&#xb2;" horiz-adv-x="788" d="M215 897q51 43 124 93t138.5 107.5t111.5 120t46 128.5q0 100 -135 100q-57 0 -101.5 -17.5t-95.5 -52.5q-4 35 3.5 70.5t23.5 64.5q35 31 90 50.5t127 19.5q111 0 175 -51t64 -158q0 -70 -28.5 -134t-75.5 -120.5t-107.5 -105.5t-121.5 -88v-9h305q4 -6 7 -20t3 -41 q0 -51 -14 -76h-523q-10 23 -13 53.5t-3 65.5z" />
<glyph unicode="&#xb3;" horiz-adv-x="788" d="M225 938q41 -18 99.5 -31.5t119.5 -13.5q76 0 129.5 25.5t53.5 87.5q0 59 -53.5 84.5t-176.5 25.5h-16q-8 23 -6 62t14 61h17q37 0 78.5 5t77.5 20.5t58.5 40t22.5 65.5q0 47 -36 65.5t-87 18.5q-57 0 -107.5 -16.5t-88.5 -38.5q-4 12 -2 30.5t7 38t13 37t18 29.5 q31 23 85.5 35t113.5 12q104 0 170 -44t66 -146q0 -78 -41 -131.5t-119 -69.5v-6q59 -14 101 -54t42 -126q0 -63 -25.5 -109.5t-70.5 -76.5t-106.5 -44t-131.5 -14q-53 0 -103 8t-87 23q-20 29 -26.5 70.5t-2.5 76.5z" />
<glyph unicode="&#xb4;" horiz-adv-x="888" d="M430 1221l250 295q41 0 84 -15.5t65 -46.5l-313 -319q-66 20 -86 86z" />
<glyph unicode="&#xb5;" horiz-adv-x="1148" d="M100 -469l185 1436q35 16 72.5 23t93.5 7l-76 -637q-6 -47 -6 -79q0 -66 34.5 -112t131.5 -46q104 0 166.5 47t113.5 119l88 690q14 8 32.5 11t49.5 3q59 0 80 -14l-82 -746q-4 -39 -1 -61t12.5 -34.5t24.5 -15.5t36 -3q29 0 49 8t39 18q6 -39 -5.5 -85t-31.5 -68 q-23 -16 -51.5 -24.5t-71.5 -8.5q-72 0 -115 36t-39 120h-8q-35 -59 -103.5 -107.5t-187.5 -48.5q-74 0 -131 23.5t-73 83.5h-9q6 -51 1 -130t-15 -172l-27 -233q-23 -14 -88 -14q-66 0 -88 14z" />
<glyph unicode="&#xb6;" horiz-adv-x="1050" d="M145 1026q0 113 39 191.5t110 130t172 75t228 23.5q188 0 334 -47l-172 -1737q-18 -12 -70 -12q-45 0 -63 12l176 1645q-35 8 -73 11t-76 3l-175 -1659q-18 -12 -67 -12q-47 0 -66 12l117 1034q-31 -6 -74 -6q-68 0 -130 16.5t-108 55.5t-74 103.5t-28 160.5z" />
<glyph unicode="&#xb7;" horiz-adv-x="460" d="M172 508q0 59 33 92t90 33q47 0 79 -27.5t32 -87.5q0 -57 -35 -91t-90 -34q-47 0 -78 29t-31 86z" />
<glyph unicode="&#xb8;" horiz-adv-x="888" d="M256 -393q27 4 57.5 12t56 23.5t42 37t16.5 52.5q0 41 -28.5 65.5t-69.5 34.5l73 176q23 10 54.5 17.5t66.5 7.5l-41 -144q43 -18 72 -53t29 -94q0 -98 -72 -155.5t-176 -73.5q-29 16 -50.5 38.5t-29.5 55.5z" />
<glyph unicode="&#xb9;" horiz-adv-x="788" d="M305 1384q4 35 13.5 70t25.5 59q47 20 138 39t182 27l-80 -791q-29 -14 -80 -14q-29 0 -45.5 3t-28.5 11l74 633z" />
<glyph unicode="&#xba;" horiz-adv-x="727" d="M137 399q0 29 7.5 64t19.5 57h528q4 -4 7 -16t3 -35q0 -25 -5 -42t-11 -28h-549zM174 926q0 74 19.5 144.5t61.5 125.5t106.5 90t154.5 35q129 0 203 -73.5t74 -227.5q0 -72 -18.5 -141.5t-60.5 -125t-107.5 -89t-157.5 -33.5q-135 0 -205 75.5t-70 219.5zM311 934 q0 -96 37 -138t107 -42q59 0 98 26.5t62.5 66.5t32.5 87t9 86q0 88 -37.5 135t-111.5 47q-55 0 -92 -24.5t-60.5 -63.5t-34 -87t-10.5 -93z" />
<glyph unicode="&#xbb;" horiz-adv-x="1001" d="M162 150q66 98 122 187t105 185q-31 104 -62.5 195.5t-72.5 183.5q29 20 65.5 30.5t75.5 10.5q51 -104 95.5 -215t74.5 -213q-61 -115 -131.5 -225.5t-146.5 -214.5q-43 4 -76 25.5t-49 50.5zM547 150q66 98 122 187t105 185q-31 104 -62.5 195.5t-72.5 183.5 q29 20 65.5 30.5t75.5 10.5q51 -104 95.5 -215t74.5 -213q-61 -115 -131.5 -225.5t-146.5 -214.5q-43 4 -76 25.5t-49 50.5z" />
<glyph unicode="&#xbc;" horiz-adv-x="1853" d="M193 1194q4 35 13 69.5t25 59.5q47 20 138.5 38.5t181.5 27.5l-80 -791q-29 -14 -80 -14q-29 0 -45 3t-29 11l74 633zM354 27l1059 1411q43 -2 74 -12.5t57 -39.5l-1075 -1454q-41 8 -71.5 34t-43.5 61zM1141 315l403 480q47 0 94.5 -7.5t79.5 -23.5l-47 -447h88 q10 -16 10 -53q0 -29 -5 -46t-11 -28h-94l-21 -180q-10 -6 -26.5 -10t-46.5 -4q-31 0 -47.5 4t-26.5 10l25 180h-351q-14 27 -19 59t-5 66zM1311 309q20 6 73 6h150l29 232q4 27 10 60.5t12 51.5h-8l-266 -342v-8z" />
<glyph unicode="&#xbd;" horiz-adv-x="1853" d="M188 1194q4 35 13.5 69.5t25.5 59.5q47 20 138.5 38.5t181.5 27.5l-80 -791q-29 -14 -80 -14q-29 0 -45 3t-29 11l74 633zM338 27l1059 1411q43 -2 73.5 -12.5t57.5 -39.5l-1075 -1454q-41 8 -72 34t-43 61zM1227 119q51 43 123.5 93t138 107.5t112 120t46.5 127.5 q0 100 -136 101q-57 0 -101 -17.5t-95 -52.5q-4 35 3 70.5t23 64.5q35 31 90.5 50.5t127.5 19.5q111 0 175 -51.5t64 -157.5q0 -70 -28.5 -134.5t-75.5 -120.5t-107.5 -105.5t-122.5 -88.5v-8h305q4 -6 7.5 -20.5t3.5 -40.5q0 -51 -15 -76h-522q-10 23 -13 53.5t-3 65.5z " />
<glyph unicode="&#xbe;" horiz-adv-x="1853" d="M190 748q41 -18 99.5 -32t120.5 -14q76 0 129 26t53 87q0 59 -53.5 85t-176.5 26h-16q-8 23 -6 61.5t14 61.5h17q37 0 79 5t77.5 20.5t58 40t22.5 65.5q0 47 -35.5 65.5t-87.5 18.5q-57 0 -107 -16.5t-89 -39.5q-4 12 -2 30.5t7 38t13 37t19 29.5q31 23 85 35.5t113 12.5 q104 0 170 -44t66 -147q0 -78 -41 -131t-119 -70v-6q59 -14 101 -54t42 -126q0 -63 -25.5 -109.5t-70.5 -76t-106.5 -44t-130.5 -14.5q-53 0 -103.5 8.5t-87.5 22.5q-20 29 -26.5 71t-2.5 77zM473 27l1059 1411q43 -2 73.5 -12.5t57.5 -39.5l-1075 -1454q-41 8 -72 34 t-43 61zM1188 315l403 480q47 0 94.5 -7.5t79.5 -23.5l-47 -447h88q10 -16 11 -53q0 -29 -5.5 -46t-11.5 -28h-94l-20 -180q-10 -6 -27 -10t-47 -4q-31 0 -47.5 4t-26.5 10l25 180h-351q-14 27 -19 59t-5 66zM1358 309q20 6 74 6h149l29 232q4 27 10 60.5t12 51.5h-8 l-266 -342v-8z" />
<glyph unicode="&#xbf;" horiz-adv-x="765" d="M-10 -201q0 84 32.5 148.5t82 115t106.5 92.5t106.5 81.5t82 81.5t32.5 96q0 37 -11 61.5t-36 48.5q23 31 55.5 49.5t71.5 24.5q86 -70 86 -192q0 -74 -30.5 -129.5t-78 -101.5t-101.5 -85t-101 -79t-78 -85t-31 -102q0 -63 44 -106.5t151 -43.5q88 0 178 34t168 99 q2 -18 1 -43.5t-7 -52t-16.5 -52.5t-22.5 -44q-53 -43 -143.5 -77t-211.5 -34q-164 0 -246.5 75t-82.5 220zM385 897q0 57 33 90t88 33q47 0 77.5 -27.5t30.5 -85.5q0 -55 -33.5 -89t-86.5 -34q-47 0 -78 29t-31 84z" />
<glyph unicode="&#xc0;" horiz-adv-x="1251" d="M41 10l631 1417q16 4 44.5 8.5t67.5 4.5q37 0 63.5 -4t43.5 -9l334 -1417q-23 -16 -88 -16q-29 0 -53.5 3t-36.5 13l-93 402h-551l-180 -402q-25 -16 -94 -16q-31 0 -54.5 3t-33.5 13zM467 565h457l-93 398q-18 78 -33.5 173t-23.5 187h-10q-25 -92 -57.5 -187.5 t-67.5 -177.5zM495 1712q10 41 36 77t61 58l360 -205q-6 -74 -55 -118z" />
<glyph unicode="&#xc1;" horiz-adv-x="1251" d="M41 10l631 1417q16 4 44.5 8.5t67.5 4.5q37 0 63.5 -4t43.5 -9l334 -1417q-23 -16 -88 -16q-29 0 -53.5 3t-36.5 13l-93 402h-551l-180 -402q-25 -16 -94 -16q-31 0 -54.5 3t-33.5 13zM467 565h457l-93 398q-18 78 -33.5 173t-23.5 187h-10q-25 -92 -57.5 -187.5 t-67.5 -177.5zM651 1655l428 203q27 -25 40 -64t13 -84l-453 -186q-35 47 -28 131z" />
<glyph unicode="&#xc2;" horiz-adv-x="1251" d="M41 10l631 1417q16 4 44.5 8.5t67.5 4.5q37 0 63.5 -4t43.5 -9l334 -1417q-23 -16 -88 -16q-29 0 -53.5 3t-36.5 13l-93 402h-551l-180 -402q-25 -16 -94 -16q-31 0 -54.5 3t-33.5 13zM467 565h457l-93 398q-18 78 -33.5 173t-23.5 187h-10q-25 -92 -57.5 -187.5 t-67.5 -177.5zM483 1649l248 168q27 12 90 12q29 0 48.5 -2t31.5 -6l217 -181q-4 -39 -23.5 -68.5t-46.5 -45.5l-235 168l-293 -168q-37 45 -37 123z" />
<glyph unicode="&#xc3;" horiz-adv-x="1251" d="M41 10l631 1417q16 4 44.5 8.5t67.5 4.5q37 0 63.5 -4t43.5 -9l334 -1417q-23 -16 -88 -16q-29 0 -53.5 3t-36.5 13l-93 402h-551l-180 -402q-25 -16 -94 -16q-31 0 -54.5 3t-33.5 13zM436 1616q20 78 78 134t150 56q61 0 99 -16t68.5 -35.5t61.5 -36t78 -16.5 q41 0 64.5 23.5t39.5 66.5q37 -2 63 -10t48 -31q-20 -84 -76.5 -140.5t-148.5 -56.5q-61 0 -99 16.5t-69 36t-61.5 36t-75.5 16.5q-82 0 -117 -94q-35 4 -61 16t-42 35zM467 565h457l-93 398q-18 78 -33.5 173t-23.5 187h-10q-25 -92 -57.5 -187.5t-67.5 -177.5z" />
<glyph unicode="&#xc4;" horiz-adv-x="1251" d="M41 10l631 1417q16 4 44.5 8.5t67.5 4.5q37 0 63.5 -4t43.5 -9l334 -1417q-23 -16 -88 -16q-29 0 -53.5 3t-36.5 13l-93 402h-551l-180 -402q-25 -16 -94 -16q-31 0 -54.5 3t-33.5 13zM467 565h457l-93 398q-18 78 -33.5 173t-23.5 187h-10q-25 -92 -57.5 -187.5 t-67.5 -177.5zM493 1663q0 53 30 82t81 29q45 0 72.5 -26t27.5 -79q0 -51 -30.5 -80.5t-79.5 -29.5q-45 0 -73 25.5t-28 78.5zM911 1663q0 53 30 82t81 29q45 0 72.5 -26t27.5 -79q0 -51 -30.5 -80.5t-80.5 -29.5q-45 0 -72.5 25.5t-27.5 78.5z" />
<glyph unicode="&#xc5;" horiz-adv-x="1251" d="M41 10l604 1354q-78 53 -78 162q0 102 66.5 170.5t183.5 68.5q96 0 151.5 -49t55.5 -147q0 -70 -29.5 -125t-89.5 -86l320 -1348q-23 -16 -88 -16q-29 0 -53.5 3t-36.5 13l-93 402h-551l-180 -402q-25 -16 -94 -16q-31 0 -54.5 3t-33.5 13zM467 565h457l-93 398 q-18 78 -33.5 173t-23.5 187h-10q-25 -92 -57.5 -187.5t-67.5 -177.5zM682 1538q0 -51 28.5 -76.5t75.5 -25.5q57 0 91 35.5t34 89.5q0 47 -26.5 73.5t-73.5 26.5q-53 0 -91 -32t-38 -91z" />
<glyph unicode="&#xc6;" horiz-adv-x="1884" d="M4 12l981 1411h903q4 -8 8.5 -23.5t4.5 -37.5q0 -29 -6.5 -54.5t-14.5 -37.5h-651l-51 -467h608q4 -8 8 -23.5t4 -38.5q0 -29 -6 -54t-14 -38h-615l-53 -487h678q4 -8 8 -23.5t4 -42.5q0 -31 -5 -56.5t-13 -39.5h-867l52 442h-461l-295 -430q-16 -10 -45 -13t-68 -3 q-31 0 -57.5 3t-36.5 13zM604 596h379l80 692h-8q-12 -27 -30.5 -59.5t-39 -67.5t-40 -66.5t-36.5 -54.5z" />
<glyph unicode="&#xc7;" horiz-adv-x="1193" d="M180 614q0 164 42 317.5t130 273.5t222.5 192.5t318.5 72.5q86 0 159.5 -16t129.5 -51q23 -31 31 -82t-3 -92q-70 41 -136 61.5t-152 20.5q-147 0 -254 -55.5t-174.5 -148.5t-99.5 -215t-32 -255q0 -137 31 -234.5t88.5 -160t138 -91t181.5 -28.5q96 0 176.5 21.5 t146.5 50.5q4 -43 -10 -93.5t-45 -78.5q-57 -29 -126 -47.5t-167 -22.5l-22 -80q49 -23 81.5 -59.5t32.5 -100.5q0 -49 -21.5 -89t-57 -70.5t-85 -50t-104.5 -27.5q-66 31 -82 104q31 4 65.5 12.5t62.5 22.5t46.5 35.5t18.5 54.5q0 43 -34 67.5t-81 34.5l59 152 q-229 27 -352 195t-123 460z" />
<glyph unicode="&#xc8;" horiz-adv-x="1150" d="M182 0l164 1423h809q4 -8 8 -23.5t4 -37.5q0 -29 -6 -54.5t-14 -37.5h-651l-52 -467h609q4 -8 8 -23.5t4 -38.5q0 -29 -6 -54t-15 -38h-614l-53 -487h678q4 -8 8 -23.5t4 -42.5q0 -31 -5 -56.5t-13 -39.5h-867zM475 1712q10 41 36 77t61 58l360 -205q-6 -74 -55 -118z " />
<glyph unicode="&#xc9;" horiz-adv-x="1150" d="M182 0l164 1423h809q4 -8 8 -23.5t4 -37.5q0 -29 -6 -54.5t-14 -37.5h-651l-52 -467h609q4 -8 8 -23.5t4 -38.5q0 -29 -6 -54t-15 -38h-614l-53 -487h678q4 -8 8 -23.5t4 -42.5q0 -31 -5 -56.5t-13 -39.5h-867zM645 1655l428 203q27 -25 40 -64t13 -84l-453 -186 q-35 47 -28 131z" />
<glyph unicode="&#xca;" horiz-adv-x="1150" d="M182 0l164 1423h809q4 -8 8 -23.5t4 -37.5q0 -29 -6 -54.5t-14 -37.5h-651l-52 -467h609q4 -8 8 -23.5t4 -38.5q0 -29 -6 -54t-15 -38h-614l-53 -487h678q4 -8 8 -23.5t4 -42.5q0 -31 -5 -56.5t-13 -39.5h-867zM467 1649l248 168q27 12 90 12q29 0 48.5 -2t31.5 -6 l217 -181q-4 -39 -23.5 -68.5t-46.5 -45.5l-235 168l-293 -168q-37 45 -37 123z" />
<glyph unicode="&#xcb;" horiz-adv-x="1150" d="M182 0l164 1423h809q4 -8 8 -23.5t4 -37.5q0 -29 -6 -54.5t-14 -37.5h-651l-52 -467h609q4 -8 8 -23.5t4 -38.5q0 -29 -6 -54t-15 -38h-614l-53 -487h678q4 -8 8 -23.5t4 -42.5q0 -31 -5 -56.5t-13 -39.5h-867zM471 1663q0 53 30 82t81 29q45 0 72.5 -26t27.5 -79 q0 -51 -30.5 -80.5t-79.5 -29.5q-45 0 -73 25.5t-28 78.5zM889 1663q0 53 30 82t81 29q45 0 72.5 -26t27.5 -79q0 -51 -30.5 -80.5t-80.5 -29.5q-45 0 -72.5 25.5t-27.5 78.5z" />
<glyph unicode="&#xcc;" horiz-adv-x="544" d="M147 1712q10 41 36 77t61 58l360 -205q-6 -74 -55 -118zM184 8l162 1407q23 14 86 15q59 0 82 -15l-145 -1407q-27 -14 -93 -14q-70 0 -92 14z" />
<glyph unicode="&#xcd;" horiz-adv-x="544" d="M184 8l162 1407q23 14 86 15q59 0 82 -15l-145 -1407q-27 -14 -93 -14q-70 0 -92 14zM314 1655l428 203q27 -25 40 -64t13 -84l-453 -186q-35 47 -28 131z" />
<glyph unicode="&#xce;" horiz-adv-x="544" d="M137 1649l248 168q27 12 90 12q29 0 48.5 -2t31.5 -6l217 -181q-4 -39 -23.5 -68.5t-46.5 -45.5l-235 168l-293 -168q-37 45 -37 123zM184 8l162 1407q23 14 86 15q59 0 82 -15l-145 -1407q-27 -14 -93 -14q-70 0 -92 14z" />
<glyph unicode="&#xcf;" horiz-adv-x="544" d="M158 1663q0 53 29.5 82t80.5 29q45 0 73 -26t28 -79q0 -51 -31 -80.5t-80 -29.5q-45 0 -72.5 25.5t-27.5 78.5zM184 8l162 1407q23 14 86 15q59 0 82 -15l-145 -1407q-27 -14 -93 -14q-70 0 -92 14zM545 1663q0 53 29.5 82t80.5 29q45 0 73 -26t28 -79q0 -51 -31 -80.5 t-80 -29.5q-45 0 -72.5 25.5t-27.5 78.5z" />
<glyph unicode="&#xd0;" horiz-adv-x="1345" d="M98 707q0 29 6.5 54t14.5 36h170l71 606q72 16 147 25.5t167 9.5q154 0 276.5 -40t210.5 -123t135 -210t47 -301q0 -172 -48 -315.5t-143 -245t-239.5 -157.5t-337.5 -56q-98 0 -195 5t-183 15l73 635h-159q-4 10 -8.5 24.5t-4.5 37.5zM397 162q45 -6 98.5 -8t100.5 -2 q145 0 251.5 46t176.5 127t103.5 191.5t33.5 241.5q0 272 -131 398t-358 126q-41 0 -83 -3t-77 -13l-49 -469h377q4 -10 8 -24.5t4 -37.5q0 -29 -6 -54.5t-15 -35.5h-385z" />
<glyph unicode="&#xd1;" horiz-adv-x="1413" d="M182 6l166 1407q20 8 45 12.5t66 4.5t63.5 -4.5t40.5 -12.5l418 -928q31 -68 55.5 -153.5t38.5 -171.5h8l142 1255q20 14 80 15q55 0 75 -15l-143 -1411q-18 -6 -49 -10t-72 -4t-67.5 4t-42.5 10l-426 969q-29 66 -52.5 145.5t-33.5 157.5h-9l-129 -1270q-25 -12 -88 -12 q-66 0 -86 12zM524 1616q20 78 78 134t150 56q61 0 99 -16t68.5 -35.5t61.5 -36t78 -16.5q41 0 64.5 23.5t39.5 66.5q37 -2 63 -10t48 -31q-20 -84 -76.5 -140.5t-148.5 -56.5q-61 0 -99 16.5t-69 36t-61.5 36t-75.5 16.5q-82 0 -117 -94q-35 4 -61 16t-42 35z" />
<glyph unicode="&#xd2;" horiz-adv-x="1425" d="M186 610q0 164 39 319.5t120 275.5t207 192.5t302 72.5q125 0 225.5 -40.5t171 -123.5t109.5 -206t39 -289q0 -98 -15.5 -200.5t-48 -198t-85 -179t-127 -146t-174 -98.5t-224.5 -36q-260 0 -399.5 163.5t-139.5 493.5zM369 621q0 -246 94 -374t274 -128 q135 0 227.5 66.5t148.5 168t80 223t24 232.5q0 242 -95.5 372t-281.5 130q-131 0 -221.5 -63.5t-145.5 -164t-79.5 -222.5t-24.5 -240zM577 1712q10 41 36 77t61 58l360 -205q-6 -74 -55 -118z" />
<glyph unicode="&#xd3;" horiz-adv-x="1425" d="M186 610q0 164 39 319.5t120 275.5t207 192.5t302 72.5q125 0 225.5 -40.5t171 -123.5t109.5 -206t39 -289q0 -98 -15.5 -200.5t-48 -198t-85 -179t-127 -146t-174 -98.5t-224.5 -36q-260 0 -399.5 163.5t-139.5 493.5zM369 621q0 -246 94 -374t274 -128 q135 0 227.5 66.5t148.5 168t80 223t24 232.5q0 242 -95.5 372t-281.5 130q-131 0 -221.5 -63.5t-145.5 -164t-79.5 -222.5t-24.5 -240zM748 1655l428 203q27 -25 40 -64t13 -84l-453 -186q-35 47 -28 131z" />
<glyph unicode="&#xd4;" horiz-adv-x="1425" d="M186 610q0 164 39 319.5t120 275.5t207 192.5t302 72.5q125 0 225.5 -40.5t171 -123.5t109.5 -206t39 -289q0 -98 -15.5 -200.5t-48 -198t-85 -179t-127 -146t-174 -98.5t-224.5 -36q-260 0 -399.5 163.5t-139.5 493.5zM369 621q0 -246 94 -374t274 -128 q135 0 227.5 66.5t148.5 168t80 223t24 232.5q0 242 -95.5 372t-281.5 130q-131 0 -221.5 -63.5t-145.5 -164t-79.5 -222.5t-24.5 -240zM573 1649l248 168q27 12 90 12q29 0 48.5 -2t31.5 -6l217 -181q-4 -39 -23.5 -68.5t-46.5 -45.5l-235 168l-293 -168q-37 45 -37 123z " />
<glyph unicode="&#xd5;" horiz-adv-x="1425" d="M186 610q0 164 39 319.5t120 275.5t207 192.5t302 72.5q125 0 225.5 -40.5t171 -123.5t109.5 -206t39 -289q0 -98 -15.5 -200.5t-48 -198t-85 -179t-127 -146t-174 -98.5t-224.5 -36q-260 0 -399.5 163.5t-139.5 493.5zM369 621q0 -246 94 -374t274 -128 q135 0 227.5 66.5t148.5 168t80 223t24 232.5q0 242 -95.5 372t-281.5 130q-131 0 -221.5 -63.5t-145.5 -164t-79.5 -222.5t-24.5 -240zM522 1616q20 78 78 134t150 56q61 0 99 -16t68.5 -35.5t61.5 -36t78 -16.5q41 0 64.5 23.5t39.5 66.5q37 -2 63 -10t48 -31 q-20 -84 -76.5 -140.5t-148.5 -56.5q-61 0 -99 16.5t-69 36t-61.5 36t-75.5 16.5q-82 0 -117 -94q-35 4 -61 16t-42 35z" />
<glyph unicode="&#xd6;" horiz-adv-x="1425" d="M186 610q0 164 39 319.5t120 275.5t207 192.5t302 72.5q125 0 225.5 -40.5t171 -123.5t109.5 -206t39 -289q0 -98 -15.5 -200.5t-48 -198t-85 -179t-127 -146t-174 -98.5t-224.5 -36q-260 0 -399.5 163.5t-139.5 493.5zM369 621q0 -246 94 -374t274 -128 q135 0 227.5 66.5t148.5 168t80 223t24 232.5q0 242 -95.5 372t-281.5 130q-131 0 -221.5 -63.5t-145.5 -164t-79.5 -222.5t-24.5 -240zM528 1663q0 53 30 82t81 29q45 0 72.5 -26t27.5 -79q0 -51 -30.5 -80.5t-79.5 -29.5q-45 0 -73 25.5t-28 78.5zM1053 1663q0 53 29.5 82 t80.5 29q45 0 73 -26t28 -79q0 -51 -31 -80.5t-80 -29.5q-45 0 -72.5 25.5t-27.5 78.5z" />
<glyph unicode="&#xd7;" d="M190 895q59 66 144 92l313 -313l305 311q82 -20 144 -86l-336 -338l340 -336q-14 -37 -44 -69.5t-71 -49.5l-340 338l-336 -335q-84 39 -112 116l338 330z" />
<glyph unicode="&#xd8;" horiz-adv-x="1441" d="M61 -16l205 235q-37 78 -56.5 174t-19.5 217q0 164 39 319.5t121 275.5t209 192.5t303 72.5q113 0 208 -33.5t161 -101.5l178 205q41 -12 71.5 -39.5t45.5 -68.5l-197 -226q82 -158 82 -395q0 -98 -15.5 -200.5t-48 -198t-86 -179t-128 -146t-174 -98.5t-226.5 -36 q-233 0 -371 133l-190 -217q-43 16 -71.5 44t-39.5 71zM373 621q0 -147 37 -254l708 829q-98 115 -270 115q-133 0 -223 -63.5t-146.5 -164t-81 -222.5t-24.5 -240zM483 229q94 -111 262 -110q137 0 230.5 66.5t150 168t80 223t23.5 232.5q0 72 -9.5 137.5t-27.5 116.5z" />
<glyph unicode="&#xd9;" horiz-adv-x="1363" d="M217 397q0 29 2 64t6 63l103 891q23 14 84 15q61 0 82 -15l-93 -897q-12 -109 2.5 -185.5t52.5 -123.5t99 -68.5t145 -21.5q184 0 274.5 98t112.5 297l99 901q23 14 80 15q61 0 82 -15l-86 -903q-27 -274 -165.5 -416.5t-410.5 -142.5q-129 0 -218 31.5t-145.5 89 t-81 139.5t-24.5 184zM555 1712q10 41 36 77t61 58l360 -205q-6 -74 -55 -118z" />
<glyph unicode="&#xda;" horiz-adv-x="1363" d="M217 397q0 29 2 64t6 63l103 891q23 14 84 15q61 0 82 -15l-93 -897q-12 -109 2.5 -185.5t52.5 -123.5t99 -68.5t145 -21.5q184 0 274.5 98t112.5 297l99 901q23 14 80 15q61 0 82 -15l-86 -903q-27 -274 -165.5 -416.5t-410.5 -142.5q-129 0 -218 31.5t-145.5 89 t-81 139.5t-24.5 184zM719 1655l428 203q27 -25 40 -64t13 -84l-453 -186q-35 47 -28 131z" />
<glyph unicode="&#xdb;" horiz-adv-x="1363" d="M217 397q0 29 2 64t6 63l103 891q23 14 84 15q61 0 82 -15l-93 -897q-12 -109 2.5 -185.5t52.5 -123.5t99 -68.5t145 -21.5q184 0 274.5 98t112.5 297l99 901q23 14 80 15q61 0 82 -15l-86 -903q-27 -274 -165.5 -416.5t-410.5 -142.5q-129 0 -218 31.5t-145.5 89 t-81 139.5t-24.5 184zM541 1649l248 168q27 12 90 12q29 0 48.5 -2t31.5 -6l217 -181q-4 -39 -23.5 -68.5t-46.5 -45.5l-235 168l-293 -168q-37 45 -37 123z" />
<glyph unicode="&#xdc;" horiz-adv-x="1363" d="M217 397q0 29 2 64t6 63l103 891q23 14 84 15q61 0 82 -15l-93 -897q-12 -109 2.5 -185.5t52.5 -123.5t99 -68.5t145 -21.5q184 0 274.5 98t112.5 297l99 901q23 14 80 15q61 0 82 -15l-86 -903q-27 -274 -165.5 -416.5t-410.5 -142.5q-129 0 -218 31.5t-145.5 89 t-81 139.5t-24.5 184zM551 1663q0 53 30 82t81 29q45 0 72.5 -26t27.5 -79q0 -51 -30.5 -80.5t-79.5 -29.5q-45 0 -73 25.5t-28 78.5zM969 1663q0 53 30 82t81 29q45 0 72.5 -26t27.5 -79q0 -51 -30.5 -80.5t-80.5 -29.5q-45 0 -72.5 25.5t-27.5 78.5z" />
<glyph unicode="&#xdd;" horiz-adv-x="1091" d="M172 1413q29 16 90 17q59 0 92 -17l207 -532q43 -106 62 -240h10q16 66 40.5 129.5t53.5 110.5l320 532q33 16 96 17q68 0 90 -17l-541 -911l-51 -494q-27 -14 -94 -14q-68 0 -90 14l57 504zM592 1655l428 203q27 -25 40 -64t13 -84l-453 -186q-35 47 -28 131z" />
<glyph unicode="&#xde;" horiz-adv-x="1110" d="M184 8l162 1407q23 14 86 15q59 0 82 -15l-27 -260q41 10 86 13t99 3q106 0 196 -23.5t156 -73.5t102.5 -129t36.5 -191q0 -111 -35.5 -201t-104.5 -152.5t-167 -97.5t-221 -35q-59 0 -122.5 4t-115.5 19l-28 -283q-27 -14 -93 -14q-70 0 -92 14zM412 444q90 -23 223 -22 q154 0 252 78t98 237q0 150 -90 215.5t-250 65.5q-47 0 -93 -5t-83 -16z" />
<glyph unicode="&#xdf;" horiz-adv-x="1208" d="M125 -309l151 1237q20 172 68.5 287.5t116 186.5t151.5 101.5t179 30.5q55 0 111 -11.5t103.5 -41t77 -81.5t29.5 -132q0 -74 -22.5 -123t-55.5 -83t-71.5 -60.5t-71.5 -54t-55.5 -62.5t-22.5 -88q0 -57 28.5 -92t71.5 -62t92.5 -51.5t92.5 -60t71.5 -90t28.5 -138.5 q0 -168 -108.5 -256t-292.5 -88q-82 0 -160 16.5t-127 44.5q-20 35 -20 86t16 84q49 -39 131 -62.5t160 -23.5q96 0 163.5 44.5t67.5 140.5q0 59 -28.5 96t-70.5 65.5t-92.5 53t-92.5 59.5t-70.5 85t-28.5 128q0 74 22.5 125t56.5 88t74 64.5t73.5 54.5t56 58.5t22.5 76.5 q0 84 -50 115t-122 31q-61 0 -116.5 -21.5t-99.5 -74t-76.5 -141.5t-47.5 -222l-137 -1239q-23 -14 -88 -15q-66 0 -88 15z" />
<glyph unicode="&#xe0;" horiz-adv-x="1114" d="M150 365q0 131 33.5 249.5t101.5 210.5q78 106 188.5 154.5t243.5 48.5q100 0 174 -24.5t135 -69.5l-80 -701q-4 -39 -1 -61t12.5 -34.5t24.5 -15.5t36 -3q29 0 49 8t39 18q6 -39 -5 -85t-32 -68q-23 -16 -52.5 -24.5t-72.5 -8.5q-74 0 -119 38t-43 130h-8 q-41 -70 -116.5 -119t-192.5 -49q-66 0 -123 19.5t-100 66.5t-67.5 125t-24.5 195zM324 389q0 -137 47 -201.5t155 -64.5q92 0 151.5 43t104.5 106l72 576q-53 35 -145 35q-102 0 -172 -36t-113 -93q-55 -72 -77.5 -173.5t-22.5 -191.5zM495 1458q25 27 65 44.5t83 17.5 l182 -312q-18 -29 -41.5 -45t-60.5 -24z" />
<glyph unicode="&#xe1;" horiz-adv-x="1114" d="M150 365q0 131 33.5 249.5t101.5 210.5q78 106 188.5 154.5t243.5 48.5q100 0 174 -24.5t135 -69.5l-80 -701q-4 -39 -1 -61t12.5 -34.5t24.5 -15.5t36 -3q29 0 49 8t39 18q6 -39 -5 -85t-32 -68q-23 -16 -52.5 -24.5t-72.5 -8.5q-74 0 -119 38t-43 130h-8 q-41 -70 -116.5 -119t-192.5 -49q-66 0 -123 19.5t-100 66.5t-67.5 125t-24.5 195zM324 389q0 -137 47 -201.5t155 -64.5q92 0 151.5 43t104.5 106l72 576q-53 35 -145 35q-102 0 -172 -36t-113 -93q-55 -72 -77.5 -173.5t-22.5 -191.5zM584 1221l250 295q41 0 84 -15.5 t65 -46.5l-313 -319q-66 20 -86 86z" />
<glyph unicode="&#xe2;" horiz-adv-x="1114" d="M150 365q0 131 33.5 249.5t101.5 210.5q78 106 188.5 154.5t243.5 48.5q100 0 174 -24.5t135 -69.5l-80 -701q-4 -39 -1 -61t12.5 -34.5t24.5 -15.5t36 -3q29 0 49 8t39 18q6 -39 -5 -85t-32 -68q-23 -16 -52.5 -24.5t-72.5 -8.5q-74 0 -119 38t-43 130h-8 q-41 -70 -116.5 -119t-192.5 -49q-66 0 -123 19.5t-100 66.5t-67.5 125t-24.5 195zM324 389q0 -137 47 -201.5t155 -64.5q92 0 151.5 43t104.5 106l72 576q-53 35 -145 35q-102 0 -172 -36t-113 -93q-55 -72 -77.5 -173.5t-22.5 -191.5zM426 1241l235 246q31 14 68 17t75 3 l195 -295q-29 -66 -98 -84l-174 236l-244 -244q-49 49 -57 121z" />
<glyph unicode="&#xe3;" horiz-adv-x="1114" d="M150 365q0 131 33.5 249.5t101.5 210.5q78 106 188.5 154.5t243.5 48.5q100 0 174 -24.5t135 -69.5l-80 -701q-4 -39 -1 -61t12.5 -34.5t24.5 -15.5t36 -3q29 0 49 8t39 18q6 -39 -5 -85t-32 -68q-23 -16 -52.5 -24.5t-72.5 -8.5q-74 0 -119 38t-43 130h-8 q-41 -70 -116.5 -119t-192.5 -49q-66 0 -123 19.5t-100 66.5t-67.5 125t-24.5 195zM324 389q0 -137 47 -201.5t155 -64.5q92 0 151.5 43t104.5 106l72 576q-53 35 -145 35q-102 0 -172 -36t-113 -93q-55 -72 -77.5 -173.5t-22.5 -191.5zM391 1239q20 74 71.5 119t124.5 45 q53 0 86 -16.5t60 -37t50.5 -37t57.5 -16.5q35 0 57.5 21.5t28.5 64.5q35 0 62 -7t49 -23q-16 -88 -66.5 -141.5t-132.5 -53.5q-51 0 -82.5 16.5t-58.5 37t-52.5 37t-64.5 16.5q-70 0 -98 -99q-63 10 -92 74z" />
<glyph unicode="&#xe4;" horiz-adv-x="1114" d="M150 365q0 131 33.5 249.5t101.5 210.5q78 106 188.5 154.5t243.5 48.5q100 0 174 -24.5t135 -69.5l-80 -701q-4 -39 -1 -61t12.5 -34.5t24.5 -15.5t36 -3q29 0 49 8t39 18q6 -39 -5 -85t-32 -68q-23 -16 -52.5 -24.5t-72.5 -8.5q-74 0 -119 38t-43 130h-8 q-41 -70 -116.5 -119t-192.5 -49q-66 0 -123 19.5t-100 66.5t-67.5 125t-24.5 195zM324 389q0 -137 47 -201.5t155 -64.5q92 0 151.5 43t104.5 106l72 576q-53 35 -145 35q-102 0 -172 -36t-113 -93q-55 -72 -77.5 -173.5t-22.5 -191.5zM422 1276q0 49 28 76.5t75 27.5 q41 0 67.5 -23.5t26.5 -74.5q0 -47 -29 -75.5t-76 -28.5q-41 0 -66.5 24.5t-25.5 73.5zM819 1276q0 49 28 76.5t75 27.5q41 0 67.5 -23.5t26.5 -74.5q0 -47 -28.5 -75.5t-75.5 -28.5q-41 0 -67 24.5t-26 73.5z" />
<glyph unicode="&#xe5;" horiz-adv-x="1114" d="M150 365q0 131 33.5 249.5t101.5 210.5q78 106 188.5 154.5t243.5 48.5q100 0 174 -24.5t135 -69.5l-80 -701q-4 -39 -1 -61t12.5 -34.5t24.5 -15.5t36 -3q29 0 49 8t39 18q6 -39 -5 -85t-32 -68q-23 -16 -52.5 -24.5t-72.5 -8.5q-74 0 -119 38t-43 130h-8 q-41 -70 -116.5 -119t-192.5 -49q-66 0 -123 19.5t-100 66.5t-67.5 125t-24.5 195zM324 389q0 -137 47 -201.5t155 -64.5q92 0 151.5 43t104.5 106l72 576q-53 35 -145 35q-102 0 -172 -36t-113 -93q-55 -72 -77.5 -173.5t-22.5 -191.5zM516 1311q0 94 57.5 160.5 t168.5 66.5q86 0 136 -47t50 -139q0 -96 -57.5 -162t-167.5 -66q-90 0 -138.5 48.5t-48.5 138.5zM621 1321q0 -49 24.5 -72.5t65.5 -23.5q53 0 84 32.5t31 88.5q0 47 -26 69.5t-67 22.5q-51 0 -81.5 -32t-30.5 -85z" />
<glyph unicode="&#xe6;" horiz-adv-x="1548" d="M127 236q0 84 29.5 150.5t85 113.5t132.5 72.5t173 25.5q51 0 104.5 -7t93.5 -24l11 66q8 55 5 100t-24.5 77t-64.5 48t-113 16q-78 0 -149.5 -24.5t-137.5 -65.5q-10 35 3.5 86.5t37.5 83.5q49 33 126 53.5t163 20.5q229 0 281 -176q72 84 170 130t217 46 q139 0 214 -64.5t75 -181.5q0 -70 -31 -135t-106.5 -117.5t-203.5 -85t-321 -38.5q0 -166 57.5 -227.5t184.5 -61.5q102 0 185 31.5t161 93.5q0 -20 -3 -45t-9.5 -49.5t-16.5 -46t-22 -35.5q-49 -39 -136.5 -73t-203.5 -34q-119 0 -196 40t-126 126h-8q-47 -70 -130 -118 t-206 -48q-61 0 -115.5 14.5t-95.5 47t-65.5 86t-24.5 129.5zM297 264q0 -78 50 -113.5t128 -35.5q82 0 146.5 35.5t113.5 95.5q-6 29 -8 60.5t-2 66.5v53q-35 14 -79 22.5t-91 8.5q-113 0 -185.5 -47.5t-72.5 -145.5zM909 549q131 2 224.5 19.5t151.5 47t85 69.5t27 87 q0 49 -31 81t-113 32q-162 0 -262 -135q-29 -39 -49.5 -88.5t-32.5 -112.5z" />
<glyph unicode="&#xe7;" horiz-adv-x="925" d="M154 424q0 104 22.5 201.5t71.5 179.5q63 102 167.5 162.5t258.5 60.5q137 0 217 -55q20 -29 28.5 -78t-1.5 -90q-51 35 -102.5 51t-119.5 16q-109 0 -182.5 -42t-118.5 -113q-68 -113 -67 -268q0 -174 76.5 -250t218.5 -76q74 0 133 17.5t112 43.5q4 -41 -9 -89t-40 -77 q-43 -23 -97 -39t-124 -18l-20 -72q43 -18 71.5 -53t28.5 -94q0 -98 -71.5 -155.5t-176.5 -73.5q-29 16 -50.5 38.5t-29.5 55.5q27 4 57.5 12t56 23.5t42 37t16.5 52.5q0 41 -28.5 65.5t-69.5 34.5l55 133q-160 25 -242.5 140.5t-82.5 318.5z" />
<glyph unicode="&#xe8;" horiz-adv-x="976" d="M154 373q0 135 38.5 259t116.5 216q72 86 170.5 133t218.5 47q139 0 214 -64.5t75 -181.5q0 -70 -30.5 -135t-106.5 -117.5t-204 -85t-320 -38.5q0 -166 57 -227.5t184 -61.5q102 0 185.5 31.5t160.5 93.5q0 -20 -3 -45t-9 -49.5t-16.5 -46t-22.5 -35.5q-49 -39 -136 -73 t-204 -34q-190 0 -279 104.5t-89 309.5zM338 549q131 2 224 19.5t151.5 47t85 69.5t26.5 87q0 49 -30.5 81t-112.5 32q-162 0 -262 -135q-29 -39 -49.5 -88.5t-32.5 -112.5zM467 1458q25 27 65 44.5t83 17.5l182 -312q-18 -29 -41.5 -45t-60.5 -24z" />
<glyph unicode="&#xe9;" horiz-adv-x="976" d="M154 373q0 135 38.5 259t116.5 216q72 86 170.5 133t218.5 47q139 0 214 -64.5t75 -181.5q0 -70 -30.5 -135t-106.5 -117.5t-204 -85t-320 -38.5q0 -166 57 -227.5t184 -61.5q102 0 185.5 31.5t160.5 93.5q0 -20 -3 -45t-9 -49.5t-16.5 -46t-22.5 -35.5q-49 -39 -136 -73 t-204 -34q-190 0 -279 104.5t-89 309.5zM338 549q131 2 224 19.5t151.5 47t85 69.5t26.5 87q0 49 -30.5 81t-112.5 32q-162 0 -262 -135q-29 -39 -49.5 -88.5t-32.5 -112.5zM555 1221l250 295q41 0 84 -15.5t65 -46.5l-313 -319q-66 20 -86 86z" />
<glyph unicode="&#xea;" horiz-adv-x="976" d="M154 373q0 135 38.5 259t116.5 216q72 86 170.5 133t218.5 47q139 0 214 -64.5t75 -181.5q0 -70 -30.5 -135t-106.5 -117.5t-204 -85t-320 -38.5q0 -166 57 -227.5t184 -61.5q102 0 185.5 31.5t160.5 93.5q0 -20 -3 -45t-9 -49.5t-16.5 -46t-22.5 -35.5q-49 -39 -136 -73 t-204 -34q-190 0 -279 104.5t-89 309.5zM338 549q131 2 224 19.5t151.5 47t85 69.5t26.5 87q0 49 -30.5 81t-112.5 32q-162 0 -262 -135q-29 -39 -49.5 -88.5t-32.5 -112.5zM402 1241l235 246q31 14 68 17t75 3l195 -295q-29 -66 -98 -84l-174 236l-244 -244q-49 49 -57 121 z" />
<glyph unicode="&#xeb;" horiz-adv-x="976" d="M154 373q0 135 38.5 259t116.5 216q72 86 170.5 133t218.5 47q139 0 214 -64.5t75 -181.5q0 -70 -30.5 -135t-106.5 -117.5t-204 -85t-320 -38.5q0 -166 57 -227.5t184 -61.5q102 0 185.5 31.5t160.5 93.5q0 -20 -3 -45t-9 -49.5t-16.5 -46t-22.5 -35.5q-49 -39 -136 -73 t-204 -34q-190 0 -279 104.5t-89 309.5zM338 549q131 2 224 19.5t151.5 47t85 69.5t26.5 87q0 49 -30.5 81t-112.5 32q-162 0 -262 -135q-29 -39 -49.5 -88.5t-32.5 -112.5zM389 1276q0 49 28 76.5t75 27.5q41 0 67.5 -23.5t26.5 -74.5q0 -47 -29 -75.5t-76 -28.5 q-41 0 -66.5 24.5t-25.5 73.5zM786 1276q0 49 28 76.5t75 27.5q41 0 67.5 -23.5t26.5 -74.5q0 -47 -28.5 -75.5t-75.5 -28.5q-41 0 -67 24.5t-26 73.5z" />
<glyph unicode="&#xec;" horiz-adv-x="526" d="M180 145q0 39 6 82l97 752q14 8 32.5 11t49.5 3q59 0 79 -14l-84 -746q-4 -39 -1 -61t12.5 -34.5t25 -15.5t35.5 -3q29 0 49.5 8t38.5 18q6 -39 -5 -85t-32 -68q-23 -16 -52.5 -24.5t-72.5 -8.5q-104 0 -141 51t-37 135zM182 1458q25 27 65 44.5t83 17.5l182 -312 q-18 -29 -41.5 -45t-60.5 -24z" />
<glyph unicode="&#xed;" horiz-adv-x="526" d="M180 145q0 39 6 82l97 752q14 8 32.5 11t49.5 3q59 0 79 -14l-84 -746q-4 -39 -1 -61t12.5 -34.5t25 -15.5t35.5 -3q29 0 49.5 8t38.5 18q6 -39 -5 -85t-32 -68q-23 -16 -52.5 -24.5t-72.5 -8.5q-104 0 -141 51t-37 135zM275 1221l250 295q41 0 84 -15.5t65 -46.5 l-313 -319q-66 20 -86 86z" />
<glyph unicode="&#xee;" horiz-adv-x="526" d="M115 1241l235 246q31 14 68 17t75 3l195 -295q-29 -66 -98 -84l-174 236l-244 -244q-49 49 -57 121zM180 145q0 39 6 82l97 752q14 8 32.5 11t49.5 3q59 0 79 -14l-84 -746q-4 -39 -1 -61t12.5 -34.5t25 -15.5t35.5 -3q29 0 49.5 8t38.5 18q6 -39 -5 -85t-32 -68 q-23 -16 -52.5 -24.5t-72.5 -8.5q-104 0 -141 51t-37 135z" />
<glyph unicode="&#xef;" horiz-adv-x="526" d="M129 1276q0 49 27.5 76.5t74.5 27.5q41 0 68 -23.5t27 -74.5q0 -47 -29 -75.5t-76 -28.5q-41 0 -66.5 24.5t-25.5 73.5zM180 145q0 39 6 82l97 752q14 8 32.5 11t49.5 3q59 0 79 -14l-84 -746q-4 -39 -1 -61t12.5 -34.5t25 -15.5t35.5 -3q29 0 49.5 8t38.5 18 q6 -39 -5 -85t-32 -68q-23 -16 -52.5 -24.5t-72.5 -8.5q-104 0 -141 51t-37 135zM479 1276q0 49 28 76.5t75 27.5q41 0 67.5 -23.5t26.5 -74.5q0 -47 -29 -75.5t-76 -28.5q-41 0 -66.5 24.5t-25.5 73.5z" />
<glyph unicode="&#xf0;" horiz-adv-x="1073" d="M139 389q0 106 30 206.5t88 178.5t145 124t202 46q96 0 168 -32.5t115 -90.5h8q-6 129 -43 224.5t-94 162.5l-287 -143q-10 25 -13 65.5t5 69.5l196 96q-66 47 -137 76t-139 45q8 35 29.5 68t44.5 49q111 -29 199.5 -69t160.5 -99l197 98q23 -16 38 -44.5t19 -63.5 l-164 -82q152 -197 152 -522q0 -78 -9.5 -166t-33 -176t-62.5 -170t-98 -144.5t-140 -99.5t-188 -37q-182 0 -285.5 109.5t-103.5 320.5zM311 406q0 -139 61.5 -213t174.5 -74q102 0 167.5 57t102.5 141t51.5 180.5t18.5 174.5q-47 51 -102.5 86t-147.5 35q-84 0 -145.5 -33 t-101.5 -86t-59.5 -124t-19.5 -144z" />
<glyph unicode="&#xf1;" horiz-adv-x="1134" d="M164 8l121 971q49 23 137 22l-8 -178h8q20 41 50 78t71 65.5t95 45t122 16.5q135 0 202.5 -71.5t67.5 -211.5q0 -61 -6 -110l-43 -402q-8 -74 11.5 -94t56.5 -20q31 0 50 7t42 19q6 -39 -5.5 -85t-31.5 -68q-23 -16 -52.5 -24.5t-72.5 -8.5q-104 0 -141 51t-37 135 q0 39 6 82l49 383q6 45 6 84q0 37 -7 69t-25.5 55.5t-50 37.5t-81.5 14q-104 0 -170.5 -58t-113.5 -144l-76 -660q-23 -14 -88 -14q-63 0 -86 14zM387 1239q20 74 71.5 119t124.5 45q53 0 86 -16.5t60 -37t50.5 -37t57.5 -16.5q35 0 57.5 21.5t28.5 64.5q35 0 62 -7t49 -23 q-16 -88 -66.5 -141.5t-132.5 -53.5q-51 0 -82.5 16.5t-58.5 37t-52.5 37t-64.5 16.5q-70 0 -98 -99q-63 10 -92 74z" />
<glyph unicode="&#xf2;" horiz-adv-x="1071" d="M156 403q0 100 22.5 202t67.5 183q59 106 161.5 173t245.5 67q180 0 287 -114.5t107 -338.5q0 -111 -29 -230.5t-90 -205.5q-57 -80 -151.5 -130t-223.5 -50q-195 0 -296 115.5t-101 328.5zM330 414q0 -303 233 -303q84 0 138.5 34.5t91.5 92.5q41 63 60 151t19 178 q0 147 -57 230.5t-168 83.5q-90 0 -154.5 -44t-101.5 -120q-33 -66 -47 -153t-14 -150zM465 1458q25 27 65 44.5t83 17.5l182 -312q-18 -29 -41.5 -45t-60.5 -24z" />
<glyph unicode="&#xf3;" horiz-adv-x="1071" d="M156 403q0 100 22.5 202t67.5 183q59 106 161.5 173t245.5 67q180 0 287 -114.5t107 -338.5q0 -111 -29 -230.5t-90 -205.5q-57 -80 -151.5 -130t-223.5 -50q-195 0 -296 115.5t-101 328.5zM330 414q0 -303 233 -303q84 0 138.5 34.5t91.5 92.5q41 63 60 151t19 178 q0 147 -57 230.5t-168 83.5q-90 0 -154.5 -44t-101.5 -120q-33 -66 -47 -153t-14 -150zM557 1221l250 295q41 0 84 -15.5t65 -46.5l-313 -319q-66 20 -86 86z" />
<glyph unicode="&#xf4;" horiz-adv-x="1071" d="M156 403q0 100 22.5 202t67.5 183q59 106 161.5 173t245.5 67q180 0 287 -114.5t107 -338.5q0 -111 -29 -230.5t-90 -205.5q-57 -80 -151.5 -130t-223.5 -50q-195 0 -296 115.5t-101 328.5zM330 414q0 -303 233 -303q84 0 138.5 34.5t91.5 92.5q41 63 60 151t19 178 q0 147 -57 230.5t-168 83.5q-90 0 -154.5 -44t-101.5 -120q-33 -66 -47 -153t-14 -150zM404 1241l235 246q31 14 68 17t75 3l195 -295q-29 -66 -98 -84l-174 236l-244 -244q-49 49 -57 121z" />
<glyph unicode="&#xf5;" horiz-adv-x="1071" d="M156 403q0 100 22.5 202t67.5 183q59 106 161.5 173t245.5 67q180 0 287 -114.5t107 -338.5q0 -111 -29 -230.5t-90 -205.5q-57 -80 -151.5 -130t-223.5 -50q-195 0 -296 115.5t-101 328.5zM330 414q0 -303 233 -303q84 0 138.5 34.5t91.5 92.5q41 63 60 151t19 178 q0 147 -57 230.5t-168 83.5q-90 0 -154.5 -44t-101.5 -120q-33 -66 -47 -153t-14 -150zM371 1239q20 74 71.5 119t124.5 45q53 0 86 -16.5t60 -37t50.5 -37t57.5 -16.5q35 0 57.5 21.5t28.5 64.5q35 0 62 -7t49 -23q-16 -88 -66.5 -141.5t-132.5 -53.5q-51 0 -82.5 16.5 t-58.5 37t-52.5 37t-64.5 16.5q-70 0 -98 -99q-63 10 -92 74z" />
<glyph unicode="&#xf6;" horiz-adv-x="1071" d="M156 403q0 100 22.5 202t67.5 183q59 106 161.5 173t245.5 67q180 0 287 -114.5t107 -338.5q0 -111 -29 -230.5t-90 -205.5q-57 -80 -151.5 -130t-223.5 -50q-195 0 -296 115.5t-101 328.5zM330 414q0 -303 233 -303q84 0 138.5 34.5t91.5 92.5q41 63 60 151t19 178 q0 147 -57 230.5t-168 83.5q-90 0 -154.5 -44t-101.5 -120q-33 -66 -47 -153t-14 -150zM379 1276q0 49 27.5 76.5t74.5 27.5q41 0 67.5 -23.5t26.5 -74.5q0 -47 -28.5 -75.5t-75.5 -28.5q-41 0 -66.5 24.5t-25.5 73.5zM813 1276q0 49 27.5 76.5t74.5 27.5q41 0 68 -23.5 t27 -74.5q0 -47 -29 -75.5t-76 -28.5q-41 0 -66.5 24.5t-25.5 73.5z" />
<glyph unicode="&#xf7;" d="M162 477q0 39 7 86t19 74h924q14 -23 14 -80t-14 -80h-950zM539 182q0 51 29.5 78t76.5 27t76 -25.5t29 -77.5q0 -53 -28 -80.5t-77 -27.5q-106 0 -106 106zM539 932q0 51 29.5 77.5t76.5 26.5t76 -25.5t29 -76.5q0 -53 -28 -81t-77 -28q-106 0 -106 107z" />
<glyph unicode="&#xf8;" horiz-adv-x="1083" d="M90 4l123 143q-53 100 -53 256q0 100 22.5 202t67.5 183q59 106 162.5 173t246.5 67q154 0 250 -80l115 133q76 -20 102 -86l-131 -151q59 -102 60 -269q0 -111 -29 -230.5t-90 -205.5q-57 -80 -152.5 -130t-224.5 -50q-158 0 -260 80l-141 -164q-25 20 -44.5 55 t-23.5 74zM334 414q0 -72 12 -123l457 532q-58 58 -150 58q-90 0 -155.5 -44t-102.5 -120q-33 -66 -47 -153t-14 -150zM408 168q61 -57 161 -57q84 0 139.5 34.5t92.5 92.5q41 63 60.5 151t19.5 178q0 76 -17 138z" />
<glyph unicode="&#xf9;" horiz-adv-x="1124" d="M180 229q0 25 2 54.5t6 52.5l84 631q35 16 73 23t93 7l-73 -637q-6 -47 -7 -79q0 -72 33 -115t129 -43q102 0 162.5 47t110.5 119l86 690q14 8 32.5 11t49.5 3q59 0 79 -14l-82 -746q-4 -39 -0.5 -61t12.5 -34.5t24.5 -15.5t35.5 -3q29 0 49.5 8t38.5 18q6 -39 -5 -85 t-32 -68q-23 -16 -51.5 -24.5t-71.5 -8.5q-74 0 -122 39t-43 137h-9q-18 -35 -46.5 -66.5t-68.5 -56t-92.5 -39t-121.5 -14.5q-154 0 -214.5 73.5t-60.5 196.5zM475 1458q25 27 65 44.5t83 17.5l182 -312q-18 -29 -41.5 -45t-60.5 -24z" />
<glyph unicode="&#xfa;" horiz-adv-x="1124" d="M180 229q0 25 2 54.5t6 52.5l84 631q35 16 73 23t93 7l-73 -637q-6 -47 -7 -79q0 -72 33 -115t129 -43q102 0 162.5 47t110.5 119l86 690q14 8 32.5 11t49.5 3q59 0 79 -14l-82 -746q-4 -39 -0.5 -61t12.5 -34.5t24.5 -15.5t35.5 -3q29 0 49.5 8t38.5 18q6 -39 -5 -85 t-32 -68q-23 -16 -51.5 -24.5t-71.5 -8.5q-74 0 -122 39t-43 137h-9q-18 -35 -46.5 -66.5t-68.5 -56t-92.5 -39t-121.5 -14.5q-154 0 -214.5 73.5t-60.5 196.5zM566 1221l250 295q41 0 84 -15.5t65 -46.5l-313 -319q-66 20 -86 86z" />
<glyph unicode="&#xfb;" horiz-adv-x="1124" d="M180 229q0 25 2 54.5t6 52.5l84 631q35 16 73 23t93 7l-73 -637q-6 -47 -7 -79q0 -72 33 -115t129 -43q102 0 162.5 47t110.5 119l86 690q14 8 32.5 11t49.5 3q59 0 79 -14l-82 -746q-4 -39 -0.5 -61t12.5 -34.5t24.5 -15.5t35.5 -3q29 0 49.5 8t38.5 18q6 -39 -5 -85 t-32 -68q-23 -16 -51.5 -24.5t-71.5 -8.5q-74 0 -122 39t-43 137h-9q-18 -35 -46.5 -66.5t-68.5 -56t-92.5 -39t-121.5 -14.5q-154 0 -214.5 73.5t-60.5 196.5zM408 1241l235 246q31 14 68 17t75 3l195 -295q-29 -66 -98 -84l-174 236l-244 -244q-49 49 -57 121z" />
<glyph unicode="&#xfc;" horiz-adv-x="1124" d="M180 229q0 25 2 54.5t6 52.5l84 631q35 16 73 23t93 7l-73 -637q-6 -47 -7 -79q0 -72 33 -115t129 -43q102 0 162.5 47t110.5 119l86 690q14 8 32.5 11t49.5 3q59 0 79 -14l-82 -746q-4 -39 -0.5 -61t12.5 -34.5t24.5 -15.5t35.5 -3q29 0 49.5 8t38.5 18q6 -39 -5 -85 t-32 -68q-23 -16 -51.5 -24.5t-71.5 -8.5q-74 0 -122 39t-43 137h-9q-18 -35 -46.5 -66.5t-68.5 -56t-92.5 -39t-121.5 -14.5q-154 0 -214.5 73.5t-60.5 196.5zM397 1276q0 49 28 76.5t75 27.5q41 0 67.5 -23.5t26.5 -74.5q0 -47 -29 -75.5t-76 -28.5q-41 0 -66.5 24.5 t-25.5 73.5zM794 1276q0 49 28 76.5t75 27.5q41 0 67.5 -23.5t26.5 -74.5q0 -47 -28.5 -75.5t-75.5 -28.5q-41 0 -67 24.5t-26 73.5z" />
<glyph unicode="&#xfd;" horiz-adv-x="907" d="M-37 -344q131 39 235.5 121t182.5 188l-264 1008q12 10 38.5 16t63.5 6q25 0 40 -3t26 -9l172 -670q12 -45 22 -107.5t10 -121.5h9q53 92 107 196.5t97 205t70 186.5t27 143q0 35 -16.5 52.5t-61.5 17.5q-31 0 -56.5 -10.5t-41.5 -22.5q-4 37 8 77t28 60q23 16 53.5 27.5 t80.5 11.5q96 0 135 -52t39 -130q0 -90 -42 -212t-101.5 -248t-127 -240.5t-118.5 -186.5q-61 -86 -123 -156.5t-128.5 -127t-141 -99.5t-162.5 -76q-29 23 -44.5 65t-15.5 91zM492 1221l250 295q41 0 84 -15.5t65 -46.5l-313 -319q-66 20 -86 86z" />
<glyph unicode="&#xfe;" horiz-adv-x="1077" d="M106 -469l242 1939q59 33 162 33l-41 -348q-10 -92 -24.5 -167t-30.5 -152h8q47 90 131 141t199 51q307 0 307 -416q0 -133 -34 -262t-114 -227q-66 -78 -161 -121t-230 -43q-45 0 -97 7t-87 26l-53 -461q-23 -14 -88 -14q-66 0 -89 14zM350 147q29 -14 72 -23t94 -9 q78 0 137.5 22.5t100.5 63.5q74 72 102.5 178t28.5 215q0 145 -47 211.5t-150 66.5q-100 0 -164.5 -56t-113.5 -142z" />
<glyph unicode="&#xff;" horiz-adv-x="907" d="M-37 -344q131 39 235.5 121t182.5 188l-264 1008q12 10 38.5 16t63.5 6q25 0 40 -3t26 -9l172 -670q12 -45 22 -107.5t10 -121.5h9q53 92 107 196.5t97 205t70 186.5t27 143q0 35 -16.5 52.5t-61.5 17.5q-31 0 -56.5 -10.5t-41.5 -22.5q-4 37 8 77t28 60q23 16 53.5 27.5 t80.5 11.5q96 0 135 -52t39 -130q0 -90 -42 -212t-101.5 -248t-127 -240.5t-118.5 -186.5q-61 -86 -123 -156.5t-128.5 -127t-141 -99.5t-162.5 -76q-29 23 -44.5 65t-15.5 91zM332 1276q0 49 28 76.5t75 27.5q41 0 67.5 -23.5t26.5 -74.5q0 -47 -29 -75.5t-76 -28.5 q-41 0 -66.5 24.5t-25.5 73.5zM729 1276q0 49 28 76.5t75 27.5q41 0 67.5 -23.5t26.5 -74.5q0 -47 -28.5 -75.5t-75.5 -28.5q-41 0 -67 24.5t-26 73.5z" />
<glyph unicode="&#x152;" horiz-adv-x="1929" d="M178 606q0 152 41 304.5t127 274.5t220 198.5t323 76.5q68 0 129 -10t112 -27h803q4 -8 8.5 -23.5t4.5 -37.5q0 -29 -6.5 -54.5t-14.5 -37.5h-651l-51 -467h608q4 -8 8 -23.5t4 -38.5q0 -29 -6 -54t-14 -38h-615l-53 -487h678q4 -8 8 -23.5t4 -42.5q0 -31 -5 -56.5 t-13 -39.5h-854q-49 -16 -106.5 -27.5t-129.5 -11.5q-268 0 -413.5 168t-145.5 477zM362 623q0 -244 100.5 -370t311.5 -126q53 0 107.5 8t97.5 25l127 1106q-43 18 -99.5 28.5t-113.5 10.5q-145 0 -246.5 -60.5t-165 -157t-91.5 -218t-28 -246.5z" />
<glyph unicode="&#x153;" horiz-adv-x="1683" d="M156 403q0 100 22.5 202t67.5 183q59 106 161.5 173t245.5 67q123 0 214 -54t126 -165h8q29 55 73 96t98.5 68.5t114 41t118.5 13.5q139 0 214 -64.5t75 -181.5q0 -70 -31 -135t-106.5 -117.5t-203.5 -85t-321 -38.5q0 -166 57.5 -227.5t184.5 -61.5q102 0 185 31.5 t161 93.5q0 -20 -3 -45t-9 -49.5t-16.5 -46t-22.5 -35.5q-49 -39 -136 -73t-204 -34q-129 0 -207 46t-104 132h-9q-43 -78 -132 -128t-224 -50q-195 0 -296 115.5t-101 328.5zM330 414q0 -303 233 -303q84 0 138.5 34.5t91.5 92.5q41 63 60 151t19 178q0 147 -57 230.5 t-168 83.5q-90 0 -154.5 -44t-101.5 -120q-33 -66 -47 -153t-14 -150zM1044 549q131 2 224.5 19.5t152 47t85 69.5t26.5 87q0 49 -31 81t-112 32q-162 0 -263 -135q-29 -39 -49.5 -88.5t-32.5 -112.5z" />
<glyph unicode="&#x178;" horiz-adv-x="1091" d="M172 1413q29 16 90 17q59 0 92 -17l207 -532q43 -106 62 -240h10q16 66 40.5 129.5t53.5 110.5l320 532q33 16 96 17q68 0 90 -17l-541 -911l-51 -494q-27 -14 -94 -14q-68 0 -90 14l57 504zM434 1663q0 53 30 82t81 29q45 0 72.5 -26t27.5 -79q0 -51 -30.5 -80.5 t-79.5 -29.5q-45 0 -73 25.5t-28 78.5zM852 1663q0 53 30 82t81 29q45 0 72.5 -26t27.5 -79q0 -51 -30.5 -80.5t-80.5 -29.5q-45 0 -72.5 25.5t-27.5 78.5z" />
<glyph unicode="&#x2c6;" horiz-adv-x="888" d="M301 1241l236 246q31 14 67.5 17t75.5 3l194 -295q-29 -66 -98 -84l-174 236l-244 -244q-49 49 -57 121z" />
<glyph unicode="&#x2dc;" horiz-adv-x="888" d="M270 1239q20 74 71.5 119t125.5 45q53 0 86 -16.5t59.5 -37t50 -37t58.5 -16.5t57.5 21.5t28.5 64.5q35 0 61.5 -7t49.5 -23q-16 -88 -66.5 -141.5t-132.5 -53.5q-51 0 -83 16.5t-58.5 37t-52 37t-64.5 16.5q-70 0 -99 -99q-63 10 -92 74z" />
<glyph unicode="&#x2000;" horiz-adv-x="929" />
<glyph unicode="&#x2001;" horiz-adv-x="1858" />
<glyph unicode="&#x2002;" horiz-adv-x="929" />
<glyph unicode="&#x2003;" horiz-adv-x="1858" />
<glyph unicode="&#x2004;" horiz-adv-x="619" />
<glyph unicode="&#x2005;" horiz-adv-x="464" />
<glyph unicode="&#x2006;" horiz-adv-x="309" />
<glyph unicode="&#x2007;" horiz-adv-x="309" />
<glyph unicode="&#x2008;" horiz-adv-x="232" />
<glyph unicode="&#x2009;" horiz-adv-x="371" />
<glyph unicode="&#x200a;" horiz-adv-x="103" />
<glyph unicode="&#x2010;" horiz-adv-x="638" d="M133 479q0 39 9.5 85t25.5 75h453q4 -8 8 -24.5t4 -39.5q0 -31 -6 -57t-15 -39h-479z" />
<glyph unicode="&#x2011;" horiz-adv-x="638" d="M133 479q0 39 9.5 85t25.5 75h453q4 -8 8 -24.5t4 -39.5q0 -31 -6 -57t-15 -39h-479z" />
<glyph unicode="&#x2012;" horiz-adv-x="638" d="M133 479q0 39 9.5 85t25.5 75h453q4 -8 8 -24.5t4 -39.5q0 -31 -6 -57t-15 -39h-479z" />
<glyph unicode="&#x2013;" horiz-adv-x="1024" d="M156 469q0 37 9 81t25 73h779q4 -8 8 -23.5t4 -38.5q0 -29 -6 -54.5t-14 -37.5h-805z" />
<glyph unicode="&#x2014;" horiz-adv-x="2048" d="M156 469q0 37 9 81t25 73h1803q4 -8 8 -23.5t4 -38.5q0 -29 -6 -54.5t-14 -37.5h-1829z" />
<glyph unicode="&#x2018;" horiz-adv-x="407" d="M225 1026q20 121 67.5 237.5t98.5 200.5q59 39 162 39q-55 -104 -100 -229t-62 -242q-16 -10 -41.5 -14t-54.5 -4q-52 0 -70 12z" />
<glyph unicode="&#x2019;" horiz-adv-x="407" d="M199 1065q53 90 85 191t46 212q35 18 71.5 25.5t100.5 7.5q-8 -70 -26.5 -141.5t-44 -139t-55.5 -126t-61 -99.5q-84 12 -116 70z" />
<glyph unicode="&#x201a;" horiz-adv-x="407" d="M27 -260q53 92 86 194t47 213q35 18 71.5 25.5t102.5 7.5q-10 -70 -28.5 -142.5t-44 -140t-55.5 -126t-61 -101.5q-43 4 -72.5 22.5t-45.5 47.5z" />
<glyph unicode="&#x201c;" horiz-adv-x="729" d="M219 1026q20 121 66.5 237.5t99.5 200.5q59 39 160 39q-55 -104 -100.5 -229t-61.5 -242q-35 -18 -94 -18q-52 0 -70 12zM543 1026q20 121 66 237.5t100 200.5q59 39 159 39q-55 -104 -100 -229t-61 -242q-35 -18 -95 -18q-51 0 -69 12z" />
<glyph unicode="&#x201d;" horiz-adv-x="729" d="M199 1065q53 90 85 191t46 212q35 18 70.5 25.5t99.5 7.5q-8 -70 -26.5 -141.5t-44.5 -139t-55.5 -126t-60.5 -99.5q-82 12 -114 70zM522 1065q53 90 85 191t46 212q35 18 71 25.5t99 7.5q-8 -70 -26.5 -141.5t-44 -139t-55 -126t-60.5 -99.5q-82 12 -115 70z" />
<glyph unicode="&#x201e;" horiz-adv-x="729" d="M27 -260q53 92 86 194t47 213q35 18 70.5 25.5t101.5 7.5q-10 -70 -28.5 -142.5t-44.5 -140t-55.5 -126t-60.5 -101.5q-43 4 -71.5 22.5t-44.5 47.5zM350 -260q53 92 86 194t47 213q35 18 71 25.5t101 7.5q-10 -70 -28.5 -142.5t-44 -140t-55 -126t-60.5 -101.5 q-43 4 -71.5 22.5t-45.5 47.5z" />
<glyph unicode="&#x2022;" horiz-adv-x="735" d="M201 487q0 117 64 183.5t177 66.5q96 0 158 -57t62 -174q0 -115 -68 -182.5t-178 -67.5q-96 0 -155.5 58.5t-59.5 172.5z" />
<glyph unicode="&#x2026;" horiz-adv-x="1357" d="M123 84q0 59 33 92t90 33q47 0 78.5 -27.5t31.5 -87.5q0 -57 -34.5 -91t-90.5 -34q-47 0 -77.5 29t-30.5 86zM575 84q0 59 33 92t90 33q47 0 79 -27.5t32 -87.5q0 -57 -35 -91t-90 -34q-47 0 -78 29t-31 86zM1028 84q0 59 33 92t90 33q47 0 79 -27.5t32 -87.5 q0 -57 -35 -91t-90 -34q-47 0 -78 29t-31 86z" />
<glyph unicode="&#x202f;" horiz-adv-x="371" />
<glyph unicode="&#x2039;" horiz-adv-x="620" d="M172 518q55 106 114.5 199.5t125.5 185.5q33 16 83 26.5t103 10.5q-72 -106 -132.5 -210t-113.5 -208q55 -197 140 -385q-51 -51 -146 -63q-51 102 -96 218t-78 226z" />
<glyph unicode="&#x203a;" horiz-adv-x="620" d="M164 150q66 98 122 187t105 185q-31 104 -62.5 195.5t-72.5 183.5q29 20 66.5 30.5t76.5 10.5q51 -104 95.5 -215t74.5 -213q-61 -115 -131.5 -225.5t-146.5 -214.5q-43 4 -77 25.5t-50 50.5z" />
<glyph unicode="&#x205f;" horiz-adv-x="464" />
<glyph unicode="&#x20ac;" d="M117 449q0 35 9 71.5t24 63.5h798q10 -16 10 -54q0 -57 -14 -81h-506q35 -176 143.5 -254t270.5 -78q92 0 173 20.5t142 46.5q4 -41 -9 -89t-44 -77q-55 -27 -135 -46t-180 -19q-233 0 -372.5 127t-170.5 369h-139zM156 793q0 35 9 71.5t23 63.5h107q33 104 89 193 t136 155.5t184.5 104.5t235.5 38q172 0 285 -65q20 -29 28.5 -79t-2.5 -91q-66 39 -131 59.5t-149 20.5q-98 0 -177 -26t-140.5 -70t-105.5 -105.5t-71 -134.5h502q10 -16 10 -54q0 -57 -14 -81h-819z" />
<glyph unicode="&#x2122;" horiz-adv-x="1556" d="M197 1352q0 45 16 71h530q6 -12 7 -41q0 -45 -17 -71h-205l-57 -492q-10 -4 -24.5 -7t-38.5 -3q-41 0 -62 10l64 492h-207q-6 12 -6 41zM778 819l78 596q10 6 31.5 10.5t62.5 4.5q39 0 61.5 -4.5t35.5 -10.5l75 -336q8 -37 13.5 -84t7.5 -88h8q12 43 27.5 91.5t31.5 82.5 l156 334q14 6 37.5 10.5t62.5 4.5t61.5 -4.5t35.5 -10.5l-66 -596q-10 -4 -23.5 -7t-37.5 -3q-23 0 -35 3t-23 7l64 516h-8q-14 -45 -33 -95t-35 -87l-156 -338q-10 -4 -27.5 -7t-45.5 -3q-49 0 -70 10l-80 338q-8 35 -15 88t-7 94h-9l-57 -516q-10 -4 -24.5 -7t-38.5 -3 q-23 0 -35.5 3t-22.5 7z" />
<glyph unicode="&#x25fc;" horiz-adv-x="993" d="M0 0v993h993v-993h-993z" />
</font>
</defs>
</svg>
