<?xml version="1.0" standalone="no"?>
<!DOCTYPE svg PUBLIC "-//W3C//DTD SVG 1.1//EN" "http://www.w3.org/Graphics/SVG/1.1/DTD/svg11.dtd" >
<svg xmlns="http://www.w3.org/2000/svg">
<metadata></metadata>
<defs>
<font id="tisasanscomppro-bolditalicRg" horiz-adv-x="1167" >
<font-face units-per-em="2048" ascent="1493" descent="-555" />
<missing-glyph horiz-adv-x="342" />
<glyph unicode="&#xfb01;" horiz-adv-x="1200" d="M104 776q2 59 15.5 128t36.5 116h120l11 82q12 106 46 195t92 152.5t145 98.5t208 35q78 0 148.5 -17.5t136.5 -58.5q14 -23 23.5 -55.5t13.5 -68t2 -70.5t-8 -62q-59 35 -124 59.5t-155 24.5q-127 0 -185.5 -54t-72.5 -185l-8 -76h192q4 -10 9.5 -33.5t5.5 -60.5 q0 -96 -29 -150h-205l-114 -1077q-23 -10 -58 -17.5t-90 -7.5t-90 7.5t-55 17.5l131 1077h-142zM762 186q0 25 3 61t7 62l92 697q23 10 55.5 16t81.5 6q98 0 134 -22l-72 -684q-8 -66 9.5 -85.5t51.5 -19.5q25 0 43.5 5t34.5 16q6 -29 3 -64t-10 -67.5t-20.5 -61.5 t-27.5 -47q-33 -18 -69 -28.5t-89 -10.5q-123 0 -175 56.5t-52 170.5z" />
<glyph unicode="&#xfb02;" horiz-adv-x="1226" d="M104 776q2 59 15.5 128t36.5 116h120l9 72q16 139 60 233t109.5 151.5t149.5 82t180 24.5q244 0 406 -137l-125 -1124q-8 -63 11.5 -84t60.5 -21q55 0 100 29q6 -29 3 -64t-10 -67.5t-20.5 -61t-27.5 -47.5q-35 -23 -78 -35t-103 -12q-125 0 -181 58.5t-56 168.5 q0 25 3 61t7 62l131 1002q-51 31 -123 30q-43 0 -80.5 -10t-67.5 -36.5t-50.5 -73.5t-26.5 -119l-8 -82h188q4 -10 9.5 -33.5t5.5 -60.5q0 -96 -29 -150h-201l-114 -1077q-23 -10 -58 -17.5t-90 -7.5t-90 7.5t-55 17.5l131 1077h-142z" />
<glyph unicode="&#xfb03;" horiz-adv-x="1810" d="M104 776q2 59 15.5 128t36.5 116h120l15 117q14 115 47 192.5t80 124.5t108.5 67.5t132.5 20.5q47 0 88 -7t76 -30q16 -23 25.5 -55.5t12.5 -68t1 -70.5t-8 -62q-35 25 -66.5 35t-70.5 10q-76 0 -110 -35.5t-44 -119.5l-14 -119h338l10 82q12 106 46 195t92.5 152.5 t145.5 98.5t208 35q78 0 148.5 -17.5t135.5 -58.5q14 -23 23.5 -55.5t13.5 -68t2 -70.5t-8 -62q-59 35 -123.5 59.5t-155.5 24.5q-127 0 -185 -54t-73 -185l-8 -76h193q4 -10 9 -33.5t5 -60.5q0 -96 -29 -150h-204l-115 -1077q-23 -10 -57.5 -17.5t-90.5 -7.5q-55 0 -90 7.5 t-55 17.5l131 1077h-334l-80 -760q-23 -10 -57.5 -17t-89.5 -7t-89 7t-54 17l94 760h-142zM1372 186q0 25 3 61t7 62l93 697q23 10 55.5 16t81.5 6q98 0 133 -22l-72 -684q-8 -66 9.5 -85.5t52.5 -19.5q25 0 43 5t34 16q6 -29 3 -64t-10 -67.5t-20 -61.5t-28 -47 q-33 -18 -68.5 -28.5t-89.5 -10.5q-123 0 -175 56.5t-52 170.5z" />
<glyph unicode="&#xfb04;" horiz-adv-x="1837" d="M104 776q2 59 15.5 128t36.5 116h120l15 117q14 115 47 192.5t80 124.5t108.5 67.5t132.5 20.5q47 0 88 -7t76 -30q16 -23 25.5 -55.5t12.5 -68t1 -70.5t-8 -62q-35 25 -66.5 35t-70.5 10q-76 0 -110 -35.5t-44 -119.5l-14 -119h338l8 72q16 139 60 233t109.5 151.5 t149.5 82t181 24.5q244 0 405 -137l-125 -1124q-8 -63 11.5 -84t60.5 -21q55 0 100 29q6 -29 3 -64t-10 -67.5t-20.5 -61t-27.5 -47.5q-35 -23 -78 -35t-102 -12q-125 0 -181.5 58.5t-56.5 168.5q0 25 3 61t7 62l132 1002q-51 31 -123 30q-43 0 -81 -10t-68 -36.5t-50 -73.5 t-27 -119l-8 -82h189q4 -10 9 -33.5t5 -60.5q0 -96 -29 -150h-200l-115 -1077q-23 -10 -57.5 -17.5t-90.5 -7.5q-55 0 -90 7.5t-55 17.5l131 1077h-334l-80 -760q-23 -10 -57.5 -17t-89.5 -7t-89 7t-54 17l94 760h-142z" />
<glyph horiz-adv-x="0" />
<glyph unicode="&#xd;" horiz-adv-x="342" />
<glyph unicode=" "  horiz-adv-x="342" />
<glyph unicode="&#x09;" horiz-adv-x="342" />
<glyph unicode="&#xa0;" horiz-adv-x="342" />
<glyph unicode="!" horiz-adv-x="600" d="M150 121q0 82 45.5 128t123.5 46q70 0 111 -41t41 -121q0 -82 -48 -128t-122 -46q-70 0 -110.5 41t-40.5 121zM231 475l74 957q35 16 82 26t111 10q41 0 68.5 -4t49.5 -14l-147 -975q-37 -18 -121 -18q-47 0 -73.5 4t-43.5 14z" />
<glyph unicode="&#x22;" d="M287 877q31 129 53 270t35 272q70 0 132 -9t116 -34q-6 -59 -19.5 -129.5t-32 -144.5t-40.5 -143.5t-42 -122.5q-61 0 -112 9t-90 32zM717 877q31 129 53.5 270t34.5 272q70 0 132 -9t116 -34q-6 -59 -19.5 -129.5t-32 -144.5t-40 -143.5t-41.5 -122.5q-61 0 -112.5 9 t-90.5 32z" />
<glyph unicode="#" d="M59 389q0 53 16.5 105.5t39.5 89.5h151l84 286h-162q0 53 16.5 105.5t39.5 89.5h162l94 321q41 23 97 31t124 8l-96 -360h247l86 321q41 23 97.5 31t124.5 8l-88 -360h143q6 -10 9 -27.5t3 -48.5q0 -39 -8 -67.5t-20 -51.5h-175l-69 -286h141q6 -10 9 -27.5t3 -48.5 q0 -39 -8 -67.5t-20 -51.5h-172l-92 -375q-16 -10 -48 -16t-79 -6t-77 6t-44 16l100 375h-242l-98 -375q-16 -10 -48 -16t-79 -6t-76.5 6t-44.5 16l109 375h-150zM489 578h256l82 299h-258z" />
<glyph unicode="$" d="M102.5 240.5q0.5 39.5 6.5 74.5q78 -47 192.5 -81.5t243.5 -34.5q49 0 95 8t82 29.5t57.5 59.5t21.5 95q0 72 -42 113t-104.5 70.5t-136.5 57t-136.5 73t-104 118t-41.5 193.5q0 176 94 287.5t280 140.5l19 151q49 18 101 25.5t124 7.5l-20 -182q63 -10 114 -29.5 t99 -48.5q16 -23 27 -55.5t17.5 -69.5t6.5 -76t-6 -69q-72 51 -156 83.5t-205 32.5q-45 0 -85 -8t-69.5 -26.5t-47 -50t-17.5 -78.5q0 -70 43 -109t107.5 -67.5t139.5 -56t139.5 -75t107.5 -123t43 -200.5q0 -193 -107.5 -310.5t-318.5 -146.5l-21 -203q-18 -10 -48 -14 t-77 -4q-88 0 -121 18l25 197q-78 8 -144.5 25.5t-119.5 42.5q-18 25 -30.5 60.5t-20 75.5t-7 79.5z" />
<glyph unicode="%" horiz-adv-x="1843" d="M172 1010q0 86 23.5 165.5t72.5 141t122 98.5t171 37q147 0 233.5 -86t86.5 -260q0 -86 -23.5 -166t-72 -141.5t-122 -98t-171.5 -36.5q-156 0 -238 91t-82 255zM385 51l1026 1417q68 0 121 -16t98 -51l-1055 -1489q-70 14 -119.5 48t-70.5 91zM395 1020q0 -78 28 -121 t85 -43q43 0 71.5 24.5t46 61.5t24.5 80t7 80q0 78 -28.5 121t-85.5 43q-41 0 -70 -23.5t-46 -60.5t-24.5 -80t-7.5 -82zM1110 299q0 86 23.5 166t72.5 141.5t122 98t171 36.5q147 0 233.5 -86t86.5 -260q0 -86 -23.5 -165.5t-72 -141t-122 -98.5t-171.5 -37q-156 0 -238 91 t-82 255zM1333 309q0 -78 28 -121t85 -43q43 0 71.5 25t46 61.5t24.5 79.5t7 80q0 78 -28.5 121t-85.5 43q-41 0 -70 -23.5t-46 -60.5t-24.5 -80t-7.5 -82z" />
<glyph unicode="&#x26;" horiz-adv-x="1462" d="M100 350q0 74 20.5 143.5t62.5 126t105.5 98.5t147.5 60v15q-63 39 -98 106.5t-35 161.5q0 92 35 164.5t94.5 123t139 77t169.5 26.5q74 0 143.5 -18.5t124 -58.5t86 -102.5t31.5 -150.5q0 -117 -59 -216t-186 -138v-14q53 -39 105 -83t104 -98q31 49 50 108.5t27 121.5 q105 45 285 45q-23 -127 -69 -254t-117 -227q53 -78 102 -162t90 -176q-70 -51 -201 -52q-39 0 -69.5 4.5t-44.5 12.5q-16 33 -37 68.5t-43 70.5q-78 -78 -187.5 -129t-279.5 -51q-94 0 -183 20.5t-159 66.5t-112 123t-42 187zM399 389q0 -51 17.5 -87t48.5 -58.5t73 -32.5 t89 -10q94 0 162.5 37.5t125.5 103.5q-70 90 -149.5 169t-163.5 132q-88 -33 -145.5 -94.5t-57.5 -159.5zM571 1073q0 -63 34 -105t100 -77q70 29 115.5 80t45.5 129q0 72 -41 102.5t-94 30.5q-70 0 -115 -43t-45 -117z" />
<glyph unicode="'" horiz-adv-x="716" d="M276 877q31 129 53.5 270t35.5 272q70 0 132 -9t115 -34q-6 -59 -19 -129.5t-31.5 -144.5t-40.5 -143.5t-42 -122.5q-61 0 -112.5 9t-90.5 32z" />
<glyph unicode="(" horiz-adv-x="659" d="M166 430q0 350 115.5 654.5t351.5 584.5q63 -16 105 -54t71 -97q-176 -231 -272.5 -500.5t-96.5 -575.5q0 -221 50.5 -403t146.5 -356q-37 -59 -101.5 -99.5t-134.5 -52.5q-123 223 -179 443.5t-56 455.5z" />
<glyph unicode=")" horiz-adv-x="659" d="M-55 -324q98 125 174 251t127 262.5t77.5 286t26.5 319.5q0 217 -40 391t-109 332q31 57 89 98t124 57q111 -207 161 -422t50 -446q0 -188 -32 -357t-93.5 -326t-151.5 -305.5t-209 -297.5q-66 16 -117.5 57t-76.5 100z" />
<glyph unicode="*" horiz-adv-x="851" d="M139 1028l185 86q16 8 49 13.5t57 7.5v12q-27 4 -55.5 13t-42.5 18l-150 86q10 47 29.5 96t54.5 90l160 -121q39 -29 68 -84l10 6q-10 31 -15.5 64t-3.5 55l15 184q37 14 80 19.5t104 5.5l-33 -207q-4 -23 -16 -57.5t-33 -63.5l10 -8q20 29 42 51.5t46 38.5l162 105 q31 -31 57.5 -72t43.5 -96l-193 -96q-20 -10 -54 -16.5t-65 -8.5v-12q25 -4 53.5 -13.5t49.5 -19.5l168 -88q-8 -53 -41 -103.5t-72 -76.5l-156 122q-16 14 -33.5 36t-27.5 44l-12 -6q10 -23 16 -55.5t6 -54.5l-6 -199q-16 -8 -42 -13t-62 -5q-70 0 -99 18l43 209 q4 23 16.5 50.5t24.5 47.5l-12 6q-14 -23 -33.5 -47t-36.5 -35l-172 -118q-35 29 -59.5 82t-24.5 110z" />
<glyph unicode="+" d="M117 440q0 63 11 141t32 124h338v335q55 23 124.5 33t153.5 10v-378h361q8 -16 14 -52.5t6 -81.5q0 -43 -6 -78.5t-14 -52.5h-361v-354q-18 -10 -53 -17.5t-86 -7.5q-49 0 -84 7.5t-55 17.5v354h-381z" />
<glyph unicode="," horiz-adv-x="716" d="M92 -268q117 217 146 491q31 12 59.5 21.5t62 15.5t75.5 9t95 3q-12 -90 -35.5 -184t-54 -180t-67.5 -162t-76 -129q-147 20 -205 115z" />
<glyph unicode="-" horiz-adv-x="714" d="M119 444q2 66 17.5 136.5t37.5 121.5h514q8 -18 12.5 -40.5t4.5 -63.5q0 -47 -6.5 -86t-22.5 -68h-557z" />
<glyph unicode="." horiz-adv-x="716" d="M186 131q0 86 48 134t128 48q72 0 115 -42t43 -126q0 -86 -49 -134t-127 -48q-72 0 -115 43t-43 125z" />
<glyph unicode="/" horiz-adv-x="888" d="M-23 -272l838 1835q66 0 123 -16.5t96 -45.5l-829 -1882q-35 0 -70 8t-65.5 23.5t-55 35t-37.5 42.5z" />
<glyph unicode="0" d="M127 553q0 100 12.5 205.5t41 205t73.5 188.5t110.5 155.5t153.5 105.5t201 39q221 0 344 -148.5t123 -451.5q0 -94 -10.5 -197.5t-37 -203t-70.5 -190.5t-109.5 -159.5t-157.5 -108.5t-213 -40q-231 0 -346 145.5t-115 454.5zM420 571q0 -180 49 -270t141 -90 q78 0 132.5 60.5t88 152.5t48 202.5t14.5 209.5q0 178 -49.5 272t-143.5 94q-80 0 -134 -62.5t-87 -156.5t-46 -204.5t-13 -207.5z" />
<glyph unicode="1" d="M145 0q2 61 17.5 132t38.5 122h301l104 883l-344 -58q8 66 30.5 130.5t47.5 111.5q41 18 104.5 35.5t139 34t160.5 30t171 21.5l-120 -1188h292q6 -14 10.5 -36.5t4.5 -63.5q0 -96 -29 -154h-928z" />
<glyph unicode="2" d="M123 256q102 84 224 172t228.5 182.5t177 193.5t70.5 206q0 92 -56 137t-165 45q-176 0 -344 -121q-4 27 -1 66t12.5 78.5t26 76.5t36.5 62q59 41 149 69.5t211 28.5q100 0 182 -23.5t139.5 -70.5t88.5 -121t31 -174q0 -133 -53.5 -245.5t-139.5 -209t-196.5 -175.5 t-225.5 -140v-19h563q16 -39 17 -104q0 -47 -8.5 -94t-24.5 -76h-901q-23 53 -32 114.5t-9 141.5z" />
<glyph unicode="3" d="M133 293q70 -33 168 -55.5t201 -22.5q57 0 110.5 9t95.5 32t66.5 59.5t24.5 92.5q0 98 -86 141t-275 43h-37q-10 23 -13 55.5t-1 66.5t9 64.5t20 52.5h41q55 0 121.5 8.5t125 31t97.5 65.5t39 115q0 86 -60.5 118.5t-146.5 32.5q-82 0 -168 -23.5t-152 -62.5 q-4 25 -1 60.5t13.5 74.5t28 75t39.5 60q53 31 142.5 48.5t183.5 17.5q199 0 309.5 -85t110.5 -265q0 -141 -72 -234.5t-213 -122.5v-16q53 -16 100 -40.5t82 -62.5t55.5 -95.5t20.5 -137.5q0 -113 -42 -195.5t-119 -137t-187.5 -81t-245.5 -26.5q-92 0 -181 11t-144 34 q-41 63 -56.5 144t-3.5 151z" />
<glyph unicode="4" d="M109 594l612 844q227 0 389 -72l-80 -776h133q6 -14 11.5 -39t5.5 -64q0 -94 -29 -147h-147l-33 -324q-23 -10 -60 -17t-94 -7q-55 0 -89 7t-54 17l37 324h-570q-20 55 -26 114.5t-6 139.5zM418 575q41 10 106 11h221l48 403q12 111 34 189h-18l-391 -584v-19z" />
<glyph unicode="5" d="M129 285q27 -14 68 -26.5t90 -22t101 -14.5t99 -5q59 0 117 10.5t104 37t73.5 71.5t27.5 113q0 96 -65.5 144t-219.5 48q-78 0 -149.5 -11.5t-141.5 -31.5l154 807h805q0 -74 -10.5 -142.5t-26.5 -121.5h-569l-49 -281q31 12 73.5 18.5t91.5 6.5q190 0 301 -97.5 t111 -314.5q0 -264 -161.5 -392t-465.5 -128q-102 0 -179 11t-120 26q-41 66 -55 144.5t-4 150.5z" />
<glyph unicode="6" d="M147 528q0 172 42 338t130.5 296t224.5 210t326 80q72 0 129.5 -11t104.5 -34q20 -23 33.5 -58.5t20.5 -75.5t8 -80t-5 -71q-53 35 -120.5 56.5t-143.5 21.5q-166 0 -280.5 -107.5t-155.5 -336.5h16q43 78 117 122t190 44q94 0 164 -30t116 -85t67.5 -133t21.5 -174 q0 -121 -34 -221.5t-100.5 -172t-166.5 -112.5t-234 -41q-242 0 -356.5 141.5t-114.5 433.5zM438 465q0 -131 50.5 -196.5t146.5 -65.5q104 0 161.5 72.5t57.5 181.5q0 102 -48 158.5t-140 56.5q-66 0 -123.5 -32t-98.5 -87q-4 -12 -5 -39t-1 -49z" />
<glyph unicode="7" d="M213 1135q2 70 18.5 142.5t38.5 127.5h899q18 -51 28.5 -107.5t10.5 -128.5q-98 -139 -190 -283.5t-172 -290.5t-147.5 -291.5t-116.5 -283.5q-25 -12 -70 -20t-111 -8q-59 0 -96 7t-59 19q117 305 283.5 586t357.5 512v19h-674z" />
<glyph unicode="8" d="M115 326q0 154 84 260t231 153v15q-78 39 -124 106.5t-46 181.5q0 100 37 176t100.5 128.5t150.5 79t187 26.5q82 0 158 -18.5t133 -60.5t92 -106.5t35 -156.5q0 -117 -59.5 -211t-175.5 -139v-15q47 -23 86.5 -51t69.5 -68t46.5 -93.5t16.5 -122.5q0 -111 -41 -196 t-115 -143.5t-175 -88t-224 -29.5q-88 0 -172 17.5t-149.5 60.5t-105.5 114.5t-40 180.5zM414 362q0 -96 57 -137t137 -41q92 0 157.5 52.5t65.5 154.5q0 49 -16 83t-44 59.5t-66.5 43t-83.5 33.5q-41 -14 -79 -35.5t-67 -52t-45 -70.5t-16 -90zM532 1065q0 -78 45.5 -118 t137.5 -73q33 12 63.5 31t55 45.5t40 59t15.5 75.5q0 78 -49 114t-121 36q-80 0 -133.5 -42t-53.5 -128z" />
<glyph unicode="9" d="M96 221q0 41 10 76q53 -35 133 -59.5t173 -24.5q168 0 284.5 105.5t153.5 336.5h-19q-37 -59 -105.5 -107t-186.5 -48q-172 0 -260.5 112.5t-88.5 302.5q0 117 33 215.5t97.5 170t159.5 111.5t218 40q133 0 221.5 -45t141.5 -125t75.5 -188.5t22.5 -235.5 q0 -168 -38 -330.5t-126 -289.5t-229 -206t-348 -79q-72 0 -143.5 10t-114.5 33q-18 27 -32.5 63.5t-23 78.5t-8.5 83zM479 954q0 -102 47 -154t136 -52q63 0 116 30.5t96 77.5q6 37 7 82q0 135 -49.5 203.5t-141.5 68.5q-100 0 -155.5 -72.5t-55.5 -183.5z" />
<glyph unicode=":" horiz-adv-x="716" d="M186 154q0 86 48 134t128 48q72 0 115 -42t43 -126q0 -86 -49 -134t-127 -48q-72 0 -115 43t-43 125zM268 872q0 84 47 130.5t125 46.5q72 0 114 -41t42 -123q0 -84 -48 -131t-124 -47q-72 0 -114 42t-42 123z" />
<glyph unicode=";" horiz-adv-x="716" d="M80 -268q116 217 145 491q31 12 59.5 21.5t62.5 15.5t76 9t95 3q-12 -90 -35.5 -184t-54.5 -180t-67.5 -162t-75.5 -129q-147 20 -205 115zM274 872q0 84 47 130.5t125 46.5q72 0 114 -41t42 -123q0 -84 -48 -131t-124 -47q-72 0 -114 42t-42 123z" />
<glyph unicode="&#x3c;" d="M225 467q0 57 7.5 115.5t25.5 105.5l616 432q53 -23 114 -68.5t95 -99.5l-553 -368v-17l533 -362q-6 -31 -21.5 -63.5t-37 -61.5t-48 -53.5t-53.5 -36.5z" />
<glyph unicode="=" d="M152 225q0 29 3 64t7 68.5t11 64.5t17 51h926q6 -16 12.5 -50t6.5 -75t-6.5 -73.5t-12.5 -49.5h-964zM152 672q0 29 3 63.5t7 68.5t11 64.5t17 51.5h926q6 -16 12.5 -50t6.5 -75t-6.5 -74t-12.5 -49h-964z" />
<glyph unicode="&#x3e;" d="M231 961q41 53 97.5 96t120.5 67l604 -419q16 -47 24 -105.5t8 -114.5l-679 -491q-29 14 -55.5 38.5t-48 54.5t-37 61.5t-21.5 62.5l534 354v17z" />
<glyph unicode="?" horiz-adv-x="827" d="M146.5 1191.5q3.5 33.5 12.5 71t23.5 73.5t32.5 63q61 43 153.5 73.5t213.5 30.5q176 0 268 -76.5t92 -240.5q0 -92 -31.5 -158.5t-78 -116t-101.5 -86.5t-101 -70.5t-78 -68.5t-32 -80q0 -55 35 -92q-41 -45 -96.5 -71.5t-116.5 -34.5q-45 39 -71.5 93t-26.5 128 t28.5 128t70.5 97t91 78t91 66.5t71 64.5t29 74q0 45 -31 77.5t-117 32.5q-80 0 -167 -30.5t-163 -83.5q-4 25 -0.5 58.5zM240 121q0 82 46 128t124 46q70 0 110.5 -41t40.5 -121q0 -82 -48 -128t-122 -46q-70 0 -110.5 41t-40.5 121z" />
<glyph unicode="@" horiz-adv-x="1974" d="M117 379q0 225 75.5 429t215 358.5t339 245.5t447.5 91q174 0 320.5 -49t253 -144.5t167 -236.5t60.5 -325q0 -178 -53.5 -318.5t-138.5 -236t-191.5 -145.5t-212.5 -50q-92 0 -154.5 38t-79.5 111h-14q-35 -61 -108.5 -105t-172.5 -44q-125 0 -200.5 87t-75.5 284 q0 129 37 254t117 221q70 80 172 127t235 47q106 0 186 -30t140 -79l-95 -559q-12 -72 9.5 -97.5t68.5 -25.5q72 0 130.5 47.5t100.5 122t64.5 167.5t22.5 186q0 143 -49.5 246.5t-133 171t-194.5 100t-234 32.5q-188 0 -341.5 -71.5t-264 -195.5t-171 -289.5t-60.5 -352.5 q0 -332 164 -510t463 -178q139 0 268 34t246 103q35 -25 60.5 -74t31.5 -100q-141 -86 -305 -129t-330 -43q-188 0 -340 61.5t-257.5 176t-161.5 278.5t-56 369zM860 408q0 -100 31 -135t84 -35q100 0 158 79l94 465q-16 10 -45 15.5t-52 5.5q-55 0 -101 -22.5t-75 -57.5 q-49 -59 -71.5 -147.5t-22.5 -167.5z" />
<glyph unicode="A" horiz-adv-x="1333" d="M27 20l591 1430q29 8 79.5 14t115.5 6q63 0 109.5 -6t74.5 -14l299 -1430q-44 -28 -138 -28h-7q-102 0 -147 28l-60 320h-489l-127 -320q-23 -14 -64 -21t-92 -7t-90 7t-55 21zM545 584h358l-45 231q-18 98 -37.5 214t-29.5 239h-15q-31 -125 -67.5 -236.5t-77.5 -218.5z " />
<glyph unicode="B" horiz-adv-x="1312" d="M150 14l169 1416q84 23 179.5 37t212.5 14q125 0 225 -21.5t171 -66.5t109.5 -117t38.5 -172q0 -55 -12 -108.5t-39.5 -98.5t-69.5 -79t-100 -50v-16q106 -29 172 -108t66 -220q0 -121 -49 -206t-133 -137t-197 -75.5t-240 -23.5q-160 0 -278.5 8t-224.5 24zM473 246 q39 -6 87 -8t102 -2q53 0 108 7t99 28.5t73 60.5t29 102q0 98 -68.5 143.5t-197.5 45.5h-193zM537 870h182q102 0 173 43t71 146q0 92 -66 134t-188 42q-35 0 -70 -3t-68 -9z" />
<glyph unicode="C" horiz-adv-x="1226" d="M154 635q0 172 45 328.5t138 276.5t234.5 191.5t335.5 71.5q172 0 285 -59q16 -25 28.5 -58.5t18.5 -71.5t6 -76t-6 -71q-63 35 -130 55.5t-153 20.5q-133 0 -227 -45t-153.5 -122t-87 -180t-27.5 -222q0 -127 28.5 -213t82 -138.5t128 -75t164.5 -22.5q88 0 162 17.5 t135 40.5q1 -10 1 -21q0 -22 -3 -48q-4 -38 -15 -76t-29.5 -71.5t-43.5 -56.5q-57 -25 -133 -41t-170 -16q-295 0 -454.5 175t-159.5 507z" />
<glyph unicode="D" horiz-adv-x="1402" d="M150 16l169 1409q78 23 172.5 35.5t198.5 12.5q166 0 298 -40t223.5 -125t139.5 -216t48 -316q0 -381 -209 -586.5t-600 -205.5q-111 0 -224.5 8t-215.5 24zM481 262q37 -8 79 -10t83 -2q117 0 202 42t140 114.5t81 169t26 206.5q0 115 -27 198t-76 136t-119.5 79 t-158.5 26q-35 0 -70 -4.5t-63 -10.5z" />
<glyph unicode="E" horiz-adv-x="1173" d="M147 0l172 1456h863q14 -31 14 -94q0 -47 -7 -88t-22 -68h-598l-37 -342h551q6 -16 10.5 -39.5t4.5 -54.5q0 -47 -8.5 -89t-22.5 -67h-557l-39 -356h616q16 -33 17 -100q0 -47 -8.5 -88t-22.5 -70h-926z" />
<glyph unicode="F" horiz-adv-x="1071" d="M150 18l169 1438h826q16 -37 16 -98q0 -47 -8 -88t-23 -68h-555l-40 -383h503q16 -37 17 -98q0 -47 -8.5 -88t-22.5 -68h-514l-55 -547q-23 -12 -60 -19t-96 -7t-93 7t-56 19z" />
<glyph unicode="G" horiz-adv-x="1398" d="M154 629q0 180 51 338.5t153.5 277.5t255 188.5t357.5 69.5q100 0 179 -16.5t142 -46.5q18 -25 29.5 -58.5t18 -71.5t6.5 -76t-7 -71q-72 39 -157.5 60.5t-184.5 21.5q-137 0 -238.5 -43t-167 -122t-98 -187.5t-32.5 -239.5q0 -121 26.5 -203.5t75.5 -135t119 -75 t156 -22.5q53 0 98 8t82 23l43 340h-254q-16 33 -16 94q0 47 8 88t22 68h541l-78 -777q-92 -47 -223 -77.5t-268 -30.5q-309 0 -474 173t-165 503z" />
<glyph unicode="H" horiz-adv-x="1458" d="M150 18l167 1420q40 26 135 26h7q98 0 137 -26l-59 -568h567l65 568q40 26 135 26h7q98 0 137 -26l-143 -1420q-23 -12 -60 -19t-94 -7t-91 7t-54 19l69 594h-563l-61 -594q-23 -12 -60 -19t-94 -7q-59 0 -92 7t-55 19z" />
<glyph unicode="I" horiz-adv-x="608" d="M150 18l167 1420q40 26 135 26h7q100 0 139 -26l-143 -1420q-23 -12 -60 -19t-96 -7t-93 7t-56 19z" />
<glyph unicode="J" horiz-adv-x="673" d="M-61 -199q74 39 128 85t91 104.5t59.5 130.5t32.5 164l135 1153q40 26 134 26h7q100 0 140 -26l-115 -1149q-29 -272 -148.5 -448.5t-347.5 -278.5q-104 80 -116 239z" />
<glyph unicode="K" horiz-adv-x="1314" d="M150 18l167 1420q40 26 133 26h7q100 0 139 -26l-57 -570h118l408 568q29 12 74 20t102 8q113 0 148 -28l-502 -697l401 -719q-40 -28 -160 -28h-8q-66 0 -110.5 8t-73.5 20l-307 592h-117l-59 -594q-23 -12 -60 -19t-96 -7t-92 7t-55 19z" />
<glyph unicode="L" horiz-adv-x="1116" d="M150 0l167 1438q40 26 135 26h7q100 0 139 -26l-117 -1168h572q16 -33 16 -100q0 -51 -9 -96t-24 -74h-886z" />
<glyph unicode="M" horiz-adv-x="1769" d="M147 14l170 1428q33 10 86.5 16t124.5 6q74 0 125.5 -6t81.5 -16l131 -752q14 -84 25.5 -197.5t15.5 -218.5h15q10 51 23 108.5t27.5 112t30 104.5t31.5 89l291 754q35 10 91.5 16t133.5 6q78 0 126 -6t81 -16l-139 -1426q-20 -12 -58 -18t-87 -6q-98 0 -136 24l138 1201 h-15q-10 -47 -26.5 -106.5t-35 -120t-37 -116t-34.5 -96.5l-301 -772q-29 -10 -66.5 -14t-91.5 -4q-98 0 -141 18l-135 772q-8 43 -14.5 98.5t-12.5 116t-9 118.5t-5 106h-14l-119 -1203q-16 -12 -52 -17t-83 -5t-83 5t-53 17z" />
<glyph unicode="N" horiz-adv-x="1470" d="M147 14l170 1430q35 10 77 16t102 6q61 0 104 -6t74 -16l303 -750q29 -72 48 -180t26 -211h14l131 1139q20 10 51 16t84 6q90 0 129 -22l-145 -1432q-35 -10 -82 -15t-109 -5q-59 0 -105 5t-75 15l-305 787q-33 86 -49.5 186t-24.5 201h-14l-117 -1170q-35 -22 -136 -22 h-9q-51 0 -87 5t-55 17z" />
<glyph unicode="O" horiz-adv-x="1482" d="M158 627q0 174 43 333.5t131 279.5t223 191.5t319 71.5q137 0 246 -42t184.5 -128t116.5 -216t41 -306q0 -156 -35.5 -309.5t-119.5 -275.5t-221.5 -197.5t-340.5 -75.5q-285 0 -436 165t-151 509zM465 645q0 -428 299 -428q117 0 192.5 58.5t120.5 147.5t63.5 194.5 t18.5 197.5q0 211 -77.5 320.5t-227.5 109.5q-111 0 -185.5 -55t-119.5 -142t-64.5 -193.5t-19.5 -209.5z" />
<glyph unicode="P" horiz-adv-x="1220" d="M150 18l167 1409q74 23 165 37.5t214 14.5q135 0 244 -28t184.5 -86t115.5 -150.5t40 -223.5q0 -117 -35 -216t-105.5 -169.5t-176 -110.5t-248.5 -40q-57 0 -118.5 5t-96.5 11l-45 -453q-23 -12 -60 -19t-96 -7t-93 7t-56 19zM520 723q29 -6 72 -10t90 -4 q147 0 224 62.5t77 203.5q0 135 -70.5 193.5t-199.5 58.5q-39 0 -77 -4t-67 -15z" />
<glyph unicode="Q" horiz-adv-x="1486" d="M158 627q0 174 43 333.5t132 279.5t224 191.5t322 71.5q137 0 245.5 -42t185 -128t117.5 -216t41 -306q0 -109 -17 -216.5t-55 -205.5t-98.5 -181t-146.5 -142q25 -117 96.5 -162t186.5 -45q53 0 90 6t80 20q2 -17 2 -35q0 -14 -1 -28q-3 -35 -13.5 -69t-26 -63.5 t-35.5 -47.5q-39 -18 -91.5 -27.5t-109.5 -9.5q-172 0 -285.5 90t-146.5 270q-66 -12 -149 -12q-287 0 -438.5 164t-151.5 510zM465 645q0 -428 301 -428q117 0 194.5 58.5t122.5 147.5t63.5 194.5t18.5 197.5q0 211 -77.5 320.5t-229.5 109.5q-113 0 -187.5 -55 t-120.5 -142t-65.5 -193.5t-19.5 -209.5z" />
<glyph unicode="R" horiz-adv-x="1306" d="M150 18l167 1409q68 23 164.5 37.5t216.5 14.5q133 0 239.5 -26t181.5 -82t115 -145t40 -214q0 -156 -63.5 -273.5t-196.5 -179.5l264 -539q-38 -28 -154 -28h-8q-61 0 -104 8t-70 20l-213 480h-20q-57 0 -114.5 5t-92.5 11l-49 -498q-23 -12 -60 -19t-96 -7q-57 0 -91 7 t-56 19zM522 766q29 -4 75 -9t93 -5q139 0 215 58t76 185q0 123 -71.5 177.5t-196.5 54.5q-41 0 -78 -5t-66 -14z" />
<glyph unicode="S" horiz-adv-x="1126" d="M90 248q0 43 6 78q74 -45 188.5 -80t235.5 -35q51 0 98.5 9t83 30.5t57 58.5t21.5 94q0 74 -41 118t-102.5 75t-133 60.5t-133 76.5t-102.5 123t-41 199q0 213 127 330.5t371 117.5q190 0 315 -82q18 -25 30.5 -59.5t19 -72.5t6.5 -76.5t-6 -71.5q-72 47 -151 81.5 t-191 34.5q-98 0 -163 -36.5t-65 -130.5q0 -72 42 -112t105.5 -70.5t136.5 -59.5t136.5 -78t105 -128t41.5 -208q0 -229 -144 -355t-429 -126q-111 0 -203 18.5t-161 51.5q-18 25 -32 62.5t-21 78.5t-7 84z" />
<glyph unicode="T" horiz-adv-x="1150" d="M172 1296q0 47 8 89t25 71h1040q16 -37 17 -98q0 -47 -8.5 -90t-24.5 -72h-379l-121 -1178q-23 -12 -59.5 -19t-96.5 -7q-59 0 -93 7t-56 19l141 1178h-377q-16 37 -16 100z" />
<glyph unicode="U" horiz-adv-x="1404" d="M188 430q0 29 2.5 55.5t6.5 61.5l104 891q40 26 134 26h7q100 0 140 -26l-93 -908q-3 -37 -3 -69q0 -42 6 -75q10 -58 39.5 -94t78.5 -50.5t117 -14.5q147 0 217 73t88 239l103 899q40 26 130 26h7q100 0 135 -26l-86 -906q-29 -291 -176.5 -435t-442.5 -144 q-274 0 -394 123t-120 354z" />
<glyph unicode="V" horiz-adv-x="1269" d="M170 1440q23 14 56.5 20t86.5 6q102 0 148 -26l147 -809q16 -86 30.5 -191.5t18.5 -216.5h15q23 109 51.5 214.5t62.5 191.5l322 811q45 26 146 26h8q53 0 90 -6t53 -20l-574 -1432q-29 -10 -82 -16t-120 -6q-66 0 -115 6t-78 16z" />
<glyph unicode="W" horiz-adv-x="1906" d="M217 1438q40 28 131 28h6q92 0 138 -28l57 -879q4 -78 8 -164t4 -184h14q16 104 35 192.5t41 159.5l273 887q29 10 78 15t116 5q68 0 114 -5t75 -15l69 -881q6 -74 11.5 -165t7.5 -193h14q14 102 33.5 191.5t40.5 158.5l250 879q23 14 57.5 20t81.5 6q96 0 133 -26 l-416 -1432q-33 -10 -89 -15t-128 -5t-122 5t-83 15l-63 883q-6 82 -10 173q-3 61 -3 124q0 31 1 63h-15q-16 -94 -34.5 -187t-43.5 -177l-256 -879q-35 -10 -88 -15t-125 -5t-122 5t-82 15z" />
<glyph unicode="X" horiz-adv-x="1269" d="M27 20l536 773l-297 645q23 14 57.5 21t92.5 7q100 0 151 -28l144 -295q16 -35 30.5 -79t22.5 -85h14q12 41 35 86t45 78l203 295q23 14 66.5 21t95.5 7q51 0 90 -7t57 -21l-475 -693l338 -725q-16 -14 -56 -21t-94 -7q-115 0 -168 28l-167 373q-16 35 -31 75t-21 81h-14 q-12 -39 -31.5 -81t-46.5 -81l-252 -367q-25 -14 -69.5 -21t-100.5 -7q-53 0 -96 7t-59 21z" />
<glyph unicode="Y" horiz-adv-x="1177" d="M160 1438q45 28 142 28h7q102 0 150 -28l141 -408q23 -66 42.5 -149.5t25.5 -163.5h14q16 86 44 172t60 143l230 406q25 14 65.5 21t89.5 7q109 0 148 -28l-537 -959l-47 -461q-23 -12 -59.5 -19t-95.5 -7t-93 7t-57 19l53 469z" />
<glyph unicode="Z" horiz-adv-x="1169" d="M96 233l733 957v16h-567q-16 37 -16 97q0 45 8 86t22 67h877q35 -90 35 -229l-696 -946v-19h610q16 -37 16 -100q0 -47 -8 -90t-25 -72h-952q-20 51 -28.5 106.5t-8.5 126.5z" />
<glyph unicode="[" horiz-adv-x="626" d="M78 -438l235 2052h412q12 -35 19.5 -101.5t7.5 -138.5h-207l-158 -1562h197q16 -33 16 -97q0 -47 -8 -87t-23 -66h-491z" />
<glyph unicode="\" horiz-adv-x="888" d="M168 1456q35 49 87 88t114 55l528 -1892q-92 -82 -238 -86z" />
<glyph unicode="]" horiz-adv-x="626" d="M-47 -342q0 45 8 86t23 68h202l183 1562h-197q2 59 15.5 125t35.5 115h428l-209 -2052h-473q-16 37 -16 96z" />
<glyph unicode="^" d="M147 807l365 584q49 16 119.5 23t136.5 7l401 -676q-31 -47 -93 -80.5t-126 -41.5l-202 329q-35 57 -58.5 123t-40.5 142h-16q-16 -78 -44 -151t-57 -118l-215 -340q-55 35 -101 89.5t-69 109.5z" />
<glyph unicode="_" horiz-adv-x="1024" d="M-51 -520q2 61 14 128.5t35 115.5h1040q6 -14 10.5 -37t4.5 -62q0 -47 -7.5 -83t-19.5 -62h-1077z" />
<glyph unicode="`" horiz-adv-x="962" d="M393 1511q37 41 95.5 69t123.5 28l197 -355q-25 -41 -59.5 -66.5t-87.5 -33.5z" />
<glyph unicode="a" horiz-adv-x="1165" d="M127 381q0 125 31.5 244.5t101.5 216.5q84 117 208 168t265 51q117 0 206 -31t159 -84l-68 -624q-3 -21 -3 -37q1 -35 13 -49q18 -20 52 -19q25 0 43 5t34 16q4 -19 4 -41q0 -11 -1 -23q-3 -35 -10 -67.5t-20.5 -61.5t-27.5 -47q-33 -18 -67.5 -28.5t-88.5 -10.5 q-92 0 -144 42t-60 136h-15q-31 -70 -102.5 -124t-190.5 -54q-63 0 -121.5 20.5t-102.5 69.5t-69.5 130t-25.5 202zM418 432q0 -117 35.5 -164t111.5 -47q63 0 105.5 26.5t74.5 67.5l62 488q-23 12 -43.5 17t-54.5 5q-74 0 -126.5 -25.5t-84.5 -68.5q-45 -59 -62.5 -143 t-17.5 -156z" />
<glyph unicode="b" horiz-adv-x="1130" d="M127 43l180 1430q94 53 277 53l-37 -332q-10 -84 -27.5 -168t-40.5 -158h15q43 94 127 143.5t190 49.5q86 0 145.5 -33t95 -90t51 -133t15.5 -164q0 -68 -9 -140.5t-28.5 -141t-49.5 -129t-68 -105.5q-76 -86 -186.5 -126t-258.5 -40q-131 0 -229.5 24.5t-161.5 59.5z M432 219q18 -8 50 -13t67 -5q68 0 117 23.5t79 64.5q47 59 65.5 141t18.5 160q0 121 -35.5 169t-109.5 48q-72 0 -118 -38t-81 -97z" />
<glyph unicode="c" horiz-adv-x="958" d="M123 436q0 121 31.5 229.5t97.5 194.5q72 92 176 146.5t256 54.5q72 0 124 -12.5t93 -36.5q14 -23 25.5 -54.5t16.5 -66.5t5 -70t-6 -65q-43 27 -96 43t-119 16q-147 0 -229 -88q-84 -90 -84 -248q0 -145 68.5 -202.5t191.5 -57.5q68 0 124 14.5t109 38.5q2 -16 2 -32 t-2 -34q-4 -36 -14 -71t-27 -66.5t-37 -54.5q-49 -25 -111.5 -40t-144.5 -15q-219 0 -334.5 120t-115.5 357z" />
<glyph unicode="d" horiz-adv-x="1175" d="M125 383q0 121 28.5 241.5t90.5 213.5q76 117 190.5 170t239.5 53q96 0 164 -33l57 445q94 53 276 53l-133 -1204q-3 -21 -3 -37q1 -35 13 -49q18 -20 52 -19q25 0 43 5t35 16q4 -19 4 -41q0 -11 -1 -23q-3 -35 -10.5 -67.5t-20.5 -61.5t-28 -47q-33 -18 -67.5 -28.5 t-87.5 -10.5q-92 0 -144.5 41t-60.5 135h-14q-33 -70 -105 -123t-190 -53q-66 0 -125.5 20.5t-104.5 69.5t-71.5 131t-26.5 203zM416 428q0 -111 41 -158t116 -47q61 0 103.5 26.5t77.5 67.5l59 469q-45 27 -108 27q-70 0 -125.5 -25.5t-87.5 -68.5q-20 -29 -35 -65 t-24 -75.5t-13 -78.5t-4 -72z" />
<glyph unicode="e" horiz-adv-x="1007" d="M119 393q0 139 45 271.5t133 228.5q72 78 171 123t228 45q166 0 250 -75t84 -208q0 -70 -27.5 -136.5t-98 -119.5t-192.5 -89t-309 -44q4 -59 17.5 -97t38 -59.5t59.5 -28.5t84 -7q106 0 194.5 27.5t166.5 76.5q0 -29 -5.5 -63.5t-16.5 -68.5t-26.5 -64.5t-33.5 -51.5 q-55 -39 -143.5 -66.5t-211.5 -27.5q-207 0 -307 109.5t-100 324.5zM418 598q190 8 272 53t82 111q0 37 -24.5 62.5t-79.5 25.5q-59 0 -109.5 -27.5t-83.5 -74.5q-37 -50 -57 -150z" />
<glyph unicode="f" horiz-adv-x="669" d="M104 776q2 59 15.5 128t36.5 116h120l15 125q14 117 50 195.5t88 125.5t117.5 66.5t143.5 19.5q59 0 110.5 -11t90.5 -36q14 -23 23.5 -55.5t13.5 -67.5q3 -24 3 -48q0 -11 -1 -23q-2 -35 -8 -62q-86 55 -183 56q-88 0 -128 -39t-50 -129l-12 -117h229q4 -10 9.5 -33.5 t5.5 -60.5q0 -96 -29 -150h-242l-114 -1077q-23 -10 -58 -17.5t-90 -7.5t-90 7.5t-55 17.5l131 1077h-142z" />
<glyph unicode="g" horiz-adv-x="1124" d="M110 -328v12q0 34 5 67q6 38 16 67q82 -49 169 -71.5t159 -22.5q129 0 183 62t67 173q4 43 17 104.5t30 102.5h-15q-37 -72 -109.5 -124t-191.5 -52q-63 0 -120.5 20.5t-100.5 67.5t-68.5 127t-25.5 196q0 123 30.5 236t100.5 207q86 117 209 167t266 50q125 0 213 -33 t162 -88l-109 -977q-12 -113 -43.5 -205t-92 -156.5t-156 -100.5t-232.5 -36q-80 0 -168 13.5t-160 44.5q-18 31 -26 69.5t-9 79.5zM416 446q0 -104 40 -149t117 -45q61 0 105.5 25.5t79.5 66.5l57 457q-39 24 -105 24h-5q-68 0 -122.5 -26.5t-88.5 -67.5 q-43 -53 -60.5 -136t-17.5 -149z" />
<glyph unicode="h" horiz-adv-x="1187" d="M125 16l186 1457q94 53 277 53l-39 -330q-10 -80 -25.5 -169t-38.5 -165h15q33 80 111.5 139.5t209.5 59.5t207 -67.5t76 -213.5q0 -29 -2 -57.5t-6 -56.5l-35 -344q-2 -18 -2 -33q0 -39 12 -53q16 -20 51 -19q25 0 43.5 5t34.5 16q4 -19 4 -41q0 -11 -1 -23 q-3 -35 -10 -67.5t-20.5 -61.5t-27.5 -47q-33 -18 -68 -28.5t-88 -10.5q-123 0 -174 56.5t-51 170.5q0 25 3 61t7 62l41 301q2 14 3 28.5t1 29.5q0 53 -24.5 92t-96.5 39q-74 0 -126 -43t-87 -115l-69 -625q-23 -10 -57.5 -17t-90.5 -7q-55 0 -89 7t-54 17z" />
<glyph unicode="i" horiz-adv-x="583" d="M145 186q0 25 3.5 61t7.5 62l92 697q23 10 55.5 16t81.5 6q98 0 133 -22l-72 -684q-3 -21 -3 -37q1 -35 13 -49q18 -20 52 -19q25 0 43 5t35 16q4 -19 4 -41q0 -11 -1 -23q-3 -35 -10.5 -67.5t-20.5 -61.5t-28 -47q-33 -18 -68.5 -28.5t-88.5 -10.5q-123 0 -175.5 56.5 t-52.5 170.5zM260 1354q0 82 47 129t125 47q72 0 113 -41t41 -121q0 -82 -47 -129t-125 -47q-72 0 -113 42t-41 120z" />
<glyph unicode="j" horiz-adv-x="542" d="M-115 -313q47 39 89 82t76 97t58.5 123.5t36.5 162.5l117 854q23 10 55.5 16t81.5 6q98 0 133 -22l-92 -828q-14 -131 -49 -233.5t-86 -183t-115.5 -146.5t-138.5 -123q-61 18 -107 70.5t-59 124.5zM264 1354q0 82 47 129t125 47q72 0 113 -41t41 -121q0 -82 -47 -129 t-125 -47q-72 0 -113 42t-41 120z" />
<glyph unicode="k" horiz-adv-x="1105" d="M125 16l186 1457q94 53 277 53l-99 -856h86l261 344q23 10 55.5 14t71.5 4q61 0 109 -12t71 -31l-342 -430q27 -82 51.5 -146.5t51 -109.5t59 -68.5t77.5 -23.5q23 0 39.5 6t30.5 16q5 -27 5 -56v-9q-1 -34 -9 -68t-21.5 -63t-29.5 -47q-20 -12 -53 -21.5t-74 -9.5 q-88 0 -151.5 41t-107.5 108.5t-71 153.5t-43 174h-92l-47 -420q-23 -10 -57.5 -17t-90.5 -7q-55 0 -89 7t-54 17z" />
<glyph unicode="l" horiz-adv-x="608" d="M145 186q0 25 3.5 61t7.5 62l151 1164q94 53 273 53l-134 -1204q-2 -18 -2 -33q0 -36 14 -51q20 -21 60 -21q55 0 100 29q4 -19 4 -41q0 -11 -1 -23q-3 -35 -10 -67.5t-20 -61t-28 -47.5q-35 -23 -78 -35t-102 -12q-125 0 -181.5 58.5t-56.5 168.5z" />
<glyph unicode="m" horiz-adv-x="1751" d="M125 16l125 981q39 18 94 28.5t131 10.5v-190h14q35 92 113 153.5t207 61.5q121 0 181.5 -54.5t76.5 -150.5h16q31 88 108 146.5t204 58.5q125 0 197.5 -68.5t72.5 -224.5q0 -45 -6 -102l-37 -344q-3 -21 -3 -37q1 -35 13 -49q18 -20 51 -19q25 0 43.5 5t34.5 16 q4 -19 4 -41q0 -11 -1 -23q-3 -35 -10 -67.5t-20.5 -61.5t-27.5 -47q-33 -18 -67.5 -28.5t-88.5 -10.5q-123 0 -174 56.5t-51 170.5q0 25 3 61t7 62l41 301q2 16 3 30.5t1 29.5q0 51 -22.5 90t-89.5 39q-72 0 -117 -42t-80 -112l-63 -629q-20 -10 -56.5 -17t-89.5 -7t-86 7 t-53 17l74 596q2 16 3 30.5t1 31.5q0 51 -21.5 88t-91.5 37q-72 0 -121 -42t-82 -116l-69 -625q-23 -10 -57.5 -17t-90.5 -7q-55 0 -89 7t-54 17z" />
<glyph unicode="n" horiz-adv-x="1179" d="M125 16l125 981q39 18 94 28.5t131 10.5v-190h14q37 92 116 153.5t212 61.5q129 0 204 -68.5t75 -218.5q0 -27 -2 -51.5t-7 -56.5l-34 -344q-2 -18 -2 -33q0 -39 12 -53q16 -20 51 -19q25 0 43.5 5t34.5 16q4 -19 4 -41q0 -11 -1 -23q-3 -35 -10 -67.5t-20.5 -61.5 t-27.5 -47q-33 -18 -68 -28.5t-88 -10.5q-123 0 -174 56.5t-51 170.5q0 25 3 61t7 62l41 301q2 14 3 28.5t1 29.5q0 27 -5 50t-18.5 41.5t-37 29t-58.5 10.5q-72 0 -123 -43t-84 -115l-69 -625q-23 -10 -57.5 -17t-90.5 -7q-55 0 -89 7t-54 17z" />
<glyph unicode="o" horiz-adv-x="1110" d="M129 416q0 111 26.5 218t80.5 193q66 104 175 169t261 65q199 0 312.5 -119t113.5 -362q0 -127 -33 -244t-100 -205q-66 -82 -163 -127t-233 -45q-217 0 -328.5 117t-111.5 340zM420 430q0 -121 41 -176t127 -55q59 0 98 26.5t62 65.5q29 45 45 118.5t16 172.5 q0 121 -36 183t-122 62q-61 0 -103 -30.5t-69 -77.5q-35 -63 -47 -145t-12 -144z" />
<glyph unicode="p" horiz-adv-x="1128" d="M63 -477l187 1474q39 18 94 28.5t131 10.5v-188h14q39 100 122 156.5t198 56.5q88 0 146.5 -33t94 -89t51 -134t15.5 -166q0 -68 -9 -139.5t-27.5 -139t-46 -128t-64.5 -105.5q-70 -88 -163 -128t-226 -40q-53 0 -99.5 8t-68.5 21l-54 -465q-23 -10 -58.5 -17.5 t-90.5 -7.5t-90 7.5t-56 17.5zM436 238q16 -8 48 -14.5t67 -6.5q66 0 115 22.5t79 61.5q47 59 64.5 137t17.5 156q0 117 -37.5 164t-109.5 47q-70 0 -115 -41t-78 -100z" />
<glyph unicode="q" horiz-adv-x="1126" d="M127 389q0 125 30.5 238.5t100.5 210.5q86 121 206 172t267 51q123 0 214 -32t163 -85l-156 -1421q-23 -10 -58.5 -17.5t-90.5 -7.5t-90 7.5t-56 17.5l41 319q10 80 26.5 156t39.5 139h-14q-16 -35 -41 -66.5t-62 -56t-85 -40t-109 -15.5q-66 0 -125.5 20.5t-103.5 69.5 t-70.5 132t-26.5 208zM418 434q0 -117 39 -165t116 -48q59 0 102.5 24.5t78.5 65.5l65 486q-23 16 -54.5 22t-62.5 6q-70 0 -121 -27.5t-83 -72.5q-43 -59 -61.5 -139t-18.5 -152z" />
<glyph unicode="r" horiz-adv-x="768" d="M125 16l125 981q39 18 94 28.5t131 10.5v-219h14q27 125 93.5 184.5t162.5 59.5q55 0 91 -19q12 -23 19 -57.5t7 -87.5t-7 -89t-19 -65q-23 14 -51.5 23.5t-65.5 9.5q-92 0 -152.5 -63.5t-95.5 -180.5l-55 -516q-23 -10 -57.5 -17t-90.5 -7q-55 0 -89 7t-54 17z" />
<glyph unicode="s" horiz-adv-x="872" d="M81 144v12q0 30 4 58q5 34 17 58q27 -18 64 -34.5t78 -27.5t83 -18.5t83 -7.5q68 0 113.5 22.5t45.5 80.5q0 39 -28.5 62.5t-71.5 42t-94 39t-94 55t-72 90t-29 143.5q0 156 99.5 249t279.5 93q86 0 152.5 -20.5t109.5 -49.5q16 -23 27.5 -53.5t16.5 -64t5 -68.5t-6 -64 q-61 47 -131.5 75t-142.5 28q-53 0 -91 -20.5t-38 -71.5q0 -39 28.5 -62.5t72.5 -43t95.5 -40t95.5 -54.5t72.5 -87t28.5 -137q0 -174 -115.5 -271.5t-326.5 -97.5q-78 0 -161 14.5t-140 42.5q-14 25 -21.5 58.5t-8.5 69.5z" />
<glyph unicode="t" horiz-adv-x="759" d="M100 776q2 59 15.5 128t36.5 116h124l31 231q109 70 273 70l-35 -301h239q4 -10 9.5 -33.5t5.5 -60.5q0 -96 -29 -150h-252l-43 -395q-3 -24 -3 -44q0 -45 16 -72q22 -38 98 -38q41 0 82 11.5t82 40.5q4 -23 4 -50v-18q-2 -37 -10.5 -72t-21.5 -66.5t-30 -52.5 q-45 -29 -99 -45t-132 -16q-156 0 -221.5 68.5t-65.5 193.5q0 33 4 73t8 73l56 409h-142z" />
<glyph unicode="u" horiz-adv-x="1165" d="M139 248q0 23 2 45t6 53l95 639q55 29 119.5 40t156.5 11l-74 -635q-2 -14 -3 -30.5t-1 -30.5q0 -49 23.5 -80t95.5 -31q59 0 101 27t83 80l86 670q23 10 56 16t82 6q98 0 133 -22l-72 -684q-2 -16 -2 -30q0 -37 12 -53q16 -22 54 -22q25 0 43 5t34 16q4 -19 4 -41 q0 -11 -1 -23q-3 -35 -11 -67.5t-21.5 -61.5t-27.5 -47q-31 -20 -65.5 -29.5t-88.5 -9.5q-92 0 -144 44t-58 138h-15q-35 -78 -107.5 -130t-205.5 -52q-82 0 -137 20.5t-89 58.5t-48.5 91t-14.5 119z" />
<glyph unicode="v" horiz-adv-x="993" d="M98 993q25 16 67 27.5t101 11.5q39 0 65.5 -5t43.5 -13l117 -541q14 -61 19 -124.5t5 -141.5h14q45 74 87 154.5t74 157.5t51.5 142.5t19.5 108.5q0 29 -12.5 45t-53.5 16q-23 0 -40 -6t-27 -14q-4 27 0 56.5t13 58t21.5 52t24.5 38.5q23 18 59.5 31.5t90.5 13.5 q113 0 162 -60.5t49 -152.5q0 -86 -36 -198.5t-92.5 -232.5t-126 -237t-137.5 -209q-98 0 -185 10.5t-159 34.5z" />
<glyph unicode="w" horiz-adv-x="1613" d="M131 993q23 16 61.5 27.5t98.5 11.5q41 0 65.5 -5t40.5 -13l58 -533q6 -63 8 -140q1 -26 1 -50q0 -49 -3 -94h14q68 190 125 387.5t102 408.5q78 29 185.5 39t212.5 10l63 -579q7 -53 9 -130q1 -20 0 -39q0 -53 -5 -97h15q37 68 74.5 148.5t68.5 160.5t50.5 149.5 t19.5 116.5q0 59 -62 59q-20 0 -35.5 -5t-25.5 -13q-4 27 -1 56.5t11 57t20.5 52.5t24.5 39q23 16 57.5 29.5t83.5 13.5q53 0 90 -16.5t60.5 -45t34 -67.5t10.5 -84q0 -90 -36 -212t-89 -245t-115.5 -235.5t-115.5 -184.5q-92 0 -175 10.5t-149 32.5l-65 490 q-10 66 -13.5 157t-3.5 173h-14q-12 -86 -42 -201t-68 -233.5t-82 -231.5t-85 -197q-104 0 -196 10.5t-170 34.5z" />
<glyph unicode="x" horiz-adv-x="1017" d="M-20 14l423 553l-198 426q23 16 65.5 27.5t102.5 11.5q78 0 114 -18l68 -164q10 -25 20.5 -57.5t16.5 -67.5h14q10 35 26.5 72t37.5 63l114 156q20 8 51 12t66 4q55 0 102.5 -10t67.5 -27l-356 -479q39 -90 66.5 -148.5t53 -93t52 -49t63.5 -14.5q29 0 51.5 7t38.5 18 q5 -27 5 -55v-10q-1 -34 -9 -67.5t-21.5 -62.5t-29.5 -47q-47 -35 -135 -35q-72 0 -123 25.5t-90 73.5t-69.5 115t-57.5 149h-14q-4 -35 -23.5 -73t-46.5 -73l-125 -162q-25 -12 -76 -18t-106 -6q-49 0 -86 6t-53 18z" />
<glyph unicode="y" horiz-adv-x="997" d="M-35 -246q115 29 210 90.5t169 139.5l-248 1009q25 16 67 27.5t101 11.5q41 0 67.5 -5t43.5 -13l127 -549q28 -117 28 -283v-12h15q39 72 79 156t71.5 165.5t51 153.5t19.5 119q0 35 -14.5 51t-49.5 16q-23 0 -40 -6t-27 -14q-4 27 0 56.5t13 58t21.5 52t24.5 38.5 q25 18 59.5 31.5t90.5 13.5q111 0 159 -60.5t48 -158.5q0 -92 -31 -202t-80 -224.5t-111.5 -226t-126.5 -205.5q-59 -86 -125.5 -164t-144.5 -141.5t-169 -111.5t-200 -79q-98 82 -98 266z" />
<glyph unicode="z" horiz-adv-x="925" d="M88 207q135 135 261 272t241 289v18h-420q4 57 16.5 122t34.5 112h672q39 -88 39 -207q-94 -147 -196.5 -284.5t-225.5 -268.5v-18h373q6 -12 10 -34t4 -63q0 -47 -7 -82.5t-20 -62.5h-745q-20 45 -28.5 93t-8.5 114z" />
<glyph unicode="{" horiz-adv-x="663" d="M90 500q0 55 18.5 123.5t43.5 113.5q76 8 101.5 50t35.5 120l39 326q12 94 40.5 171t84 133t141.5 87t211 33q0 -59 -16.5 -128t-34.5 -110q-80 -4 -121 -44t-51 -138l-31 -322q-10 -106 -51 -181t-127 -101v-17q78 -29 103.5 -96t15.5 -184l-37 -379q-10 -98 23.5 -139 t119.5 -45q16 -51 9 -124t-29 -124q-135 0 -218.5 27.5t-128.5 82t-55 132t2 180.5l41 348q6 47 4 83t-15 61.5t-42 40t-76 20.5z" />
<glyph unicode="|" horiz-adv-x="581" d="M236 -387v1937q96 39 245 39v-1976q-33 -20 -123 -21q-90 0 -122 21z" />
<glyph unicode="}" horiz-adv-x="663" d="M-17 -287q3 35 13 60q100 2 144 42t57 140l45 367q27 238 180 282v17q-80 27 -103.5 95t-11.5 173l39 338q10 96 -19.5 139t-115.5 53q0 55 16 123t45 113q113 -12 180.5 -49t103.5 -91.5t43 -124t1 -145.5l-31 -334q-8 -84 8.5 -121.5t88.5 -52.5q16 -45 23 -108.5 t7 -128.5q-94 -4 -136 -46t-52 -143l-37 -366q-10 -98 -36.5 -175t-79 -130.5t-136.5 -82t-207 -32.5q-12 18 -19 50t-10 67.5t0 70.5z" />
<glyph unicode="~" d="M150 575q29 92 101.5 143.5t180.5 51.5q70 0 119 -18.5t92 -40t86 -40t98 -18.5q53 0 83 26t42 66q55 -2 114.5 -21t90.5 -54q-35 -121 -118 -198t-212 -77q-78 0 -129 18.5t-93 41t-84 41t-101 18.5t-96.5 -35t-55.5 -86q-43 29 -73.5 78t-44.5 104z" />
<glyph unicode="&#xa1;" horiz-adv-x="600" d="M92 -426l152 958q23 14 60.5 22.5t90.5 8.5q23 0 46.5 -4t35.5 -10l-67 -975q-25 -12 -64 -19.5t-100 -7.5q-59 0 -95 7.5t-59 19.5zM242 887q0 82 46 128t124 46q70 0 110.5 -41t40.5 -121q0 -82 -48 -128t-122 -46q-70 0 -110.5 41t-40.5 121z" />
<glyph unicode="&#xa2;" d="M221 641q0 106 30 202.5t89 175.5t147 133t203 75l21 159q49 18 101 25.5t124 7.5l-21 -186q90 -12 154 -55q16 -23 27.5 -54.5t17.5 -67.5t6 -71.5t-6 -66.5q-59 35 -120.5 54t-135.5 19q-160 0 -249 -85t-89 -232q0 -70 18.5 -117t54.5 -75.5t86 -41t114 -12.5 q84 0 154.5 17.5t125.5 46.5q2 -29 -1 -65t-13 -70.5t-26.5 -66.5t-37.5 -52q-80 -47 -182 -60l-18 -172q-18 -10 -48 -14t-77 -4q-88 0 -121 18l22 176q-168 33 -259 151t-91 308z" />
<glyph unicode="&#xa3;" d="M174 616q2 55 14.5 117t32.5 109h111q-4 23 -7 57.5t-3 67.5q0 106 29.5 195t90 153.5t152.5 100.5t217 36q92 0 164 -20.5t125 -59.5q16 -23 28.5 -57.5t19.5 -73.5t7 -78t-6 -69q-61 47 -140 76.5t-171 29.5q-125 0 -177.5 -57.5t-52.5 -163.5q0 -82 15 -137h368 q4 -10 9.5 -32t5.5 -56q0 -84 -27 -138h-317q2 -12 2 -22v-19q0 -92 -45.5 -169.5t-139.5 -137.5v-16h651q6 -14 11.5 -38t5.5 -60q0 -47 -8.5 -86t-22.5 -68h-883q-23 51 -30.5 112.5t-7.5 127.5q72 59 121 132.5t49 182.5q0 20 -1.5 35.5t-3.5 25.5h-186z" />
<glyph unicode="&#xa4;" d="M115 289l149 157q-43 86 -43 209q0 96 25.5 179.5t79.5 148.5l-105 152q33 51 84 89t121 56l94 -154q87 31 189 31q117 0 196 -39l142 166q57 -20 102 -63t68 -97l-150 -159q45 -86 45 -213q0 -195 -102 -328l106 -143q-31 -49 -84 -89t-119 -59l-100 150 q-41 -16 -89 -24.5t-101 -8.5q-117 0 -197 37l-137 -162q-59 23 -105.5 67t-68.5 97zM471 674q0 -98 43 -151.5t129 -53.5q57 0 99 24.5t70 62.5t40 86t12 97q0 94 -44 147.5t-130 53.5q-55 0 -96 -21.5t-68.5 -57.5t-41 -84t-13.5 -103z" />
<glyph unicode="&#xa5;" d="M121 340q0 53 12 111.5t31 99.5h305l-57 178h-250q0 53 12 109.5t31 97.5h139l-145 453q23 12 57.5 19t87.5 7q100 0 145 -26l127 -388q23 -66 35.5 -146.5t18.5 -160.5h16q18 84 42 167t58 145l213 383q23 14 63 20t87 6q102 0 139 -26l-248 -453h127q4 -10 9.5 -29.5 t5.5 -54.5q0 -41 -6.5 -69.5t-18.5 -53.5h-229l-99 -178h297q4 -10 9.5 -29.5t5.5 -54.5q0 -78 -25 -127h-346l-31 -322q-23 -12 -58.5 -19t-92.5 -7t-91 7t-57 19l39 322h-358z" />
<glyph unicode="&#xa6;" horiz-adv-x="581" d="M231 367q102 39 252 39v-791q-35 -23 -125 -23q-88 0 -127 23v752zM231 829v721q102 39 252 39v-760q-16 -10 -46.5 -16t-78.5 -6q-47 0 -77.5 6t-49.5 16z" />
<glyph unicode="&#xa7;" d="M84 -162q0 35 6 66q55 -37 151.5 -68t200.5 -31q98 0 156.5 37t58.5 133q0 63 -33.5 108.5t-82.5 84.5t-108.5 77t-109 90t-83 123.5t-33.5 176.5q0 135 58.5 234.5t168.5 177.5q-10 47 -10 94q0 166 105.5 266t304.5 100q152 0 247 -63q16 -23 26.5 -52.5t16.5 -63.5 t6 -67.5t-6 -60.5q-53 43 -125.5 70.5t-158.5 27.5q-74 0 -124 -28.5t-50 -106.5q0 -57 31.5 -95t79.5 -71.5t104.5 -68.5t104.5 -83t80 -118t32 -172q0 -119 -55.5 -221.5t-155.5 -175.5q29 -70 28 -160q0 -186 -118.5 -298t-362.5 -112q-90 0 -164.5 16.5t-134.5 45.5 q-16 20 -27.5 52t-17.5 66.5t-6 69.5zM446 690q0 -74 31 -124t78 -91t103.5 -77t107.5 -81q39 35 62.5 81.5t23.5 103.5q0 74 -30.5 124t-78 89t-102.5 73.5t-102 79.5q-41 -31 -67 -78t-26 -100z" />
<glyph unicode="&#xa8;" horiz-adv-x="962" d="M248 1325q0 70 40.5 110t106.5 40q61 0 97 -35t36 -103q0 -70 -41 -109.5t-106 -39.5q-61 0 -97 34.5t-36 102.5zM702 1325q0 70 41 110t107 40q61 0 97 -35t36 -103q0 -70 -41 -109.5t-106 -39.5q-61 0 -97.5 34.5t-36.5 102.5z" />
<glyph unicode="&#xa9;" horiz-adv-x="1544" d="M133 614q0 166 55.5 317.5t156.5 267.5t244.5 184.5t317.5 68.5q145 0 263 -49t202 -138t130 -213t46 -276q0 -164 -54 -312.5t-155.5 -262t-244 -181t-320.5 -67.5q-143 0 -261 46t-203 132t-131 209t-46 274zM285 635q0 -123 35.5 -221.5t101 -168t158.5 -107.5 t208 -38q137 0 250 52.5t193 142.5t124 211t44 258q0 119 -35 219t-99.5 172t-156.5 112t-207 40q-133 0 -246.5 -53.5t-195.5 -144.5t-128 -213t-46 -261zM473 655q0 94 27.5 180.5t85 152t142.5 103t200 37.5q100 0 164 -34q14 -16 24 -44t14.5 -58.5t4 -60t-8.5 -54.5 q-41 23 -80.5 35t-93.5 12q-117 0 -179 -64.5t-62 -177.5q0 -106 52 -145t144 -39q55 0 103.5 11t89.5 28q2 -25 0 -54.5t-10.5 -59.5t-21.5 -56.5t-30 -44.5q-35 -16 -85 -28.5t-115 -12.5q-178 0 -271.5 97t-93.5 277z" />
<glyph unicode="&#xaa;" horiz-adv-x="772" d="M109 365q0 43 10 90t24 82h615q4 -10 8 -25.5t4 -42.5q0 -63 -20 -104h-641zM141 926q0 84 20.5 158.5t67.5 136.5q59 78 141.5 111.5t178.5 33.5q82 0 144.5 -20.5t111.5 -59.5l-43 -397q-4 -39 6 -51.5t33 -12.5q33 0 53 15q4 -20 3 -45t-7 -49.5t-14.5 -45 t-20.5 -32.5q-16 -18 -45 -22.5t-65 -4.5q-129 0 -138 115h-12q-20 -47 -67.5 -81t-127.5 -34q-43 0 -82.5 13.5t-70.5 46t-48.5 88t-17.5 137.5zM354 954q0 -61 22.5 -88.5t69.5 -27.5q39 0 65 15t46 42l39 281q-16 8 -31.5 12t-38.5 4q-45 0 -71.5 -15.5t-51.5 -48.5 t-37 -83t-12 -91z" />
<glyph unicode="&#xab;" horiz-adv-x="1191" d="M162 537q55 115 116.5 211t135.5 200q51 29 131 43.5t166 14.5q-72 -115 -136.5 -228.5t-119.5 -230.5q25 -98 58.5 -198.5t74.5 -196.5q-45 -47 -102.5 -71t-131.5 -34q-59 117 -110 245t-82 245zM649 537q55 115 116.5 211t135.5 200q51 29 131 43.5t166 14.5 q-72 -115 -136.5 -228.5t-119.5 -230.5q25 -98 58.5 -198.5t74.5 -196.5q-45 -47 -102.5 -71t-130.5 -34q-59 117 -110.5 245t-82.5 245z" />
<glyph unicode="&#xac;" d="M135 492q0 63 10.5 141t30.5 123h944v-520q-20 -10 -56 -17.5t-85 -7.5t-85 7t-56 18v256h-703z" />
<glyph unicode="&#xad;" horiz-adv-x="714" d="M119 444q2 66 17.5 136.5t37.5 121.5h514q8 -18 12.5 -40.5t4.5 -63.5q0 -47 -6.5 -86t-22.5 -68h-557z" />
<glyph unicode="&#xae;" horiz-adv-x="1124" d="M152 1059q0 123 39.5 234.5t114.5 196.5t180.5 136t236.5 51q106 0 193.5 -34.5t149.5 -99t97 -155.5t35 -204q0 -121 -40 -232.5t-113.5 -197.5t-180 -137.5t-241.5 -51.5q-106 0 -193.5 35t-149 99.5t-95 155.5t-33.5 204zM279 1071q0 -180 95 -279.5t261 -99.5 q100 0 180 37t137.5 101.5t88 151.5t30.5 185q0 178 -94 282.5t-260 104.5q-98 0 -178 -37.5t-138.5 -102t-90 -154t-31.5 -189.5zM436 885l66 487q78 27 170 27q111 0 173 -44t62 -136q0 -109 -84 -158l82 -176q-18 -12 -80 -13q-33 0 -55 4.5t-37 8.5l-49 135 q-16 0 -38.5 1t-39.5 5l-14 -141q-18 -12 -78 -13q-57 0 -78 13zM616 1151q4 -2 25 -3t33 -1q29 0 56.5 12t27.5 51q0 63 -82 64q-20 0 -45 -6z" />
<glyph unicode="&#xaf;" horiz-adv-x="962" d="M303 1227q0 47 12.5 100t28.5 94h584q12 -25 12 -78q0 -76 -20 -116h-617z" />
<glyph unicode="&#xb0;" horiz-adv-x="716" d="M141 1106q0 76 22.5 139.5t65.5 109.5t104.5 71.5t139.5 25.5q131 0 207 -73.5t76 -213.5q0 -72 -22.5 -135t-65.5 -110.5t-105.5 -75t-142.5 -27.5q-135 0 -207 77t-72 212zM344 1122q0 -55 22.5 -86.5t67.5 -31.5q59 0 89 48t30 103q0 51 -22.5 82t-69.5 31 q-55 0 -86 -40t-31 -106z" />
<glyph unicode="&#xb1;" d="M184 0q0 29 3 63.5t7.5 69.5t11.5 65.5t17 51.5h854q6 -14 12.5 -46t6.5 -79t-6.5 -79t-12.5 -46h-893zM190 682q0 31 3.5 64.5t8.5 67.5t12 63.5t17 50.5h277v274q51 23 120.5 32t147.5 9v-315h291q8 -16 14 -48t6 -75q0 -41 -6 -74t-14 -49h-291v-293q-14 -12 -50 -18 t-83 -6t-83 6t-52 18v293h-318z" />
<glyph unicode="&#xb2;" horiz-adv-x="788" d="M186 952q41 35 103.5 78t122 92t102.5 101.5t43 105.5q0 82 -102 82q-53 0 -99.5 -16.5t-91.5 -42.5q-8 47 4 100t41 90q37 27 92.5 44.5t126.5 17.5q123 0 197 -55.5t74 -174.5q0 -68 -25.5 -126t-68.5 -105t-98.5 -85t-114.5 -69v-10h282q12 -23 12 -78q0 -41 -5 -67.5 t-15 -47.5h-557q-12 35 -17.5 77t-5.5 89z" />
<glyph unicode="&#xb3;" horiz-adv-x="788" d="M188 1004q43 -20 108.5 -34t129.5 -14q57 0 95 15.5t38 56.5q0 43 -42 59.5t-157 16.5h-12q-6 16 -9 38.5t-2 47t6 47.5t13 37h13q29 0 65.5 3t68.5 12t54.5 27.5t22.5 51.5q0 53 -97 53q-53 0 -103 -14t-91 -35q-4 18 -3 43t7 51.5t18.5 50t28.5 42.5q35 23 93.5 34 t117.5 11q57 0 104 -11.5t82 -35t54.5 -61.5t19.5 -91q0 -76 -38 -128t-114 -69v-8q59 -16 96.5 -58t37.5 -120q0 -70 -30 -118t-80 -78.5t-115.5 -44t-139.5 -13.5q-53 0 -104.5 7t-94.5 20q-29 45 -39 102t-2 107z" />
<glyph unicode="&#xb4;" horiz-adv-x="962" d="M420 1274l270 325q61 0 128 -24.5t102 -69.5l-379 -352q-47 14 -78 47t-43 74z" />
<glyph unicode="&#xb5;" horiz-adv-x="1187" d="M55 -477l195 1462q55 29 119.5 40t156.5 11l-73 -628q-2 -16 -3 -34t-1 -32q0 -51 26.5 -82t97.5 -31q70 0 115 30t80 77l84 670q23 10 55.5 16t81.5 6q98 0 133 -22l-71 -684q-6 -61 10 -83t53 -22q25 0 43.5 5t34.5 16q6 -29 3 -64t-11 -67.5t-21.5 -61.5t-27.5 -47 q-59 -39 -144 -39q-86 0 -129 34t-47 99h-14q-29 -57 -87.5 -95t-154.5 -38q-141 0 -174 88h-14q12 -59 12 -149.5t-12 -194.5l-21 -180q-23 -10 -58.5 -17.5t-90.5 -7.5t-90 7.5t-56 17.5z" />
<glyph unicode="&#xb6;" horiz-adv-x="1181" d="M137 1014q0 123 43 211t122 145t192.5 84t255.5 27q121 0 227 -17.5t194 -52.5l-161 -1755q-31 -18 -105 -18q-70 0 -96 18l166 1622q-31 8 -71 11t-81 3l-168 -1636q-31 -18 -102 -18q-72 0 -98 18l116 1001q-16 -4 -38.5 -5t-43.5 -1q-68 0 -131 16.5t-112 58.5 t-79 111.5t-30 176.5z" />
<glyph unicode="&#xb7;" horiz-adv-x="528" d="M158 514q0 86 48 134t128 48q72 0 115 -42t43 -126q0 -86 -49.5 -134t-127.5 -48q-72 0 -114.5 43t-42.5 125z" />
<glyph unicode="&#xb8;" horiz-adv-x="962" d="M268 -385q23 2 48.5 9t47 20.5t36 34t14.5 49.5q0 41 -27 62.5t-63 29.5l86 188q35 16 81 25.5t97 9.5l-39 -141q47 -20 75.5 -58.5t28.5 -103.5q0 -111 -76.5 -176.5t-191.5 -83.5q-41 20 -71.5 54t-45.5 81z" />
<glyph unicode="&#xb9;" horiz-adv-x="788" d="M279 1343q4 51 20 100.5t39 88.5q27 12 66.5 22.5t88 19.5t102.5 17t110 13l-80 -801q-20 -10 -47 -15.5t-72 -5.5q-43 0 -69.5 5.5t-43.5 15.5l72 569z" />
<glyph unicode="&#xba;" horiz-adv-x="772" d="M133 365q0 43 10.5 90t24.5 82h582q4 -10 8 -25.5t4 -42.5q0 -63 -21 -104h-608zM172 948q0 78 21.5 153t67.5 134t118 95t172 36q139 0 222 -78t83 -239q0 -84 -21.5 -158t-67.5 -129t-116.5 -88t-169.5 -33q-150 0 -229.5 79t-79.5 228zM387 954q0 -74 29.5 -103.5 t77.5 -29.5q47 0 76.5 23.5t46 57.5t22.5 74t6 71q0 70 -27 106.5t-86 36.5q-41 0 -68.5 -20.5t-45 -54.5t-24.5 -76t-7 -85z" />
<glyph unicode="&#xbb;" horiz-adv-x="1191" d="M147 166q63 98 117.5 190.5t102.5 190.5q-29 104 -61 201.5t-68 195.5q47 33 108.5 49.5t124.5 16.5q59 -123 108.5 -247t79.5 -228q-61 -117 -141 -243t-166 -245q-72 6 -124 40t-81 79zM637 166q63 98 117.5 190.5t101.5 190.5q-29 104 -60.5 201.5t-68.5 195.5 q47 33 108.5 49.5t125.5 16.5q59 -123 108 -247t80 -228q-61 -117 -141 -243t-166 -245q-72 6 -124 40t-81 79z" />
<glyph unicode="&#xbc;" horiz-adv-x="1853" d="M162 1163q4 51 20.5 100.5t38.5 88.5q27 12 67 22t88 19.5t102 17.5t110 12l-80 -800q-20 -10 -47 -15.5t-72 -5.5q-43 0 -69.5 5t-43.5 16l72 569zM313 49l1065 1438q70 -2 116 -19.5t87 -60.5l-1089 -1501q-66 14 -112 52t-67 91zM1143 354l383 461q74 -2 137 -12 t115 -33l-45 -414h73q12 -18 13 -75q0 -39 -5.5 -63.5t-15.5 -45.5h-84l-18 -158q-33 -20 -115 -20q-43 0 -67.5 5t-40.5 15l22 158h-324q-16 39 -22 84t-6 98zM1372 342q25 6 66 6h88l22 156q4 23 10.5 53.5t10.5 46.5h-10l-187 -254v-8z" />
<glyph unicode="&#xbd;" horiz-adv-x="1853" d="M158 1163q4 51 20.5 100.5t38.5 88.5q27 12 67 22t88 19.5t102 17.5t110 12l-80 -800q-20 -10 -47 -15.5t-72 -5.5q-43 0 -69.5 5t-43.5 16l72 569zM299 49l1065 1438q70 -2 116 -19.5t87 -60.5l-1090 -1501q-66 14 -112 52t-66 91zM1221 166q41 35 103 78t121.5 92 t102.5 101t43 106q0 82 -102 82q-53 0 -99.5 -16.5t-91.5 -43.5q-8 47 4 100.5t41 90.5q37 27 92.5 44t127.5 17q123 0 196.5 -55t73.5 -174q0 -68 -25.5 -126.5t-68.5 -105.5t-98.5 -85t-114.5 -68v-10h282q12 -23 13 -78q0 -41 -5.5 -68t-15.5 -47h-557q-12 35 -17 77 t-5 89z" />
<glyph unicode="&#xbe;" horiz-adv-x="1853" d="M137 823q43 -20 108.5 -33.5t129.5 -13.5q57 0 95 15.5t38 56.5q0 43 -42 59.5t-157 16.5h-12q-6 16 -9 38.5t-2 47t6 47t13 37.5h12q29 0 66 3t68.5 12t54 27.5t22.5 51.5q0 53 -96 53q-53 0 -103 -14.5t-91 -34.5q-4 18 -3 43t7 51.5t18 50t29 41.5q35 23 93 34t118 11 q57 0 104 -11t82 -34.5t54.5 -61.5t19.5 -91q0 -76 -38 -128.5t-114 -68.5v-8q59 -16 96 -58t37 -120q0 -70 -29.5 -118t-79.5 -79t-115.5 -44t-139.5 -13q-53 0 -104.5 7t-94.5 19q-29 45 -39 102.5t-2 106.5zM414 49l1065 1438q70 -2 115.5 -19.5t86.5 -60.5l-1089 -1501 q-66 14 -112 52t-66 91zM1184 354l383 461q74 -2 137 -12t115 -33l-45 -414h73q12 -18 13 -75q0 -39 -5.5 -63.5t-15.5 -45.5h-84l-18 -158q-33 -20 -115 -20q-43 0 -67.5 5t-41.5 15l23 158h-324q-16 39 -22 84t-6 98zM1413 342q25 6 66 6h88l22 156q4 23 10.5 53.5 t10.5 46.5h-11l-186 -254v-8z" />
<glyph unicode="&#xbf;" horiz-adv-x="827" d="M-16 -172q0 92 31.5 158.5t78.5 116t101.5 86t101.5 70.5t79 68.5t32 80.5q0 55 -35 92q41 45 96.5 71.5t116.5 34.5q45 -39 71.5 -93t26.5 -128t-27.5 -129t-69.5 -98t-91.5 -78t-91.5 -66.5t-69.5 -63.5t-27.5 -69q0 -43 30 -72.5t116 -29.5q82 0 165.5 30.5 t161.5 84.5q4 -25 2 -62t-10 -76t-23.5 -77.5t-35.5 -67.5q-61 -41 -153.5 -70.5t-213.5 -29.5q-176 0 -269 76.5t-93 240.5zM371 887q0 82 46 128t124 46q70 0 110.5 -41t40.5 -121q0 -82 -48 -128t-122 -46q-70 0 -110.5 41t-40.5 121z" />
<glyph unicode="&#xc0;" horiz-adv-x="1333" d="M27 20l591 1430q29 8 79.5 14t115.5 6q63 0 109.5 -6t74.5 -14l299 -1430q-45 -29 -145 -28q-102 0 -147 28l-60 320h-489l-127 -320q-23 -14 -64 -21t-92 -7t-90 7t-55 21zM482 1735q10 63 41.5 119.5t78.5 95.5l410 -230q-10 -109 -72 -176zM545 584h358l-45 231 q-18 98 -37.5 214t-29.5 239h-15q-31 -125 -67.5 -236.5t-77.5 -218.5z" />
<glyph unicode="&#xc1;" horiz-adv-x="1333" d="M27 20l591 1430q29 8 79.5 14t115.5 6q63 0 109.5 -6t74.5 -14l299 -1430q-45 -29 -145 -28q-102 0 -147 28l-60 320h-489l-127 -320q-23 -14 -64 -21t-92 -7t-90 7t-55 21zM545 584h358l-45 231q-18 98 -37.5 214t-29.5 239h-15q-31 -125 -67.5 -236.5t-77.5 -218.5z M651 1735l477 233q41 -39 61.5 -98.5t20.5 -126.5l-514 -197q-25 35 -37 85t-8 104z" />
<glyph unicode="&#xc2;" horiz-adv-x="1333" d="M27 20l591 1430q29 8 79.5 14t115.5 6q63 0 109.5 -6t74.5 -14l299 -1430q-45 -29 -145 -28q-102 0 -147 28l-60 320h-489l-127 -320q-23 -14 -64 -21t-92 -7t-90 7t-55 21zM473 1735l246 153q18 10 50 16.5t77 6.5q39 0 66.5 -4t44.5 -9l235 -180q-10 -55 -34.5 -99 t-59.5 -69l-260 152l-314 -150q-25 29 -40 77t-11 106zM545 584h358l-45 231q-18 98 -37.5 214t-29.5 239h-15q-31 -125 -67.5 -236.5t-77.5 -218.5z" />
<glyph unicode="&#xc3;" horiz-adv-x="1333" d="M27 20l591 1430q29 8 79.5 14t115.5 6q63 0 109.5 -6t74.5 -14l299 -1430q-45 -29 -145 -28q-102 0 -147 28l-60 320h-489l-127 -320q-23 -14 -64 -21t-92 -7t-90 7t-55 21zM404 1645q10 51 32.5 98t58.5 82t83 55.5t106 20.5q63 0 103.5 -14.5t72 -32t63.5 -32t81 -14.5 q45 0 70.5 20.5t41.5 57.5q98 0 158 -53q-10 -49 -31.5 -95t-57.5 -82t-85 -57.5t-113 -21.5q-61 0 -101 15.5t-73 32.5t-64.5 32.5t-78.5 15.5q-82 0 -113 -82q-49 4 -86.5 15.5t-66.5 38.5zM545 584h358l-45 231q-18 98 -37.5 214t-29.5 239h-15q-31 -125 -67.5 -236.5 t-77.5 -218.5z" />
<glyph unicode="&#xc4;" horiz-adv-x="1333" d="M27 20l591 1430q29 8 79.5 14t115.5 6q63 0 109.5 -6t74.5 -14l299 -1430q-45 -29 -145 -28q-102 0 -147 28l-60 320h-489l-127 -320q-23 -14 -64 -21t-92 -7t-90 7t-55 21zM443 1716q0 72 42.5 115t112.5 43q61 0 99 -35t38 -106q0 -72 -44 -115t-111 -43q-61 0 -99 35 t-38 106zM545 584h358l-45 231q-18 98 -37.5 214t-29.5 239h-15q-31 -125 -67.5 -236.5t-77.5 -218.5zM940 1716q0 72 43 115t113 43q61 0 99 -35t38 -106q0 -72 -44 -115t-112 -43q-61 0 -99 35t-38 106z" />
<glyph unicode="&#xc5;" horiz-adv-x="1333" d="M27 20l583 1393q-53 59 -53 156q0 121 77 196.5t210 75.5q111 0 175 -57.5t64 -171.5q0 -131 -84 -203l297 -1389q-45 -29 -145 -28q-102 0 -147 28l-60 320h-489l-127 -320q-23 -14 -64 -21t-92 -7t-90 7t-55 21zM545 584h358l-45 231q-18 98 -37.5 214t-29.5 239h-15 q-31 -125 -67.5 -236.5t-77.5 -218.5zM725 1585q0 -47 23.5 -68.5t64.5 -21.5q49 0 78 28.5t29 78.5q0 45 -22.5 67.5t-63.5 22.5q-43 0 -76 -26t-33 -81z" />
<glyph unicode="&#xc6;" horiz-adv-x="1974" d="M-2 20l969 1436h1015q14 -31 15 -94q0 -47 -7.5 -88t-21.5 -68h-598l-37 -342h551q6 -16 10 -39.5t4 -54.5q0 -47 -8 -89t-22 -67h-557l-39 -356h616q16 -33 17 -100q0 -47 -8.5 -88t-22.5 -70h-926l45 385h-422l-243 -365q-27 -14 -72 -21t-104 -7q-53 0 -95.5 7 t-58.5 21zM717 629h305l72 602h-15q-12 -29 -29.5 -67t-38 -77.5t-42 -77.5t-39.5 -65z" />
<glyph unicode="&#xc7;" horiz-adv-x="1226" d="M154 635q0 172 45 328.5t138 276.5t234.5 191.5t335.5 71.5q172 0 285 -59q16 -25 28.5 -58.5t18.5 -71.5t6 -76t-6 -71q-63 35 -130 55.5t-153 20.5q-133 0 -227 -45t-153.5 -122t-87 -180t-27.5 -222q0 -127 28.5 -213t82 -138.5t128 -75t164.5 -22.5q88 0 162 17.5 t135 40.5q2 -31 -2 -69t-15 -76t-29.5 -71.5t-43.5 -56.5q-53 -23 -118.5 -38t-147.5 -19l-21 -70q53 -23 86 -63.5t33 -112.5q0 -57 -22.5 -103t-62.5 -79t-92 -54.5t-110 -29.5q-45 20 -76.5 57t-43.5 86q25 2 52 9.5t51 19.5t39 31.5t15 50.5q0 41 -27.5 63.5t-74.5 32.5 l76 174q-229 41 -351 210t-122 460z" />
<glyph unicode="&#xc8;" horiz-adv-x="1173" d="M147 0l172 1456h863q14 -31 14 -94q0 -47 -7 -88t-22 -68h-598l-37 -342h551q6 -16 10.5 -39.5t4.5 -54.5q0 -47 -8.5 -89t-22.5 -67h-557l-39 -356h616q16 -33 17 -100q0 -47 -8.5 -88t-22.5 -70h-926zM426 1735q10 63 41.5 119.5t78.5 95.5l410 -230q-10 -109 -72 -176 z" />
<glyph unicode="&#xc9;" horiz-adv-x="1173" d="M147 0l172 1456h863q14 -31 14 -94q0 -47 -7 -88t-22 -68h-598l-37 -342h551q6 -16 10.5 -39.5t4.5 -54.5q0 -47 -8.5 -89t-22.5 -67h-557l-39 -356h616q16 -33 17 -100q0 -47 -8.5 -88t-22.5 -70h-926zM604 1735l477 233q41 -39 61.5 -98.5t20.5 -126.5l-514 -197 q-25 35 -37 85t-8 104z" />
<glyph unicode="&#xca;" horiz-adv-x="1173" d="M147 0l172 1456h863q14 -31 14 -94q0 -47 -7 -88t-22 -68h-598l-37 -342h551q6 -16 10.5 -39.5t4.5 -54.5q0 -47 -8.5 -89t-22.5 -67h-557l-39 -356h616q16 -33 17 -100q0 -47 -8.5 -88t-22.5 -70h-926zM424 1735l246 153q18 10 50 16.5t77 6.5q39 0 66.5 -4t44.5 -9 l235 -180q-10 -55 -34.5 -99t-59.5 -69l-260 152l-314 -150q-25 29 -40 77t-11 106z" />
<glyph unicode="&#xcb;" horiz-adv-x="1173" d="M147 0l172 1456h863q14 -31 14 -94q0 -47 -7 -88t-22 -68h-598l-37 -342h551q6 -16 10.5 -39.5t4.5 -54.5q0 -47 -8.5 -89t-22.5 -67h-557l-39 -356h616q16 -33 17 -100q0 -47 -8.5 -88t-22.5 -70h-926zM392 1716q0 72 42.5 115t112.5 43q61 0 99 -35t38 -106 q0 -72 -44 -115t-111 -43q-61 0 -99 35t-38 106zM889 1716q0 72 43 115t113 43q61 0 99 -35t38 -106q0 -72 -44 -115t-112 -43q-61 0 -99 35t-38 106z" />
<glyph unicode="&#xcc;" horiz-adv-x="608" d="M140 1735q10 63 41.5 119.5t78.5 95.5l410 -230q-10 -109 -72 -176zM150 18l167 1420q41 27 142 26q100 0 139 -26l-143 -1420q-23 -12 -60 -19t-96 -7t-93 7t-56 19z" />
<glyph unicode="&#xcd;" horiz-adv-x="608" d="M150 18l167 1420q41 27 142 26q100 0 139 -26l-143 -1420q-23 -12 -60 -19t-96 -7t-93 7t-56 19zM299 1735l477 233q41 -39 61.5 -98.5t20.5 -126.5l-514 -197q-25 35 -37 85t-8 104z" />
<glyph unicode="&#xce;" horiz-adv-x="608" d="M123 1735l246 153q18 10 50 16.5t77 6.5q39 0 66.5 -4t44.5 -9l235 -180q-10 -55 -34.5 -99t-59.5 -69l-260 152l-314 -150q-25 29 -40 77t-11 106zM150 18l167 1420q41 27 142 26q100 0 139 -26l-143 -1420q-23 -12 -60 -19t-96 -7t-93 7t-56 19z" />
<glyph unicode="&#xcf;" horiz-adv-x="608" d="M129 1716q0 72 43 115t113 43q61 0 99 -35t38 -106q0 -72 -44 -115t-112 -43q-61 0 -99 35t-38 106zM150 18l167 1420q41 27 142 26q100 0 139 -26l-143 -1420q-23 -12 -60 -19t-96 -7t-93 7t-56 19zM559 1716q0 72 43 115t113 43q61 0 99 -35t38 -106q0 -72 -44 -115 t-112 -43q-61 0 -99 35t-38 106z" />
<glyph unicode="&#xd0;" horiz-adv-x="1415" d="M84 709q0 41 7 78.5t22 62.5h149l70 575q78 23 172 35.5t198 12.5q166 0 298.5 -40t223.5 -125t139 -216t48 -316q0 -381 -209 -586.5t-600 -205.5q-111 0 -224.5 8t-215.5 24l74 602h-138q-14 35 -14 91zM494 262q37 -8 78.5 -10t82.5 -2q117 0 202 42t140.5 114.5 t81 169t25.5 206.5q0 115 -26.5 198t-76 136t-120 79t-158.5 26q-35 0 -70 -4.5t-63 -10.5l-37 -356h315q6 -16 10.5 -37.5t4.5 -50.5q0 -41 -7.5 -80t-21.5 -64h-324z" />
<glyph unicode="&#xd1;" horiz-adv-x="1470" d="M147 14l170 1430q35 10 77 16t102 6q61 0 104 -6t74 -16l303 -750q29 -72 48 -180t26 -211h14l131 1139q20 10 51 16t84 6q90 0 129 -22l-145 -1432q-35 -10 -82 -15t-109 -5q-59 0 -105 5t-75 15l-305 787q-33 86 -49.5 186t-24.5 201h-14l-117 -1170q-37 -23 -145 -22 q-51 0 -87 5t-55 17zM490 1645q10 51 32.5 98t58.5 82t83 55.5t106 20.5q63 0 103.5 -14.5t72 -32t63.5 -32t81 -14.5q45 0 70.5 20.5t41.5 57.5q98 0 158 -53q-10 -49 -31.5 -95t-57.5 -82t-85 -57.5t-113 -21.5q-61 0 -101 15.5t-73 32.5t-64.5 32.5t-78.5 15.5 q-82 0 -113 -82q-49 4 -86.5 15.5t-66.5 38.5z" />
<glyph unicode="&#xd2;" horiz-adv-x="1482" d="M158 627q0 174 43 333.5t131 279.5t223 191.5t319 71.5q137 0 246 -42t184.5 -128t116.5 -216t41 -306q0 -156 -35.5 -309.5t-119.5 -275.5t-221.5 -197.5t-340.5 -75.5q-285 0 -436 165t-151 509zM465 645q0 -428 299 -428q117 0 192.5 58.5t120.5 147.5t63.5 194.5 t18.5 197.5q0 211 -77.5 320.5t-227.5 109.5q-111 0 -185.5 -55t-119.5 -142t-64.5 -193.5t-19.5 -209.5zM543 1735q10 63 41.5 119.5t78.5 95.5l410 -230q-10 -109 -72 -176z" />
<glyph unicode="&#xd3;" horiz-adv-x="1482" d="M158 627q0 174 43 333.5t131 279.5t223 191.5t319 71.5q137 0 246 -42t184.5 -128t116.5 -216t41 -306q0 -156 -35.5 -309.5t-119.5 -275.5t-221.5 -197.5t-340.5 -75.5q-285 0 -436 165t-151 509zM465 645q0 -428 299 -428q117 0 192.5 58.5t120.5 147.5t63.5 194.5 t18.5 197.5q0 211 -77.5 320.5t-227.5 109.5q-111 0 -185.5 -55t-119.5 -142t-64.5 -193.5t-19.5 -209.5zM739 1735l477 233q41 -39 61.5 -98.5t20.5 -126.5l-514 -197q-25 35 -37 85t-8 104z" />
<glyph unicode="&#xd4;" horiz-adv-x="1482" d="M158 627q0 174 43 333.5t131 279.5t223 191.5t319 71.5q137 0 246 -42t184.5 -128t116.5 -216t41 -306q0 -156 -35.5 -309.5t-119.5 -275.5t-221.5 -197.5t-340.5 -75.5q-285 0 -436 165t-151 509zM465 645q0 -428 299 -428q117 0 192.5 58.5t120.5 147.5t63.5 194.5 t18.5 197.5q0 211 -77.5 320.5t-227.5 109.5q-111 0 -185.5 -55t-119.5 -142t-64.5 -193.5t-19.5 -209.5zM559 1735l246 153q18 10 50 16.5t77 6.5q39 0 66.5 -4t44.5 -9l235 -180q-10 -55 -34.5 -99t-59.5 -69l-260 152l-314 -150q-25 29 -40 77t-11 106z" />
<glyph unicode="&#xd5;" horiz-adv-x="1482" d="M158 627q0 174 43 333.5t131 279.5t223 191.5t319 71.5q137 0 246 -42t184.5 -128t116.5 -216t41 -306q0 -156 -35.5 -309.5t-119.5 -275.5t-221.5 -197.5t-340.5 -75.5q-285 0 -436 165t-151 509zM465 645q0 -428 299 -428q117 0 192.5 58.5t120.5 147.5t63.5 194.5 t18.5 197.5q0 211 -77.5 320.5t-227.5 109.5q-111 0 -185.5 -55t-119.5 -142t-64.5 -193.5t-19.5 -209.5zM486 1645q10 51 32.5 98t58.5 82t83 55.5t106 20.5q63 0 103.5 -14.5t72 -32t63.5 -32t81 -14.5q45 0 70.5 20.5t41.5 57.5q98 0 158 -53q-10 -49 -31.5 -95 t-57.5 -82t-85 -57.5t-113 -21.5q-61 0 -101 15.5t-73 32.5t-64.5 32.5t-78.5 15.5q-82 0 -113 -82q-49 4 -86.5 15.5t-66.5 38.5z" />
<glyph unicode="&#xd6;" horiz-adv-x="1482" d="M158 627q0 174 43 333.5t131 279.5t223 191.5t319 71.5q137 0 246 -42t184.5 -128t116.5 -216t41 -306q0 -156 -35.5 -309.5t-119.5 -275.5t-221.5 -197.5t-340.5 -75.5q-285 0 -436 165t-151 509zM465 645q0 -428 299 -428q117 0 192.5 58.5t120.5 147.5t63.5 194.5 t18.5 197.5q0 211 -77.5 320.5t-227.5 109.5q-111 0 -185.5 -55t-119.5 -142t-64.5 -193.5t-19.5 -209.5zM498 1716q0 72 42.5 115t112.5 43q61 0 99.5 -35t38.5 -106q0 -72 -44.5 -115t-111.5 -43q-61 0 -99 35t-38 106zM1059 1716q0 72 42.5 115t112.5 43q61 0 99.5 -35 t38.5 -106q0 -72 -44 -115t-112 -43q-61 0 -99 35t-38 106z" />
<glyph unicode="&#xd7;" d="M135 883q43 51 101.5 92t130.5 63l272 -272l264 268q139 -37 232 -145l-314 -309l309 -299q-20 -59 -71 -113.5t-117 -83.5l-305 303l-297 -303q-63 29 -114.5 81t-73.5 111l303 295z" />
<glyph unicode="&#xd8;" horiz-adv-x="1499" d="M14 27l215 239q-61 148 -61 361q0 174 43 333.5t131 279.5t223 191.5t320 71.5q111 0 202 -26.5t160 -81.5l178 198q131 -39 174 -168l-200 -223q35 -76 54.5 -174t19.5 -217q0 -156 -36 -309.5t-120 -275.5t-221.5 -197.5t-339.5 -75.5q-117 0 -212 27.5t-167 85.5 l-191 -216q-61 23 -109 68t-63 109zM475 645q0 -35 2 -66.5t6 -60.5l582 647q-74 80 -201 80q-111 0 -185.5 -55t-119.5 -142t-64.5 -193.5t-19.5 -209.5zM567 301q76 -84 207 -84q117 0 192.5 58.5t121 147.5t63.5 194.5t18 197.5q0 39 -3 77t-9 66z" />
<glyph unicode="&#xd9;" horiz-adv-x="1404" d="M188 430q0 29 2.5 55.5t6.5 61.5l104 891q41 27 141 26q100 0 140 -26l-93 -908q-8 -86 2.5 -144t40 -94t78.5 -50.5t117 -14.5q147 0 217 73t88 239l103 899q41 27 137 26q100 0 135 -26l-86 -906q-29 -291 -176.5 -435t-442.5 -144q-274 0 -394 123t-120 354zM529 1735 q10 63 41.5 119.5t78.5 95.5l410 -230q-10 -109 -72 -176z" />
<glyph unicode="&#xda;" horiz-adv-x="1404" d="M188 430q0 29 2.5 55.5t6.5 61.5l104 891q41 27 141 26q100 0 140 -26l-93 -908q-8 -86 2.5 -144t40 -94t78.5 -50.5t117 -14.5q147 0 217 73t88 239l103 899q41 27 137 26q100 0 135 -26l-86 -906q-29 -291 -176.5 -435t-442.5 -144q-274 0 -394 123t-120 354zM709 1735 l477 233q41 -39 61.5 -98.5t20.5 -126.5l-514 -197q-25 35 -37 85t-8 104z" />
<glyph unicode="&#xdb;" horiz-adv-x="1404" d="M188 430q0 29 2.5 55.5t6.5 61.5l104 891q41 27 141 26q100 0 140 -26l-93 -908q-8 -86 2.5 -144t40 -94t78.5 -50.5t117 -14.5q147 0 217 73t88 239l103 899q41 27 137 26q100 0 135 -26l-86 -906q-29 -291 -176.5 -435t-442.5 -144q-274 0 -394 123t-120 354zM526 1735 l246 153q18 10 50 16.5t77 6.5q39 0 66.5 -4t44.5 -9l235 -180q-10 -55 -34.5 -99t-59.5 -69l-260 152l-314 -150q-25 29 -40 77t-11 106z" />
<glyph unicode="&#xdc;" horiz-adv-x="1404" d="M188 430q0 29 2.5 55.5t6.5 61.5l104 891q41 27 141 26q100 0 140 -26l-93 -908q-8 -86 2.5 -144t40 -94t78.5 -50.5t117 -14.5q147 0 217 73t88 239l103 899q41 27 137 26q100 0 135 -26l-86 -906q-29 -291 -176.5 -435t-442.5 -144q-274 0 -394 123t-120 354zM494 1716 q0 72 42.5 115t112.5 43q61 0 99 -35t38 -106q0 -72 -44 -115t-111 -43q-61 0 -99 35t-38 106zM991 1716q0 72 43 115t113 43q61 0 99 -35t38 -106q0 -72 -44 -115t-112 -43q-61 0 -99 35t-38 106z" />
<glyph unicode="&#xdd;" horiz-adv-x="1177" d="M160 1438q47 29 149 28q102 0 150 -28l141 -408q23 -66 42.5 -149.5t25.5 -163.5h14q16 86 44 172t60 143l230 406q25 14 65.5 21t89.5 7q109 0 148 -28l-537 -959l-47 -461q-23 -12 -59.5 -19t-95.5 -7t-93 7t-57 19l53 469zM596 1735l477 233q41 -39 61.5 -98.5 t20.5 -126.5l-514 -197q-25 35 -37 85t-8 104z" />
<glyph unicode="&#xde;" horiz-adv-x="1183" d="M150 18l167 1420q41 27 142 26q100 0 139 -26l-23 -238q45 14 144 14q102 0 195.5 -21.5t165 -72.5t114.5 -136t43 -210q0 -117 -39 -213t-112.5 -164.5t-179 -105.5t-238.5 -37q-41 0 -95.5 5t-91.5 15l-26 -256q-23 -12 -60 -19t-96 -7t-93 7t-56 19zM498 522 q37 -10 78.5 -14t95.5 -4q119 0 193.5 60.5t74.5 185.5q0 113 -66.5 163t-191.5 50q-84 0 -139 -19z" />
<glyph unicode="&#xdf;" horiz-adv-x="1306" d="M88 -301l152 1221q23 178 75 298.5t127.5 194.5t171 106.5t203.5 32.5q68 0 136.5 -13t122.5 -47t88 -91.5t34 -145.5q0 -70 -18.5 -119t-46 -84.5t-60.5 -62t-60.5 -53.5t-46 -57.5t-18.5 -73.5q0 -51 28 -81t67.5 -53.5t88 -46t88.5 -58.5t67.5 -90t27.5 -142 q0 -188 -121 -281.5t-326 -93.5q-78 0 -158.5 13.5t-138.5 41.5q-14 25 -21 58.5t-9 69.5t3 69.5t15 58.5q27 -18 62.5 -34.5t76.5 -27.5t84 -17.5t82 -6.5q74 0 120 26t46 93q0 43 -26.5 71.5t-66.5 52.5t-87 48.5t-87 60t-66.5 88t-26.5 134.5q0 70 18.5 120t47 86.5 t61 64.5t61.5 52.5t47.5 52t18.5 64.5q0 61 -39 88t-99 27q-51 0 -96 -20.5t-82 -66.5t-61.5 -121t-36.5 -183l-129 -1223q-23 -10 -57.5 -17.5t-90.5 -7.5q-55 0 -89.5 7.5t-55.5 17.5z" />
<glyph unicode="&#xe0;" horiz-adv-x="1165" d="M127 381q0 125 31.5 244.5t101.5 216.5q84 117 208 168t265 51q117 0 206 -31t159 -84l-68 -624q-8 -66 9.5 -85.5t52.5 -19.5q25 0 43 5t34 16q6 -29 3 -64t-10 -67.5t-20.5 -61.5t-27.5 -47q-33 -18 -67.5 -28.5t-88.5 -10.5q-92 0 -144 42t-60 136h-15 q-31 -70 -102.5 -124t-190.5 -54q-63 0 -121.5 20.5t-102.5 69.5t-69.5 130t-25.5 202zM418 432q0 -117 35.5 -164t111.5 -47q63 0 105.5 26.5t74.5 67.5l62 488q-23 12 -43.5 17t-54.5 5q-74 0 -126.5 -25.5t-84.5 -68.5q-45 -59 -62.5 -143t-17.5 -156zM452 1511 q37 41 95.5 69t123.5 28l197 -355q-25 -41 -59.5 -66.5t-87.5 -33.5z" />
<glyph unicode="&#xe1;" horiz-adv-x="1165" d="M127 381q0 125 31.5 244.5t101.5 216.5q84 117 208 168t265 51q117 0 206 -31t159 -84l-68 -624q-8 -66 9.5 -85.5t52.5 -19.5q25 0 43 5t34 16q6 -29 3 -64t-10 -67.5t-20.5 -61.5t-27.5 -47q-33 -18 -67.5 -28.5t-88.5 -10.5q-92 0 -144 42t-60 136h-15 q-31 -70 -102.5 -124t-190.5 -54q-63 0 -121.5 20.5t-102.5 69.5t-69.5 130t-25.5 202zM418 432q0 -117 35.5 -164t111.5 -47q63 0 105.5 26.5t74.5 67.5l62 488q-23 12 -43.5 17t-54.5 5q-74 0 -126.5 -25.5t-84.5 -68.5q-45 -59 -62.5 -143t-17.5 -156zM567 1274l271 325 q61 0 127.5 -24.5t101.5 -69.5l-379 -352q-47 14 -77.5 47t-43.5 74z" />
<glyph unicode="&#xe2;" horiz-adv-x="1165" d="M127 381q0 125 31.5 244.5t101.5 216.5q84 117 208 168t265 51q117 0 206 -31t159 -84l-68 -624q-8 -66 9.5 -85.5t52.5 -19.5q25 0 43 5t34 16q6 -29 3 -64t-10 -67.5t-20.5 -61.5t-27.5 -47q-33 -18 -67.5 -28.5t-88.5 -10.5q-92 0 -144 42t-60 136h-15 q-31 -70 -102.5 -124t-190.5 -54q-63 0 -121.5 20.5t-102.5 69.5t-69.5 130t-25.5 202zM399 1305l246 249q43 18 99.5 24.5t109.5 6.5l221 -317q-45 -96 -139 -125l-191 229l-262 -237q-35 31 -57.5 73.5t-26.5 96.5zM418 432q0 -117 35.5 -164t111.5 -47q63 0 105.5 26.5 t74.5 67.5l62 488q-23 12 -43.5 17t-54.5 5q-74 0 -126.5 -25.5t-84.5 -68.5q-45 -59 -62.5 -143t-17.5 -156z" />
<glyph unicode="&#xe3;" horiz-adv-x="1165" d="M127 381q0 125 31.5 244.5t101.5 216.5q84 117 208 168t265 51q117 0 206 -31t159 -84l-68 -624q-8 -66 9.5 -85.5t52.5 -19.5q25 0 43 5t34 16q6 -29 3 -64t-10 -67.5t-20.5 -61.5t-27.5 -47q-33 -18 -67.5 -28.5t-88.5 -10.5q-92 0 -144 42t-60 136h-15 q-31 -70 -102.5 -124t-190.5 -54q-63 0 -121.5 20.5t-102.5 69.5t-69.5 130t-25.5 202zM379 1286q25 84 84.5 138.5t153.5 54.5q45 0 75.5 -13.5t57.5 -29t50.5 -28.5t53.5 -13q68 0 86 69q94 0 156 -41q-6 -47 -24.5 -91t-48 -77.5t-71.5 -53t-96 -19.5q-47 0 -78.5 13 t-58 28.5t-51 29t-57.5 13.5q-68 0 -92 -76q-45 4 -83 29.5t-57 66.5zM418 432q0 -117 35.5 -164t111.5 -47q63 0 105.5 26.5t74.5 67.5l62 488q-23 12 -43.5 17t-54.5 5q-74 0 -126.5 -25.5t-84.5 -68.5q-45 -59 -62.5 -143t-17.5 -156z" />
<glyph unicode="&#xe4;" horiz-adv-x="1165" d="M127 381q0 125 31.5 244.5t101.5 216.5q84 117 208 168t265 51q117 0 206 -31t159 -84l-68 -624q-8 -66 9.5 -85.5t52.5 -19.5q25 0 43 5t34 16q6 -29 3 -64t-10 -67.5t-20.5 -61.5t-27.5 -47q-33 -18 -67.5 -28.5t-88.5 -10.5q-92 0 -144 42t-60 136h-15 q-31 -70 -102.5 -124t-190.5 -54q-63 0 -121.5 20.5t-102.5 69.5t-69.5 130t-25.5 202zM369 1325q0 70 40.5 110t106.5 40q61 0 97 -35t36 -103q0 -70 -41 -109.5t-106 -39.5q-61 0 -97 34.5t-36 102.5zM418 432q0 -117 35.5 -164t111.5 -47q63 0 105.5 26.5t74.5 67.5 l62 488q-23 12 -43.5 17t-54.5 5q-74 0 -126.5 -25.5t-84.5 -68.5q-45 -59 -62.5 -143t-17.5 -156zM823 1325q0 70 41 110t107 40q61 0 97 -35t36 -103q0 -70 -41 -109.5t-106 -39.5q-61 0 -97.5 34.5t-36.5 102.5z" />
<glyph unicode="&#xe5;" horiz-adv-x="1165" d="M127 381q0 125 31.5 244.5t101.5 216.5q84 117 208 168t265 51q117 0 206 -31t159 -84l-68 -624q-8 -66 9.5 -85.5t52.5 -19.5q25 0 43 5t34 16q6 -29 3 -64t-10 -67.5t-20.5 -61.5t-27.5 -47q-33 -18 -67.5 -28.5t-88.5 -10.5q-92 0 -144 42t-60 136h-15 q-31 -70 -102.5 -124t-190.5 -54q-63 0 -121.5 20.5t-102.5 69.5t-69.5 130t-25.5 202zM418 432q0 -117 35.5 -164t111.5 -47q63 0 105.5 26.5t74.5 67.5l62 488q-23 12 -43.5 17t-54.5 5q-74 0 -126.5 -25.5t-84.5 -68.5q-45 -59 -62.5 -143t-17.5 -156zM498 1368 q0 113 70.5 187.5t197.5 74.5q104 0 163.5 -56t59.5 -165q0 -113 -69.5 -184.5t-198.5 -71.5q-106 0 -164.5 55.5t-58.5 159.5zM653 1380q0 -45 21.5 -66.5t58.5 -21.5q43 0 72.5 28t29.5 81q0 45 -22 68.5t-59 23.5q-45 0 -73 -29.5t-28 -83.5z" />
<glyph unicode="&#xe6;" horiz-adv-x="1587" d="M109 252q0 172 112.5 274.5t313.5 102.5q47 0 98 -6.5t90 -22.5l6 43q14 94 -33 133t-151 39q-82 0 -155 -21.5t-144 -64.5q-6 25 -4 59.5t11 72.5t24.5 74t35.5 60q51 29 130 47.5t178 18.5q119 0 193.5 -30t109.5 -101q59 63 152 97t200 34q166 0 250 -75t84 -208 q0 -70 -28 -136.5t-98.5 -119.5t-192.5 -89t-308 -44q4 -59 17.5 -97t38 -59.5t59.5 -28.5t84 -7q106 0 194 27.5t166 76.5q0 -29 -5 -63.5t-16.5 -68.5t-26.5 -64.5t-34 -51.5q-55 -39 -143 -66.5t-211 -27.5q-129 0 -215 42t-133 126h-15q-37 -70 -117.5 -119t-205.5 -49 q-63 0 -119.5 15.5t-99.5 50t-67.5 90t-24.5 137.5zM385 301q0 -57 37 -81.5t96 -24.5q61 0 106.5 22.5t82.5 63.5q-8 47 -9 112v25q-25 10 -58.5 15t-66.5 5q-37 0 -70.5 -8t-59 -24.5t-42 -42t-16.5 -62.5zM997 598q190 8 272.5 53t82.5 111q0 37 -24.5 62.5t-80.5 25.5 q-59 0 -109.5 -27.5t-82.5 -74.5q-38 -50 -58 -150z" />
<glyph unicode="&#xe7;" horiz-adv-x="958" d="M123 436q0 121 31.5 229.5t97.5 194.5q72 92 176 146.5t256 54.5q72 0 124 -12.5t93 -36.5q14 -23 25.5 -54.5t16.5 -66.5t5 -69.5t-6 -65.5q-43 27 -96 43t-119 16q-147 0 -229 -88q-84 -90 -84 -248q0 -145 68.5 -202.5t191.5 -57.5q68 0 124 14.5t109 38.5 q4 -31 0 -66.5t-14 -70.5t-26.5 -66.5t-37.5 -54.5q-43 -23 -95 -36t-118 -17l-16 -59q47 -20 76 -58.5t29 -103.5q0 -111 -77 -176.5t-192 -83.5q-41 20 -71.5 54t-45.5 81q23 2 48.5 9t47 20.5t36 34t14.5 49.5q0 41 -26.5 62.5t-63.5 29.5l69 151q-158 33 -239.5 149 t-81.5 316z" />
<glyph unicode="&#xe8;" horiz-adv-x="1007" d="M119 393q0 139 45 271.5t133 228.5q72 78 171 123t228 45q166 0 250 -75t84 -208q0 -70 -27.5 -136.5t-98 -119.5t-192.5 -89t-309 -44q4 -59 17.5 -97t38 -59.5t59.5 -28.5t84 -7q106 0 194.5 27.5t166.5 76.5q0 -29 -5.5 -63.5t-16.5 -68.5t-26.5 -64.5t-33.5 -51.5 q-55 -39 -143.5 -66.5t-211.5 -27.5q-207 0 -307 109.5t-100 324.5zM413 1511q37 41 95.5 69t123.5 28l197 -355q-25 -41 -59.5 -66.5t-87.5 -33.5zM418 598q190 8 272 53t82 111q0 37 -24.5 62.5t-79.5 25.5q-59 0 -109.5 -27.5t-83.5 -74.5q-37 -50 -57 -150z" />
<glyph unicode="&#xe9;" horiz-adv-x="1007" d="M119 393q0 139 45 271.5t133 228.5q72 78 171 123t228 45q166 0 250 -75t84 -208q0 -70 -27.5 -136.5t-98 -119.5t-192.5 -89t-309 -44q4 -59 17.5 -97t38 -59.5t59.5 -28.5t84 -7q106 0 194.5 27.5t166.5 76.5q0 -29 -5.5 -63.5t-16.5 -68.5t-26.5 -64.5t-33.5 -51.5 q-55 -39 -143.5 -66.5t-211.5 -27.5q-207 0 -307 109.5t-100 324.5zM418 598q190 8 272 53t82 111q0 37 -24.5 62.5t-79.5 25.5q-59 0 -109.5 -27.5t-83.5 -74.5q-37 -50 -57 -150zM530 1274l271 325q61 0 127.5 -24.5t101.5 -69.5l-379 -352q-47 14 -77.5 47t-43.5 74z" />
<glyph unicode="&#xea;" horiz-adv-x="1007" d="M119 393q0 139 45 271.5t133 228.5q72 78 171 123t228 45q166 0 250 -75t84 -208q0 -70 -27.5 -136.5t-98 -119.5t-192.5 -89t-309 -44q4 -59 17.5 -97t38 -59.5t59.5 -28.5t84 -7q106 0 194.5 27.5t166.5 76.5q0 -29 -5.5 -63.5t-16.5 -68.5t-26.5 -64.5t-33.5 -51.5 q-55 -39 -143.5 -66.5t-211.5 -27.5q-207 0 -307 109.5t-100 324.5zM360 1305l246 249q43 18 99.5 24.5t109.5 6.5l221 -317q-45 -96 -139 -125l-191 229l-262 -237q-35 31 -57.5 73.5t-26.5 96.5zM418 598q190 8 272 53t82 111q0 37 -24.5 62.5t-79.5 25.5 q-59 0 -109.5 -27.5t-83.5 -74.5q-37 -50 -57 -150z" />
<glyph unicode="&#xeb;" horiz-adv-x="1007" d="M119 393q0 139 45 271.5t133 228.5q72 78 171 123t228 45q166 0 250 -75t84 -208q0 -70 -27.5 -136.5t-98 -119.5t-192.5 -89t-309 -44q4 -59 17.5 -97t38 -59.5t59.5 -28.5t84 -7q106 0 194.5 27.5t166.5 76.5q0 -29 -5.5 -63.5t-16.5 -68.5t-26.5 -64.5t-33.5 -51.5 q-55 -39 -143.5 -66.5t-211.5 -27.5q-207 0 -307 109.5t-100 324.5zM332 1325q0 70 40.5 110t106.5 40q61 0 97 -35t36 -103q0 -70 -41 -109.5t-106 -39.5q-61 0 -97 34.5t-36 102.5zM418 598q190 8 272 53t82 111q0 37 -24.5 62.5t-79.5 25.5q-59 0 -109.5 -27.5 t-83.5 -74.5q-37 -50 -57 -150zM786 1325q0 70 41 110t107 40q61 0 97 -35t36 -103q0 -70 -41 -109.5t-106 -39.5q-61 0 -97.5 34.5t-36.5 102.5z" />
<glyph unicode="&#xec;" horiz-adv-x="583" d="M145 186q0 25 3.5 61t7.5 62l92 697q23 10 55.5 16t81.5 6q98 0 133 -22l-72 -684q-8 -66 9.5 -85.5t52.5 -19.5q25 0 43 5t35 16q6 -29 3 -64t-10.5 -67.5t-20.5 -61.5t-28 -47q-33 -18 -68.5 -28.5t-88.5 -10.5q-123 0 -175.5 56.5t-52.5 170.5zM149 1511 q37 41 95.5 69t123.5 28l197 -355q-25 -41 -59.5 -66.5t-87.5 -33.5z" />
<glyph unicode="&#xed;" horiz-adv-x="583" d="M145 186q0 25 3.5 61t7.5 62l92 697q23 10 55.5 16t81.5 6q98 0 133 -22l-72 -684q-8 -66 9.5 -85.5t52.5 -19.5q25 0 43 5t35 16q6 -29 3 -64t-10.5 -67.5t-20.5 -61.5t-28 -47q-33 -18 -68.5 -28.5t-88.5 -10.5q-123 0 -175.5 56.5t-52.5 170.5zM270 1274l271 325 q61 0 127.5 -24.5t101.5 -69.5l-379 -352q-47 14 -77.5 47t-43.5 74z" />
<glyph unicode="&#xee;" horiz-adv-x="583" d="M92 1305l246 249q43 18 99.5 24.5t109.5 6.5l221 -317q-45 -96 -139 -125l-191 229l-262 -237q-35 31 -57.5 73.5t-26.5 96.5zM145 186q0 25 3.5 61t7.5 62l92 697q23 10 55.5 16t81.5 6q98 0 133 -22l-72 -684q-8 -66 9.5 -85.5t52.5 -19.5q25 0 43 5t35 16q6 -29 3 -64 t-10.5 -67.5t-20.5 -61.5t-28 -47q-33 -18 -68.5 -28.5t-88.5 -10.5q-123 0 -175.5 56.5t-52.5 170.5z" />
<glyph unicode="&#xef;" horiz-adv-x="583" d="M88 1325q0 70 41 110t107 40q61 0 97 -35t36 -103q0 -70 -41 -109.5t-107 -39.5q-61 0 -97 34.5t-36 102.5zM145 186q0 25 3.5 61t7.5 62l92 697q23 10 55.5 16t81.5 6q98 0 133 -22l-72 -684q-8 -66 9.5 -85.5t52.5 -19.5q25 0 43 5t35 16q6 -29 3 -64t-10.5 -67.5 t-20.5 -61.5t-28 -47q-33 -18 -68.5 -28.5t-88.5 -10.5q-123 0 -175.5 56.5t-52.5 170.5zM487 1325q0 70 41 110t107 40q61 0 97 -35t36 -103q0 -70 -41 -109.5t-106 -39.5q-61 0 -97.5 34.5t-36.5 102.5z" />
<glyph unicode="&#xf0;" horiz-adv-x="1128" d="M123 406q0 109 28.5 208t85 175.5t143.5 121.5t204 45q78 0 148.5 -25.5t117.5 -92.5h16q-6 104 -42 188t-93 150l-297 -140q-14 37 -20 97.5t4 107.5l141 64q-90 47 -192 71q12 53 44.5 105.5t69.5 74.5q100 -23 187.5 -57.5t156.5 -83.5l209 98q31 -29 51.5 -80 t24.5 -100l-133 -61q160 -201 160 -531q0 -133 -29 -271t-97.5 -252t-181 -186.5t-280.5 -72.5q-205 0 -315.5 111.5t-110.5 335.5zM408 430q0 -109 46 -161t132 -52q76 0 126 38t79.5 97.5t42 131t16.5 137.5q-35 41 -83 65.5t-116 24.5q-61 0 -107 -21.5t-77 -60.5 t-45 -90.5t-14 -108.5z" />
<glyph unicode="&#xf1;" horiz-adv-x="1179" d="M125 16l125 981q39 18 94 28.5t131 10.5v-190h14q37 92 116 153.5t212 61.5q129 0 204 -68.5t75 -218.5q0 -27 -2 -51.5t-7 -56.5l-34 -344q-6 -66 10 -85.5t51 -19.5q25 0 43.5 5t34.5 16q6 -29 3 -64t-10 -67.5t-20.5 -61.5t-27.5 -47q-33 -18 -68 -28.5t-88 -10.5 q-123 0 -174 56.5t-51 170.5q0 25 3 61t7 62l41 301q2 14 3 28.5t1 29.5q0 27 -5 50t-18.5 41.5t-37 29t-58.5 10.5q-72 0 -123 -43t-84 -115l-69 -625q-23 -10 -57.5 -17t-90.5 -7q-55 0 -89 7t-54 17zM372 1286q25 84 84.5 138.5t153.5 54.5q45 0 75.5 -13.5t57.5 -29 t50.5 -28.5t53.5 -13q68 0 86 69q94 0 156 -41q-6 -47 -24.5 -91t-48 -77.5t-71.5 -53t-96 -19.5q-47 0 -78.5 13t-58 28.5t-51 29t-57.5 13.5q-68 0 -92 -76q-45 4 -83 29.5t-57 66.5z" />
<glyph unicode="&#xf2;" horiz-adv-x="1110" d="M129 416q0 111 26.5 218t80.5 193q66 104 175 169t261 65q199 0 312.5 -119t113.5 -362q0 -127 -33 -244t-100 -205q-66 -82 -163 -127t-233 -45q-217 0 -328.5 117t-111.5 340zM420 430q0 -121 41 -176t127 -55q59 0 98 26.5t62 65.5q29 45 45 118.5t16 172.5 q0 121 -36 183t-122 62q-61 0 -103 -30.5t-69 -77.5q-35 -63 -47 -145t-12 -144zM426 1511q37 41 95.5 69t123.5 28l197 -355q-25 -41 -59.5 -66.5t-87.5 -33.5z" />
<glyph unicode="&#xf3;" horiz-adv-x="1110" d="M129 416q0 111 26.5 218t80.5 193q66 104 175 169t261 65q199 0 312.5 -119t113.5 -362q0 -127 -33 -244t-100 -205q-66 -82 -163 -127t-233 -45q-217 0 -328.5 117t-111.5 340zM420 430q0 -121 41 -176t127 -55q59 0 98 26.5t62 65.5q29 45 45 118.5t16 172.5 q0 121 -36 183t-122 62q-61 0 -103 -30.5t-69 -77.5q-35 -63 -47 -145t-12 -144zM538 1274l271 325q61 0 127.5 -24.5t101.5 -69.5l-379 -352q-47 14 -77.5 47t-43.5 74z" />
<glyph unicode="&#xf4;" horiz-adv-x="1110" d="M129 416q0 111 26.5 218t80.5 193q66 104 175 169t261 65q199 0 312.5 -119t113.5 -362q0 -127 -33 -244t-100 -205q-66 -82 -163 -127t-233 -45q-217 0 -328.5 117t-111.5 340zM370 1305l246 249q43 18 99.5 24.5t109.5 6.5l221 -317q-45 -96 -139 -125l-191 229 l-262 -237q-35 31 -57.5 73.5t-26.5 96.5zM420 430q0 -121 41 -176t127 -55q59 0 98 26.5t62 65.5q29 45 45 118.5t16 172.5q0 121 -36 183t-122 62q-61 0 -103 -30.5t-69 -77.5q-35 -63 -47 -145t-12 -144z" />
<glyph unicode="&#xf5;" horiz-adv-x="1110" d="M129 416q0 111 26.5 218t80.5 193q66 104 175 169t261 65q199 0 312.5 -119t113.5 -362q0 -127 -33 -244t-100 -205q-66 -82 -163 -127t-233 -45q-217 0 -328.5 117t-111.5 340zM352 1286q25 84 84.5 138.5t153.5 54.5q45 0 75.5 -13.5t57.5 -29t50.5 -28.5t53.5 -13 q68 0 86 69q94 0 156 -41q-6 -47 -24.5 -91t-48 -77.5t-71.5 -53t-96 -19.5q-47 0 -78.5 13t-58 28.5t-51 29t-57.5 13.5q-68 0 -92 -76q-45 4 -83 29.5t-57 66.5zM420 430q0 -121 41 -176t127 -55q59 0 98 26.5t62 65.5q29 45 45 118.5t16 172.5q0 121 -36 183t-122 62 q-61 0 -103 -30.5t-69 -77.5q-35 -63 -47 -145t-12 -144z" />
<glyph unicode="&#xf6;" horiz-adv-x="1110" d="M129 416q0 111 26.5 218t80.5 193q66 104 175 169t261 65q199 0 312.5 -119t113.5 -362q0 -127 -33 -244t-100 -205q-66 -82 -163 -127t-233 -45q-217 0 -328.5 117t-111.5 340zM334 1325q0 70 40.5 110t106.5 40q61 0 97 -35t36 -103q0 -70 -41 -109.5t-106 -39.5 q-61 0 -97 34.5t-36 102.5zM420 430q0 -121 41 -176t127 -55q59 0 98 26.5t62 65.5q29 45 45 118.5t16 172.5q0 121 -36 183t-122 62q-61 0 -103 -30.5t-69 -77.5q-35 -63 -47 -145t-12 -144zM803 1325q0 70 40.5 110t106.5 40q61 0 97 -35t36 -103q0 -70 -41 -109.5 t-106 -39.5q-61 0 -97 34.5t-36 102.5z" />
<glyph unicode="&#xf7;" d="M127 446q0 31 3 66t8 70.5t12.5 66.5t17.5 53h960q6 -14 12.5 -49t6.5 -80q0 -43 -6 -77.5t-13 -49.5h-1001zM494 180q0 66 41 104t104 38q66 0 105.5 -36t39.5 -104q0 -72 -39.5 -109.5t-105.5 -37.5q-145 0 -145 145zM494 969q0 66 41 103.5t104 37.5q66 0 105.5 -36 t39.5 -103q0 -72 -39.5 -110t-105.5 -38q-145 0 -145 146z" />
<glyph unicode="&#xf8;" horiz-adv-x="1124" d="M72 33l114 133q-51 100 -51 250q0 111 26.5 218t80.5 193q66 104 176 169t262 65q135 0 231 -55l111 129q53 -14 94 -51t62 -89l-123 -143q53 -111 53 -272q0 -127 -33 -244t-100 -205q-66 -82 -164 -127t-233 -45q-147 0 -246 55l-156 -182q-35 29 -65.5 85t-38.5 116z M424 408l334 387q-36 32 -99 32t-105 -30.5t-69 -77.5q-35 -63 -48 -145t-13 -144v-22zM492 229q37 -31 104 -30q59 0 99 26.5t63 65.5q29 45 46 118.5t17 172.5v24z" />
<glyph unicode="&#xf9;" horiz-adv-x="1165" d="M139 248q0 23 2 45t6 53l95 639q55 29 119.5 40t156.5 11l-74 -635q-2 -14 -3 -30.5t-1 -30.5q0 -49 23.5 -80t95.5 -31q59 0 101 27t83 80l86 670q23 10 56 16t82 6q98 0 133 -22l-72 -684q-6 -61 10.5 -83t53.5 -22q25 0 43 5t34 16q6 -29 3 -64t-11 -67.5t-21.5 -61.5 t-27.5 -47q-31 -20 -65.5 -29.5t-88.5 -9.5q-92 0 -144 44t-58 138h-15q-35 -78 -107.5 -130t-205.5 -52q-82 0 -137 20.5t-89 58.5t-48.5 91t-14.5 119zM426 1511q37 41 95.5 69t123.5 28l197 -355q-25 -41 -59.5 -66.5t-87.5 -33.5z" />
<glyph unicode="&#xfa;" horiz-adv-x="1165" d="M139 248q0 23 2 45t6 53l95 639q55 29 119.5 40t156.5 11l-74 -635q-2 -14 -3 -30.5t-1 -30.5q0 -49 23.5 -80t95.5 -31q59 0 101 27t83 80l86 670q23 10 56 16t82 6q98 0 133 -22l-72 -684q-6 -61 10.5 -83t53.5 -22q25 0 43 5t34 16q6 -29 3 -64t-11 -67.5t-21.5 -61.5 t-27.5 -47q-31 -20 -65.5 -29.5t-88.5 -9.5q-92 0 -144 44t-58 138h-15q-35 -78 -107.5 -130t-205.5 -52q-82 0 -137 20.5t-89 58.5t-48.5 91t-14.5 119zM538 1274l271 325q61 0 127.5 -24.5t101.5 -69.5l-379 -352q-47 14 -77.5 47t-43.5 74z" />
<glyph unicode="&#xfb;" horiz-adv-x="1165" d="M139 248q0 23 2 45t6 53l95 639q55 29 119.5 40t156.5 11l-74 -635q-2 -14 -3 -30.5t-1 -30.5q0 -49 23.5 -80t95.5 -31q59 0 101 27t83 80l86 670q23 10 56 16t82 6q98 0 133 -22l-72 -684q-6 -61 10.5 -83t53.5 -22q25 0 43 5t34 16q6 -29 3 -64t-11 -67.5t-21.5 -61.5 t-27.5 -47q-31 -20 -65.5 -29.5t-88.5 -9.5q-92 0 -144 44t-58 138h-15q-35 -78 -107.5 -130t-205.5 -52q-82 0 -137 20.5t-89 58.5t-48.5 91t-14.5 119zM370 1305l246 249q43 18 99.5 24.5t109.5 6.5l221 -317q-45 -96 -139 -125l-191 229l-262 -237q-35 31 -57.5 73.5 t-26.5 96.5z" />
<glyph unicode="&#xfc;" horiz-adv-x="1165" d="M139 248q0 23 2 45t6 53l95 639q55 29 119.5 40t156.5 11l-74 -635q-2 -14 -3 -30.5t-1 -30.5q0 -49 23.5 -80t95.5 -31q59 0 101 27t83 80l86 670q23 10 56 16t82 6q98 0 133 -22l-72 -684q-6 -61 10.5 -83t53.5 -22q25 0 43 5t34 16q6 -29 3 -64t-11 -67.5t-21.5 -61.5 t-27.5 -47q-31 -20 -65.5 -29.5t-88.5 -9.5q-92 0 -144 44t-58 138h-15q-35 -78 -107.5 -130t-205.5 -52q-82 0 -137 20.5t-89 58.5t-48.5 91t-14.5 119zM342 1325q0 70 40.5 110t106.5 40q61 0 97 -35t36 -103q0 -70 -41 -109.5t-106 -39.5q-61 0 -97 34.5t-36 102.5z M796 1325q0 70 41 110t107 40q61 0 97 -35t36 -103q0 -70 -41 -109.5t-106 -39.5q-61 0 -97.5 34.5t-36.5 102.5z" />
<glyph unicode="&#xfd;" horiz-adv-x="997" d="M-35 -246q115 29 210 90.5t169 139.5l-248 1009q25 16 67 27.5t101 11.5q41 0 67.5 -5t43.5 -13l127 -549q29 -121 28 -295h15q39 72 79 156t71.5 165.5t51 153.5t19.5 119q0 35 -14.5 51t-49.5 16q-23 0 -40 -6t-27 -14q-4 27 0 56.5t13 58t21.5 52t24.5 38.5 q25 18 59.5 31.5t90.5 13.5q111 0 159 -60.5t48 -158.5q0 -92 -31 -202t-80 -224.5t-111.5 -226t-126.5 -205.5q-59 -86 -125.5 -164t-144.5 -141.5t-169 -111.5t-200 -79q-98 82 -98 266zM491 1274l271 325q61 0 127.5 -24.5t101.5 -69.5l-379 -352q-47 14 -77.5 47 t-43.5 74z" />
<glyph unicode="&#xfe;" horiz-adv-x="1134" d="M63 -477l248 1950q94 53 277 53l-37 -332q-10 -84 -27.5 -168t-40.5 -158h15q43 94 127 143.5t190 49.5q86 0 145.5 -33t95.5 -90t51 -133t15 -164q0 -68 -9 -140.5t-28.5 -140t-47 -128t-64.5 -105.5q-70 -88 -164 -128t-227 -40q-55 0 -101.5 8t-68.5 21l-54 -465 q-23 -10 -58.5 -17.5t-90.5 -7.5t-90 7.5t-56 17.5zM438 238q16 -8 49 -14.5t68 -6.5q66 0 115 22.5t82 61.5q47 57 64.5 135t17.5 154q0 121 -36 169t-110 48q-72 0 -118 -38t-81 -97z" />
<glyph unicode="&#xff;" horiz-adv-x="997" d="M-35 -246q115 29 210 90.5t169 139.5l-248 1009q25 16 67 27.5t101 11.5q41 0 67.5 -5t43.5 -13l127 -549q29 -121 28 -295h15q39 72 79 156t71.5 165.5t51 153.5t19.5 119q0 35 -14.5 51t-49.5 16q-23 0 -40 -6t-27 -14q-4 27 0 56.5t13 58t21.5 52t24.5 38.5 q25 18 59.5 31.5t90.5 13.5q111 0 159 -60.5t48 -158.5q0 -92 -31 -202t-80 -224.5t-111.5 -226t-126.5 -205.5q-59 -86 -125.5 -164t-144.5 -141.5t-169 -111.5t-200 -79q-98 82 -98 266zM297 1325q0 70 40.5 110t106.5 40q61 0 97 -35t36 -103q0 -70 -41 -109.5 t-106 -39.5q-61 0 -97 34.5t-36 102.5zM751 1325q0 70 41 110t107 40q61 0 97 -35t36 -103q0 -70 -41 -109.5t-106 -39.5q-61 0 -97.5 34.5t-36.5 102.5z" />
<glyph unicode="&#x152;" horiz-adv-x="1974" d="M154 625q0 160 43 315.5t134 277t230 197.5t330 76q70 0 130 -9t107 -26h854q14 -31 15 -94q0 -47 -7.5 -88t-21.5 -68h-598l-37 -342h551q6 -16 10 -39.5t4 -54.5q0 -47 -8 -89t-22 -67h-557l-39 -356h616q16 -33 17 -100q0 -47 -8.5 -88t-22.5 -70h-903 q-43 -16 -102.5 -25.5t-127.5 -9.5q-139 0 -248.5 45t-184.5 130t-114.5 207t-39.5 278zM459 653q0 -215 83 -319.5t261 -104.5q47 0 94 7.5t82 21.5l111 940q-35 16 -85.5 25.5t-103.5 9.5q-127 0 -211 -51.5t-136 -134t-73.5 -186t-21.5 -208.5z" />
<glyph unicode="&#x153;" horiz-adv-x="1677" d="M125 416q0 111 26.5 218t79.5 193q66 104 174.5 169t253.5 65q109 0 202 -37t128 -125q47 74 150.5 118t226.5 44q166 0 250 -75t84 -208q0 -70 -27.5 -136.5t-98.5 -119.5t-192.5 -89t-308.5 -44q4 -59 17.5 -97t38 -59.5t59.5 -28.5t84 -7q106 0 194 27.5t166 76.5 q0 -29 -5 -63.5t-16.5 -68.5t-26.5 -64.5t-34 -51.5q-55 -39 -143 -66.5t-211 -27.5q-115 0 -188.5 32t-114.5 97q-53 -59 -130 -94t-206 -35q-211 0 -321.5 117t-110.5 340zM416 430q0 -121 41 -176t127 -55q59 0 98 26.5t61 65.5q29 45 45.5 118.5t16.5 172.5 q0 121 -36 183t-122 62q-61 0 -103 -30.5t-69 -77.5q-35 -63 -47 -145t-12 -144zM1087 598q190 8 272.5 53t82.5 111q0 37 -24.5 62.5t-80.5 25.5q-59 0 -109 -27.5t-83 -74.5q-38 -50 -58 -150z" />
<glyph unicode="&#x178;" horiz-adv-x="1177" d="M160 1438q47 29 149 28q102 0 150 -28l141 -408q23 -66 42.5 -149.5t25.5 -163.5h14q16 86 44 172t60 143l230 406q25 14 65.5 21t89.5 7q109 0 148 -28l-537 -959l-47 -461q-23 -12 -59.5 -19t-95.5 -7t-93 7t-57 19l53 469zM386 1716q0 72 42.5 115t112.5 43 q61 0 99 -35t38 -106q0 -72 -44 -115t-111 -43q-61 0 -99 35t-38 106zM883 1716q0 72 43 115t113 43q61 0 99 -35t38 -106q0 -72 -44 -115t-112 -43q-61 0 -99 35t-38 106z" />
<glyph unicode="&#x2c6;" horiz-adv-x="962" d="M281 1305l245 249q43 18 99.5 24.5t109.5 6.5l221 -317q-45 -96 -139 -125l-190 229l-262 -237q-35 31 -57.5 73.5t-26.5 96.5z" />
<glyph unicode="&#x2dc;" horiz-adv-x="962" d="M266 1286q25 84 84.5 138.5t153.5 54.5q45 0 75.5 -13.5t57.5 -29t50.5 -28.5t53.5 -13q68 0 86 69q94 0 156 -41q-6 -47 -24.5 -91t-48 -77.5t-71.5 -53t-96 -19.5q-47 0 -78.5 13t-58 28.5t-51 29t-57.5 13.5q-68 0 -92 -76q-45 4 -83 29.5t-57 66.5z" />
<glyph unicode="&#x2000;" horiz-adv-x="984" />
<glyph unicode="&#x2001;" horiz-adv-x="1968" />
<glyph unicode="&#x2002;" horiz-adv-x="984" />
<glyph unicode="&#x2003;" horiz-adv-x="1968" />
<glyph unicode="&#x2004;" horiz-adv-x="656" />
<glyph unicode="&#x2005;" horiz-adv-x="492" />
<glyph unicode="&#x2006;" horiz-adv-x="328" />
<glyph unicode="&#x2007;" horiz-adv-x="328" />
<glyph unicode="&#x2008;" horiz-adv-x="246" />
<glyph unicode="&#x2009;" horiz-adv-x="393" />
<glyph unicode="&#x200a;" horiz-adv-x="109" />
<glyph unicode="&#x2010;" horiz-adv-x="714" d="M119 444q2 66 17.5 136.5t37.5 121.5h514q8 -18 12.5 -40.5t4.5 -63.5q0 -47 -6.5 -86t-22.5 -68h-557z" />
<glyph unicode="&#x2011;" horiz-adv-x="714" d="M119 444q2 66 17.5 136.5t37.5 121.5h514q8 -18 12.5 -40.5t4.5 -63.5q0 -47 -6.5 -86t-22.5 -68h-557z" />
<glyph unicode="&#x2012;" horiz-adv-x="714" d="M119 444q2 66 17.5 136.5t37.5 121.5h514q8 -18 12.5 -40.5t4.5 -63.5q0 -47 -6.5 -86t-22.5 -68h-557z" />
<glyph unicode="&#x2013;" horiz-adv-x="1024" d="M141 449q4 59 17.5 127.5t36.5 115.5h780q6 -14 10 -36.5t4 -59.5q0 -94 -26 -147h-822z" />
<glyph unicode="&#x2014;" horiz-adv-x="2048" d="M141 449q4 59 17.5 127.5t36.5 115.5h1804q6 -14 10 -36.5t4 -59.5q0 -94 -26 -147h-1846z" />
<glyph unicode="&#x2018;" horiz-adv-x="485" d="M178 946q25 145 80 282.5t117 241.5q49 29 112.5 43.5t145.5 14.5q-66 -131 -115 -282.5t-67 -287.5q-27 -16 -70 -24t-90 -8q-80 0 -113 20z" />
<glyph unicode="&#x2019;" horiz-adv-x="485" d="M164 1010q55 102 90 222t49 243q27 12 55.5 21t61.5 15.5t71.5 9.5t90.5 3q-10 -86 -33 -175t-53.5 -172t-67.5 -156t-74 -124q-137 20 -190 113z" />
<glyph unicode="&#x201a;" horiz-adv-x="485" d="M2 -250q55 104 90 224t49 243q55 27 116.5 39t164.5 12q-10 -86 -32.5 -176t-53.5 -174t-68 -156.5t-73 -123.5q-72 10 -119 38.5t-74 73.5z" />
<glyph unicode="&#x201c;" horiz-adv-x="897" d="M180 946q25 145 80 282.5t117 241.5q49 29 110.5 43.5t143.5 14.5q-66 -131 -115 -282.5t-67 -287.5q-27 -16 -68 -24t-88 -8q-80 0 -113 20zM592 946q25 145 80 282.5t116 241.5q49 29 111 43.5t143 14.5q-66 -131 -114.5 -282.5t-67.5 -287.5q-27 -16 -67.5 -24 t-87.5 -8q-80 0 -113 20z" />
<glyph unicode="&#x201d;" horiz-adv-x="897" d="M164 1010q55 102 90 222t49 243q27 12 54.5 21t59.5 15.5t70.5 9.5t90.5 3q-10 -86 -33 -175t-53.5 -172t-67.5 -156t-74 -124q-72 10 -116 39t-70 74zM578 1010q55 102 90 222t49 243q27 12 54.5 21t59 15.5t70.5 9.5t90 3q-10 -86 -32.5 -175t-53.5 -172t-67.5 -156 t-73.5 -124q-72 10 -116 39t-70 74z" />
<glyph unicode="&#x201e;" horiz-adv-x="897" d="M2 -250q55 104 90 224t49 243q55 27 114.5 39t162.5 12q-10 -86 -33 -176t-53.5 -174t-67.5 -156.5t-74 -123.5q-72 10 -116.5 38.5t-71.5 73.5zM418 -250q55 104 90 224t49 243q55 27 114.5 39t162.5 12q-10 -86 -33 -176t-53.5 -174t-67.5 -156.5t-74 -123.5 q-72 10 -117 38.5t-71 73.5z" />
<glyph unicode="&#x2022;" horiz-adv-x="897" d="M172 494q0 166 94 261t252 95q143 0 227 -82t84 -246q0 -84 -25.5 -150.5t-71.5 -112.5t-109.5 -70.5t-139.5 -24.5q-143 0 -227 84t-84 246z" />
<glyph unicode="&#x2026;" horiz-adv-x="1585" d="M109 131q0 86 48 134t128 48q72 0 114.5 -42t42.5 -126q0 -86 -49 -134t-127 -48q-72 0 -114.5 43t-42.5 125zM637 131q0 86 48 134t128 48q72 0 115 -42t43 -126q0 -86 -49.5 -134t-126.5 -48q-72 0 -115 43t-43 125zM1165 131q0 86 48 134t128 48q72 0 115 -42t43 -126 q0 -86 -49 -134t-127 -48q-72 0 -115 43t-43 125z" />
<glyph unicode="&#x202f;" horiz-adv-x="393" />
<glyph unicode="&#x2039;" horiz-adv-x="710" d="M162 537q55 115 116.5 211t135.5 200q51 29 134 43.5t169 14.5q-72 -115 -136.5 -228.5t-119.5 -230.5q25 -98 58.5 -198.5t74.5 -196.5q-45 -47 -105.5 -71t-134.5 -34q-59 117 -110 245t-82 245z" />
<glyph unicode="&#x203a;" horiz-adv-x="710" d="M147 166q63 98 117.5 190.5t102.5 190.5q-29 104 -61 201.5t-68 195.5q47 33 111.5 49.5t127.5 16.5q59 -123 108.5 -247t80.5 -228q-61 -117 -141.5 -243t-166.5 -245q-72 6 -127 40t-84 79z" />
<glyph unicode="&#x205f;" horiz-adv-x="492" />
<glyph unicode="&#x20ac;" d="M100 420q2 53 14.5 111.5t30.5 99.5h836q4 -10 9 -30.5t5 -53.5q0 -82 -24 -127h-428q41 -115 134 -162t220 -47q86 0 151.5 15.5t129.5 39.5q6 -31 3 -66.5t-14.5 -70.5t-29 -65.5t-39.5 -53.5q-59 -25 -132 -41t-165 -16q-238 0 -387.5 118.5t-190.5 348.5h-123z M139 782q2 53 14.5 110.5t30.5 98.5h88q37 100 97.5 184.5t142.5 145.5t187.5 96t234.5 35q164 0 272 -57q16 -23 27.5 -55.5t17.5 -68.5t6 -72t-6 -66q-61 35 -125.5 53t-150.5 18q-145 0 -241.5 -57t-149.5 -156h428q4 -10 9 -30.5t5 -53.5q0 -80 -25 -125h-862z" />
<glyph unicode="&#x2122;" horiz-adv-x="1740" d="M174 1339q0 27 6 61t19 56h608q6 -16 6 -53q0 -27 -6 -60.5t-19 -56.5h-215l-55 -489q-14 -8 -36.5 -12.5t-59.5 -4.5q-35 0 -55.5 4t-34.5 13l63 489h-215q-6 14 -6 53zM821 795l84 647q20 10 52 15t92 5q59 0 95 -5t52 -15l55 -314q6 -41 10.5 -96t4.5 -102h12 q10 51 24.5 106.5t30.5 91.5l129 314q47 20 158 20q57 0 91 -5t52 -15l-67 -647q-14 -6 -37 -10.5t-57 -4.5q-35 0 -53.5 4t-30.5 11l65 524h-12q-14 -47 -33.5 -107.5t-36.5 -101.5l-133 -317q-16 -6 -43 -10.5t-68 -4.5t-67.5 4t-42.5 11l-60 319q-4 18 -7 45t-5 55.5 t-4 56t-2 50.5h-12l-56 -524q-14 -6 -36.5 -10.5t-57.5 -4.5t-54 4t-32 11z" />
<glyph unicode="&#x25fc;" horiz-adv-x="1034" d="M0 0v1034h1034v-1034h-1034z" />
</font>
</defs>
</svg>
