<?xml version="1.0" standalone="no"?>
<!DOCTYPE svg PUBLIC "-//W3C//DTD SVG 1.1//EN" "http://www.w3.org/Graphics/SVG/1.1/DTD/svg11.dtd" >
<svg xmlns="http://www.w3.org/2000/svg">
<metadata></metadata>
<defs>
<font id="tisasanscomppro-boldregular" horiz-adv-x="1167" >
<font-face units-per-em="2048" ascent="1493" descent="-555" />
<missing-glyph horiz-adv-x="397" />
<glyph unicode="&#xfb01;" horiz-adv-x="1271" d="M29 770q0 66 10 134.5t31 115.5h116v51q0 117 27 211t85 160.5t152.5 103.5t229.5 37q80 0 161 -17.5t148 -64.5q16 -25 27.5 -58.5t16.5 -70.5t6 -73.5t-5 -67.5q-70 43 -147.5 67.5t-165.5 24.5q-51 0 -95 -11.5t-76 -38t-49.5 -73.5t-17.5 -117v-63h219 q10 -18 14.5 -52t4.5 -73t-4 -73t-15 -52h-219v-754q-20 -10 -57 -17t-90 -7t-90 7t-60 17v754h-157zM829 16v988q23 10 60 17t90 7t90 -7t57 -17v-988q-20 -10 -57 -17t-90 -7t-90 7t-60 17z" />
<glyph unicode="&#xfb02;" horiz-adv-x="1353" d="M29 770q0 66 10 134.5t31 115.5h116v53q0 143 38 240.5t104.5 157t158 86t199.5 26.5q125 0 236.5 -33.5t199.5 -99.5v-1126q0 -59 20.5 -79t65.5 -20q70 0 125 37q6 -66 -11 -138.5t-46 -117.5q-35 -23 -81 -35t-103 -12q-78 0 -129.5 23.5t-82 65.5t-43 100.5 t-12.5 125.5v1029q-29 16 -60.5 21t-66.5 5q-45 0 -84 -10t-68.5 -37t-46 -73t-16.5 -117v-72h217q10 -18 14.5 -52t4.5 -73t-4 -73t-15 -52h-217v-754q-20 -10 -57 -17t-90 -7t-90 7t-60 17v754h-157z" />
<glyph unicode="&#xfb03;" horiz-adv-x="1931" d="M29 770q0 66 10 134.5t31 115.5h116v96q0 117 27 197t74 130t112.5 72.5t143.5 22.5q111 0 186 -41q16 -25 27.5 -55.5t17.5 -65.5t6 -68.5t-4 -64.5q-37 23 -72.5 32t-72.5 9q-78 0 -113 -39t-35 -117v-108h363v51q0 117 26.5 211t85 160.5t152.5 103.5t229 37 q80 0 161 -17.5t149 -64.5q16 -25 27.5 -58.5t16.5 -70.5t6 -73.5t-5 -67.5q-70 43 -148 67.5t-166 24.5q-51 0 -95 -11.5t-75.5 -38t-49 -73.5t-17.5 -117v-63h219q10 -18 14 -52t4 -73t-4 -73t-14 -52h-219v-754q-20 -10 -57 -17t-91 -7q-53 0 -90 7t-59 17v754h-363v-754 q-20 -10 -57 -17t-90 -7t-90 7t-60 17v754h-157zM1489 16v988q23 10 59.5 17t89.5 7t90 -7t58 -17v-988q-20 -10 -57 -17t-91 -7q-53 0 -90 7t-59 17z" />
<glyph unicode="&#xfb04;" horiz-adv-x="2013" d="M29 770q0 66 10 134.5t31 115.5h116v96q0 117 27 197t74 130t112.5 72.5t143.5 22.5q111 0 186 -41q16 -25 27.5 -55.5t17.5 -65.5t6 -68.5t-4 -64.5q-37 23 -72.5 32t-72.5 9q-78 0 -113 -39t-35 -117v-108h363v53q0 143 38 240.5t104.5 157t157.5 86t200 26.5 q125 0 236.5 -33.5t199.5 -99.5v-1126q0 -59 20.5 -79t65.5 -20q70 0 125 37q6 -66 -11.5 -138.5t-46.5 -117.5q-35 -23 -81 -35t-103 -12q-78 0 -129 23.5t-82 65.5t-43 100.5t-12 125.5v1029q-29 16 -60.5 21t-66.5 5q-45 0 -84 -10t-68.5 -37t-46 -73t-16.5 -117v-72h217 q10 -18 14 -52t4 -73t-4 -73t-14 -52h-217v-754q-20 -10 -57 -17t-91 -7q-53 0 -90 7t-59 17v754h-363v-754q-20 -10 -57 -17t-90 -7t-90 7t-60 17v754h-157z" />
<glyph horiz-adv-x="2048" />
<glyph horiz-adv-x="2048" />
<glyph unicode="&#xd;" horiz-adv-x="397" />
<glyph unicode=" "  horiz-adv-x="397" />
<glyph unicode="&#x09;" horiz-adv-x="397" />
<glyph unicode="&#xa0;" horiz-adv-x="397" />
<glyph unicode="!" horiz-adv-x="649" d="M141 1430q37 16 88.5 28t128.5 12q94 0 142 -18l-41 -973q-18 -10 -53 -16t-84 -6t-85 6t-55 16zM143 145q0 82 50.5 129.5t128.5 47.5t127 -45.5t49 -129.5q0 -90 -49.5 -137t-126.5 -47q-86 0 -132.5 46t-46.5 136z" />
<glyph unicode="&#x22;" d="M174 868q10 129 15.5 276.5t5.5 274.5q74 0 143.5 -9t132.5 -32q0 -53 -6 -123.5t-15.5 -145.5t-20.5 -147.5t-23 -127.5q-59 0 -122 6t-110 28zM645 868q10 129 15.5 276.5t5.5 274.5q74 0 143.5 -9t132.5 -32q0 -53 -6 -123.5t-15.5 -145.5t-20.5 -147.5t-23 -127.5 q-59 0 -122 6t-110 28z" />
<glyph unicode="#" d="M4 387q2 47 15.5 103.5t35.5 95.5h142l53 282h-158q2 47 15.5 103.5t35.5 95.5h144l57 309q41 20 105.5 31.5t136.5 11.5l-62 -352h238l53 309q41 20 105.5 31.5t136.5 11.5l-56 -352h144q8 -10 11 -30.5t3 -37.5q0 -35 -8 -69.5t-23 -61.5h-157l-45 -282h139 q8 -10 11 -30.5t3 -37.5q0 -35 -8 -69.5t-22 -61.5h-156l-57 -373q-16 -10 -47 -16t-82 -6q-47 0 -77 6t-46 16l63 373h-239l-66 -373q-16 -10 -47 -16t-82 -6q-47 0 -77 6t-46 16l70 373h-156zM438 584h244l49 286h-244z" />
<glyph unicode="$" d="M96 319q39 -25 92.5 -45t111.5 -35.5t117.5 -23.5t112.5 -8q129 0 184.5 46t55.5 126q0 72 -48 112.5t-119 70.5t-154.5 57.5t-154.5 74.5t-119 123t-48 203q0 174 87 279.5t247 138.5v153q98 39 250 39v-184q125 -18 235 -82q35 -53 49.5 -128t3.5 -142 q-78 49 -174 79.5t-194 30.5q-109 0 -157 -38t-48 -107q0 -68 47 -107t119 -67.5t153.5 -57t153.5 -78t119 -128t47 -207.5q0 -106 -27.5 -185t-78 -132.5t-120 -85t-151.5 -46.5v-203q-35 -20 -125 -20q-88 0 -125 20v195q-84 8 -155.5 27.5t-132.5 48.5 q-35 57 -49.5 138.5t-4.5 147.5z" />
<glyph unicode="%" horiz-adv-x="1843" d="M61 1061q0 188 98.5 289.5t258.5 101.5q162 0 258 -99.5t96 -291.5q0 -188 -96 -293.5t-258 -105.5q-174 0 -265.5 104t-91.5 295zM299 1061q0 -94 29.5 -148.5t89.5 -54.5q59 0 88 55.5t29 147.5t-30 144t-87 52q-59 0 -89 -52t-30 -144zM387 49l862 1419q135 0 236 -69 l-899 -1475q-63 6 -117.5 41t-81.5 84zM1069 352q0 188 98 289.5t258 101.5q162 0 258.5 -99t96.5 -292q0 -188 -96.5 -293.5t-258.5 -105.5q-174 0 -265 104.5t-91 294.5zM1307 352q0 -94 29.5 -148t88.5 -54t88 55t29 147t-29.5 144.5t-87.5 52.5q-59 0 -88.5 -52.5 t-29.5 -144.5z" />
<glyph unicode="&#x26;" horiz-adv-x="1566" d="M68 369q0 82 22.5 148.5t61 115.5t91 82t113.5 49v14q-78 41 -122 117t-44 186q0 98 38 169t100.5 116t144.5 65.5t170 20.5q84 0 162 -19.5t138.5 -61.5t96 -108.5t35.5 -158.5q0 -117 -54 -207t-159 -127v-14q53 -31 115.5 -76t114.5 -92q31 49 49 109.5t26 125.5 q47 25 124 38t167 13q-10 -127 -50 -254.5t-112 -234.5q74 -84 141.5 -174t121.5 -182q-35 -25 -89.5 -37t-119.5 -12q-41 0 -74 4t-49 10q-31 43 -59.5 77.5t-59.5 69.5q-92 -88 -215 -138t-297 -50q-100 0 -195.5 20.5t-169 67.5t-118.5 127t-45 201zM377 399 q0 -53 19.5 -89t53 -59.5t78.5 -33.5t97 -10q104 0 176 33.5t125 105.5q-96 96 -187.5 164t-179.5 119q-86 -33 -134 -89.5t-48 -140.5zM481 1081q0 -68 43 -111.5t123 -76.5q74 29 111 79t37 111q0 76 -46.5 108t-107.5 32q-27 0 -55.5 -7.5t-51 -23.5t-38 -44t-15.5 -67z " />
<glyph unicode="'" horiz-adv-x="716" d="M199 868q10 129 15 276.5t5 274.5q74 0 143.5 -9t133.5 -32q0 -53 -6.5 -123.5t-15.5 -145.5t-20.5 -147.5t-23.5 -127.5q-59 0 -121.5 6t-109.5 28z" />
<glyph unicode="(" horiz-adv-x="724" d="M137 598q0 311 98.5 581.5t264.5 487.5q72 -18 122 -57t85 -92q-137 -207 -206 -440.5t-69 -475.5q0 -254 77 -481t234 -445q-35 -55 -99 -93t-136 -50q-203 272 -287 543.5t-84 521.5z" />
<glyph unicode=")" horiz-adv-x="724" d="M-8 -332q152 223 226.5 451.5t74.5 488.5q0 248 -67.5 475.5t-196.5 425.5q29 53 89 97.5t130 60.5q94 -127 158.5 -261t104.5 -269.5t58.5 -265.5t18.5 -248q0 -272 -88 -548t-283 -552q-70 14 -132 53t-93 92z" />
<glyph unicode="*" horiz-adv-x="931" d="M39 1018l166 78q18 8 51 14t61 8v12q-29 2 -60.5 8.5t-51.5 16.5l-158 78q6 45 26.5 101.5t53.5 107.5l168 -111q45 -29 84 -92l12 6q-37 66 -39 117l-10 172q41 16 94 23.5t119 7.5l-10 -201q-2 -27 -13.5 -59.5t-27.5 -63.5l12 -6q18 29 38.5 53.5t45.5 40.5l156 103 q37 -29 72.5 -76t62.5 -101l-193 -96q-20 -10 -58 -16t-67 -8v-15q29 -4 62 -11t59 -17l178 -82q0 -27 -10 -56.5t-25.5 -57.5t-36 -50.5t-40.5 -34.5l-164 113q-20 14 -40.5 39.5t-37.5 50.5l-10 -6q12 -25 22.5 -55.5t12.5 -57.5l16 -186q-31 -20 -108 -21q-78 0 -113 21 l14 186q2 25 13.5 56.5t25.5 54.5l-12 6q-12 -23 -33.5 -46.5t-42.5 -39.5l-156 -111q-41 29 -72.5 87.5t-35.5 115.5z" />
<glyph unicode="+" d="M59 440q0 63 11.5 141t31.5 124h338v335q55 23 125 33t154 10v-378h360q8 -16 14.5 -52.5t6.5 -81.5q0 -43 -6.5 -78.5t-14.5 -52.5h-360v-354q-18 -10 -53 -17.5t-86 -7.5q-49 0 -84 7.5t-56 17.5v354h-381z" />
<glyph unicode="," horiz-adv-x="716" d="M88 -276q45 106 73 237t34 254q115 57 303 57q-4 -86 -21.5 -178t-42 -179t-54.5 -163t-61 -127q-72 8 -134 35t-97 64z" />
<glyph unicode="-" horiz-adv-x="774" d="M72 440q0 70 10 141.5t33 125.5h561q10 -20 14 -56.5t4 -77.5t-4 -76.5t-14 -56.5h-604z" />
<glyph unicode="." horiz-adv-x="716" d="M143 145q0 82 50.5 129.5t128.5 47.5t127 -45.5t49 -129.5q0 -90 -49.5 -137t-126.5 -47q-86 0 -132.5 46t-46.5 136z" />
<glyph unicode="/" horiz-adv-x="962" d="M-8 -281l704 1842q150 0 244 -58l-711 -1880q-70 0 -136 27.5t-101 68.5z" />
<glyph unicode="0" d="M63 719q0 176 36 313t103.5 230.5t164 141.5t217.5 48t217 -45t163.5 -136t103.5 -228.5t36 -323.5q0 -387 -134 -576.5t-386 -189.5q-262 0 -391.5 186.5t-129.5 579.5zM369 719q0 -238 54 -371t161 -133q109 0 162 133t53 371q0 106 -14.5 194t-42 149.5t-67.5 95.5 t-91 34q-109 0 -162 -126t-53 -347z" />
<glyph unicode="1" d="M127 1071q2 63 20.5 138t40.5 122q41 14 105.5 30.5t143.5 32t166 28t173 20.5v-1186h285q10 -18 14 -53t4 -74t-4 -75t-14 -54h-920q0 61 10.5 132t30.5 124h293v870z" />
<glyph unicode="2" d="M88 258q88 82 192.5 170t194.5 179t150.5 186.5t60.5 195.5q0 96 -59.5 144.5t-167.5 48.5q-86 0 -177.5 -31t-168.5 -90q-4 35 -1 74t12 76.5t23.5 72.5t30.5 62q59 43 153.5 74.5t217.5 31.5q100 0 186 -25.5t148.5 -78t97.5 -129t35 -179.5q0 -115 -41 -220 t-112.5 -199.5t-168 -176.5t-207.5 -149v-16h557q10 -20 15.5 -59.5t5.5 -80.5t-5 -80t-16 -59h-921q-20 53 -27.5 119.5t-7.5 138.5z" />
<glyph unicode="3" d="M90 285q70 -29 166 -47.5t195 -18.5q57 0 108 8.5t89 27.5t59.5 54t21.5 88q0 49 -22.5 86t-74.5 59.5t-136 34t-207 11.5q-10 25 -13.5 58.5t-1.5 68.5t8.5 66.5t16.5 54.5q82 2 153.5 13t125 34.5t84 63.5t30.5 102q0 86 -59.5 114.5t-147.5 28.5q-96 0 -184 -24.5 t-166 -65.5q-4 27 -2 63.5t11.5 74.5t25.5 75t39 63q59 33 154.5 53.5t199.5 20.5q94 0 177 -20.5t142.5 -64.5t94.5 -112.5t35 -167.5q0 -141 -70 -227t-186 -110v-15q61 -14 115.5 -38.5t94.5 -66.5t62.5 -101.5t22.5 -141.5q0 -117 -45 -199t-122 -134t-179.5 -76.5 t-217.5 -24.5q-88 0 -179 13.5t-156 35.5q-39 61 -54.5 138t-7.5 145z" />
<glyph unicode="4" d="M41 600l500 840q119 0 230.5 -18.5t197.5 -57.5v-770h133q10 -18 14 -53t4 -74t-4 -75t-14 -54h-133v-322q-20 -10 -58.5 -17t-91.5 -7t-91 7t-60 17v322h-588q-23 61 -31 123.5t-8 138.5zM350 580q45 6 89 8t96 2h137v350q0 53 3 111.5t9 99.5h-16l-318 -555v-16z" />
<glyph unicode="5" d="M101 211q-3 39 3 72q29 -14 70 -25.5t87 -20t93 -12.5t90 -4q68 0 123.5 11.5t95 37t61 67.5t21.5 103q0 106 -67.5 152.5t-208.5 46.5q-72 0 -150.5 -12.5t-154.5 -36.5l61 815h838q0 -66 -8 -142.5t-21 -132.5h-557l-18 -262q31 10 78 16.5t94 6.5q193 0 308.5 -102.5 t115.5 -325.5q0 -139 -45 -236.5t-124 -158t-185.5 -88t-229.5 -27.5q-90 0 -169 12t-130 31q-18 25 -33.5 60.5t-25 75.5t-12.5 79z" />
<glyph unicode="6" d="M88 631q0 209 45 362.5t127 256t198.5 152.5t258.5 50q76 0 144.5 -14.5t115.5 -42.5q18 -23 30.5 -60t20.5 -77.5t10 -79.5t-2 -68q-59 37 -127.5 58.5t-146.5 21.5q-74 0 -135.5 -22.5t-108.5 -74t-77.5 -132t-39.5 -199.5h17q33 72 101.5 118t191.5 46 q102 0 173.5 -37t117 -98.5t65.5 -143.5t20 -174q0 -111 -29.5 -206t-90 -164.5t-153.5 -109.5t-220 -40q-262 0 -384 170t-122 508zM397 530q0 -154 53.5 -238.5t149.5 -84.5q86 0 134 66.5t48 172.5q0 109 -49 165.5t-137 56.5q-66 0 -112 -30t-87 -89v-19z" />
<glyph unicode="7" d="M92 1126q0 63 11.5 141.5t33.5 137.5h916q20 -45 33.5 -113.5t13.5 -130.5q-166 -279 -294 -569.5t-192 -571.5q-57 -29 -182 -28q-59 0 -101 8t-61 18q80 299 212 579t294 513v16h-684z" />
<glyph unicode="8" d="M74 350q0 158 77.5 252t188.5 129v14q-96 41 -151.5 118t-55.5 200q0 104 39 178t104.5 121t150.5 68.5t175 21.5q84 0 166 -19.5t145.5 -62.5t102.5 -111.5t39 -168.5q0 -68 -17.5 -121.5t-47 -93t-67.5 -66.5t-79 -41v-14q53 -23 99 -54.5t79 -75.5t51.5 -101.5 t18.5 -133.5q0 -113 -41 -194.5t-113 -136t-167 -80t-204 -25.5q-88 0 -176 18.5t-158.5 64.5t-114.5 121.5t-44 192.5zM379 379q0 -55 17.5 -92t47 -59.5t65.5 -32t73 -9.5t72.5 9.5t64.5 30t46 55t17 84.5q0 49 -17 85.5t-49 64.5t-76 50.5t-95 42.5q-76 -33 -121 -88 t-45 -141zM432 1079q0 -78 53.5 -118.5t145.5 -73.5q133 59 133 188q0 43 -15.5 72t-39 46t-53 24.5t-60.5 7.5t-60.5 -7.5t-52 -24.5t-37 -45t-14.5 -69z" />
<glyph unicode="9" d="M88 940q0 242 130 377t360 135q254 0 374.5 -173t120.5 -507q0 -213 -46 -367.5t-131 -255t-204 -148.5t-262 -48q-72 0 -144.5 12t-123.5 35q-20 25 -35.5 61.5t-25 78.5t-12.5 82t3 71q59 -37 137 -56.5t154 -19.5q80 0 145.5 21.5t114.5 72.5t81 135t42 209h-16 q-35 -66 -102.5 -113.5t-190.5 -47.5q-90 0 -160 32.5t-116 91t-69.5 140.5t-23.5 182zM395 967q0 -106 47.5 -161.5t137.5 -55.5q59 0 103 26.5t85 79.5v10q0 156 -49 245t-148 89q-86 0 -131 -64.5t-45 -168.5z" />
<glyph unicode=":" horiz-adv-x="716" d="M156 145q0 82 50 129.5t128 47.5t127 -45.5t49 -129.5q0 -90 -49 -137t-127 -47q-86 0 -132 46t-46 136zM160 874q0 80 49 126.5t125 46.5q78 0 125 -44.5t47 -125.5q0 -88 -47 -134.5t-125 -46.5q-174 0 -174 178z" />
<glyph unicode=";" horiz-adv-x="716" d="M84 -276q45 106 72.5 237t33.5 254q115 57 304 57q-4 -86 -21.5 -178t-42 -179t-54.5 -163t-61 -127q-72 8 -134 35t-97 64zM162 874q0 80 49 126.5t125 46.5q78 0 125 -44.5t47 -125.5q0 -88 -47 -134.5t-125 -46.5q-174 0 -174 178z" />
<glyph unicode="&#x3c;" d="M152 467q0 57 7 115.5t25 105.5l617 432q53 -23 113.5 -68.5t95.5 -99.5l-553 -368v-17l532 -362q-6 -31 -21.5 -63.5t-37 -61.5t-48 -53.5t-53.5 -36.5z" />
<glyph unicode="=" d="M88 225q0 29 3 64t7 68.5t11.5 64.5t17.5 51h926q6 -16 12 -50t6 -75t-6 -73.5t-12 -49.5h-965zM88 672q0 29 3 63.5t7 68.5t11.5 64.5t17.5 51.5h926q6 -16 12 -50t6 -75t-6 -74t-12 -49h-965z" />
<glyph unicode="&#x3e;" d="M162 961q41 53 97 96t120 67l604 -419q16 -47 24.5 -105.5t8.5 -114.5l-680 -491q-29 14 -55.5 38.5t-48 54.5t-37 61.5t-21.5 62.5l535 354v17z" />
<glyph unicode="?" horiz-adv-x="899" d="M22 1182q3 41 12 82t24.5 77.5t33.5 61.5q66 41 158 70.5t221 29.5q203 0 312.5 -82t109.5 -250q0 -86 -28.5 -149.5t-72.5 -110.5t-95.5 -81.5t-95.5 -66.5t-72.5 -64.5t-28.5 -73.5q0 -35 9 -57.5t36 -49.5q-41 -47 -102.5 -76.5t-127.5 -33.5q-53 39 -85.5 97 t-32.5 130q0 74 25.5 127t64.5 95t84 75t84 62.5t64.5 61t25.5 72.5t-34 74t-128 33q-92 0 -187.5 -35t-172.5 -94q-4 35 -1 76zM250 145q0 82 50 129.5t128 47.5t127 -45.5t49 -129.5q0 -90 -49 -137t-127 -47q-86 0 -132 46t-46 136z" />
<glyph unicode="@" horiz-adv-x="2115" d="M86 442q0 233 77 428t217 335.5t336.5 219t436.5 78.5q190 0 355 -51t287 -152.5t191.5 -251t69.5 -346.5q0 -174 -54 -306t-140 -220t-192.5 -133t-209.5 -45q-98 0 -163.5 40t-88.5 112h-14q-31 -63 -97.5 -107.5t-176.5 -44.5q-139 0 -227.5 94t-88.5 297 q0 117 35 232.5t109 207.5q70 86 173 137.5t246 51.5q111 0 197 -28.5t145 -71.5l-73 -558q-10 -74 14.5 -101.5t69.5 -27.5q47 0 102 28t102.5 85t78 144t30.5 206q0 156 -57.5 268.5t-153.5 185.5t-221 107.5t-260 34.5q-190 0 -343 -62.5t-260.5 -174t-166 -266 t-58.5 -338.5q0 -174 52.5 -312.5t149.5 -234t237.5 -145.5t316.5 -50q145 0 283.5 36t259.5 114q16 -12 33.5 -33t32 -45.5t24.5 -50t14 -47.5q-143 -96 -322.5 -141.5t-353.5 -45.5q-217 0 -393 67.5t-301 191.5t-192.5 299t-67.5 390zM881 418q0 -98 35.5 -137t95.5 -39 q47 0 90 21.5t67 60.5l72 452q-16 10 -45 15.5t-51 5.5q-74 0 -125 -39t-82 -97.5t-44 -124t-13 -118.5z" />
<glyph unicode="A" horiz-adv-x="1417" d="M29 20l495 1430q33 10 81 15t104 5q57 0 105 -5t81 -15l491 -1430q-44 -28 -151 -28h-8q-59 0 -96 7t-64 21l-102 316h-519l-102 -316q-27 -16 -66.5 -22t-93.5 -6q-59 0 -95 7t-60 21zM522 588h363l-78 241q-31 96 -54.5 204t-39.5 216h-17q-16 -113 -42.5 -223.5 t-55.5 -202.5z" />
<glyph unicode="B" horiz-adv-x="1394" d="M176 6v1432q96 18 213 30.5t246 12.5q131 0 242.5 -21.5t192.5 -69t126 -123t45 -184.5q0 -121 -55.5 -200.5t-147.5 -106.5v-16q127 -35 203 -115t76 -229q0 -121 -49 -203t-134 -134t-201 -74.5t-249 -22.5q-135 0 -271.5 6t-236.5 18zM481 252q41 -4 92.5 -7t110.5 -3 q150 0 232.5 45t82.5 143t-82.5 143t-228.5 45h-207v-366zM481 874h205q115 0 178.5 42t63.5 128q0 94 -75 136.5t-210 42.5q-98 0 -162 -13v-336z" />
<glyph unicode="C" horiz-adv-x="1318" d="M100 707q0 190 54.5 338.5t151.5 250t234.5 154.5t303.5 53q88 0 171 -15t140 -50q35 -51 50 -131q10 -52 10 -99q0 -25 -3 -49q-74 35 -145.5 53.5t-159.5 18.5q-109 0 -197.5 -28.5t-153 -90t-100.5 -157t-36 -228.5t34.5 -228.5t98 -154.5t149.5 -87t191 -28 q98 0 188 20.5t156 49.5q1 -7 1 -15q0 -22 -5 -50q-6 -36 -17.5 -74.5t-26.5 -73.5t-34 -59q-66 -33 -158 -53.5t-200 -20.5q-164 0 -294 51t-219 148.5t-136.5 237.5t-47.5 317z" />
<glyph unicode="D" horiz-adv-x="1499" d="M176 4v1430q111 23 216.5 31t221.5 8q180 0 328 -44.5t254.5 -135.5t164.5 -229t58 -329q0 -193 -60.5 -334t-163.5 -234t-242.5 -138t-297.5 -45q-117 0 -239.5 4t-239.5 16zM485 262q43 -4 89.5 -6t89.5 -2q205 0 320.5 114.5t115.5 352.5q0 127 -34 219t-96.5 151.5 t-150.5 88t-194 28.5q-35 0 -70 -2t-70 -10v-934z" />
<glyph unicode="E" horiz-adv-x="1269" d="M176 0v1456h965q10 -18 15 -54t5 -77t-5 -77t-15 -54h-660v-330h609q20 -45 20 -129t-20 -129h-609v-342h676q10 -18 15.5 -54t5.5 -77t-5.5 -78t-15.5 -55h-981z" />
<glyph unicode="F" horiz-adv-x="1163" d="M176 18v1438h916q10 -18 15 -55t5 -78t-5 -78t-15 -55h-607v-367h557q10 -18 15.5 -54t5.5 -79q0 -41 -5 -76.5t-16 -54.5h-557v-541q-45 -26 -146 -26h-7q-106 0 -156 26z" />
<glyph unicode="G" horiz-adv-x="1490" d="M100 698q0 190 56.5 341t161 253.5t254 156.5t333.5 54q102 0 191.5 -16.5t156.5 -50.5q35 -53 49 -132q11 -56 11 -106q0 -21 -2 -41q-82 37 -172 56.5t-193 19.5q-121 0 -217 -28.5t-165.5 -90t-106.5 -160t-37 -237.5q0 -131 32.5 -225.5t92 -153.5t142.5 -88t183 -29 q66 0 122.5 9.5t97.5 25.5v326h-285q-10 18 -15.5 53t-5.5 76t5.5 75.5t15.5 53.5h567v-777q-49 -23 -111.5 -43t-131 -35.5t-143.5 -23.5t-148 -8q-174 0 -311.5 50t-231.5 145.5t-144.5 234.5t-50.5 315z" />
<glyph unicode="H" horiz-adv-x="1583" d="M176 18v1420q47 26 147 26h7q104 0 153 -26v-561h617v561q47 26 146 26h7q104 0 154 -26v-1420q-47 -26 -147 -26h-7q-104 0 -153 26v590h-617v-590q-47 -26 -146 -26h-7q-104 0 -154 26z" />
<glyph unicode="I" horiz-adv-x="661" d="M176 18v1420q47 26 148 26h8q106 0 153 -26v-1420q-45 -26 -146 -26h-7q-106 0 -156 26z" />
<glyph unicode="J" horiz-adv-x="729" d="M-35 -186q78 45 132.5 95t88 110.5t49 134t15.5 163.5v1121q47 26 148 26h8q106 0 153 -26v-1086q0 -147 -26.5 -265t-82 -212t-138.5 -168t-193 -131q-61 31 -102.5 95.5t-51.5 142.5z" />
<glyph unicode="K" horiz-adv-x="1411" d="M176 18v1420q47 26 147 26h7q104 0 153 -26v-564h140l378 562q59 28 173 28h8q61 0 99 -7t58 -21l-465 -691l510 -725q-40 -28 -167 -28h-9q-127 0 -194 28l-408 588h-123v-590q-47 -26 -146 -26h-7q-104 0 -154 26z" />
<glyph unicode="L" horiz-adv-x="1193" d="M176 0v1438q47 26 148 26h8q106 0 153 -26v-1164h631q10 -20 16.5 -57t6.5 -78q0 -43 -6.5 -81t-16.5 -58h-940z" />
<glyph unicode="M" horiz-adv-x="1933" d="M176 14v1428q82 22 225 22h13q150 0 233 -22l238 -746q29 -86 48 -186t32 -205h16q14 104 33.5 205.5t44.5 181.5l227 750q80 22 222 22h12q152 0 237 -22v-1428q-23 -12 -59.5 -17t-87.5 -5q-47 0 -85 5t-61 17v1172h-16q-6 -47 -15.5 -100.5t-21.5 -107.5t-24.5 -105.5 t-24.5 -90.5l-242 -774q-43 -20 -155 -20q-47 0 -88 5t-64 15l-250 785q-12 37 -23.5 86t-22.5 103t-19.5 107.5t-12.5 96.5h-16v-1172q-23 -12 -59.5 -17t-87.5 -5q-47 0 -85 5t-61 17z" />
<glyph unicode="N" horiz-adv-x="1587" d="M176 16v1430q37 10 87 15t116 5q68 0 117 -5t84 -15l395 -719q18 -35 37.5 -81t37 -96t31 -101.5t23.5 -96.5h16v1088q41 24 138 24h8q98 0 145 -24v-1430q-31 -10 -78 -15t-112 -5q-68 0 -115 5t-76 15l-418 758q-35 63 -69.5 164.5t-57.5 208.5h-16v-1125 q-41 -24 -139 -24h-8q-100 0 -146 24z" />
<glyph unicode="O" horiz-adv-x="1595" d="M104 743q0 178 52.5 319.5t144.5 240t219 149.5t279 51q156 0 282.5 -49t218 -144.5t141.5 -237.5t50 -329q0 -193 -49 -340t-139.5 -247.5t-218.5 -151.5t-285 -51q-338 0 -516.5 195.5t-178.5 594.5zM424 743q0 -252 97 -386t278 -134q184 0 278 134.5t94 385.5 q0 231 -101 361.5t-271 130.5q-184 0 -279.5 -128t-95.5 -364z" />
<glyph unicode="P" horiz-adv-x="1304" d="M176 18v1422q84 18 200 28.5t232 10.5q156 0 279 -28t208 -88t130 -155.5t45 -230.5q0 -137 -44 -236.5t-121 -164t-180.5 -95t-219.5 -30.5q-49 0 -115 4t-105 10v-447q-45 -26 -146 -26h-7q-106 0 -156 26zM483 727q33 -6 83 -10t98 -4q137 0 214.5 57t77.5 188 q0 135 -83.5 195.5t-241.5 60.5q-80 0 -148 -12v-475z" />
<glyph unicode="Q" horiz-adv-x="1595" d="M104 743q0 178 52.5 319.5t144.5 240t220 149.5t280 51q156 0 283.5 -49t219 -144.5t141.5 -237.5t50 -329q0 -229 -68.5 -393t-191.5 -260q41 -117 125 -170t213 -53q47 0 93 6t89 23q2 -14 2 -30.5t-2 -34.5q-4 -36 -13 -71.5t-25.5 -67.5t-37.5 -52q-41 -16 -87 -25.5 t-115 -9.5q-190 0 -323.5 98t-199.5 264q-35 -8 -73.5 -11t-79.5 -3q-338 0 -517.5 195.5t-179.5 594.5zM424 743q0 -252 98.5 -386t278.5 -134q186 0 280.5 134.5t94.5 385.5q0 231 -101.5 361.5t-273.5 130.5q-186 0 -281.5 -128t-95.5 -364z" />
<glyph unicode="R" horiz-adv-x="1409" d="M176 18v1422q82 18 197.5 28.5t230.5 10.5q154 0 275.5 -27t205.5 -84t129.5 -148.5t45.5 -220.5q0 -160 -62.5 -264t-169.5 -162l342 -553q-40 -28 -156 -28h-8q-68 0 -113.5 7t-78.5 21l-285 480h-33q-53 0 -113.5 4t-97.5 10v-496q-45 -26 -146 -26h-7q-106 0 -156 26 zM483 774q31 -6 81 -10t95 -4q135 0 211 51t76 172q0 123 -82.5 177t-236.5 54q-76 0 -144 -12v-428z" />
<glyph unicode="S" horiz-adv-x="1181" d="M83 259v16q0 31 3 57q43 -25 98.5 -46.5t116.5 -37t123.5 -24.5t120.5 -9q137 0 195.5 48t58.5 130q0 76 -50.5 118t-126 71.5t-164.5 58.5t-165 78t-126 128t-50 210q0 221 135 333.5t373 112.5q205 0 360 -90q35 -55 51 -134q9 -46 9 -89q0 -31 -5 -60q-84 51 -186 83 t-207 32q-115 0 -167 -39t-52 -110q0 -72 50 -111t126 -68.5t163 -59.5t163 -80t126 -131t50 -214q0 -135 -44 -227t-119 -147.5t-176 -80t-218 -24.5q-115 0 -218.5 20.5t-189.5 61.5q-18 31 -30.5 67.5t-19.5 76.5t-8 80z" />
<glyph unicode="T" horiz-adv-x="1251" d="M37 1321q0 41 6 78t16 57h1133q10 -20 16 -57t6 -78t-6 -79t-16 -58h-412v-1166q-45 -26 -146 -26h-7q-106 0 -156 26v1166h-412q-10 20 -16 58t-6 79z" />
<glyph unicode="U" horiz-adv-x="1515" d="M156 524v914q47 26 148 26h7q106 0 154 -26v-887q0 -164 70.5 -242t224.5 -78q166 0 236.5 86t70.5 240v881q45 26 143 26h7q109 0 151 -26v-860q0 -147 -36 -263t-111.5 -196t-193.5 -123t-282 -43q-303 0 -446 145.5t-143 425.5z" />
<glyph unicode="V" horiz-adv-x="1388" d="M29 1436q44 28 156 28h8q109 0 161 -28l256 -805q29 -92 49.5 -192.5t36.5 -207.5h17q14 104 34.5 207t49.5 197l252 801q47 28 150 28h7q59 0 95 -7t61 -21l-481 -1428q-33 -10 -82 -15t-105 -5q-57 0 -106 5t-82 15z" />
<glyph unicode="W" horiz-adv-x="2064" d="M51 1436q40 28 147 28h7q51 0 92 -6t65 -22l175 -867q12 -63 23 -158.5t20 -193.5h16q2 49 6 99.5t9 96.5t11.5 86t12.5 68l192 881q71 22 202 22h11q137 0 211 -22l179 -877q16 -78 29.5 -167t21.5 -187h16q6 100 17.5 191.5t23.5 154.5l180 877q23 12 62 18t88 6 q57 0 92 -6t55 -18l-313 -1432q-35 -10 -88 -15t-123 -5q-72 0 -126 5t-89 15l-184 875q-14 68 -28.5 163t-21.5 195h-16q-4 -49 -10 -100t-14.5 -99.5t-16.5 -91.5t-14 -73l-189 -869q-35 -10 -89 -15t-124 -5t-123 5t-88 15z" />
<glyph unicode="X" horiz-adv-x="1368" d="M37 18l479 756l-403 664q18 14 58 20t97 6q63 0 107.5 -7t75.5 -19l184 -305q23 -37 41 -72t29 -70h16q10 35 27.5 72t39.5 72l187 303q57 26 164 26h8q111 0 151 -26l-426 -674l461 -746q-18 -14 -59 -20t-98 -6q-66 0 -110 7t-77 19l-231 385q-23 37 -40.5 72t-27.5 70 h-16q-10 -35 -28.5 -72t-41.5 -72l-237 -383q-61 -26 -171 -26h-8q-113 0 -151 26z" />
<glyph unicode="Y" horiz-adv-x="1288" d="M23 1436q43 28 155 28h8q111 0 164 -28l191 -373q14 -31 30.5 -71t31.5 -84t27.5 -91t20.5 -90h17q6 41 16 87t23.5 91t28 86t30.5 72l188 373q47 28 153 28h7q59 0 94 -7t60 -21l-469 -942v-476q-45 -26 -146 -26h-8q-106 0 -156 26v471z" />
<glyph unicode="Z" horiz-adv-x="1234" d="M80 242l663 936v16h-620q-10 20 -16.5 54t-6.5 75t6.5 77t16.5 56h964q23 -53 30 -111.5t7 -125.5l-659 -936v-17h674q10 -20 16 -55t6 -76t-6 -78t-16 -57h-1022q-23 53 -30 113.5t-7 128.5z" />
<glyph unicode="[" horiz-adv-x="671" d="M150 -438v2052h477q16 -49 22 -115.5t6 -132.5h-221v-1550h211q10 -18 14.5 -52t4.5 -75q0 -39 -4.5 -74t-14.5 -53h-495z" />
<glyph unicode="\" horiz-adv-x="962" d="M37 1448q31 47 89 92t124 64l723 -1887q-43 -47 -107.5 -71.5t-136.5 -28.5z" />
<glyph unicode="]" horiz-adv-x="671" d="M8 -311q0 41 4 74.5t15 52.5h211v1550h-222q0 66 6.5 132.5t22.5 115.5h477v-2052h-495q-10 18 -14.5 53t-4.5 74z" />
<glyph unicode="^" d="M70 807l364 584q49 16 120 23t136 7l402 -676q-31 -47 -93.5 -80.5t-126.5 -41.5l-202 329q-35 57 -58.5 123t-40.5 142h-16q-16 -78 -44 -151t-56 -118l-215 -340q-55 35 -101.5 89.5t-68.5 109.5z" />
<glyph unicode="_" horiz-adv-x="1024" d="M-43 -522q0 66 10 133t31 117h1028q10 -18 14 -52t4 -73t-4 -73t-14 -52h-1069z" />
<glyph unicode="`" horiz-adv-x="962" d="M209 1511q20 20 50 37t64.5 28t72.5 17t75 6l242 -339q-25 -41 -69 -68t-103 -37z" />
<glyph unicode="a" horiz-adv-x="1136" d="M63 287q0 94 32 159.5t88.5 106.5t132 60.5t165.5 19.5q100 0 187 -27v29q0 94 -47.5 132t-149.5 38q-90 0 -174 -22.5t-154 -63.5q-10 31 -12 67q-1 12 -1 25q0 25 3 50q4 38 14.5 73t28.5 59q55 31 146.5 49.5t205.5 18.5q111 0 193 -21.5t136 -68.5t81 -126t27 -192 v-354q0 -47 19.5 -62.5t49.5 -15.5q53 0 88 25q2 -17 2 -35q0 -45 -11 -94q-15 -68 -44 -111q-33 -23 -75 -35t-95 -12q-90 0 -137 38t-64 109h-16q-35 -68 -105.5 -107.5t-177.5 -39.5q-68 0 -129 17.5t-107 57.5t-73 101.5t-27 151.5zM360 307q0 -59 40 -83.5t102 -24.5 q49 0 95 16t77 55v140q-59 24 -129 24h-6q-90 0 -134.5 -33.5t-44.5 -93.5z" />
<glyph unicode="b" horiz-adv-x="1214" d="M143 37v1431q53 29 126 44.5t171 15.5v-330q0 -68 -6 -152.5t-16 -148.5h16q29 63 98.5 113.5t186.5 50.5q80 0 154.5 -26.5t133 -86t93.5 -158t35 -239.5q0 -293 -153 -442.5t-433 -149.5q-111 0 -217.5 21.5t-188.5 56.5zM436 221q23 -6 54.5 -10t66.5 -4 q145 0 208.5 83t63.5 234q0 141 -53 209t-151 68q-72 0 -116 -28t-73 -66v-486z" />
<glyph unicode="c" horiz-adv-x="1013" d="M78 496q0 143 41 248.5t112.5 176t171 105.5t215.5 35q76 0 140.5 -13.5t109.5 -41.5q16 -23 28.5 -54.5t20 -67.5t9.5 -74v-19q0 -27 -4 -50q-55 33 -109.5 48.5t-126.5 15.5q-139 0 -221 -66.5t-82 -222.5q0 -154 82 -223.5t221 -69.5q74 0 138.5 15.5t119.5 44.5 q2 -16 2 -33t-2 -36q-4 -38 -14 -75t-27.5 -69.5t-38.5 -53.5q-51 -25 -118.5 -41t-155.5 -16q-250 0 -381 142.5t-131 394.5z" />
<glyph unicode="d" horiz-adv-x="1218" d="M80 471q0 141 36 250.5t101.5 184.5t158.5 115t210 40q55 0 104 -9.5t86 -27.5v444q53 29 126 44.5t171 15.5v-1501q-41 -23 -99.5 -35t-121.5 -12l-39 141h-16q-41 -80 -123 -121t-187 -41q-104 0 -180 37t-127 104.5t-75.5 161.5t-24.5 209zM385 492q0 -135 53.5 -200 t155.5 -65q68 0 112 24.5t74 51.5v473q-27 14 -60.5 20.5t-68.5 6.5q-139 0 -202.5 -85t-63.5 -226z" />
<glyph unicode="e" horiz-adv-x="1124" d="M78 498q0 129 37 232.5t105.5 177t165.5 113.5t218 40q113 0 195 -33t135 -93.5t79.5 -144t26.5 -184.5q0 -49 -8 -100t-22 -92h-623q18 -213 318 -213q98 0 181 18.5t138 42.5q1 -9 1 -19q-1 -51 -19 -105q-22 -66 -56 -107q-51 -29 -134 -50.5t-189 -21.5 q-270 0 -409.5 144.5t-139.5 394.5zM379 629h383q3 21 3 42q0 17 -2 35q-5 38 -24.5 67.5t-55.5 48t-91 18.5q-96 0 -151.5 -56.5t-61.5 -154.5z" />
<glyph unicode="f" horiz-adv-x="743" d="M29 766q0 66 10 135.5t31 118.5h116v94q0 121 29 205t80 136t124 74.5t159 22.5q66 0 118 -12t97 -37q16 -25 26 -56.5t16.5 -67.5t6.5 -71.5t-4 -66.5q-94 53 -195 53q-86 0 -123 -38.5t-37 -120.5v-115h250q10 -18 14.5 -53t4.5 -74t-4.5 -74t-14.5 -53h-250v-750 q-20 -10 -57 -17t-90 -7t-90 7t-60 17v750h-157z" />
<glyph unicode="g" horiz-adv-x="1130" d="M35 -213q0 92 44 154.5t114 78.5v15q-43 23 -63.5 61.5t-20.5 91.5q0 70 33.5 115t84.5 59v15q-72 47 -102.5 127t-30.5 174t33 167t92.5 120t141 71.5t178.5 24.5q70 0 126 -11.5t101 -29.5h295q20 -47 28.5 -104.5t8.5 -112.5h-148v-10q14 -14 22.5 -48t8.5 -79 q0 -178 -115.5 -274.5t-320.5 -96.5q-35 0 -67 5t-48 11q-16 -10 -25.5 -29.5t-9.5 -37.5q0 -43 51.5 -56.5t153.5 -13.5q111 0 203 -13.5t158.5 -49t103.5 -100t37 -165.5q0 -104 -39 -176.5t-110.5 -120t-175 -69t-232.5 -21.5q-117 0 -211 17.5t-161 56.5t-102.5 101.5 t-35.5 152.5zM311 -168q0 -43 19.5 -70.5t54.5 -44t82 -22.5t102 -6q123 0 189.5 33.5t66.5 107.5q0 29 -12 49.5t-42 32.5t-82 18.5t-132 6.5q-59 0 -100 4t-76 14q-70 -41 -70 -123zM367 678q0 -78 43 -122t129 -44t128 44t42 122t-43 122t-127 44q-86 0 -129 -44 t-43 -122z" />
<glyph unicode="h" horiz-adv-x="1243" d="M145 16v1452q53 29 126 44.5t171 15.5v-311q0 -88 -7 -176.5t-19 -159.5h16q35 78 113 129t219 51q59 0 120.5 -14.5t112 -56.5t82 -118.5t31.5 -203.5v-652q-20 -10 -57 -17t-90 -7t-90 7t-60 17v598q0 82 -35 130.5t-127 48.5q-84 0 -132 -36t-77 -85v-656 q-20 -10 -57 -17t-90 -7t-90 7t-60 17z" />
<glyph unicode="i" horiz-adv-x="587" d="M115 1372q0 84 51 131t129 47q80 0 129 -45t49 -131q0 -92 -49 -139t-129 -47q-180 0 -180 184zM145 16v988q23 10 60 17t90 7t90 -7t57 -17v-988q-20 -10 -57 -17t-90 -7t-90 7t-60 17z" />
<glyph unicode="j" horiz-adv-x="600" d="M-49 -330q51 45 90 97.5t66.5 119t42 151.5t14.5 198v768q23 10 59.5 17t89.5 7t90 -7t58 -17v-678q0 -164 -20.5 -288t-60.5 -221.5t-102.5 -174t-144.5 -148.5q-63 16 -110.5 62.5t-71.5 113.5zM129 1372q0 84 51 131t129 47q80 0 129 -45t49 -131q0 -92 -49 -139 t-129 -47q-180 0 -180 184z" />
<glyph unicode="k" d="M145 16v1452q53 29 126 44.5t171 15.5v-854h103l241 342q16 6 50 11t69 5q63 0 115.5 -11t77.5 -28l-312 -432q78 -137 166 -273t197 -272q-23 -14 -66 -20t-96 -6q-59 0 -111.5 7t-78.5 19q-76 98 -138.5 197.5t-126.5 216.5h-90v-414q-20 -10 -57 -17t-90 -7t-90 7 t-60 17z" />
<glyph unicode="l" horiz-adv-x="667" d="M139 274v1194q53 29 126 44.5t171 15.5v-1204q0 -59 20.5 -79t65.5 -20q70 0 125 37q2 -17 2 -35q0 -49 -13 -103q-17 -72 -46 -118q-35 -23 -81 -35t-103 -12q-78 0 -129.5 23.5t-82 65.5t-43 100.5t-12.5 125.5z" />
<glyph unicode="m" horiz-adv-x="1857" d="M145 16v977q41 23 104.5 35t137.5 12l16 -168h17q18 37 46 72t68.5 60.5t94 41t123.5 15.5q45 0 89 -8.5t84 -27.5t71.5 -54t52.5 -88h16q33 72 110.5 125t215.5 53q57 0 116.5 -14.5t107.5 -56.5t78.5 -118.5t30.5 -203.5v-652q-20 -10 -57 -17t-90 -7t-90 7t-60 17v598 q0 80 -31.5 127t-119.5 47q-78 0 -124 -34.5t-73 -81.5q2 -14 3 -43t1 -62v-551q-20 -10 -56 -17t-89 -7t-89 7t-58 17v598q0 80 -32 127t-120 47q-78 0 -124 -34.5t-73 -81.5v-656q-20 -10 -57 -17t-90 -7t-90 7t-60 17z" />
<glyph unicode="n" horiz-adv-x="1232" d="M145 16v977q41 23 104.5 35t137.5 12l16 -168h17q37 80 117.5 134.5t222.5 54.5q57 0 117.5 -14.5t109.5 -56.5t81 -118.5t32 -203.5v-652q-20 -10 -57 -17t-91 -7q-53 0 -90 7t-59 17v598q0 80 -33 127t-125 47q-80 0 -127 -34.5t-76 -81.5v-656q-20 -10 -57 -17t-90 -7 t-90 7t-60 17z" />
<glyph unicode="o" horiz-adv-x="1187" d="M84 526q0 125 37 224.5t104.5 169t160.5 105.5t208 36q117 0 211 -35t160.5 -102.5t102.5 -167t36 -230.5q0 -279 -136.5 -423t-373.5 -144q-248 0 -379 140.5t-131 426.5zM389 524q0 -154 51.5 -237.5t153.5 -83.5q106 0 155.5 84t49.5 237q0 135 -53.5 214t-151.5 79 q-104 0 -154.5 -79t-50.5 -214z" />
<glyph unicode="p" horiz-adv-x="1218" d="M145 -477v1470q45 23 109.5 35t132.5 12l16 -166h17q41 100 128 143.5t191 43.5q100 0 175 -38t125.5 -105.5t75 -163t24.5 -207.5q0 -139 -35 -249t-100.5 -184.5t-158.5 -114.5t-208 -40q-55 0 -106.5 9t-88.5 28v-473q-20 -10 -57 -17.5t-90 -7.5t-90 7.5t-60 17.5z M438 246q27 -10 62 -17.5t73 -7.5q139 0 200 84t61 221q0 141 -55.5 206t-153.5 65q-68 0 -113 -28t-74 -64v-459z" />
<glyph unicode="q" horiz-adv-x="1210" d="M80 467q0 145 41 257t117.5 186.5t185 112.5t246.5 38q233 0 401 -109v-1429q-20 -10 -57 -17.5t-90 -7.5t-90 7.5t-60 17.5v254q0 82 6 176t21 166h-17q-29 -61 -99.5 -110.5t-192.5 -49.5q-78 0 -153 26.5t-132 87t-92 158t-35 236.5zM385 496q0 -141 52 -207t153 -66 q72 0 116 29t72 67v476q-43 22 -113 22h-6q-143 0 -208.5 -85t-65.5 -236z" />
<glyph unicode="r" horiz-adv-x="835" d="M145 16v977q41 23 103.5 35t136.5 12l21 -188h16q10 43 28.5 81t49 66.5t76 45t108.5 16.5q59 0 96 -19q23 -39 33 -83t10 -103q0 -45 -5 -73.5t-13 -51.5q-29 16 -61.5 25.5t-79.5 9.5q-78 0 -135.5 -49t-86.5 -129v-572q-20 -10 -57 -17t-90 -7t-90 7t-60 17z" />
<glyph unicode="s" horiz-adv-x="944" d="M75 219v10q0 29 5 52q31 -20 74 -37t89 -29t93 -19.5t90 -7.5q78 0 111.5 24t33.5 71q0 41 -34.5 64.5t-86 42t-113 40t-112.5 58t-86 93t-35 148.5q0 158 97.5 245t283.5 87q78 0 155 -16.5t136 -53.5q14 -23 24.5 -53.5t17.5 -64t9 -68.5q1 -12 1 -23q0 -22 -3 -43 q-70 43 -150.5 69t-156.5 26q-66 0 -90.5 -20.5t-24.5 -57.5t35 -59.5t87.5 -41t112.5 -40t112.5 -57.5t87 -93t34.5 -148q0 -98 -32.5 -166.5t-90 -110.5t-138.5 -61.5t-175 -19.5q-80 0 -163 13.5t-148 43.5q-16 27 -27.5 62t-16.5 70.5t-6 70.5z" />
<glyph unicode="t" horiz-adv-x="835" d="M25 766q0 66 10 135.5t31 118.5h116v221q55 41 133 60.5t164 21.5v-303h273q10 -18 14 -53t4 -74t-4 -74t-14 -53h-273v-385q0 -74 28 -112t111 -38q47 0 93.5 11.5t93.5 44.5q2 -16 2 -33.5t-2 -36.5q-4 -37 -13.5 -72.5t-22.5 -66.5t-28 -51q-45 -33 -100 -50.5 t-133 -17.5q-94 0 -156.5 27.5t-100.5 77t-53.5 119t-15.5 153.5v430h-157z" />
<glyph unicode="u" horiz-adv-x="1222" d="M133 354v625q53 29 126 45t171 16v-634q0 -84 32 -128.5t122 -44.5q72 0 120 27t76 62v682q23 10 60 17t90 7t90 -7t57 -17v-977q-41 -23 -100 -35t-131 -12l-35 143h-16q-35 -70 -111 -117t-211 -47q-59 0 -119.5 14.5t-109.5 56.5t-80 119.5t-31 204.5z" />
<glyph unicode="v" horiz-adv-x="1095" d="M18 991q29 18 72 29.5t109 11.5q47 0 77.5 -6t45.5 -12l165 -529q20 -66 36 -129t28 -135h16q20 135 60 264l155 529q16 6 45 12t78 6q63 0 106.5 -11t71.5 -30l-323 -971q-82 -23 -188.5 -31.5t-217.5 -8.5z" />
<glyph unicode="w" horiz-adv-x="1736" d="M33 991q27 18 68.5 29.5t103.5 11.5q45 0 74.5 -6t44.5 -12l98 -400q20 -84 38.5 -190.5t28.5 -202.5h17q6 84 22.5 181.5t32.5 162.5l109 426q70 27 172 39t221 12l123 -499q16 -72 32.5 -151t30.5 -171h17q12 94 28.5 196.5t36.5 184.5l99 412q14 6 41.5 12t74.5 6 q57 0 96 -11t66 -28l-252 -981q-76 -23 -177 -32t-206 -9l-121 435q-23 82 -45 186t-35 199h-16q-10 -94 -29.5 -196.5t-42.5 -186.5l-106 -394q-78 -23 -180.5 -33t-206.5 -10z" />
<glyph unicode="x" horiz-adv-x="1124" d="M37 16l356 523l-303 452q29 18 74 29.5t110 11.5q49 0 82 -6t47 -12l111 -168q16 -25 31.5 -54.5t23.5 -58.5h17q6 29 20.5 58.5t30.5 54.5l102 168q14 6 46 12t79 6q63 0 107.5 -11t70.5 -30l-303 -465l348 -510q-20 -12 -60 -19t-91 -7q-57 0 -106.5 7t-71.5 17 l-137 201q-18 29 -34 56.5t-24 56.5h-16q-6 -29 -22.5 -57.5t-32.5 -55.5l-134 -201q-25 -10 -70.5 -17t-103.5 -7q-104 0 -147 26z" />
<glyph unicode="y" horiz-adv-x="1091" d="M10 991q29 18 73 29.5t110 11.5q47 0 78.5 -6t45.5 -12l189 -525q8 -25 17 -58.5t17.5 -71t14.5 -78.5t10 -78h17q8 72 21 153.5t30 139.5l151 518q16 6 45 12t78 6q61 0 104.5 -11t71.5 -30l-149 -465q-55 -178 -116.5 -342t-141.5 -295q-88 -143 -209 -240.5 t-301 -156.5q-53 41 -90 108.5t-45 141.5q123 33 209 96.5t143 145.5z" />
<glyph unicode="z" horiz-adv-x="999" d="M76 203l450 559v16h-438q0 61 10.5 128t28.5 114h741q16 -43 26.5 -96.5t10.5 -112.5l-436 -549v-16h444q8 -18 13.5 -51t5.5 -72t-5 -72t-14 -51h-802q-16 41 -25.5 94t-9.5 109z" />
<glyph unicode="{" horiz-adv-x="710" d="M41 496q0 66 11 134t30 111q37 6 61.5 17.5t38 35t19.5 59.5t6 89v246q0 92 19.5 176t71.5 148.5t145.5 104.5t242.5 40q0 -72 -12 -135.5t-37 -110.5q-78 -6 -111.5 -46t-33.5 -128v-322q0 -115 -34 -187.5t-122 -100.5v-17q84 -23 120 -91t36 -181v-377q0 -100 43 -140 t139 -44q8 -23 10 -57.5t0 -71.5t-9 -71t-20 -52q-145 0 -234 34.5t-136 96t-62.5 144.5t-15.5 182v309q0 43 -6 79t-23.5 61.5t-50.5 42t-86 22.5z" />
<glyph unicode="|" horiz-adv-x="581" d="M160 -387v1935q100 41 262 41v-1976q-37 -20 -131 -21q-90 0 -131 21z" />
<glyph unicode="}" horiz-adv-x="710" d="M28 -280.5q3 34.5 11 57.5q104 2 142 49t38 158v338q0 123 37 192.5t119 93.5v17q-92 29 -124 98.5t-32 175.5v330q0 98 -40 138t-136 48q0 61 18.5 127t47.5 111q129 -16 206.5 -56.5t119.5 -99.5t55.5 -136t13.5 -167v-254q0 -43 5 -79t18.5 -61.5t38 -41t63.5 -17.5 q20 -47 31.5 -112.5t11.5 -132.5q-104 -6 -136 -52.5t-32 -138.5v-307q0 -117 -18.5 -204t-67.5 -146.5t-136 -90t-225 -32.5q-12 18 -19 52t-10 71t0 71.5z" />
<glyph unicode="~" d="M78 575q29 92 101.5 143.5t180.5 51.5q70 0 119 -18.5t92 -40t86 -40t99 -18.5q53 0 82.5 26t42.5 66q55 -2 114.5 -21t89.5 -54q-35 -121 -117.5 -198t-211.5 -77q-78 0 -129.5 18.5t-93 41t-83.5 41t-102 18.5q-59 0 -96 -35t-55 -86q-43 29 -74 78t-45 104z" />
<glyph unicode="&#xa1;" horiz-adv-x="649" d="M147 -422l39 952q31 16 71 24.5t95 8.5q72 0 111 -16l43 -969q-25 -12 -69 -20.5t-109 -8.5q-66 0 -110 8.5t-71 20.5zM150 881q0 82 50 129t128 47t127 -45t49 -129q0 -90 -49 -137.5t-127 -47.5q-86 0 -132 46.5t-46 136.5z" />
<glyph unicode="&#xa2;" d="M147 690q0 225 105.5 356.5t277.5 174.5v155q98 39 250 39v-180q111 -12 176 -51q16 -23 28.5 -54.5t20 -67.5t9.5 -74t-4 -68q-57 33 -113.5 48t-130.5 15q-143 0 -228 -64.5t-85 -209.5t85 -211t228 -66q76 0 142.5 15.5t123.5 44.5q4 -31 0 -69t-14 -75t-27.5 -69.5 t-38.5 -53.5q-35 -16 -78 -29.5t-96 -19.5v-164q-35 -20 -125 -20q-88 0 -125 20v170q-186 35 -283.5 168t-97.5 340z" />
<glyph unicode="&#xa3;" d="M86 612q0 27 3 60t7 64.5t11.5 60t15.5 49.5h119q-14 37 -21.5 83t-7.5 105q0 199 121 308.5t336 109.5q92 0 166.5 -19.5t132.5 -54.5q20 -23 34.5 -59.5t22.5 -76.5t10 -79t0 -69q-61 41 -146 69.5t-173 28.5q-92 0 -145.5 -41t-53.5 -150q0 -41 8.5 -84t20.5 -71h346 q6 -14 12 -45t6 -72q0 -43 -6 -71.5t-12 -45.5h-295q2 -10 2 -22v-19q0 -39 -8 -82t-26.5 -83.5t-45 -75.5t-63.5 -58v-16h647q10 -18 15 -53t5 -76q0 -39 -5 -74t-15 -53h-899q-23 49 -37 111.5t-16 134.5q147 131 147 286q0 47 -8 80h-205z" />
<glyph unicode="&#xa4;" d="M66 291l135 149q-76 111 -76 279q0 154 76 258l-135 156q29 53 83 95t123 62l127 -160q79 33 183 33q109 0 190 -35l127 162q63 -23 115.5 -63.5t83.5 -91.5l-135 -154q76 -106 75 -262q0 -84 -20.5 -151.5t-54.5 -121.5l137 -155q-29 -51 -83 -94t-124 -64l-127 158 q-41 -18 -88 -26.5t-96 -8.5q-111 0 -193 35l-123 -160q-63 23 -115.5 65t-84.5 95zM385 719q0 -117 52 -178.5t145 -61.5q86 0 141 62.5t55 177.5q0 111 -55 166t-141 55q-88 0 -142.5 -58.5t-54.5 -162.5z" />
<glyph unicode="&#xa5;" d="M29 1384q45 29 157 29q109 0 160 -29l146 -325q27 -59 53 -150.5t39 -175.5h16q12 84 35.5 176t50.5 150l145 325q49 29 152 29q57 0 91 -7t59 -22l-205 -442h141q8 -16 12 -45t4 -63q0 -35 -4 -65t-12 -46h-244l-77 -168h321q8 -16 12 -45t4 -64t-4 -64.5t-12 -45.5 h-340v-318q-47 -27 -149 -26q-102 0 -152 26v318h-362q0 59 9 116.5t25 102.5h310l-78 168h-266q0 59 9 116.5t25 102.5h131z" />
<glyph unicode="&#xa6;" horiz-adv-x="581" d="M160 365q100 41 262 41v-793q-37 -20 -131 -21q-90 0 -131 21v752zM160 827v721q100 41 262 41v-762q-37 -20 -131 -20q-90 0 -131 20z" />
<glyph unicode="&#xa7;" d="M102 -100q59 -35 161 -62.5t200 -27.5q106 0 153.5 42t47.5 119q0 70 -40 116t-99.5 84t-130 76t-130 91t-99.5 131t-40 195q0 135 53 226t127 154q-8 23 -10 44.5t-2 46.5q0 186 106.5 279t292.5 93q78 0 147.5 -17t123.5 -52q29 -45 41 -113t6 -125q-57 37 -136 63.5 t-161 26.5q-92 0 -127 -32.5t-35 -94.5q0 -57 38 -95t94 -70.5t122.5 -67.5t123 -87t94.5 -127t38 -190q0 -111 -49 -210t-117 -158q14 -33 22.5 -74t8.5 -90q0 -115 -34 -192.5t-94.5 -125t-143.5 -68t-179 -20.5q-188 0 -323 68q-29 51 -43.5 119.5t-6.5 124.5zM377 702 q0 -74 37 -123t92 -87.5t121.5 -74.5t128.5 -83q23 29 36 66.5t13 91.5q0 76 -37 127t-92 90t-119.5 72.5t-122.5 76.5q-25 -27 -41 -67t-16 -89z" />
<glyph unicode="&#xa8;" horiz-adv-x="962" d="M90 1331q0 66 42 105t110 39q63 0 104 -36t41 -108q0 -74 -40 -111.5t-105 -37.5q-152 0 -152 149zM578 1331q0 66 41.5 105t107.5 39t105.5 -36t39.5 -108q0 -74 -39.5 -111.5t-105.5 -37.5q-150 0 -149 149z" />
<glyph unicode="&#xa9;" horiz-adv-x="1665" d="M84 700q0 162 57.5 300.5t157.5 238.5t237.5 156.5t299.5 56.5q160 0 297 -56.5t236 -156.5t155.5 -236t56.5 -298q0 -164 -55.5 -301.5t-155.5 -237.5t-237.5 -156.5t-301.5 -56.5t-301 55t-236 153.5t-154.5 236t-55.5 302.5zM250 702q0 -131 43 -240.5t119.5 -188 t184.5 -123t237 -44.5q131 0 237.5 44.5t183 123t118.5 188t42 240.5q0 125 -42 235t-118.5 189.5t-183 125.5t-237.5 46q-129 0 -237 -45t-184.5 -124.5t-119.5 -188.5t-43 -238zM440 694q0 211 123 322.5t330 111.5q117 0 184 -36q31 -43 43 -107t4 -117q-47 23 -90 33 t-98 10q-109 0 -174.5 -48t-65.5 -156q0 -111 65.5 -157t172.5 -46q55 0 109.5 10t97.5 29q2 -23 -1 -53.5t-12.5 -61.5t-22.5 -59.5t-30 -46.5q-39 -20 -98 -30.5t-119 -10.5q-199 0 -308.5 109.5t-109.5 303.5z" />
<glyph unicode="&#xaa;" horiz-adv-x="827" d="M70 852q0 125 79.5 180t202.5 55q31 0 65 -3t62 -13v27q0 45 -30.5 67.5t-102.5 22.5q-59 0 -120.5 -15.5t-102.5 -39.5q-12 41 -7 96t29 92q43 20 104.5 32.5t141.5 12.5q154 0 230.5 -59.5t76.5 -210.5v-224q0 -31 12.5 -41t32.5 -10q16 0 34 5t28 14q8 -41 -3 -89.5 t-32 -76.5q-23 -14 -52.5 -23.5t-74.5 -9.5q-66 0 -100.5 23.5t-44.5 64.5h-13q-29 -39 -74.5 -63.5t-117.5 -24.5q-43 0 -84 11.5t-72 36t-49 64.5t-18 99zM76 365q0 41 6 91t22 85h648q8 -12 12 -37t4 -51q0 -25 -4 -50.5t-12 -37.5h-676zM283 877q0 -35 24.5 -53.5 t67.5 -18.5q29 0 56.5 9t49.5 34v94q-16 6 -38.5 9t-45.5 3q-115 0 -114 -77z" />
<glyph unicode="&#xab;" horiz-adv-x="1275" d="M121 532q47 115 99 213.5t116 202.5q51 29 136 43.5t177 14.5q-59 -111 -111.5 -223.5t-99.5 -223.5q41 -98 90.5 -200.5t102.5 -200.5q-47 -51 -107.5 -77t-134.5 -36q-78 117 -149.5 246t-118.5 241zM643 532q47 115 99.5 213.5t115.5 202.5q51 29 136 43.5t177 14.5 q-59 -111 -111 -223.5t-99 -223.5q41 -98 90 -200.5t102 -200.5q-47 -51 -107.5 -77t-134.5 -36q-78 117 -149.5 246t-118.5 241z" />
<glyph unicode="&#xac;" d="M72 492q0 63 10 141t31 123h944v-520q-20 -10 -56 -17.5t-86 -7.5q-49 0 -84.5 7t-56.5 18v256h-702z" />
<glyph unicode="&#xad;" horiz-adv-x="774" d="M72 440q0 70 10 141.5t33 125.5h561q10 -20 14 -56.5t4 -77.5t-4 -76.5t-14 -56.5h-604z" />
<glyph unicode="&#xae;" horiz-adv-x="1236" d="M68 1122q0 121 41 222.5t114.5 175t174 115.5t220.5 42q119 0 220.5 -41t175 -114.5t114.5 -176t41 -223.5t-41 -222t-114.5 -176t-175 -117t-220.5 -42q-123 0 -224 41t-174 115t-112.5 176t-39.5 225zM207 1122q0 -94 28.5 -173t83 -135t130 -87t169.5 -31t171 31 t130.5 87t83 135t29.5 173q0 92 -29.5 170t-84 135.5t-130 89t-170.5 31.5q-92 0 -168.5 -31.5t-130 -88t-83 -135.5t-29.5 -171zM393 885v485q41 16 97.5 22.5t103.5 6.5q125 0 196.5 -43t71.5 -139t-74 -148l111 -184q-23 -14 -88 -15q-66 0 -100 15l-76 135 q-10 -2 -29 -2q-29 0 -45 4v-137q-8 -6 -27.5 -10.5t-56.5 -4.5t-56.5 4.5t-27.5 10.5zM559 1155q20 -4 53 -4q37 0 58.5 14.5t21.5 46.5q0 31 -22.5 43.5t-65.5 12.5q-25 0 -45 -6v-107z" />
<glyph unicode="&#xaf;" horiz-adv-x="962" d="M139 1219q0 49 8.5 107t26.5 101h623q10 -16 15 -43.5t5 -60.5q0 -31 -5 -60.5t-15 -43.5h-658z" />
<glyph unicode="&#xb0;" horiz-adv-x="716" d="M29 1139q0 150 89 231.5t228 81.5q141 0 227 -80t86 -233q0 -154 -86 -238t-227 -84q-154 0 -235.5 84t-81.5 238zM248 1139q0 -63 24.5 -99t73.5 -36q47 0 70.5 36.5t23.5 98.5q0 59 -23.5 93t-70.5 34q-51 0 -74.5 -34t-23.5 -93z" />
<glyph unicode="&#xb1;" d="M125 0q0 29 3 63.5t7 69.5t11.5 65.5t17.5 51.5h854q6 -14 12 -46t6 -79t-6 -79t-12 -46h-893zM131 682q0 31 3 64.5t8 67.5t12.5 63.5t17.5 50.5h277v274q51 23 120.5 32t147.5 9v-315h291q8 -16 14 -48t6 -75q0 -41 -6 -74t-14 -49h-291v-293q-14 -12 -50 -18t-83 -6 t-83 6t-52 18v293h-318z" />
<glyph unicode="&#xb2;" horiz-adv-x="788" d="M74 956q55 45 115.5 90.5t111.5 91.5t84 92t33 95q0 39 -24.5 59.5t-82.5 20.5q-57 0 -115.5 -18.5t-105.5 -51.5q-6 55 7.5 111.5t39.5 97.5q41 27 100.5 43.5t137.5 16.5q66 0 121 -14.5t95 -45.5t62.5 -78t22.5 -110q0 -104 -69.5 -196.5t-190.5 -158.5v-10h272 q6 -14 11.5 -40.5t5.5 -59.5q0 -31 -4.5 -60.5t-10.5 -44.5h-592q-14 35 -19 78t-5 92z" />
<glyph unicode="&#xb3;" horiz-adv-x="788" d="M80 1001q47 -18 114.5 -30.5t131.5 -12.5q55 0 90 14.5t35 53.5q0 18 -11.5 32.5t-39 24t-75.5 13.5t-122 4q-14 39 -10 91t18 85q102 0 160.5 20.5t58.5 67.5q0 51 -96 51q-59 0 -116.5 -15.5t-106.5 -37.5q-6 43 6 101.5t47 99.5q37 18 98.5 29.5t126.5 11.5 q63 0 115.5 -11.5t91.5 -37t60.5 -65.5t21.5 -97q0 -70 -35 -117t-100 -62v-10q72 -18 113.5 -61t41.5 -127q0 -66 -27.5 -113t-75.5 -76.5t-113.5 -44t-141.5 -14.5q-55 0 -112.5 7t-104.5 22q-27 47 -38 100t-5 104z" />
<glyph unicode="&#xb4;" horiz-adv-x="962" d="M252 1270l248 325q29 0 65.5 -6t73.5 -17t68.5 -27.5t54.5 -39.5l-363 -350q-49 12 -89 44t-58 71z" />
<glyph unicode="&#xb5;" horiz-adv-x="1306" d="M145 -477v1456q53 29 126 45t171 16v-618q0 -86 39 -135t135 -49q74 0 125.5 26.5t75.5 67.5v672q23 10 59.5 17t90.5 7q53 0 90 -7t57 -17v-695q0 -53 20.5 -67.5t53.5 -14.5q29 0 55.5 9.5t42.5 21.5q8 -61 -9 -132t-46 -114q-33 -25 -76 -39t-98 -14q-92 0 -135 35 t-58 84h-16q-20 -47 -77.5 -83t-162.5 -36q-150 0 -194 94h-17q23 -66 34 -158t11 -190v-182q-20 -10 -57 -17.5t-90 -7.5t-90 7.5t-60 17.5z" />
<glyph unicode="&#xb6;" horiz-adv-x="1286" d="M47 1044q0 213 145.5 325t471.5 112q127 0 245.5 -16.5t220.5 -53.5v-1755q-29 -18 -106 -18q-39 0 -65.5 5t-40.5 13v1610q-41 8 -78 11t-88 3v-1624q-29 -18 -107 -18q-39 0 -65.5 5t-40.5 13v1001q-23 -4 -43.5 -5t-42.5 -1q-74 0 -147 18.5t-130 63.5t-93 121 t-36 190z" />
<glyph unicode="&#xb7;" horiz-adv-x="567" d="M106 532q0 82 50.5 129.5t128.5 47.5t127 -45.5t49 -128.5q0 -90 -49.5 -137.5t-126.5 -47.5q-86 0 -132.5 46t-46.5 136z" />
<glyph unicode="&#xb8;" horiz-adv-x="962" d="M295 -379q53 8 94 32.5t41 67.5q0 39 -32.5 59.5t-78.5 31.5l64 194q82 33 205 33l-27 -133q53 -20 89 -63.5t36 -114.5q0 -55 -22.5 -98.5t-58.5 -74t-82 -50t-93 -25.5q-43 20 -80 57t-55 84z" />
<glyph unicode="&#xb9;" horiz-adv-x="788" d="M113 1335q4 53 18 110.5t31 90.5q27 8 69.5 18.5t93 19.5t107.5 17t115 13v-803q-12 -8 -42 -14.5t-77 -6.5t-78 6.5t-45 14.5v561z" />
<glyph unicode="&#xba;" horiz-adv-x="849" d="M66 1006q0 86 26.5 152.5t74.5 112.5t113.5 70.5t145.5 24.5q166 0 262 -92t96 -268q0 -174 -97 -269.5t-261 -95.5q-176 0 -268 95t-92 270zM94 365q0 41 6 91t23 85h618q8 -12 12.5 -37t4.5 -51q0 -25 -4 -50.5t-13 -37.5h-647zM291 1006q0 -86 33.5 -133.5 t101.5 -47.5t100.5 48.5t32.5 132.5q0 82 -33.5 130t-99.5 48q-70 0 -102.5 -48t-32.5 -130z" />
<glyph unicode="&#xbb;" horiz-adv-x="1275" d="M113 936q51 35 118.5 54.5t135.5 19.5q78 -123 145.5 -248t114.5 -227q-51 -111 -123 -239t-146 -249q-76 6 -137 38t-98 77q53 96 99 187t83 183q-45 102 -92 204t-100 200zM641 936q51 35 118.5 54.5t135.5 19.5q78 -123 145.5 -248t114.5 -227q-51 -111 -122.5 -239 t-145.5 -249q-76 6 -137.5 38t-98.5 77q53 96 99.5 187t83.5 183q-45 102 -92.5 204t-100.5 200z" />
<glyph unicode="&#xbc;" horiz-adv-x="1853" d="M31 1155q4 53 18 110.5t31 90.5q27 8 70 18t93 19.5t107.5 17.5t114.5 12v-802q-12 -8 -42 -14.5t-77 -6.5t-77.5 6t-45.5 15v561zM301 41l938 1444q139 0 236 -70l-981 -1505q-66 12 -115 46t-78 85zM1069 358l330 457q78 -2 153.5 -13t135.5 -34v-412h84q14 -33 14 -90 q0 -63 -17 -96h-81v-158q-16 -8 -42 -13t-73 -5q-88 0 -121 18v158h-354q-16 41 -22.5 91t-6.5 97zM1303 342q16 4 36.5 6t42.5 2h74v150q0 20 1 41.5t5 33.5h-10l-149 -223v-10z" />
<glyph unicode="&#xbd;" horiz-adv-x="1853" d="M31 1155q4 53 18 110.5t31 90.5q27 8 70 18t93 19.5t107.5 17.5t114.5 12v-802q-12 -8 -42 -14.5t-77 -6.5t-77.5 6t-45.5 15v561zM293 41l938 1444q139 0 235 -70l-981 -1505q-66 12 -114.5 46t-77.5 85zM1165 170q55 45 115.5 90t112 91t84 92t32.5 96q0 39 -24.5 59 t-81.5 20t-115.5 -18t-105.5 -51q-6 55 7 111.5t40 97.5q41 27 100.5 43t136.5 16q66 0 121 -14.5t95 -45t62.5 -77.5t22.5 -111q0 -104 -69.5 -196t-190.5 -158v-10h273q6 -14 11 -41t5 -60q0 -31 -4 -60.5t-10 -43.5h-592q-14 35 -19.5 78t-5.5 92z" />
<glyph unicode="&#xbe;" horiz-adv-x="1853" d="M63 821q47 -18 115 -30.5t131 -12.5q55 0 90 14.5t35 53.5q0 18 -11 32.5t-39 23.5t-76 13.5t-122 4.5q-14 39 -10 91t19 85q102 0 160.5 20.5t58.5 67.5q0 51 -97 51q-59 0 -116.5 -15.5t-106.5 -37.5q-6 43 6.5 101t46.5 99q37 18 98.5 29.5t127.5 11.5q63 0 115.5 -11 t91 -36.5t60.5 -65.5t22 -98q0 -70 -35 -116.5t-101 -61.5v-10q72 -18 114 -61t42 -127q0 -66 -27.5 -113t-76 -77t-114 -44t-140.5 -14q-55 0 -112.5 7t-105.5 21q-27 47 -38 100.5t-5 104.5zM383 41l938 1444q139 0 235 -70l-981 -1505q-66 12 -114.5 46t-77.5 85z M1098 358l329 457q78 -2 154 -13t135 -34v-412h84q14 -33 15 -90q0 -63 -17 -96h-82v-158q-16 -8 -41.5 -13t-72.5 -5q-88 0 -121 18v158h-355q-16 41 -22 91t-6 97zM1331 342q16 4 37 6t43 2h74v150q0 20 1 41.5t5 33.5h-10l-150 -223v-10z" />
<glyph unicode="&#xbf;" horiz-adv-x="899" d="M6 -158q0 86 28.5 149.5t73 111t95.5 82t95 66.5t72.5 64.5t28.5 73.5q0 35 -9 57.5t-36 49.5q41 47 102.5 76.5t127.5 33.5q53 -39 85.5 -97t32.5 -130q0 -74 -25.5 -127t-63.5 -95t-83 -75t-82.5 -62.5t-63.5 -62.5t-26 -72t32 -69.5t126 -30.5q92 0 187.5 35t173.5 94 q4 -35 0.5 -78t-12.5 -84t-24.5 -79t-33.5 -62q-66 -41 -158 -70.5t-221 -29.5q-203 0 -312.5 81.5t-109.5 249.5zM295 881q0 82 50 129t128 47t127 -45t49 -129q0 -90 -49 -137.5t-127 -47.5q-86 0 -132 46.5t-46 136.5z" />
<glyph unicode="&#xc0;" horiz-adv-x="1417" d="M29 20l495 1430q33 10 81 15t104 5q57 0 105 -5t81 -15l491 -1430q-45 -29 -159 -28q-59 0 -96 7t-64 21l-102 316h-519l-102 -316q-27 -16 -66.5 -22t-93.5 -6q-59 0 -95 7t-60 21zM325 1731q8 68 41 129t84 104l461 -229q0 -51 -20.5 -105.5t-55.5 -89.5zM522 588h363 l-78 241q-31 96 -54.5 204t-39.5 216h-17q-16 -113 -42.5 -223.5t-55.5 -202.5z" />
<glyph unicode="&#xc1;" horiz-adv-x="1417" d="M29 20l495 1430q33 10 81 15t104 5q57 0 105 -5t81 -15l491 -1430q-45 -29 -159 -28q-59 0 -96 7t-64 21l-102 316h-519l-102 -316q-27 -16 -66.5 -22t-93.5 -6q-59 0 -95 7t-60 21zM517 1731l479 233q47 -43 70.5 -106.5t25.5 -131.5l-510 -188q-31 35 -46 87t-19 106z M522 588h363l-78 241q-31 96 -54.5 204t-39.5 216h-17q-16 -113 -42.5 -223.5t-55.5 -202.5z" />
<glyph unicode="&#xc2;" horiz-adv-x="1417" d="M29 20l495 1430q33 10 81 15t104 5q57 0 105 -5t81 -15l491 -1430q-45 -29 -159 -28q-59 0 -96 7t-64 21l-102 316h-519l-102 -316q-27 -16 -66.5 -22t-93.5 -6q-59 0 -95 7t-60 21zM320 1739l244 153q23 10 56.5 18.5t82.5 8.5q43 0 74.5 -6t48.5 -10l272 -179 q-10 -59 -36.5 -106t-61.5 -72l-297 152l-314 -146q-31 31 -49 79t-20 108zM522 588h363l-78 241q-31 96 -54.5 204t-39.5 216h-17q-16 -113 -42.5 -223.5t-55.5 -202.5z" />
<glyph unicode="&#xc3;" horiz-adv-x="1417" d="M29 20l495 1430q33 10 81 15t104 5q57 0 105 -5t81 -15l491 -1430q-45 -29 -159 -28q-59 0 -96 7t-64 21l-102 316h-519l-102 -316q-27 -16 -66.5 -22t-93.5 -6q-59 0 -95 7t-60 21zM264 1647q6 51 26.5 98t57.5 82t89.5 56.5t119.5 21.5q57 0 96 -15.5t73 -33t67 -33 t76 -15.5q82 0 102 82q51 -2 95 -13t81 -38q-4 -49 -23.5 -97t-56.5 -86t-92 -60.5t-131 -22.5q-55 0 -93 15.5t-71 34.5t-66.5 34.5t-80.5 15.5q-37 0 -61.5 -22.5t-37.5 -63.5q-49 4 -92 17.5t-78 42.5zM522 588h363l-78 241q-31 96 -54.5 204t-39.5 216h-17 q-16 -113 -42.5 -223.5t-55.5 -202.5z" />
<glyph unicode="&#xc4;" horiz-adv-x="1417" d="M29 20l495 1430q33 10 81 15t104 5q57 0 105 -5t81 -15l491 -1430q-45 -29 -159 -28q-59 0 -96 7t-64 21l-102 316h-519l-102 -316q-27 -16 -66.5 -22t-93.5 -6q-59 0 -95 7t-60 21zM276 1729q0 68 44 107.5t116 39.5q63 0 106 -37t43 -110q0 -78 -42 -117t-107 -39 q-78 0 -119 39t-41 117zM522 588h363l-78 241q-31 96 -54.5 204t-39.5 216h-17q-16 -113 -42.5 -223.5t-55.5 -202.5zM823 1729q0 68 44 107.5t116 39.5q63 0 106 -37t43 -110q0 -78 -42 -117t-107 -39q-78 0 -119 39t-41 117z" />
<glyph unicode="&#xc5;" horiz-adv-x="1417" d="M29 20l479 1379q-80 63 -80 198q0 111 74 177.5t203 66.5q127 0 201.5 -64.5t74.5 -183.5q0 -123 -76 -186l481 -1387q-45 -29 -159 -28q-59 0 -96 7t-64 21l-102 316h-519l-102 -316q-27 -16 -66.5 -22t-93.5 -6q-59 0 -95 7t-60 21zM522 588h363l-78 241 q-31 96 -54.5 204t-39.5 216h-17q-16 -113 -42.5 -223.5t-55.5 -202.5zM604 1593q0 -96 101 -96q45 0 71.5 24.5t26.5 71.5q0 45 -25.5 70t-72.5 25q-45 0 -73 -26t-28 -69z" />
<glyph unicode="&#xc6;" horiz-adv-x="2127" d="M6 20l862 1436h1131q10 -18 15 -54t5 -77t-5 -77t-15 -54h-660v-330h609q20 -45 20 -129t-20 -129h-609v-342h676q10 -18 15.5 -54t5.5 -77t-5.5 -78t-15.5 -55h-981v379h-471l-211 -359q-63 -29 -188 -28q-123 0 -158 28zM709 631h325v590h-16q-10 -29 -24.5 -65 t-31 -75t-35 -74.5t-34.5 -64.5z" />
<glyph unicode="&#xc7;" horiz-adv-x="1318" d="M100 707q0 190 54.5 338.5t151.5 250t234.5 154.5t303.5 53q88 0 171 -15t140 -50q35 -51 50.5 -131t6.5 -148q-74 35 -145.5 53.5t-159.5 18.5q-109 0 -197.5 -28.5t-153 -90t-100.5 -157t-36 -228.5t34.5 -228.5t98 -154.5t149.5 -87t191 -28q98 0 188 20.5t156 49.5 q2 -29 -4 -65.5t-17.5 -74.5t-26.5 -73t-34 -59q-55 -27 -126 -46.5t-157 -25.5l-10 -53q57 -20 96 -66.5t39 -124.5q0 -61 -23.5 -107t-63.5 -80t-90 -54.5t-101 -28.5q-47 23 -86 62.5t-60 93.5q57 8 101.5 34.5t44.5 73.5q0 41 -36 63.5t-89 34.5l53 162 q-262 43 -404.5 235.5t-142.5 506.5z" />
<glyph unicode="&#xc8;" horiz-adv-x="1269" d="M176 0v1456h965q10 -18 15 -54t5 -77t-5 -77t-15 -54h-660v-330h609q20 -45 20 -129t-20 -129h-609v-342h676q10 -18 15.5 -54t5.5 -77t-5.5 -78t-15.5 -55h-981zM274 1731q8 68 41 129t84 104l461 -229q0 -51 -20.5 -105.5t-55.5 -89.5z" />
<glyph unicode="&#xc9;" horiz-adv-x="1269" d="M176 0v1456h965q10 -18 15 -54t5 -77t-5 -77t-15 -54h-660v-330h609q20 -45 20 -129t-20 -129h-609v-342h676q10 -18 15.5 -54t5.5 -77t-5.5 -78t-15.5 -55h-981zM482 1731l479 233q47 -43 70.5 -106.5t25.5 -131.5l-510 -188q-31 35 -46 87t-19 106z" />
<glyph unicode="&#xca;" horiz-adv-x="1269" d="M176 0v1456h965q10 -18 15 -54t5 -77t-5 -77t-15 -54h-660v-330h609q20 -45 20 -129t-20 -129h-609v-342h676q10 -18 15.5 -54t5.5 -77t-5.5 -78t-15.5 -55h-981zM295 1739l244 153q23 10 56.5 18.5t82.5 8.5q43 0 74.5 -6t48.5 -10l272 -179q-10 -59 -36.5 -106 t-61.5 -72l-297 152l-314 -146q-31 31 -49 79t-20 108z" />
<glyph unicode="&#xcb;" horiz-adv-x="1269" d="M176 0v1456h965q10 -18 15 -54t5 -77t-5 -77t-15 -54h-660v-330h609q20 -45 20 -129t-20 -129h-609v-342h676q10 -18 15.5 -54t5.5 -77t-5.5 -78t-15.5 -55h-981zM242 1729q0 68 44 107.5t116 39.5q63 0 106 -37t43 -110q0 -78 -42 -117t-107 -39q-78 0 -119 39t-41 117z M789 1729q0 68 44 107.5t116 39.5q63 0 106 -37t43 -110q0 -78 -42 -117t-107 -39q-78 0 -119 39t-41 117z" />
<glyph unicode="&#xcc;" horiz-adv-x="661" d="M-37 1731q8 68 41 129t84 104l461 -229q0 -51 -20.5 -105.5t-55.5 -89.5zM176 18v1420q49 27 156 26q106 0 153 -26v-1420q-47 -27 -153 -26q-106 0 -156 26z" />
<glyph unicode="&#xcd;" horiz-adv-x="661" d="M115 1731l479 233q47 -43 70.5 -106.5t25.5 -131.5l-510 -188q-31 35 -46 87t-19 106zM176 18v1420q49 27 156 26q106 0 153 -26v-1420q-47 -27 -153 -26q-106 0 -156 26z" />
<glyph unicode="&#xce;" horiz-adv-x="661" d="M-55 1739l244 153q23 10 56.5 18.5t82.5 8.5q43 0 74.5 -6t48.5 -10l272 -179q-10 -59 -36.5 -106t-61.5 -72l-297 152l-314 -146q-31 31 -49 79t-20 108zM176 18v1420q49 27 156 26q106 0 153 -26v-1420q-47 -27 -153 -26q-106 0 -156 26z" />
<glyph unicode="&#xcf;" horiz-adv-x="661" d="M-37 1729q0 68 44 107.5t116 39.5q63 0 106 -37t43 -110q0 -78 -42 -117t-107 -39q-78 0 -119 39t-41 117zM176 18v1420q49 27 156 26q106 0 153 -26v-1420q-47 -27 -153 -26q-106 0 -156 26zM387 1729q0 68 44 107.5t116 39.5q63 0 106 -37t43 -110q0 -78 -42 -117 t-107 -39q-78 0 -119 39t-41 117z" />
<glyph unicode="&#xd0;" horiz-adv-x="1507" d="M12 733q0 35 4 65.5t15 53.5h153v582q111 23 216.5 31t222.5 8q180 0 327.5 -44.5t254 -135.5t164.5 -229t58 -329q0 -193 -60 -334t-163.5 -234t-243 -138t-296.5 -45q-117 0 -240 4t-240 16v612h-153q-10 23 -14.5 53.5t-4.5 63.5zM494 262q43 -4 89 -6t89 -2 q205 0 320.5 114.5t115.5 352.5q0 127 -34 219t-96.5 151.5t-150.5 88t-194 28.5q-35 0 -70 -2t-69 -10v-344h344q10 -23 14 -53.5t4 -65.5q0 -33 -4 -63.5t-14 -53.5h-344v-354z" />
<glyph unicode="&#xd1;" horiz-adv-x="1587" d="M176 16v1430q37 10 87 15t116 5q68 0 117 -5t84 -15l395 -719q18 -35 37.5 -81t37 -96t31 -101.5t23.5 -96.5h16v1088q43 25 146 24q98 0 145 -24v-1430q-31 -10 -78 -15t-112 -5q-68 0 -115 5t-76 15l-418 758q-35 63 -69.5 164.5t-57.5 208.5h-16v-1125 q-43 -25 -147 -24q-100 0 -146 24zM348 1647q6 51 26.5 98t57.5 82t89.5 56.5t119.5 21.5q57 0 96 -15.5t73 -33t67 -33t76 -15.5q82 0 102 82q51 -2 95 -13t81 -38q-4 -49 -23.5 -97t-56.5 -86t-92 -60.5t-131 -22.5q-55 0 -93 15.5t-71 34.5t-66.5 34.5t-80.5 15.5 q-37 0 -61.5 -22.5t-37.5 -63.5q-49 4 -92 17.5t-78 42.5z" />
<glyph unicode="&#xd2;" horiz-adv-x="1595" d="M104 743q0 178 52.5 319.5t144.5 240t219 149.5t279 51q156 0 282.5 -49t218 -144.5t141.5 -237.5t50 -329q0 -193 -49 -340t-139.5 -247.5t-218.5 -151.5t-285 -51q-338 0 -516.5 195.5t-178.5 594.5zM417 1731q8 68 41 129t84 104l461 -229q0 -51 -20.5 -105.5 t-55.5 -89.5zM424 743q0 -252 97 -386t278 -134q184 0 278 134.5t94 385.5q0 231 -101 361.5t-271 130.5q-184 0 -279.5 -128t-95.5 -364z" />
<glyph unicode="&#xd3;" horiz-adv-x="1595" d="M104 743q0 178 52.5 319.5t144.5 240t219 149.5t279 51q156 0 282.5 -49t218 -144.5t141.5 -237.5t50 -329q0 -193 -49 -340t-139.5 -247.5t-218.5 -151.5t-285 -51q-338 0 -516.5 195.5t-178.5 594.5zM424 743q0 -252 97 -386t278 -134q184 0 278 134.5t94 385.5 q0 231 -101 361.5t-271 130.5q-184 0 -279.5 -128t-95.5 -364zM605 1731l479 233q47 -43 70.5 -106.5t25.5 -131.5l-510 -188q-31 35 -46 87t-19 106z" />
<glyph unicode="&#xd4;" horiz-adv-x="1595" d="M104 743q0 178 52.5 319.5t144.5 240t219 149.5t279 51q156 0 282.5 -49t218 -144.5t141.5 -237.5t50 -329q0 -193 -49 -340t-139.5 -247.5t-218.5 -151.5t-285 -51q-338 0 -516.5 195.5t-178.5 594.5zM414 1739l244 153q23 10 56.5 18.5t82.5 8.5q43 0 74.5 -6t48.5 -10 l272 -179q-10 -59 -36.5 -106t-61.5 -72l-297 152l-314 -146q-31 31 -49 79t-20 108zM424 743q0 -252 97 -386t278 -134q184 0 278 134.5t94 385.5q0 231 -101 361.5t-271 130.5q-184 0 -279.5 -128t-95.5 -364z" />
<glyph unicode="&#xd5;" horiz-adv-x="1595" d="M104 743q0 178 52.5 319.5t144.5 240t219 149.5t279 51q156 0 282.5 -49t218 -144.5t141.5 -237.5t50 -329q0 -193 -49 -340t-139.5 -247.5t-218.5 -151.5t-285 -51q-338 0 -516.5 195.5t-178.5 594.5zM358 1647q6 51 26.5 98t57.5 82t89.5 56.5t119.5 21.5 q57 0 96 -15.5t73 -33t67 -33t76 -15.5q82 0 102 82q51 -2 95 -13t81 -38q-4 -49 -23.5 -97t-56.5 -86t-92 -60.5t-131 -22.5q-55 0 -93 15.5t-71 34.5t-66.5 34.5t-80.5 15.5q-37 0 -61.5 -22.5t-37.5 -63.5q-49 4 -92 17.5t-78 42.5zM424 743q0 -252 97 -386t278 -134 q184 0 278 134.5t94 385.5q0 231 -101 361.5t-271 130.5q-184 0 -279.5 -128t-95.5 -364z" />
<glyph unicode="&#xd6;" horiz-adv-x="1595" d="M104 743q0 178 52.5 319.5t144.5 240t219 149.5t279 51q156 0 282.5 -49t218 -144.5t141.5 -237.5t50 -329q0 -193 -49 -340t-139.5 -247.5t-218.5 -151.5t-285 -51q-338 0 -516.5 195.5t-178.5 594.5zM342 1729q0 68 44 107.5t116 39.5q63 0 106 -37t43 -110 q0 -78 -42 -117t-107 -39q-78 0 -119 39t-41 117zM424 743q0 -252 97 -386t278 -134q184 0 278 134.5t94 385.5q0 231 -101 361.5t-271 130.5q-184 0 -279.5 -128t-95.5 -364zM946 1729q0 68 44 107.5t116 39.5q63 0 106 -37t43 -110q0 -78 -42 -117t-107 -39q-78 0 -119 39 t-41 117z" />
<glyph unicode="&#xd7;" d="M82 883q43 51 101.5 92t129.5 63l273 -272l264 268q139 -37 231 -145l-313 -309l309 -299q-20 -59 -71.5 -113.5t-116.5 -83.5l-305 303l-297 -303q-63 29 -114.5 81t-74.5 111l303 295z" />
<glyph unicode="&#xd8;" horiz-adv-x="1607" d="M35 61l176 203q-100 188 -100 479q0 178 52 319.5t144 240t219 149.5t279 51q115 0 214 -26.5t179 -79.5l145 170q66 -16 124.5 -62.5t84.5 -105.5l-168 -195q53 -86 83 -202.5t30 -258.5q0 -193 -49 -340t-139 -247.5t-218 -151.5t-286 -51q-125 0 -229.5 27.5 t-180.5 80.5l-162 -186q-61 20 -118.5 71.5t-79.5 114.5zM430 743q0 -68 6 -127t23 -110l563 653q-92 76 -217 76q-184 0 -279.5 -128t-95.5 -364zM580 303q88 -80 225 -80q184 0 278.5 134t94.5 386q0 125 -31 222z" />
<glyph unicode="&#xd9;" horiz-adv-x="1515" d="M156 524v914q49 27 155 26q106 0 154 -26v-887q0 -164 70.5 -242t224.5 -78q166 0 236.5 86t70.5 240v881q47 27 150 26q109 0 151 -26v-860q0 -147 -36 -263t-111.5 -196t-193.5 -123t-282 -43q-303 0 -446 145.5t-143 425.5zM385 1731q8 68 41 129t84 104l461 -229 q0 -51 -20.5 -105.5t-55.5 -89.5z" />
<glyph unicode="&#xda;" horiz-adv-x="1515" d="M156 524v914q49 27 155 26q106 0 154 -26v-887q0 -164 70.5 -242t224.5 -78q166 0 236.5 86t70.5 240v881q47 27 150 26q109 0 151 -26v-860q0 -147 -36 -263t-111.5 -196t-193.5 -123t-282 -43q-303 0 -446 145.5t-143 425.5zM560 1731l479 233q47 -43 70.5 -106.5 t25.5 -131.5l-510 -188q-31 35 -46 87t-19 106z" />
<glyph unicode="&#xdb;" horiz-adv-x="1515" d="M156 524v914q49 27 155 26q106 0 154 -26v-887q0 -164 70.5 -242t224.5 -78q166 0 236.5 86t70.5 240v881q47 27 150 26q109 0 151 -26v-860q0 -147 -36 -263t-111.5 -196t-193.5 -123t-282 -43q-303 0 -446 145.5t-143 425.5zM379 1739l244 153q23 10 56.5 18.5 t82.5 8.5q43 0 74.5 -6t48.5 -10l272 -179q-10 -59 -36.5 -106t-61.5 -72l-297 152l-314 -146q-31 31 -49 79t-20 108z" />
<glyph unicode="&#xdc;" horiz-adv-x="1515" d="M156 524v914q49 27 155 26q106 0 154 -26v-887q0 -164 70.5 -242t224.5 -78q166 0 236.5 86t70.5 240v881q47 27 150 26q109 0 151 -26v-860q0 -147 -36 -263t-111.5 -196t-193.5 -123t-282 -43q-303 0 -446 145.5t-143 425.5zM334 1729q0 68 44 107.5t116 39.5 q63 0 106 -37t43 -110q0 -78 -42 -117t-107 -39q-78 0 -119 39t-41 117zM881 1729q0 68 44 107.5t116 39.5q63 0 106 -37t43 -110q0 -78 -42 -117t-107 -39q-78 0 -119 39t-41 117z" />
<glyph unicode="&#xdd;" horiz-adv-x="1288" d="M23 1436q45 29 163 28q111 0 164 -28l191 -373q14 -31 30.5 -71t31.5 -84t27.5 -91t20.5 -90h17q6 41 16 87t23.5 91t28 86t30.5 72l188 373q49 29 160 28q59 0 94 -7t60 -21l-469 -942v-476q-47 -27 -154 -26q-106 0 -156 26v471zM459 1731l479 233q47 -43 70.5 -106.5 t25.5 -131.5l-510 -188q-31 35 -46 87t-19 106z" />
<glyph unicode="&#xde;" horiz-adv-x="1263" d="M176 18v1420q49 27 156 26q106 0 153 -26v-234q27 4 66 7t92 3q127 0 237.5 -24.5t191.5 -79.5t128 -146.5t47 -224.5q0 -127 -43 -219t-117.5 -151.5t-175 -88t-213.5 -28.5q-25 0 -53.5 1t-58 3t-56 4t-45.5 6v-248q-47 -27 -153 -26q-106 0 -156 26zM485 520 q12 -4 32 -6t43.5 -3t46 -2t40.5 -1q137 0 212 49t75 168q0 123 -79.5 176t-229.5 53q-78 0 -140 -12v-422z" />
<glyph unicode="&#xdf;" horiz-adv-x="1413" d="M145 16v889q0 178 43 301t120 200t180.5 111.5t224.5 34.5q76 0 154.5 -15t141 -51t102.5 -96.5t40 -150.5q0 -96 -35 -151.5t-76 -94.5t-75.5 -75.5t-34.5 -98.5q0 -51 32.5 -80.5t83 -53t108.5 -48.5t108.5 -62.5t83 -98t32.5 -157.5q0 -100 -32.5 -168.5t-91 -111.5 t-139.5 -61.5t-177 -18.5q-82 0 -163 13.5t-144 45.5q-16 27 -26.5 61t-16.5 70.5t-6 71.5t4 62q31 -18 71.5 -36t87 -31t93.5 -20.5t92 -7.5q84 0 122 26t38 79q0 47 -34 76.5t-84 55.5t-108.5 50.5t-108.5 62t-84 94t-34 142.5q0 100 35 158.5t77 96.5t76.5 71t34.5 84 q0 59 -47 87.5t-115 28.5q-117 0 -186.5 -89t-69.5 -300v-895q-20 -10 -57 -17t-90 -7t-90 7t-60 17z" />
<glyph unicode="&#xe0;" horiz-adv-x="1136" d="M63 287q0 94 32 159.5t88.5 106.5t132 60.5t165.5 19.5q100 0 187 -27v29q0 94 -47.5 132t-149.5 38q-90 0 -174 -22.5t-154 -63.5q-10 31 -12 67.5t2 74.5t14.5 73t28.5 59q55 31 146.5 49.5t205.5 18.5q111 0 193 -21.5t136 -68.5t81 -126t27 -192v-354 q0 -47 19.5 -62.5t49.5 -15.5q53 0 88 25q6 -61 -9 -129t-44 -111q-33 -23 -75 -35t-95 -12q-90 0 -137 38t-64 109h-16q-35 -68 -105.5 -107.5t-177.5 -39.5q-68 0 -129 17.5t-107 57.5t-73 101.5t-27 151.5zM217 1511q20 20 50 37t65 28t73 17t74 6l242 -339 q-25 -41 -69 -68t-103 -37zM360 307q0 -59 40 -83.5t102 -24.5q49 0 95 16t77 55v140q-61 25 -135 24q-90 0 -134.5 -33.5t-44.5 -93.5z" />
<glyph unicode="&#xe1;" horiz-adv-x="1136" d="M63 287q0 94 32 159.5t88.5 106.5t132 60.5t165.5 19.5q100 0 187 -27v29q0 94 -47.5 132t-149.5 38q-90 0 -174 -22.5t-154 -63.5q-10 31 -12 67.5t2 74.5t14.5 73t28.5 59q55 31 146.5 49.5t205.5 18.5q111 0 193 -21.5t136 -68.5t81 -126t27 -192v-354 q0 -47 19.5 -62.5t49.5 -15.5q53 0 88 25q6 -61 -9 -129t-44 -111q-33 -23 -75 -35t-95 -12q-90 0 -137 38t-64 109h-16q-35 -68 -105.5 -107.5t-177.5 -39.5q-68 0 -129 17.5t-107 57.5t-73 101.5t-27 151.5zM360 307q0 -59 40 -83.5t102 -24.5q49 0 95 16t77 55v140 q-61 25 -135 24q-90 0 -134.5 -33.5t-44.5 -93.5zM364 1270l248 325q29 0 65.5 -6t73.5 -17t69 -27.5t54 -39.5l-362 -350q-49 12 -89 44t-59 71z" />
<glyph unicode="&#xe2;" horiz-adv-x="1136" d="M63 287q0 94 32 159.5t88.5 106.5t132 60.5t165.5 19.5q100 0 187 -27v29q0 94 -47.5 132t-149.5 38q-90 0 -174 -22.5t-154 -63.5q-10 31 -12 67.5t2 74.5t14.5 73t28.5 59q55 31 146.5 49.5t205.5 18.5q111 0 193 -21.5t136 -68.5t81 -126t27 -192v-354 q0 -47 19.5 -62.5t49.5 -15.5q53 0 88 25q6 -61 -9 -129t-44 -111q-33 -23 -75 -35t-95 -12q-90 0 -137 38t-64 109h-16q-35 -68 -105.5 -107.5t-177.5 -39.5q-68 0 -129 17.5t-107 57.5t-73 101.5t-27 151.5zM196 1305l234 258q41 12 101 18t118 6l266 -313 q-23 -47 -62.5 -79t-89.5 -46l-223 223l-243 -235q-43 33 -67 75.5t-34 92.5zM360 307q0 -59 40 -83.5t102 -24.5q49 0 95 16t77 55v140q-61 25 -135 24q-90 0 -134.5 -33.5t-44.5 -93.5z" />
<glyph unicode="&#xe3;" horiz-adv-x="1136" d="M63 287q0 94 32 159.5t88.5 106.5t132 60.5t165.5 19.5q100 0 187 -27v29q0 94 -47.5 132t-149.5 38q-90 0 -174 -22.5t-154 -63.5q-10 31 -12 67.5t2 74.5t14.5 73t28.5 59q55 31 146.5 49.5t205.5 18.5q111 0 193 -21.5t136 -68.5t81 -126t27 -192v-354 q0 -47 19.5 -62.5t49.5 -15.5q53 0 88 25q6 -61 -9 -129t-44 -111q-33 -23 -75 -35t-95 -12q-90 0 -137 38t-64 109h-16q-35 -68 -105.5 -107.5t-177.5 -39.5q-68 0 -129 17.5t-107 57.5t-73 101.5t-27 151.5zM166 1280q16 90 79 147.5t157 57.5q53 0 90 -13.5t67.5 -29 t58 -28.5t62.5 -13q63 0 76 72q100 -5 170 -46q0 -49 -15.5 -94t-46 -79.5t-74.5 -56t-104 -21.5q-53 0 -88.5 13t-64.5 28.5t-57.5 29t-65.5 13.5q-35 0 -53.5 -23t-26.5 -51q-47 2 -94 29.5t-70 64.5zM360 307q0 -59 40 -83.5t102 -24.5q49 0 95 16t77 55v140 q-61 25 -135 24q-90 0 -134.5 -33.5t-44.5 -93.5z" />
<glyph unicode="&#xe4;" horiz-adv-x="1136" d="M63 287q0 94 32 159.5t88.5 106.5t132 60.5t165.5 19.5q100 0 187 -27v29q0 94 -47.5 132t-149.5 38q-90 0 -174 -22.5t-154 -63.5q-10 31 -12 67.5t2 74.5t14.5 73t28.5 59q55 31 146.5 49.5t205.5 18.5q111 0 193 -21.5t136 -68.5t81 -126t27 -192v-354 q0 -47 19.5 -62.5t49.5 -15.5q53 0 88 25q6 -61 -9 -129t-44 -111q-33 -23 -75 -35t-95 -12q-90 0 -137 38t-64 109h-16q-35 -68 -105.5 -107.5t-177.5 -39.5q-68 0 -129 17.5t-107 57.5t-73 101.5t-27 151.5zM154 1331q0 66 41.5 105t109.5 39q63 0 104.5 -36t41.5 -108 q0 -74 -40 -111.5t-106 -37.5q-152 0 -151 149zM360 307q0 -59 40 -83.5t102 -24.5q49 0 95 16t77 55v140q-61 25 -135 24q-90 0 -134.5 -33.5t-44.5 -93.5zM641 1331q0 66 42 105t108 39t105.5 -36t39.5 -108q0 -74 -40 -111.5t-105 -37.5q-150 0 -150 149z" />
<glyph unicode="&#xe5;" horiz-adv-x="1136" d="M63 287q0 94 32 159.5t88.5 106.5t132 60.5t165.5 19.5q100 0 187 -27v29q0 94 -47.5 132t-149.5 38q-90 0 -174 -22.5t-154 -63.5q-10 31 -12 67.5t2 74.5t14.5 73t28.5 59q55 31 146.5 49.5t205.5 18.5q111 0 193 -21.5t136 -68.5t81 -126t27 -192v-354 q0 -47 19.5 -62.5t49.5 -15.5q53 0 88 25q6 -61 -9 -129t-44 -111q-33 -23 -75 -35t-95 -12q-90 0 -137 38t-64 109h-16q-35 -68 -105.5 -107.5t-177.5 -39.5q-68 0 -129 17.5t-107 57.5t-73 101.5t-27 151.5zM287 1393q0 106 70.5 170.5t189.5 64.5q117 0 187.5 -61.5 t70.5 -173.5q0 -119 -70.5 -178.5t-187.5 -59.5q-127 0 -193.5 59.5t-66.5 178.5zM360 307q0 -59 40 -83.5t102 -24.5q49 0 95 16t77 55v140q-61 25 -135 24q-90 0 -134.5 -33.5t-44.5 -93.5zM451 1393q0 -92 96 -93q41 0 67.5 23t26.5 70q0 43 -25.5 66.5t-68.5 23.5 t-69.5 -24.5t-26.5 -65.5z" />
<glyph unicode="&#xe6;" horiz-adv-x="1710" d="M63 279q0 94 32 160.5t87.5 109.5t131 63.5t161.5 20.5q49 0 100.5 -6t92.5 -19v27q0 94 -47.5 132t-149.5 38q-90 0 -174 -22.5t-154 -63.5q-10 31 -12 67.5t2 74.5t14.5 73t28.5 59q55 31 146.5 49.5t205.5 18.5q121 0 202 -23.5t132 -83.5q61 53 145.5 80t182.5 27 q113 0 194.5 -33t135 -93.5t80 -144t26.5 -184.5q0 -49 -8 -100t-23 -92h-622q18 -213 317 -213q98 0 181 18.5t139 42.5q4 -59 -17.5 -124.5t-56.5 -106.5q-51 -29 -134 -50.5t-190 -21.5q-156 0 -267 47t-169 133h-16q-35 -72 -121 -126t-227 -54q-72 0 -135.5 16.5 t-110.5 54.5t-75 99t-28 150zM352 309q0 -59 40 -84.5t106 -25.5q124 0 194 94q-10 29 -15 61.5t-9 61.5q-29 8 -61 13t-70 5q-184 0 -185 -125zM965 629h383q6 39 0.5 77.5t-24.5 67.5t-55 47.5t-91 18.5q-96 0 -151.5 -56.5t-61.5 -154.5z" />
<glyph unicode="&#xe7;" horiz-adv-x="1013" d="M78 496q0 143 41 248.5t112.5 176t171 105.5t215.5 35q76 0 140.5 -13.5t109.5 -41.5q16 -23 28.5 -54.5t20 -67.5t9.5 -74t-4 -69q-55 33 -109.5 48.5t-126.5 15.5q-139 0 -221 -66.5t-82 -222.5q0 -154 82 -223.5t221 -69.5q74 0 138.5 15.5t119.5 44.5q4 -31 0 -69 t-14 -75t-27.5 -69.5t-38.5 -53.5q-41 -18 -90 -33.5t-110 -19.5l-13 -57q53 -20 89 -63.5t36 -114.5q0 -55 -22.5 -98.5t-58.5 -74t-82 -50t-93 -25.5q-43 20 -80 57t-55 84q53 8 94 32.5t41 67.5q0 39 -32.5 59.5t-77.5 31.5l51 159q-188 35 -285.5 171.5t-97.5 353.5z " />
<glyph unicode="&#xe8;" horiz-adv-x="1124" d="M78 498q0 129 37 232.5t105.5 177t165.5 113.5t218 40q113 0 195 -33t135 -93.5t79.5 -144t26.5 -184.5q0 -49 -8 -100t-22 -92h-623q18 -213 318 -213q98 0 181 18.5t138 42.5q4 -59 -17.5 -124.5t-56.5 -106.5q-51 -29 -134 -50.5t-189 -21.5q-270 0 -409.5 144.5 t-139.5 394.5zM248 1511q20 20 50 37t65 28t73 17t74 6l242 -339q-25 -41 -69 -68t-103 -37zM379 629h383q6 39 1 77.5t-24.5 67.5t-55.5 47.5t-91 18.5q-96 0 -151.5 -56.5t-61.5 -154.5z" />
<glyph unicode="&#xe9;" horiz-adv-x="1124" d="M78 498q0 129 37 232.5t105.5 177t165.5 113.5t218 40q113 0 195 -33t135 -93.5t79.5 -144t26.5 -184.5q0 -49 -8 -100t-22 -92h-623q18 -213 318 -213q98 0 181 18.5t138 42.5q4 -59 -17.5 -124.5t-56.5 -106.5q-51 -29 -134 -50.5t-189 -21.5q-270 0 -409.5 144.5 t-139.5 394.5zM379 629h383q6 39 1 77.5t-24.5 67.5t-55.5 47.5t-91 18.5q-96 0 -151.5 -56.5t-61.5 -154.5zM405 1270l248 325q29 0 65.5 -6t73.5 -17t69 -27.5t54 -39.5l-362 -350q-49 12 -89 44t-59 71z" />
<glyph unicode="&#xea;" horiz-adv-x="1124" d="M78 498q0 129 37 232.5t105.5 177t165.5 113.5t218 40q113 0 195 -33t135 -93.5t79.5 -144t26.5 -184.5q0 -49 -8 -100t-22 -92h-623q18 -213 318 -213q98 0 181 18.5t138 42.5q4 -59 -17.5 -124.5t-56.5 -106.5q-51 -29 -134 -50.5t-189 -21.5q-270 0 -409.5 144.5 t-139.5 394.5zM235 1305l234 258q41 12 101 18t118 6l266 -313q-23 -47 -62.5 -79t-89.5 -46l-223 223l-243 -235q-43 33 -67 75.5t-34 92.5zM379 629h383q6 39 1 77.5t-24.5 67.5t-55.5 47.5t-91 18.5q-96 0 -151.5 -56.5t-61.5 -154.5z" />
<glyph unicode="&#xeb;" horiz-adv-x="1124" d="M78 498q0 129 37 232.5t105.5 177t165.5 113.5t218 40q113 0 195 -33t135 -93.5t79.5 -144t26.5 -184.5q0 -49 -8 -100t-22 -92h-623q18 -213 318 -213q98 0 181 18.5t138 42.5q4 -59 -17.5 -124.5t-56.5 -106.5q-51 -29 -134 -50.5t-189 -21.5q-270 0 -409.5 144.5 t-139.5 394.5zM191 1331q0 66 41.5 105t109.5 39q63 0 104.5 -36t41.5 -108q0 -74 -40 -111.5t-106 -37.5q-152 0 -151 149zM379 629h383q6 39 1 77.5t-24.5 67.5t-55.5 47.5t-91 18.5q-96 0 -151.5 -56.5t-61.5 -154.5zM678 1331q0 66 42 105t108 39t105.5 -36t39.5 -108 q0 -74 -40 -111.5t-105 -37.5q-150 0 -150 149z" />
<glyph unicode="&#xec;" horiz-adv-x="587" d="M-37 1511q20 20 50 37t65 28t73 17t74 6l242 -339q-25 -41 -69 -68t-103 -37zM145 16v988q23 10 60 17t90 7t90 -7t57 -17v-988q-20 -10 -57 -17t-90 -7t-90 7t-60 17z" />
<glyph unicode="&#xed;" horiz-adv-x="587" d="M102 1270l248 325q29 0 65.5 -6t73.5 -17t69 -27.5t54 -39.5l-362 -350q-49 12 -89 44t-59 71zM145 16v988q23 10 60 17t90 7t90 -7t57 -17v-988q-20 -10 -57 -17t-90 -7t-90 7t-60 17z" />
<glyph unicode="&#xee;" horiz-adv-x="587" d="M-53 1305l234 258q41 12 101 18t118 6l266 -313q-23 -47 -62.5 -79t-89.5 -46l-223 223l-243 -235q-43 33 -67 75.5t-34 92.5zM145 16v988q23 10 60 17t90 7t90 -7t57 -17v-988q-20 -10 -57 -17t-90 -7t-90 7t-60 17z" />
<glyph unicode="&#xef;" horiz-adv-x="587" d="M-66 1331q0 66 42 105t110 39q63 0 104 -36t41 -108q0 -74 -39.5 -111.5t-105.5 -37.5q-152 0 -152 149zM145 16v988q23 10 60 17t90 7t90 -7t57 -17v-988q-20 -10 -57 -17t-90 -7t-90 7t-60 17zM356 1331q0 66 42 105t108 39t105.5 -36t39.5 -108q0 -74 -40 -111.5 t-105 -37.5q-150 0 -150 149z" />
<glyph unicode="&#xf0;" horiz-adv-x="1210" d="M76 442q0 106 27.5 200.5t84 165.5t140.5 112t196 41q92 0 167 -26t122 -101h16q-10 104 -57 187t-119 148l-354 -168q-23 49 -30 104.5t-7 106.5l184 86q-113 51 -227 74q14 53 47 102t72 80q111 -20 207 -53t174 -80l246 117q35 -33 59.5 -88t28.5 -104l-146 -70 q111 -113 167 -271.5t56 -365.5q0 -147 -32.5 -271t-102 -215.5t-177 -142.5t-257.5 -51q-227 0 -356 123t-129 360zM373 455q0 -117 58 -175.5t161 -58.5q72 0 119 29t75.5 77t40 108.5t11.5 123.5v31q0 14 -4 28q-41 41 -99.5 65t-126.5 24q-117 0 -176 -69t-59 -183z" />
<glyph unicode="&#xf1;" horiz-adv-x="1232" d="M145 16v977q41 23 104.5 35t137.5 12l16 -168h17q37 80 117.5 134.5t222.5 54.5q57 0 117.5 -14.5t109.5 -56.5t81 -118.5t32 -203.5v-652q-20 -10 -57 -17t-91 -7q-53 0 -90 7t-59 17v598q0 80 -33 127t-125 47q-80 0 -127 -34.5t-76 -81.5v-656q-20 -10 -57 -17t-90 -7 t-90 7t-60 17zM248 1280q16 90 79 147.5t157 57.5q53 0 90 -13.5t67.5 -29t58 -28.5t62.5 -13q63 0 76 72q100 -5 170 -46q0 -49 -15.5 -94t-46 -79.5t-74.5 -56t-104 -21.5q-53 0 -88.5 13t-64.5 28.5t-57.5 29t-65.5 13.5q-35 0 -53.5 -23t-26.5 -51q-47 2 -94 29.5 t-70 64.5z" />
<glyph unicode="&#xf2;" horiz-adv-x="1187" d="M84 526q0 125 37 224.5t104.5 169t160.5 105.5t208 36q117 0 211 -35t160.5 -102.5t102.5 -167t36 -230.5q0 -279 -136.5 -423t-373.5 -144q-248 0 -379 140.5t-131 426.5zM268 1511q20 20 50 37t65 28t73 17t74 6l242 -339q-25 -41 -69 -68t-103 -37zM389 524 q0 -154 51.5 -237.5t153.5 -83.5q106 0 155.5 84t49.5 237q0 135 -53.5 214t-151.5 79q-104 0 -154.5 -79t-50.5 -214z" />
<glyph unicode="&#xf3;" horiz-adv-x="1187" d="M84 526q0 125 37 224.5t104.5 169t160.5 105.5t208 36q117 0 211 -35t160.5 -102.5t102.5 -167t36 -230.5q0 -279 -136.5 -423t-373.5 -144q-248 0 -379 140.5t-131 426.5zM389 524q0 -154 51.5 -237.5t153.5 -83.5q106 0 155.5 84t49.5 237q0 135 -53.5 214t-151.5 79 q-104 0 -154.5 -79t-50.5 -214zM416 1270l248 325q29 0 65.5 -6t73.5 -17t69 -27.5t54 -39.5l-362 -350q-49 12 -89 44t-59 71z" />
<glyph unicode="&#xf4;" horiz-adv-x="1187" d="M84 526q0 125 37 224.5t104.5 169t160.5 105.5t208 36q117 0 211 -35t160.5 -102.5t102.5 -167t36 -230.5q0 -279 -136.5 -423t-373.5 -144q-248 0 -379 140.5t-131 426.5zM241 1305l234 258q41 12 101 18t118 6l266 -313q-23 -47 -62.5 -79t-89.5 -46l-223 223 l-243 -235q-43 33 -67 75.5t-34 92.5zM389 524q0 -154 51.5 -237.5t153.5 -83.5q106 0 155.5 84t49.5 237q0 135 -53.5 214t-151.5 79q-104 0 -154.5 -79t-50.5 -214z" />
<glyph unicode="&#xf5;" horiz-adv-x="1187" d="M84 526q0 125 37 224.5t104.5 169t160.5 105.5t208 36q117 0 211 -35t160.5 -102.5t102.5 -167t36 -230.5q0 -279 -136.5 -423t-373.5 -144q-248 0 -379 140.5t-131 426.5zM215 1280q16 90 79 147.5t157 57.5q53 0 90 -13.5t67.5 -29t58 -28.5t62.5 -13q63 0 76 72 q100 -5 170 -46q0 -49 -15.5 -94t-46 -79.5t-74.5 -56t-104 -21.5q-53 0 -88.5 13t-64.5 28.5t-57.5 29t-65.5 13.5q-35 0 -53.5 -23t-26.5 -51q-47 2 -94 29.5t-70 64.5zM389 524q0 -154 51.5 -237.5t153.5 -83.5q106 0 155.5 84t49.5 237q0 135 -53.5 214t-151.5 79 q-104 0 -154.5 -79t-50.5 -214z" />
<glyph unicode="&#xf6;" horiz-adv-x="1187" d="M84 526q0 125 37 224.5t104.5 169t160.5 105.5t208 36q117 0 211 -35t160.5 -102.5t102.5 -167t36 -230.5q0 -279 -136.5 -423t-373.5 -144q-248 0 -379 140.5t-131 426.5zM199 1331q0 66 41.5 105t109.5 39q63 0 104.5 -36t41.5 -108q0 -74 -40 -111.5t-106 -37.5 q-152 0 -151 149zM389 524q0 -154 51.5 -237.5t153.5 -83.5q106 0 155.5 84t49.5 237q0 135 -53.5 214t-151.5 79q-104 0 -154.5 -79t-50.5 -214zM694 1331q0 66 42 105t108 39t105.5 -36t39.5 -108q0 -74 -40 -111.5t-105 -37.5q-150 0 -150 149z" />
<glyph unicode="&#xf7;" d="M70 446q0 31 3 66t8 70.5t12 66.5t18 53h960q6 -14 12.5 -49t6.5 -80q0 -43 -6.5 -77.5t-12.5 -49.5h-1001zM436 180q0 66 41.5 104t104.5 38q66 0 105.5 -36t39.5 -104q0 -72 -40 -109.5t-105 -37.5q-145 0 -146 145zM436 969q0 66 41.5 103.5t104.5 37.5 q66 0 105.5 -36t39.5 -103q0 -72 -40 -110t-105 -38q-145 0 -146 146z" />
<glyph unicode="&#xf8;" horiz-adv-x="1208" d="M78 37l98 121q-90 137 -90 368q0 125 38 224.5t106.5 169t163.5 105.5t210 36q145 0 258 -53l101 125q55 -16 106 -53.5t76 -84.5l-111 -137q41 -63 64.5 -146t23.5 -186q0 -276 -139 -421.5t-379 -145.5q-147 0 -260 51l-139 -176q-39 29 -75 86t-52 117zM391 524 q0 -74 12 -125l314 385q-23 16 -50.5 24.5t-62.5 8.5q-109 0 -161 -79t-52 -214zM500 231q41 -29 104 -28q111 0 162 83.5t51 237.5q0 23 -2 45.5t-6 42.5z" />
<glyph unicode="&#xf9;" horiz-adv-x="1222" d="M133 354v625q53 29 126 45t171 16v-634q0 -84 32 -128.5t122 -44.5q72 0 120 27t76 62v682q23 10 60 17t90 7t90 -7t57 -17v-977q-41 -23 -100 -35t-131 -12l-35 143h-16q-35 -70 -111 -117t-211 -47q-59 0 -119.5 14.5t-109.5 56.5t-80 119.5t-31 204.5zM272 1511 q20 20 50 37t65 28t73 17t74 6l242 -339q-25 -41 -69 -68t-103 -37z" />
<glyph unicode="&#xfa;" horiz-adv-x="1222" d="M133 354v625q53 29 126 45t171 16v-634q0 -84 32 -128.5t122 -44.5q72 0 120 27t76 62v682q23 10 60 17t90 7t90 -7t57 -17v-977q-41 -23 -100 -35t-131 -12l-35 143h-16q-35 -70 -111 -117t-211 -47q-59 0 -119.5 14.5t-109.5 56.5t-80 119.5t-31 204.5zM430 1270 l248 325q29 0 65.5 -6t73.5 -17t69 -27.5t54 -39.5l-362 -350q-49 12 -89 44t-59 71z" />
<glyph unicode="&#xfb;" horiz-adv-x="1222" d="M133 354v625q53 29 126 45t171 16v-634q0 -84 32 -128.5t122 -44.5q72 0 120 27t76 62v682q23 10 60 17t90 7t90 -7t57 -17v-977q-41 -23 -100 -35t-131 -12l-35 143h-16q-35 -70 -111 -117t-211 -47q-59 0 -119.5 14.5t-109.5 56.5t-80 119.5t-31 204.5zM260 1305 l234 258q41 12 101 18t118 6l266 -313q-23 -47 -62.5 -79t-89.5 -46l-223 223l-243 -235q-43 33 -67 75.5t-34 92.5z" />
<glyph unicode="&#xfc;" horiz-adv-x="1222" d="M133 354v625q53 29 126 45t171 16v-634q0 -84 32 -128.5t122 -44.5q72 0 120 27t76 62v682q23 10 60 17t90 7t90 -7t57 -17v-977q-41 -23 -100 -35t-131 -12l-35 143h-16q-35 -70 -111 -117t-211 -47q-59 0 -119.5 14.5t-109.5 56.5t-80 119.5t-31 204.5zM219 1331 q0 66 41.5 105t109.5 39q63 0 104.5 -36t41.5 -108q0 -74 -40 -111.5t-106 -37.5q-152 0 -151 149zM706 1331q0 66 42 105t108 39t105.5 -36t39.5 -108q0 -74 -40 -111.5t-105 -37.5q-150 0 -150 149z" />
<glyph unicode="&#xfd;" horiz-adv-x="1091" d="M10 991q29 18 73 29.5t110 11.5q47 0 78.5 -6t45.5 -12l189 -525q8 -25 17 -58.5t17.5 -71t14.5 -78.5t10 -78h17q8 72 21 153.5t30 139.5l151 518q16 6 45 12t78 6q61 0 104.5 -11t71.5 -30l-149 -465q-55 -178 -116.5 -342t-141.5 -295q-88 -143 -209 -240.5 t-301 -156.5q-53 41 -90 108.5t-45 141.5q123 33 209 96.5t143 145.5zM373 1270l248 325q29 0 65.5 -6t73.5 -17t69 -27.5t54 -39.5l-362 -350q-49 12 -89 44t-59 71z" />
<glyph unicode="&#xfe;" horiz-adv-x="1220" d="M145 -477v1945q53 29 126 44.5t171 15.5v-330q0 -68 -6 -152.5t-16 -148.5h16q14 33 40 62.5t62.5 52t87 36t113.5 13.5q100 0 176 -38t126.5 -105.5t75 -163t24.5 -207.5q0 -139 -35 -249t-100.5 -184.5t-158.5 -114.5t-210 -40q-55 0 -106.5 9t-88.5 28v-473 q-20 -10 -57 -17.5t-90 -7.5t-90 7.5t-60 17.5zM438 246q27 -10 62 -17.5t73 -7.5q139 0 201 84t62 221q0 141 -55.5 206t-155.5 65q-68 0 -113 -28t-74 -64v-459z" />
<glyph unicode="&#xff;" horiz-adv-x="1091" d="M10 991q29 18 73 29.5t110 11.5q47 0 78.5 -6t45.5 -12l189 -525q8 -25 17 -58.5t17.5 -71t14.5 -78.5t10 -78h17q8 72 21 153.5t30 139.5l151 518q16 6 45 12t78 6q61 0 104.5 -11t71.5 -30l-149 -465q-55 -178 -116.5 -342t-141.5 -295q-88 -143 -209 -240.5 t-301 -156.5q-53 41 -90 108.5t-45 141.5q123 33 209 96.5t143 145.5zM174 1331q0 66 41.5 105t109.5 39q63 0 104.5 -36t41.5 -108q0 -74 -40 -111.5t-106 -37.5q-152 0 -151 149zM661 1331q0 66 42 105t108 39t105.5 -36t39.5 -108q0 -74 -40 -111.5t-105 -37.5 q-150 0 -150 149z" />
<glyph unicode="&#x152;" horiz-adv-x="2123" d="M98 713q0 184 50.5 328.5t142.5 244.5t220 152.5t286 52.5q70 0 133 -9t112 -26h953q10 -18 15 -54t5 -77t-5 -77t-15 -54h-660v-330h609q20 -45 20 -129t-20 -129h-609v-342h676q10 -18 15.5 -54t5.5 -77t-5.5 -78t-15.5 -55h-973q-47 -16 -108.5 -25.5t-136.5 -9.5 q-164 0 -293 51.5t-218 147.5t-136.5 234.5t-47.5 314.5zM418 725q0 -244 100 -366.5t311 -122.5q55 0 107.5 8t93.5 24v918q-41 16 -90 26.5t-113 10.5q-211 0 -310 -129t-99 -369z" />
<glyph unicode="&#x153;" horiz-adv-x="1835" d="M84 526q0 125 37 224.5t104.5 169t160.5 105.5t208 36q143 0 233.5 -43t120.5 -115h17q35 72 125 115t225 43q113 0 194.5 -33t135 -93.5t80 -144t26.5 -184.5q0 -49 -8 -100t-23 -92h-622q18 -213 317 -213q98 0 181 18.5t139 42.5q4 -59 -17.5 -124.5t-56.5 -106.5 q-51 -29 -134 -50.5t-190 -21.5q-57 0 -116.5 9t-110.5 28.5t-92 48.5t-62 68h-16q-33 -68 -125 -111t-221 -43q-248 0 -379 140.5t-131 426.5zM389 524q0 -154 51.5 -237.5t153.5 -83.5q106 0 155.5 84t49.5 237q0 135 -53.5 214t-151.5 79q-104 0 -154.5 -79t-50.5 -214z M1090 629h383q6 39 0.5 77.5t-24.5 67.5t-55 47.5t-91 18.5q-96 0 -151.5 -56.5t-61.5 -154.5z" />
<glyph unicode="&#x178;" horiz-adv-x="1288" d="M23 1436q45 29 163 28q111 0 164 -28l191 -373q14 -31 30.5 -71t31.5 -84t27.5 -91t20.5 -90h17q6 41 16 87t23.5 91t28 86t30.5 72l188 373q49 29 160 28q59 0 94 -7t60 -21l-469 -942v-476q-47 -27 -154 -26q-106 0 -156 26v471zM229 1729q0 68 44 107.5t116 39.5 q63 0 106 -37t43 -110q0 -78 -42 -117t-107 -39q-78 0 -119 39t-41 117zM776 1729q0 68 44 107.5t116 39.5q63 0 106 -37t43 -110q0 -78 -42 -117t-107 -39q-78 0 -119 39t-41 117z" />
<glyph unicode="&#x2c6;" horiz-adv-x="962" d="M119 1305l233 258q41 12 101.5 18t117.5 6l267 -313q-23 -47 -63 -79t-89 -46l-223 223l-244 -235q-43 33 -66.5 75.5t-33.5 92.5z" />
<glyph unicode="&#x2dc;" horiz-adv-x="962" d="M100 1280q16 90 79 147.5t157 57.5q53 0 90 -13.5t67.5 -29t58.5 -28.5t62 -13q63 0 76 72q100 -5 170 -46q0 -49 -15.5 -94t-46 -79.5t-74.5 -56t-103 -21.5q-53 0 -89 13t-65 28.5t-57.5 29t-65.5 13.5q-35 0 -53.5 -23t-26.5 -51q-47 2 -94 29.5t-70 64.5z" />
<glyph unicode="&#x2000;" horiz-adv-x="982" />
<glyph unicode="&#x2001;" horiz-adv-x="1964" />
<glyph unicode="&#x2002;" horiz-adv-x="982" />
<glyph unicode="&#x2003;" horiz-adv-x="1964" />
<glyph unicode="&#x2004;" horiz-adv-x="654" />
<glyph unicode="&#x2005;" horiz-adv-x="491" />
<glyph unicode="&#x2006;" horiz-adv-x="327" />
<glyph unicode="&#x2007;" horiz-adv-x="327" />
<glyph unicode="&#x2008;" horiz-adv-x="245" />
<glyph unicode="&#x2009;" horiz-adv-x="392" />
<glyph unicode="&#x200a;" horiz-adv-x="109" />
<glyph unicode="&#x2010;" horiz-adv-x="774" d="M72 440q0 70 10 141.5t33 125.5h561q10 -20 14 -56.5t4 -77.5t-4 -76.5t-14 -56.5h-604z" />
<glyph unicode="&#x2011;" horiz-adv-x="774" d="M72 440q0 70 10 141.5t33 125.5h561q10 -20 14 -56.5t4 -77.5t-4 -76.5t-14 -56.5h-604z" />
<glyph unicode="&#x2012;" horiz-adv-x="774" d="M72 440q0 70 10 141.5t33 125.5h561q10 -20 14 -56.5t4 -77.5t-4 -76.5t-14 -56.5h-604z" />
<glyph unicode="&#x2013;" horiz-adv-x="1024" d="M70 442q0 66 10 135.5t31 118.5h815q10 -16 15 -52t5 -75t-5 -74.5t-15 -52.5h-856z" />
<glyph unicode="&#x2014;" horiz-adv-x="2048" d="M70 442q0 66 10 135.5t31 118.5h1839q10 -16 15 -52t5 -75t-5 -74.5t-15 -52.5h-1880z" />
<glyph unicode="&#x2018;" horiz-adv-x="516" d="M94 952q10 139 48 275.5t85 234.5q102 57 275 58q-27 -63 -48.5 -134t-38 -143t-26.5 -143.5t-14 -134.5q-27 -16 -71 -23.5t-91 -7.5q-41 0 -72 4t-47 14z" />
<glyph unicode="&#x2019;" horiz-adv-x="516" d="M86 1004q41 100 66.5 219.5t31.5 236.5q53 27 122 41.5t161 14.5q-4 -82 -19.5 -168t-38 -167t-50 -152t-54.5 -120q-66 8 -126 34t-93 61z" />
<glyph unicode="&#x201a;" horiz-adv-x="514" d="M37 -254q41 100 66.5 222t31.5 239q53 27 124 41t163 14q-6 -82 -21.5 -169t-39 -169t-51 -152.5t-54.5 -119.5q-66 8 -126 33.5t-93 60.5z" />
<glyph unicode="&#x201c;" horiz-adv-x="952" d="M92 952q10 139 48 275.5t85 234.5q102 57 271 58q-25 -63 -46.5 -134t-38 -143t-26.5 -143.5t-14 -134.5q-27 -16 -71 -23.5t-89 -7.5q-41 0 -72 4t-47 14zM535 952q10 139 48 275.5t85 234.5q102 57 270 58q-25 -63 -46.5 -134t-37.5 -143t-26.5 -143.5t-14.5 -134.5 q-27 -16 -71 -23.5t-89 -7.5q-41 0 -71.5 4t-46.5 14z" />
<glyph unicode="&#x201d;" horiz-adv-x="952" d="M86 1004q41 100 66.5 219.5t31.5 236.5q53 27 121 41.5t158 14.5q-4 -82 -19.5 -168t-38 -167t-50 -152t-54.5 -120q-66 8 -124 34t-91 61zM526 1004q41 100 67 219.5t32 236.5q53 27 120.5 41.5t157.5 14.5q-4 -82 -19.5 -168t-38 -167t-50 -152t-54.5 -120 q-66 8 -124 34t-91 61z" />
<glyph unicode="&#x201e;" horiz-adv-x="954" d="M37 -254q41 100 66.5 222t31.5 239q53 27 123 41t160 14q-4 -80 -20.5 -167t-39 -169t-50 -153.5t-56.5 -120.5q-66 8 -124 33.5t-91 60.5zM481 -254q41 100 67 222t32 239q53 27 122.5 41t159.5 14q-4 -80 -20.5 -167t-39 -169t-50 -153.5t-56.5 -120.5q-66 8 -124 33.5 t-91 60.5z" />
<glyph unicode="&#x2022;" horiz-adv-x="948" d="M129 522q0 80 26.5 142.5t72.5 107.5t109.5 68.5t137.5 23.5q154 0 249 -88t95 -250q0 -174 -95 -265t-249 -91q-168 0 -257 89t-89 263z" />
<glyph unicode="&#x2026;" horiz-adv-x="1701" d="M106 145q0 82 50.5 129.5t128.5 47.5t127 -45.5t49 -129.5q0 -90 -49.5 -137t-126.5 -47q-86 0 -132.5 46t-46.5 136zM674 145q0 82 50 129.5t128 47.5t127 -45.5t49 -129.5q0 -90 -49 -137t-127 -47q-86 0 -132 46t-46 136zM1241 145q0 82 50 129.5t128 47.5t127 -45.5 t49 -129.5q0 -90 -49 -137t-127 -47q-86 0 -132 46t-46 136z" />
<glyph unicode="&#x202f;" horiz-adv-x="392" />
<glyph unicode="&#x2039;" horiz-adv-x="768" d="M121 532q47 115 99 213.5t116 202.5q53 29 140 43.5t179 14.5q-59 -111 -111.5 -223.5t-99.5 -223.5q41 -96 89.5 -198.5t101.5 -198.5q-47 -53 -108.5 -80t-137.5 -37q-78 117 -149.5 246t-118.5 241z" />
<glyph unicode="&#x203a;" horiz-adv-x="768" d="M127 936q53 35 121.5 54.5t138.5 19.5q78 -123 145.5 -248t114.5 -227q-51 -111 -122.5 -239t-145.5 -249q-78 6 -140.5 39t-99.5 80q106 186 180 366q-45 102 -92 204t-100 200z" />
<glyph unicode="&#x205f;" horiz-adv-x="491" />
<glyph unicode="&#x20ac;" d="M37 416q0 59 9 116.5t26 102.5h841q8 -16 12.5 -45t4.5 -64t-4 -64.5t-13 -45.5h-428q53 -106 147.5 -153.5t217.5 -47.5q86 0 166 18.5t139 40.5q2 -27 -4 -61.5t-16.5 -69t-25.5 -68.5t-34 -57q-59 -29 -142 -47t-181 -18q-236 0 -388.5 120t-209.5 343h-117zM37 776 q0 59 9 116.5t26 102.5h94q70 223 233.5 340t395.5 117q78 0 153.5 -13.5t126.5 -41.5q16 -25 28.5 -56.5t19.5 -67.5t9.5 -72t-2.5 -66q-66 31 -129 45t-141 14q-125 0 -221 -47t-150 -152h424q8 -16 12.5 -44.5t4.5 -63.5t-4 -64.5t-13 -46.5h-876z" />
<glyph unicode="&#x2122;" horiz-adv-x="1912" d="M63 1366q0 61 15 90h657q14 -29 15 -90q0 -61 -15 -90h-225v-479q-14 -8 -37.5 -12.5t-64.5 -4.5q-43 0 -66 4t-37 13v479h-227q-14 29 -15 90zM834 797v645q18 8 57 14t110 6q72 0 112 -6t58 -14l99 -314q10 -35 19 -84t16 -100h16q4 49 13 100.5t20 81.5l98 316 q18 8 56 14t110 6t109.5 -6t56.5 -14v-645q-14 -8 -36 -12.5t-62 -4.5q-41 0 -61.5 4t-35.5 13v508h-16q-4 -43 -15.5 -99.5t-21.5 -91.5l-102 -319q-14 -6 -43 -11.5t-82 -5.5t-82 5t-43 12l-109 323q-6 16 -10 40t-8 49.5t-7 51t-6 46.5h-16v-508q-14 -8 -35.5 -12.5 t-62.5 -4.5t-61.5 4t-34.5 13z" />
</font>
</defs>
</svg>
